G04 #@! TF.GenerationSoftware,KiCad,Pcbnew,9.0.7-9-ga3ce409f20*
G04 #@! TF.CreationDate,2026-03-03T19:35:03+08:00*
G04 #@! TF.ProjectId,SuperCap_Power,53757065-7243-4617-905f-506f7765722e,rev?*
G04 #@! TF.SameCoordinates,Original*
G04 #@! TF.FileFunction,Paste,Top*
G04 #@! TF.FilePolarity,Positive*
%FSLAX46Y46*%
G04 Gerber Fmt 4.6, Leading zero omitted, Abs format (unit mm)*
G04 Created by KiCad (PCBNEW 9.0.7-9-ga3ce409f20) date 2026-03-03 19:35:03*
%MOMM*%
%LPD*%
G01*
G04 APERTURE LIST*
G04 Aperture macros list*
%AMRoundRect*
0 Rectangle with rounded corners*
0 $1 Rounding radius*
0 $2 $3 $4 $5 $6 $7 $8 $9 X,Y pos of 4 corners*
0 Add a 4 corners polygon primitive as box body*
4,1,4,$2,$3,$4,$5,$6,$7,$8,$9,$2,$3,0*
0 Add four circle primitives for the rounded corners*
1,1,$1+$1,$2,$3*
1,1,$1+$1,$4,$5*
1,1,$1+$1,$6,$7*
1,1,$1+$1,$8,$9*
0 Add four rect primitives between the rounded corners*
20,1,$1+$1,$2,$3,$4,$5,0*
20,1,$1+$1,$4,$5,$6,$7,0*
20,1,$1+$1,$6,$7,$8,$9,0*
20,1,$1+$1,$8,$9,$2,$3,0*%
G04 Aperture macros list end*
%ADD10RoundRect,0.585000X2.565000X1.365000X-2.565000X1.365000X-2.565000X-1.365000X2.565000X-1.365000X0*%
%ADD11RoundRect,0.470000X2.680000X1.880000X-2.680000X1.880000X-2.680000X-1.880000X2.680000X-1.880000X0*%
%ADD12RoundRect,0.250000X1.450000X-0.250000X1.450000X0.250000X-1.450000X0.250000X-1.450000X-0.250000X0*%
%ADD13RoundRect,0.100000X0.100000X-0.637500X0.100000X0.637500X-0.100000X0.637500X-0.100000X-0.637500X0*%
%ADD14RoundRect,0.250000X0.325000X0.650000X-0.325000X0.650000X-0.325000X-0.650000X0.325000X-0.650000X0*%
%ADD15RoundRect,0.375000X0.375000X-0.375000X0.375000X0.375000X-0.375000X0.375000X-0.375000X-0.375000X0*%
%ADD16RoundRect,0.125000X0.125000X-0.250000X0.125000X0.250000X-0.125000X0.250000X-0.125000X-0.250000X0*%
%ADD17RoundRect,0.100000X0.100000X-0.275000X0.100000X0.275000X-0.100000X0.275000X-0.100000X-0.275000X0*%
%ADD18RoundRect,0.250000X0.250000X1.450000X-0.250000X1.450000X-0.250000X-1.450000X0.250000X-1.450000X0*%
%ADD19RoundRect,0.375000X-0.375000X0.375000X-0.375000X-0.375000X0.375000X-0.375000X0.375000X0.375000X0*%
%ADD20RoundRect,0.125000X-0.125000X0.250000X-0.125000X-0.250000X0.125000X-0.250000X0.125000X0.250000X0*%
%ADD21RoundRect,0.100000X-0.100000X0.275000X-0.100000X-0.275000X0.100000X-0.275000X0.100000X0.275000X0*%
%ADD22RoundRect,0.600000X2.650000X2.400000X-2.650000X2.400000X-2.650000X-2.400000X2.650000X-2.400000X0*%
%ADD23RoundRect,0.250000X-0.650000X0.325000X-0.650000X-0.325000X0.650000X-0.325000X0.650000X0.325000X0*%
%ADD24RoundRect,0.250000X-0.250000X-1.450000X0.250000X-1.450000X0.250000X1.450000X-0.250000X1.450000X0*%
%ADD25RoundRect,0.250000X-0.325000X-0.650000X0.325000X-0.650000X0.325000X0.650000X-0.325000X0.650000X0*%
%ADD26RoundRect,0.100000X-0.100000X0.637500X-0.100000X-0.637500X0.100000X-0.637500X0.100000X0.637500X0*%
%ADD27RoundRect,0.250000X0.650000X-0.325000X0.650000X0.325000X-0.650000X0.325000X-0.650000X-0.325000X0*%
%ADD28RoundRect,0.249999X-1.450001X-2.250001X1.450001X-2.250001X1.450001X2.250001X-1.450001X2.250001X0*%
%ADD29RoundRect,0.237500X-0.237500X0.300000X-0.237500X-0.300000X0.237500X-0.300000X0.237500X0.300000X0*%
%ADD30RoundRect,0.237500X0.237500X-0.300000X0.237500X0.300000X-0.237500X0.300000X-0.237500X-0.300000X0*%
%ADD31RoundRect,0.100000X-0.637500X-0.100000X0.637500X-0.100000X0.637500X0.100000X-0.637500X0.100000X0*%
%ADD32RoundRect,0.237500X-0.300000X-0.237500X0.300000X-0.237500X0.300000X0.237500X-0.300000X0.237500X0*%
G04 APERTURE END LIST*
D10*
G04 #@! TO.C,J2*
X-750000Y-23490000D03*
X-750000Y-27740000D03*
D11*
X-750000Y-17690000D03*
G04 #@! TD*
D12*
G04 #@! TO.C,R6*
X4110000Y-24980000D03*
X4110000Y-26480000D03*
G04 #@! TD*
D13*
G04 #@! TO.C,U4*
X3340000Y-19012500D03*
X3990000Y-19012500D03*
X4640000Y-19012500D03*
X5290000Y-19012500D03*
X5290000Y-13287500D03*
X4640000Y-13287500D03*
X3990000Y-13287500D03*
X3340000Y-13287500D03*
G04 #@! TD*
D14*
G04 #@! TO.C,C27*
X42975000Y-15600000D03*
X40025000Y-15600000D03*
G04 #@! TD*
D15*
G04 #@! TO.C,Q5*
X11970000Y-33940000D03*
X13670000Y-33940000D03*
X11970000Y-32240000D03*
X13670000Y-32240000D03*
D16*
X10915000Y-30835000D03*
X12185000Y-30835000D03*
X13455000Y-30835000D03*
X14725000Y-30835000D03*
D17*
X10915000Y-36640000D03*
X12185000Y-36640000D03*
X13455000Y-36640000D03*
X14725000Y-36640000D03*
G04 #@! TD*
D18*
G04 #@! TO.C,R21*
X18185000Y-37320000D03*
X16685000Y-37320000D03*
G04 #@! TD*
D19*
G04 #@! TO.C,Q1*
X13670000Y-11020000D03*
X11970000Y-11020000D03*
X13670000Y-12720000D03*
X11970000Y-12720000D03*
D20*
X14725000Y-14125000D03*
X13455000Y-14125000D03*
X12185000Y-14125000D03*
X10915000Y-14125000D03*
D21*
X14725000Y-8320000D03*
X13455000Y-8320000D03*
X12185000Y-8320000D03*
X10915000Y-8320000D03*
G04 #@! TD*
D14*
G04 #@! TO.C,C31*
X42975000Y-32000000D03*
X40025000Y-32000000D03*
G04 #@! TD*
D22*
G04 #@! TO.C,J3*
X41100000Y-22500000D03*
G04 #@! TD*
D23*
G04 #@! TO.C,C28*
X8830000Y-6260000D03*
X8830000Y-9210000D03*
G04 #@! TD*
D15*
G04 #@! TO.C,Q12*
X34010000Y-41100000D03*
X35710000Y-41100000D03*
X34010000Y-39400000D03*
X35710000Y-39400000D03*
D16*
X32955000Y-37995000D03*
X34225000Y-37995000D03*
X35495000Y-37995000D03*
X36765000Y-37995000D03*
D17*
X32955000Y-43800000D03*
X34225000Y-43800000D03*
X35495000Y-43800000D03*
X36765000Y-43800000D03*
G04 #@! TD*
D24*
G04 #@! TO.C,R19*
X16685000Y-7640000D03*
X18185000Y-7640000D03*
G04 #@! TD*
D15*
G04 #@! TO.C,Q9*
X34010000Y-19100000D03*
X35710000Y-19100000D03*
X34010000Y-17400000D03*
X35710000Y-17400000D03*
D16*
X32955000Y-15995000D03*
X34225000Y-15995000D03*
X35495000Y-15995000D03*
X36765000Y-15995000D03*
D17*
X32955000Y-21800000D03*
X34225000Y-21800000D03*
X35495000Y-21800000D03*
X36765000Y-21800000D03*
G04 #@! TD*
D14*
G04 #@! TO.C,C29*
X42975000Y-29500000D03*
X40025000Y-29500000D03*
G04 #@! TD*
D24*
G04 #@! TO.C,R1*
X5310000Y-22280000D03*
X6810000Y-22280000D03*
G04 #@! TD*
D25*
G04 #@! TO.C,C30*
X3905000Y-33800000D03*
X6855000Y-33800000D03*
G04 #@! TD*
D19*
G04 #@! TO.C,Q3*
X13670000Y-25860000D03*
X11970000Y-25860000D03*
X13670000Y-27560000D03*
X11970000Y-27560000D03*
D20*
X14725000Y-28965000D03*
X13455000Y-28965000D03*
X12185000Y-28965000D03*
X10915000Y-28965000D03*
D21*
X14725000Y-23160000D03*
X13455000Y-23160000D03*
X12185000Y-23160000D03*
X10915000Y-23160000D03*
G04 #@! TD*
D26*
G04 #@! TO.C,U7*
X18385000Y-10577500D03*
X17735000Y-10577500D03*
X17085000Y-10577500D03*
X16435000Y-10577500D03*
X16435000Y-16302500D03*
X17085000Y-16302500D03*
X17735000Y-16302500D03*
X18385000Y-16302500D03*
G04 #@! TD*
D24*
G04 #@! TO.C,R20*
X16685000Y-22480000D03*
X18185000Y-22480000D03*
G04 #@! TD*
D27*
G04 #@! TO.C,C26*
X8830000Y-36475000D03*
X8830000Y-33525000D03*
G04 #@! TD*
D19*
G04 #@! TO.C,Q8*
X35710000Y-3860000D03*
X34010000Y-3860000D03*
X35710000Y-5560000D03*
X34010000Y-5560000D03*
D20*
X36765000Y-6965000D03*
X35495000Y-6965000D03*
X34225000Y-6965000D03*
X32955000Y-6965000D03*
D21*
X36765000Y-1160000D03*
X35495000Y-1160000D03*
X34225000Y-1160000D03*
X32955000Y-1160000D03*
G04 #@! TD*
D19*
G04 #@! TO.C,Q2*
X13670000Y-3860000D03*
X11970000Y-3860000D03*
X13670000Y-5560000D03*
X11970000Y-5560000D03*
D20*
X14725000Y-6965000D03*
X13455000Y-6965000D03*
X12185000Y-6965000D03*
X10915000Y-6965000D03*
D21*
X14725000Y-1160000D03*
X13455000Y-1160000D03*
X12185000Y-1160000D03*
X10915000Y-1160000D03*
G04 #@! TD*
D25*
G04 #@! TO.C,C32*
X3905000Y-31480000D03*
X6855000Y-31480000D03*
G04 #@! TD*
D28*
G04 #@! TO.C,L3*
X21160000Y-7640000D03*
X30060000Y-7640000D03*
G04 #@! TD*
D29*
G04 #@! TO.C,C3*
X29060000Y-29037500D03*
X29060000Y-30762500D03*
G04 #@! TD*
D26*
G04 #@! TO.C,U5*
X18385000Y-25430000D03*
X17735000Y-25430000D03*
X17085000Y-25430000D03*
X16435000Y-25430000D03*
X16435000Y-31155000D03*
X17085000Y-31155000D03*
X17735000Y-31155000D03*
X18385000Y-31155000D03*
G04 #@! TD*
D30*
G04 #@! TO.C,C9*
X19890000Y-30762500D03*
X19890000Y-29037500D03*
G04 #@! TD*
D19*
G04 #@! TO.C,Q4*
X13670000Y-18700000D03*
X11970000Y-18700000D03*
X13670000Y-20400000D03*
X11970000Y-20400000D03*
D20*
X14725000Y-21805000D03*
X13455000Y-21805000D03*
X12185000Y-21805000D03*
X10915000Y-21805000D03*
D21*
X14725000Y-16000000D03*
X13455000Y-16000000D03*
X12185000Y-16000000D03*
X10915000Y-16000000D03*
G04 #@! TD*
D14*
G04 #@! TO.C,C25*
X42975000Y-13300000D03*
X40025000Y-13300000D03*
G04 #@! TD*
D15*
G04 #@! TO.C,Q11*
X34010000Y-33940000D03*
X35710000Y-33940000D03*
X34010000Y-32240000D03*
X35710000Y-32240000D03*
D16*
X32955000Y-30835000D03*
X34225000Y-30835000D03*
X35495000Y-30835000D03*
X36765000Y-30835000D03*
D17*
X32955000Y-36640000D03*
X34225000Y-36640000D03*
X35495000Y-36640000D03*
X36765000Y-36640000D03*
G04 #@! TD*
D28*
G04 #@! TO.C,L4*
X21160000Y-22480000D03*
X30060000Y-22480000D03*
G04 #@! TD*
D31*
G04 #@! TO.C,U3*
X21610000Y-28950000D03*
X21610000Y-29600000D03*
X21610000Y-30250000D03*
X21610000Y-30900000D03*
X27335000Y-30900000D03*
X27335000Y-30250000D03*
X27335000Y-29600000D03*
X27335000Y-28950000D03*
G04 #@! TD*
D32*
G04 #@! TO.C,C4*
X1050000Y-9340000D03*
X2775000Y-9340000D03*
G04 #@! TD*
D15*
G04 #@! TO.C,Q6*
X11970000Y-41100000D03*
X13670000Y-41100000D03*
X11970000Y-39400000D03*
X13670000Y-39400000D03*
D16*
X10915000Y-37995000D03*
X12185000Y-37995000D03*
X13455000Y-37995000D03*
X14725000Y-37995000D03*
D17*
X10915000Y-43800000D03*
X12185000Y-43800000D03*
X13455000Y-43800000D03*
X14725000Y-43800000D03*
G04 #@! TD*
D15*
G04 #@! TO.C,Q10*
X34010000Y-26260000D03*
X35710000Y-26260000D03*
X34010000Y-24560000D03*
X35710000Y-24560000D03*
D16*
X32955000Y-23155000D03*
X34225000Y-23155000D03*
X35495000Y-23155000D03*
X36765000Y-23155000D03*
D17*
X32955000Y-28960000D03*
X34225000Y-28960000D03*
X35495000Y-28960000D03*
X36765000Y-28960000D03*
G04 #@! TD*
D28*
G04 #@! TO.C,L5*
X21160000Y-37320000D03*
X30060000Y-37320000D03*
G04 #@! TD*
D30*
G04 #@! TO.C,C11*
X19890000Y-15922500D03*
X19890000Y-14197500D03*
G04 #@! TD*
D19*
G04 #@! TO.C,Q7*
X35710000Y-11020000D03*
X34010000Y-11020000D03*
X35710000Y-12720000D03*
X34010000Y-12720000D03*
D20*
X36765000Y-14125000D03*
X35495000Y-14125000D03*
X34225000Y-14125000D03*
X32955000Y-14125000D03*
D21*
X36765000Y-8320000D03*
X35495000Y-8320000D03*
X34225000Y-8320000D03*
X32955000Y-8320000D03*
G04 #@! TD*
M02*
