M48
; DRILL file {KiCad 9.0.7-9-ga3ce409f20} date 2026-03-03T19:35:03+0800
; FORMAT={-:-/ absolute / metric / decimal}
; #@! TF.CreationDate,2026-03-03T19:35:03+08:00
; #@! TF.GenerationSoftware,Kicad,Pcbnew,9.0.7-9-ga3ce409f20
; #@! TF.FileFunction,Plated,1,4,PTH
FMAT,2
METRIC
; #@! TA.AperFunction,Plated,PTH,ViaDrill
T1C0.300
; #@! TA.AperFunction,Plated,PTH,ComponentDrill
T2C0.800
%
G90
G05
T1
X-3.511Y-20.6
X-2.811Y-20.595
X-2.0Y-17.0
X-2.0Y-18.0
X-2.0Y-19.0
X-1.0Y-17.0
X-1.0Y-18.0
X-1.0Y-19.0
X-0.88Y-20.83
X-0.35Y-23.5
X0.0Y-17.0
X0.0Y-18.0
X0.0Y-19.0
X0.468Y-23.559
X1.168Y-23.559
X1.74Y-13.56
X1.74Y-14.32
X1.8Y-25.2
X1.8Y-26.0
X1.802Y-31.61
X1.803Y-30.53
X1.868Y-23.56
X2.19Y-16.1
X2.3Y-34.346
X2.3Y-35.2
X2.301Y-33.353
X2.37Y-12.93
X2.5Y-18.0
X2.6Y-8.2
X2.6Y-9.3
X3.0Y-36.5
X3.0Y-37.5
X3.2Y-15.7
X3.6Y-7.3
X3.6Y-8.2
X3.95Y-14.7
X4.0Y-35.5
X4.0Y-36.5
X4.0Y-37.5
X4.55Y-27.899
X4.6Y-8.2
X4.941Y-30.579
X5.0Y-36.5
X5.0Y-37.5
X5.4Y-28.9
X5.5Y-19.0
X5.525Y-32.975
X5.6Y-34.0
X5.7Y-31.6
X6.8Y-30.998
X7.5Y-36.5
X7.5Y-37.5
X7.5Y-38.5
X7.5Y-39.5
X7.5Y-40.5
X8.5Y-36.5
X8.5Y-37.5
X8.5Y-38.5
X8.5Y-39.5
X8.5Y-40.5
X9.5Y-36.5
X9.64Y-3.47
X9.64Y-4.14
X9.65Y-4.8
X9.8Y-41.9
X9.8Y-42.7
X10.915Y-1.16
X10.915Y-8.32
X10.915Y-16.0
X10.915Y-23.16
X11.485Y-38.23
X12.28Y-38.23
X13.455Y-16.0
X13.455Y-43.8
X13.46Y-1.16
X13.47Y-2.2
X14.05Y-15.12
X14.06Y-16.89
X14.1Y-1.7
X14.725Y-1.16
X14.725Y-36.64
X14.725Y-43.8
X14.74Y-2.21
X15.0Y-16.0
X15.3Y-15.13
X15.49Y-0.8
X15.61Y-21.485
X15.62Y-6.685
X15.7Y-35.3
X15.8Y-26.2
X15.8Y-27.2
X15.8Y-28.2
X16.4Y-1.8
X16.41Y-6.685
X16.41Y-21.485
X16.8Y-27.2
X16.8Y-28.2
X17.0Y-1.8
X17.0Y-2.4
X17.085Y-32.307
X17.244Y-14.932
X17.8Y-27.2
X18.0Y-1.0
X18.0Y-2.0
X18.004Y-17.517
X18.2Y-14.9
X18.3Y-40.5
X18.3Y-41.5
X18.435Y-30.824
X18.9Y-14.9
X19.0Y-1.0
X19.0Y-2.0
X19.0Y-3.0
X19.3Y-40.5
X19.3Y-41.5
X20.0Y-1.0
X20.0Y-2.0
X20.0Y-3.0
X20.0Y-27.5
X20.0Y-28.26
X20.3Y-40.5
X20.5Y-27.0
X20.8Y-14.818
X21.0Y-27.5
X21.0Y-28.15
X21.25Y-15.59
X21.6Y-10.8
X21.6Y-11.785
X21.9Y-15.0
X22.2Y-11.3
X23.02Y-10.74
X23.02Y-11.74
X23.13Y-17.8
X23.13Y-18.8
X23.91Y-24.022
X24.02Y-10.74
X24.02Y-11.74
X24.13Y-17.8
X24.13Y-18.8
X24.13Y-19.8
X24.13Y-20.8
X24.13Y-21.8
X24.36Y-26.8
X24.88Y-7.48
X24.88Y-8.48
X24.881Y-30.881
X25.02Y-11.74
X25.13Y-17.8
X25.13Y-18.8
X25.13Y-19.8
X25.13Y-20.8
X25.13Y-21.8
X25.13Y-26.03
X25.13Y-26.8
X25.62Y-6.02
X25.63Y-15.09
X25.88Y-7.48
X25.88Y-8.48
X25.88Y-9.48
X26.0Y-21.0
X26.453Y-30.25
X26.5Y-11.44
X26.5Y-32.9
X26.5Y-33.9
X26.571Y-15.111
X26.58Y-26.95
X26.7Y-21.0
X26.7Y-21.7
X26.88Y-7.48
X26.88Y-8.48
X26.88Y-9.48
X27.01Y-6.02
X27.5Y-32.9
X27.5Y-33.9
X27.5Y-37.5
X27.5Y-38.5
X27.54Y-10.4
X27.54Y-11.44
X27.87Y-28.9
X28.5Y-32.9
X28.72Y-18.08
X28.844Y-15.1
X28.844Y-16.1
X29.09Y-30.79
X29.1Y-30.14
X29.341Y-15.57
X29.67Y-11.79
X29.68Y-17.63
X29.68Y-18.52
X29.844Y-15.1
X29.844Y-16.1
X29.9Y-32.9
X30.475Y-43.245
X30.48Y-23.5
X30.55Y-38.35
X30.67Y-17.62
X30.897Y-32.9
X30.897Y-33.597
X30.92Y-43.69
X31.15Y-43.15
X31.335Y-23.5
X31.335Y-38.35
X32.5Y-43.0
X32.955Y-1.16
X32.955Y-8.32
X32.955Y-28.96
X32.955Y-43.8
X32.96Y-28.0
X34.0Y-2.0
X34.0Y-43.0
X34.22Y-28.0
X34.225Y-1.16
X34.225Y-28.96
X34.225Y-43.8
X34.74Y-29.83
X35.0Y-2.0
X35.495Y-1.16
X36.0Y-6.685
X36.1Y-29.83
X36.7Y-2.2
X36.765Y-21.8
X36.765Y-28.96
X36.765Y-36.64
X36.765Y-43.8
X36.802Y-6.685
X37.2Y-9.34
X37.5Y-2.2
X37.93Y-40.54
X37.94Y-41.42
X37.94Y-42.22
X38.0Y-43.8
X38.5Y-1.5
X38.5Y-2.5
X39.5Y-9.5
X40.025Y-15.6
X40.025Y-16.207
X40.49Y-16.672
X40.5Y-7.5
X40.5Y-8.5
X40.5Y-9.5
X41.0Y-16.0
X41.5Y-7.5
X41.5Y-8.5
X41.5Y-9.5
X42.0Y-15.0
X42.0Y-16.0
X42.0Y-17.0
X42.0Y-18.0
X42.0Y-19.0
X42.0Y-26.0
X42.0Y-27.0
X42.5Y-7.5
X42.5Y-8.5
X42.5Y-9.5
X43.0Y-15.0
X43.0Y-16.0
X43.0Y-17.0
X43.0Y-18.0
X43.0Y-19.0
X43.0Y-26.0
X43.0Y-27.0
X44.0Y-18.0
X44.0Y-19.0
X44.0Y-26.0
X44.0Y-27.0
T2
X2.73Y-11.29
X7.73Y-11.29
X39.5Y-34.25
X43.0Y-34.25
M30
