%TF.GenerationSoftware,KiCad,Pcbnew,9.0.7-9-ga3ce409f20*%
%TF.CreationDate,2026-03-03T19:35:03+08:00*%
%TF.ProjectId,SuperCap_Power,53757065-7243-4617-905f-506f7765722e,rev?*%
%TF.SameCoordinates,Original*%
%TF.FileFunction,Drillmap*%
%TF.FilePolarity,Positive*%
%FSLAX45Y45*%
G04 Gerber Fmt 4.5, Leading zero omitted, Abs format (unit mm)*
G04 Created by KiCad (PCBNEW 9.0.7-9-ga3ce409f20) date 2026-03-03 19:35:03*
%MOMM*%
%LPD*%
G01*
G04 APERTURE LIST*
%ADD10C,0.050000*%
%ADD11C,0.200000*%
%ADD12C,0.320000*%
G04 APERTURE END LIST*
D10*
X0Y-3170000D02*
X0Y-4155000D01*
X-370000Y-3020000D02*
G75*
G02*
X-450000Y-2940000I0J80000D01*
G01*
X-150000Y-3020000D02*
G75*
G02*
X0Y-3170000I0J-150000D01*
G01*
X345000Y-4500000D02*
G75*
G02*
X0Y-4155000I0J345000D01*
G01*
X0Y-345000D02*
G75*
G02*
X345000Y0I345000J0D01*
G01*
X345000Y-4500000D02*
X4155000Y-4500000D01*
X-450000Y-1560000D02*
X-450000Y-2940000D01*
X4155000Y0D02*
G75*
G02*
X4500000Y-345000I0J-345000D01*
G01*
X-450000Y-1560000D02*
G75*
G02*
X-370000Y-1480000I80000J0D01*
G01*
X-150000Y-1480000D02*
X-370000Y-1480000D01*
X0Y-1330000D02*
G75*
G02*
X-150000Y-1480000I-150000J0D01*
G01*
X0Y-345000D02*
X0Y-1330000D01*
X-370000Y-3020000D02*
X-150000Y-3020000D01*
X4500000Y-4155000D02*
X4500000Y-345000D01*
X4155000Y0D02*
X345000Y0D01*
X4500000Y-4155000D02*
G75*
G02*
X4155000Y-4500000I-345000J0D01*
G01*
D11*
D12*
X190000Y-190000D02*
X510000Y-510000D01*
X510000Y-190000D02*
X190000Y-510000D01*
X190000Y-3990000D02*
X510000Y-4310000D01*
X510000Y-3990000D02*
X190000Y-4310000D01*
X3990000Y-190000D02*
X4310000Y-510000D01*
X4310000Y-190000D02*
X3990000Y-510000D01*
X3990000Y-3990000D02*
X4310000Y-4310000D01*
X4310000Y-3990000D02*
X3990000Y-4310000D01*
D11*
X-191723Y-4813984D02*
X-191723Y-4613984D01*
X-191723Y-4613984D02*
X-144104Y-4613984D01*
X-144104Y-4613984D02*
X-115533Y-4623508D01*
X-115533Y-4623508D02*
X-96485Y-4642555D01*
X-96485Y-4642555D02*
X-86961Y-4661603D01*
X-86961Y-4661603D02*
X-77438Y-4699698D01*
X-77438Y-4699698D02*
X-77438Y-4728270D01*
X-77438Y-4728270D02*
X-86961Y-4766365D01*
X-86961Y-4766365D02*
X-96485Y-4785412D01*
X-96485Y-4785412D02*
X-115533Y-4804460D01*
X-115533Y-4804460D02*
X-144104Y-4813984D01*
X-144104Y-4813984D02*
X-191723Y-4813984D01*
X8277Y-4813984D02*
X8277Y-4680650D01*
X8277Y-4718746D02*
X17801Y-4699698D01*
X17801Y-4699698D02*
X27324Y-4690174D01*
X27324Y-4690174D02*
X46372Y-4680650D01*
X46372Y-4680650D02*
X65420Y-4680650D01*
X132086Y-4813984D02*
X132086Y-4680650D01*
X132086Y-4613984D02*
X122562Y-4623508D01*
X122562Y-4623508D02*
X132086Y-4633031D01*
X132086Y-4633031D02*
X141610Y-4623508D01*
X141610Y-4623508D02*
X132086Y-4613984D01*
X132086Y-4613984D02*
X132086Y-4633031D01*
X255896Y-4813984D02*
X236848Y-4804460D01*
X236848Y-4804460D02*
X227324Y-4785412D01*
X227324Y-4785412D02*
X227324Y-4613984D01*
X360658Y-4813984D02*
X341610Y-4804460D01*
X341610Y-4804460D02*
X332086Y-4785412D01*
X332086Y-4785412D02*
X332086Y-4613984D01*
X589229Y-4813984D02*
X589229Y-4613984D01*
X589229Y-4613984D02*
X655896Y-4756841D01*
X655896Y-4756841D02*
X722562Y-4613984D01*
X722562Y-4613984D02*
X722562Y-4813984D01*
X903515Y-4813984D02*
X903515Y-4709222D01*
X903515Y-4709222D02*
X893991Y-4690174D01*
X893991Y-4690174D02*
X874943Y-4680650D01*
X874943Y-4680650D02*
X836848Y-4680650D01*
X836848Y-4680650D02*
X817801Y-4690174D01*
X903515Y-4804460D02*
X884467Y-4813984D01*
X884467Y-4813984D02*
X836848Y-4813984D01*
X836848Y-4813984D02*
X817801Y-4804460D01*
X817801Y-4804460D02*
X808277Y-4785412D01*
X808277Y-4785412D02*
X808277Y-4766365D01*
X808277Y-4766365D02*
X817801Y-4747317D01*
X817801Y-4747317D02*
X836848Y-4737793D01*
X836848Y-4737793D02*
X884467Y-4737793D01*
X884467Y-4737793D02*
X903515Y-4728270D01*
X998753Y-4680650D02*
X998753Y-4880650D01*
X998753Y-4690174D02*
X1017801Y-4680650D01*
X1017801Y-4680650D02*
X1055896Y-4680650D01*
X1055896Y-4680650D02*
X1074944Y-4690174D01*
X1074944Y-4690174D02*
X1084467Y-4699698D01*
X1084467Y-4699698D02*
X1093991Y-4718746D01*
X1093991Y-4718746D02*
X1093991Y-4775889D01*
X1093991Y-4775889D02*
X1084467Y-4794936D01*
X1084467Y-4794936D02*
X1074944Y-4804460D01*
X1074944Y-4804460D02*
X1055896Y-4813984D01*
X1055896Y-4813984D02*
X1017801Y-4813984D01*
X1017801Y-4813984D02*
X998753Y-4804460D01*
X1179705Y-4794936D02*
X1189229Y-4804460D01*
X1189229Y-4804460D02*
X1179705Y-4813984D01*
X1179705Y-4813984D02*
X1170182Y-4804460D01*
X1170182Y-4804460D02*
X1179705Y-4794936D01*
X1179705Y-4794936D02*
X1179705Y-4813984D01*
X1179705Y-4690174D02*
X1189229Y-4699698D01*
X1189229Y-4699698D02*
X1179705Y-4709222D01*
X1179705Y-4709222D02*
X1170182Y-4699698D01*
X1170182Y-4699698D02*
X1179705Y-4690174D01*
X1179705Y-4690174D02*
X1179705Y-4709222D01*
X-652500Y-5042500D02*
X-452500Y-5242500D01*
X-452500Y-5042500D02*
X-652500Y-5242500D01*
X-210771Y-5033984D02*
X-86961Y-5033984D01*
X-86961Y-5033984D02*
X-153628Y-5110174D01*
X-153628Y-5110174D02*
X-125056Y-5110174D01*
X-125056Y-5110174D02*
X-106009Y-5119698D01*
X-106009Y-5119698D02*
X-96485Y-5129222D01*
X-96485Y-5129222D02*
X-86961Y-5148270D01*
X-86961Y-5148270D02*
X-86961Y-5195889D01*
X-86961Y-5195889D02*
X-96485Y-5214936D01*
X-96485Y-5214936D02*
X-106009Y-5224460D01*
X-106009Y-5224460D02*
X-125056Y-5233984D01*
X-125056Y-5233984D02*
X-182199Y-5233984D01*
X-182199Y-5233984D02*
X-201247Y-5224460D01*
X-201247Y-5224460D02*
X-210771Y-5214936D01*
X-1247Y-5214936D02*
X8277Y-5224460D01*
X8277Y-5224460D02*
X-1247Y-5233984D01*
X-1247Y-5233984D02*
X-10771Y-5224460D01*
X-10771Y-5224460D02*
X-1247Y-5214936D01*
X-1247Y-5214936D02*
X-1247Y-5233984D01*
X84467Y-5053031D02*
X93991Y-5043508D01*
X93991Y-5043508D02*
X113039Y-5033984D01*
X113039Y-5033984D02*
X160658Y-5033984D01*
X160658Y-5033984D02*
X179705Y-5043508D01*
X179705Y-5043508D02*
X189229Y-5053031D01*
X189229Y-5053031D02*
X198753Y-5072079D01*
X198753Y-5072079D02*
X198753Y-5091127D01*
X198753Y-5091127D02*
X189229Y-5119698D01*
X189229Y-5119698D02*
X74944Y-5233984D01*
X74944Y-5233984D02*
X198753Y-5233984D01*
X322563Y-5033984D02*
X341610Y-5033984D01*
X341610Y-5033984D02*
X360658Y-5043508D01*
X360658Y-5043508D02*
X370182Y-5053031D01*
X370182Y-5053031D02*
X379705Y-5072079D01*
X379705Y-5072079D02*
X389229Y-5110174D01*
X389229Y-5110174D02*
X389229Y-5157793D01*
X389229Y-5157793D02*
X379705Y-5195889D01*
X379705Y-5195889D02*
X370182Y-5214936D01*
X370182Y-5214936D02*
X360658Y-5224460D01*
X360658Y-5224460D02*
X341610Y-5233984D01*
X341610Y-5233984D02*
X322563Y-5233984D01*
X322563Y-5233984D02*
X303515Y-5224460D01*
X303515Y-5224460D02*
X293991Y-5214936D01*
X293991Y-5214936D02*
X284467Y-5195889D01*
X284467Y-5195889D02*
X274944Y-5157793D01*
X274944Y-5157793D02*
X274944Y-5110174D01*
X274944Y-5110174D02*
X284467Y-5072079D01*
X284467Y-5072079D02*
X293991Y-5053031D01*
X293991Y-5053031D02*
X303515Y-5043508D01*
X303515Y-5043508D02*
X322563Y-5033984D01*
X513039Y-5033984D02*
X532086Y-5033984D01*
X532086Y-5033984D02*
X551134Y-5043508D01*
X551134Y-5043508D02*
X560658Y-5053031D01*
X560658Y-5053031D02*
X570182Y-5072079D01*
X570182Y-5072079D02*
X579705Y-5110174D01*
X579705Y-5110174D02*
X579705Y-5157793D01*
X579705Y-5157793D02*
X570182Y-5195889D01*
X570182Y-5195889D02*
X560658Y-5214936D01*
X560658Y-5214936D02*
X551134Y-5224460D01*
X551134Y-5224460D02*
X532086Y-5233984D01*
X532086Y-5233984D02*
X513039Y-5233984D01*
X513039Y-5233984D02*
X493991Y-5224460D01*
X493991Y-5224460D02*
X484467Y-5214936D01*
X484467Y-5214936D02*
X474943Y-5195889D01*
X474943Y-5195889D02*
X465420Y-5157793D01*
X465420Y-5157793D02*
X465420Y-5110174D01*
X465420Y-5110174D02*
X474943Y-5072079D01*
X474943Y-5072079D02*
X484467Y-5053031D01*
X484467Y-5053031D02*
X493991Y-5043508D01*
X493991Y-5043508D02*
X513039Y-5033984D01*
X665420Y-5233984D02*
X665420Y-5100650D01*
X665420Y-5119698D02*
X674944Y-5110174D01*
X674944Y-5110174D02*
X693991Y-5100650D01*
X693991Y-5100650D02*
X722563Y-5100650D01*
X722563Y-5100650D02*
X741610Y-5110174D01*
X741610Y-5110174D02*
X751134Y-5129222D01*
X751134Y-5129222D02*
X751134Y-5233984D01*
X751134Y-5129222D02*
X760658Y-5110174D01*
X760658Y-5110174D02*
X779705Y-5100650D01*
X779705Y-5100650D02*
X808277Y-5100650D01*
X808277Y-5100650D02*
X827324Y-5110174D01*
X827324Y-5110174D02*
X836848Y-5129222D01*
X836848Y-5129222D02*
X836848Y-5233984D01*
X932086Y-5233984D02*
X932086Y-5100650D01*
X932086Y-5119698D02*
X941610Y-5110174D01*
X941610Y-5110174D02*
X960658Y-5100650D01*
X960658Y-5100650D02*
X989229Y-5100650D01*
X989229Y-5100650D02*
X1008277Y-5110174D01*
X1008277Y-5110174D02*
X1017801Y-5129222D01*
X1017801Y-5129222D02*
X1017801Y-5233984D01*
X1017801Y-5129222D02*
X1027324Y-5110174D01*
X1027324Y-5110174D02*
X1046372Y-5100650D01*
X1046372Y-5100650D02*
X1074944Y-5100650D01*
X1074944Y-5100650D02*
X1093991Y-5110174D01*
X1093991Y-5110174D02*
X1103515Y-5129222D01*
X1103515Y-5129222D02*
X1103515Y-5233984D01*
X1493991Y-5024460D02*
X1322563Y-5281603D01*
X1751134Y-5033984D02*
X1770182Y-5033984D01*
X1770182Y-5033984D02*
X1789229Y-5043508D01*
X1789229Y-5043508D02*
X1798753Y-5053031D01*
X1798753Y-5053031D02*
X1808277Y-5072079D01*
X1808277Y-5072079D02*
X1817801Y-5110174D01*
X1817801Y-5110174D02*
X1817801Y-5157793D01*
X1817801Y-5157793D02*
X1808277Y-5195889D01*
X1808277Y-5195889D02*
X1798753Y-5214936D01*
X1798753Y-5214936D02*
X1789229Y-5224460D01*
X1789229Y-5224460D02*
X1770182Y-5233984D01*
X1770182Y-5233984D02*
X1751134Y-5233984D01*
X1751134Y-5233984D02*
X1732086Y-5224460D01*
X1732086Y-5224460D02*
X1722563Y-5214936D01*
X1722563Y-5214936D02*
X1713039Y-5195889D01*
X1713039Y-5195889D02*
X1703515Y-5157793D01*
X1703515Y-5157793D02*
X1703515Y-5110174D01*
X1703515Y-5110174D02*
X1713039Y-5072079D01*
X1713039Y-5072079D02*
X1722563Y-5053031D01*
X1722563Y-5053031D02*
X1732086Y-5043508D01*
X1732086Y-5043508D02*
X1751134Y-5033984D01*
X1903515Y-5214936D02*
X1913039Y-5224460D01*
X1913039Y-5224460D02*
X1903515Y-5233984D01*
X1903515Y-5233984D02*
X1893991Y-5224460D01*
X1893991Y-5224460D02*
X1903515Y-5214936D01*
X1903515Y-5214936D02*
X1903515Y-5233984D01*
X2103515Y-5233984D02*
X1989229Y-5233984D01*
X2046372Y-5233984D02*
X2046372Y-5033984D01*
X2046372Y-5033984D02*
X2027325Y-5062555D01*
X2027325Y-5062555D02*
X2008277Y-5081603D01*
X2008277Y-5081603D02*
X1989229Y-5091127D01*
X2179706Y-5053031D02*
X2189229Y-5043508D01*
X2189229Y-5043508D02*
X2208277Y-5033984D01*
X2208277Y-5033984D02*
X2255896Y-5033984D01*
X2255896Y-5033984D02*
X2274944Y-5043508D01*
X2274944Y-5043508D02*
X2284468Y-5053031D01*
X2284468Y-5053031D02*
X2293991Y-5072079D01*
X2293991Y-5072079D02*
X2293991Y-5091127D01*
X2293991Y-5091127D02*
X2284468Y-5119698D01*
X2284468Y-5119698D02*
X2170182Y-5233984D01*
X2170182Y-5233984D02*
X2293991Y-5233984D01*
X2465420Y-5033984D02*
X2427325Y-5033984D01*
X2427325Y-5033984D02*
X2408277Y-5043508D01*
X2408277Y-5043508D02*
X2398753Y-5053031D01*
X2398753Y-5053031D02*
X2379706Y-5081603D01*
X2379706Y-5081603D02*
X2370182Y-5119698D01*
X2370182Y-5119698D02*
X2370182Y-5195889D01*
X2370182Y-5195889D02*
X2379706Y-5214936D01*
X2379706Y-5214936D02*
X2389229Y-5224460D01*
X2389229Y-5224460D02*
X2408277Y-5233984D01*
X2408277Y-5233984D02*
X2446372Y-5233984D01*
X2446372Y-5233984D02*
X2465420Y-5224460D01*
X2465420Y-5224460D02*
X2474944Y-5214936D01*
X2474944Y-5214936D02*
X2484468Y-5195889D01*
X2484468Y-5195889D02*
X2484468Y-5148270D01*
X2484468Y-5148270D02*
X2474944Y-5129222D01*
X2474944Y-5129222D02*
X2465420Y-5119698D01*
X2465420Y-5119698D02*
X2446372Y-5110174D01*
X2446372Y-5110174D02*
X2408277Y-5110174D01*
X2408277Y-5110174D02*
X2389229Y-5119698D01*
X2389229Y-5119698D02*
X2379706Y-5129222D01*
X2379706Y-5129222D02*
X2370182Y-5148270D01*
X2608277Y-5033984D02*
X2627325Y-5033984D01*
X2627325Y-5033984D02*
X2646372Y-5043508D01*
X2646372Y-5043508D02*
X2655896Y-5053031D01*
X2655896Y-5053031D02*
X2665420Y-5072079D01*
X2665420Y-5072079D02*
X2674944Y-5110174D01*
X2674944Y-5110174D02*
X2674944Y-5157793D01*
X2674944Y-5157793D02*
X2665420Y-5195889D01*
X2665420Y-5195889D02*
X2655896Y-5214936D01*
X2655896Y-5214936D02*
X2646372Y-5224460D01*
X2646372Y-5224460D02*
X2627325Y-5233984D01*
X2627325Y-5233984D02*
X2608277Y-5233984D01*
X2608277Y-5233984D02*
X2589229Y-5224460D01*
X2589229Y-5224460D02*
X2579706Y-5214936D01*
X2579706Y-5214936D02*
X2570182Y-5195889D01*
X2570182Y-5195889D02*
X2560658Y-5157793D01*
X2560658Y-5157793D02*
X2560658Y-5110174D01*
X2560658Y-5110174D02*
X2570182Y-5072079D01*
X2570182Y-5072079D02*
X2579706Y-5053031D01*
X2579706Y-5053031D02*
X2589229Y-5043508D01*
X2589229Y-5043508D02*
X2608277Y-5033984D01*
X2751134Y-5033984D02*
X2751134Y-5072079D01*
X2827325Y-5033984D02*
X2827325Y-5072079D01*
X3122563Y-5310174D02*
X3113039Y-5300650D01*
X3113039Y-5300650D02*
X3093991Y-5272079D01*
X3093991Y-5272079D02*
X3084468Y-5253031D01*
X3084468Y-5253031D02*
X3074944Y-5224460D01*
X3074944Y-5224460D02*
X3065420Y-5176841D01*
X3065420Y-5176841D02*
X3065420Y-5138746D01*
X3065420Y-5138746D02*
X3074944Y-5091127D01*
X3074944Y-5091127D02*
X3084468Y-5062555D01*
X3084468Y-5062555D02*
X3093991Y-5043508D01*
X3093991Y-5043508D02*
X3113039Y-5014936D01*
X3113039Y-5014936D02*
X3122563Y-5005412D01*
X3284468Y-5100650D02*
X3284468Y-5233984D01*
X3236848Y-5024460D02*
X3189229Y-5167317D01*
X3189229Y-5167317D02*
X3313039Y-5167317D01*
X3541610Y-5233984D02*
X3541610Y-5033984D01*
X3627325Y-5233984D02*
X3627325Y-5129222D01*
X3627325Y-5129222D02*
X3617801Y-5110174D01*
X3617801Y-5110174D02*
X3598753Y-5100650D01*
X3598753Y-5100650D02*
X3570182Y-5100650D01*
X3570182Y-5100650D02*
X3551134Y-5110174D01*
X3551134Y-5110174D02*
X3541610Y-5119698D01*
X3751134Y-5233984D02*
X3732087Y-5224460D01*
X3732087Y-5224460D02*
X3722563Y-5214936D01*
X3722563Y-5214936D02*
X3713039Y-5195889D01*
X3713039Y-5195889D02*
X3713039Y-5138746D01*
X3713039Y-5138746D02*
X3722563Y-5119698D01*
X3722563Y-5119698D02*
X3732087Y-5110174D01*
X3732087Y-5110174D02*
X3751134Y-5100650D01*
X3751134Y-5100650D02*
X3779706Y-5100650D01*
X3779706Y-5100650D02*
X3798753Y-5110174D01*
X3798753Y-5110174D02*
X3808277Y-5119698D01*
X3808277Y-5119698D02*
X3817801Y-5138746D01*
X3817801Y-5138746D02*
X3817801Y-5195889D01*
X3817801Y-5195889D02*
X3808277Y-5214936D01*
X3808277Y-5214936D02*
X3798753Y-5224460D01*
X3798753Y-5224460D02*
X3779706Y-5233984D01*
X3779706Y-5233984D02*
X3751134Y-5233984D01*
X3932087Y-5233984D02*
X3913039Y-5224460D01*
X3913039Y-5224460D02*
X3903515Y-5205412D01*
X3903515Y-5205412D02*
X3903515Y-5033984D01*
X4084468Y-5224460D02*
X4065420Y-5233984D01*
X4065420Y-5233984D02*
X4027325Y-5233984D01*
X4027325Y-5233984D02*
X4008277Y-5224460D01*
X4008277Y-5224460D02*
X3998753Y-5205412D01*
X3998753Y-5205412D02*
X3998753Y-5129222D01*
X3998753Y-5129222D02*
X4008277Y-5110174D01*
X4008277Y-5110174D02*
X4027325Y-5100650D01*
X4027325Y-5100650D02*
X4065420Y-5100650D01*
X4065420Y-5100650D02*
X4084468Y-5110174D01*
X4084468Y-5110174D02*
X4093991Y-5129222D01*
X4093991Y-5129222D02*
X4093991Y-5148270D01*
X4093991Y-5148270D02*
X3998753Y-5167317D01*
X4170182Y-5224460D02*
X4189230Y-5233984D01*
X4189230Y-5233984D02*
X4227325Y-5233984D01*
X4227325Y-5233984D02*
X4246373Y-5224460D01*
X4246373Y-5224460D02*
X4255896Y-5205412D01*
X4255896Y-5205412D02*
X4255896Y-5195889D01*
X4255896Y-5195889D02*
X4246373Y-5176841D01*
X4246373Y-5176841D02*
X4227325Y-5167317D01*
X4227325Y-5167317D02*
X4198753Y-5167317D01*
X4198753Y-5167317D02*
X4179706Y-5157793D01*
X4179706Y-5157793D02*
X4170182Y-5138746D01*
X4170182Y-5138746D02*
X4170182Y-5129222D01*
X4170182Y-5129222D02*
X4179706Y-5110174D01*
X4179706Y-5110174D02*
X4198753Y-5100650D01*
X4198753Y-5100650D02*
X4227325Y-5100650D01*
X4227325Y-5100650D02*
X4246373Y-5110174D01*
X4322563Y-5310174D02*
X4332087Y-5300650D01*
X4332087Y-5300650D02*
X4351134Y-5272079D01*
X4351134Y-5272079D02*
X4360658Y-5253031D01*
X4360658Y-5253031D02*
X4370182Y-5224460D01*
X4370182Y-5224460D02*
X4379706Y-5176841D01*
X4379706Y-5176841D02*
X4379706Y-5138746D01*
X4379706Y-5138746D02*
X4370182Y-5091127D01*
X4370182Y-5091127D02*
X4360658Y-5062555D01*
X4360658Y-5062555D02*
X4351134Y-5043508D01*
X4351134Y-5043508D02*
X4332087Y-5014936D01*
X4332087Y-5014936D02*
X4322563Y-5005412D01*
X4684468Y-5310174D02*
X4674944Y-5300650D01*
X4674944Y-5300650D02*
X4655896Y-5272079D01*
X4655896Y-5272079D02*
X4646373Y-5253031D01*
X4646373Y-5253031D02*
X4636849Y-5224460D01*
X4636849Y-5224460D02*
X4627325Y-5176841D01*
X4627325Y-5176841D02*
X4627325Y-5138746D01*
X4627325Y-5138746D02*
X4636849Y-5091127D01*
X4636849Y-5091127D02*
X4646373Y-5062555D01*
X4646373Y-5062555D02*
X4655896Y-5043508D01*
X4655896Y-5043508D02*
X4674944Y-5014936D01*
X4674944Y-5014936D02*
X4684468Y-5005412D01*
X4760658Y-5100650D02*
X4760658Y-5233984D01*
X4760658Y-5119698D02*
X4770182Y-5110174D01*
X4770182Y-5110174D02*
X4789230Y-5100650D01*
X4789230Y-5100650D02*
X4817801Y-5100650D01*
X4817801Y-5100650D02*
X4836849Y-5110174D01*
X4836849Y-5110174D02*
X4846373Y-5129222D01*
X4846373Y-5129222D02*
X4846373Y-5233984D01*
X4970182Y-5233984D02*
X4951134Y-5224460D01*
X4951134Y-5224460D02*
X4941611Y-5214936D01*
X4941611Y-5214936D02*
X4932087Y-5195889D01*
X4932087Y-5195889D02*
X4932087Y-5138746D01*
X4932087Y-5138746D02*
X4941611Y-5119698D01*
X4941611Y-5119698D02*
X4951134Y-5110174D01*
X4951134Y-5110174D02*
X4970182Y-5100650D01*
X4970182Y-5100650D02*
X4998754Y-5100650D01*
X4998754Y-5100650D02*
X5017801Y-5110174D01*
X5017801Y-5110174D02*
X5027325Y-5119698D01*
X5027325Y-5119698D02*
X5036849Y-5138746D01*
X5036849Y-5138746D02*
X5036849Y-5195889D01*
X5036849Y-5195889D02*
X5027325Y-5214936D01*
X5027325Y-5214936D02*
X5017801Y-5224460D01*
X5017801Y-5224460D02*
X4998754Y-5233984D01*
X4998754Y-5233984D02*
X4970182Y-5233984D01*
X5093992Y-5100650D02*
X5170182Y-5100650D01*
X5122563Y-5033984D02*
X5122563Y-5205412D01*
X5122563Y-5205412D02*
X5132087Y-5224460D01*
X5132087Y-5224460D02*
X5151134Y-5233984D01*
X5151134Y-5233984D02*
X5170182Y-5233984D01*
X5389230Y-5100650D02*
X5389230Y-5300650D01*
X5389230Y-5110174D02*
X5408277Y-5100650D01*
X5408277Y-5100650D02*
X5446373Y-5100650D01*
X5446373Y-5100650D02*
X5465420Y-5110174D01*
X5465420Y-5110174D02*
X5474944Y-5119698D01*
X5474944Y-5119698D02*
X5484468Y-5138746D01*
X5484468Y-5138746D02*
X5484468Y-5195889D01*
X5484468Y-5195889D02*
X5474944Y-5214936D01*
X5474944Y-5214936D02*
X5465420Y-5224460D01*
X5465420Y-5224460D02*
X5446373Y-5233984D01*
X5446373Y-5233984D02*
X5408277Y-5233984D01*
X5408277Y-5233984D02*
X5389230Y-5224460D01*
X5598753Y-5233984D02*
X5579706Y-5224460D01*
X5579706Y-5224460D02*
X5570182Y-5205412D01*
X5570182Y-5205412D02*
X5570182Y-5033984D01*
X5760658Y-5233984D02*
X5760658Y-5129222D01*
X5760658Y-5129222D02*
X5751134Y-5110174D01*
X5751134Y-5110174D02*
X5732087Y-5100650D01*
X5732087Y-5100650D02*
X5693992Y-5100650D01*
X5693992Y-5100650D02*
X5674944Y-5110174D01*
X5760658Y-5224460D02*
X5741611Y-5233984D01*
X5741611Y-5233984D02*
X5693992Y-5233984D01*
X5693992Y-5233984D02*
X5674944Y-5224460D01*
X5674944Y-5224460D02*
X5665420Y-5205412D01*
X5665420Y-5205412D02*
X5665420Y-5186365D01*
X5665420Y-5186365D02*
X5674944Y-5167317D01*
X5674944Y-5167317D02*
X5693992Y-5157793D01*
X5693992Y-5157793D02*
X5741611Y-5157793D01*
X5741611Y-5157793D02*
X5760658Y-5148270D01*
X5827325Y-5100650D02*
X5903515Y-5100650D01*
X5855896Y-5033984D02*
X5855896Y-5205412D01*
X5855896Y-5205412D02*
X5865420Y-5224460D01*
X5865420Y-5224460D02*
X5884468Y-5233984D01*
X5884468Y-5233984D02*
X5903515Y-5233984D01*
X6046373Y-5224460D02*
X6027325Y-5233984D01*
X6027325Y-5233984D02*
X5989230Y-5233984D01*
X5989230Y-5233984D02*
X5970182Y-5224460D01*
X5970182Y-5224460D02*
X5960658Y-5205412D01*
X5960658Y-5205412D02*
X5960658Y-5129222D01*
X5960658Y-5129222D02*
X5970182Y-5110174D01*
X5970182Y-5110174D02*
X5989230Y-5100650D01*
X5989230Y-5100650D02*
X6027325Y-5100650D01*
X6027325Y-5100650D02*
X6046373Y-5110174D01*
X6046373Y-5110174D02*
X6055896Y-5129222D01*
X6055896Y-5129222D02*
X6055896Y-5148270D01*
X6055896Y-5148270D02*
X5960658Y-5167317D01*
X6227325Y-5233984D02*
X6227325Y-5033984D01*
X6227325Y-5224460D02*
X6208277Y-5233984D01*
X6208277Y-5233984D02*
X6170182Y-5233984D01*
X6170182Y-5233984D02*
X6151134Y-5224460D01*
X6151134Y-5224460D02*
X6141611Y-5214936D01*
X6141611Y-5214936D02*
X6132087Y-5195889D01*
X6132087Y-5195889D02*
X6132087Y-5138746D01*
X6132087Y-5138746D02*
X6141611Y-5119698D01*
X6141611Y-5119698D02*
X6151134Y-5110174D01*
X6151134Y-5110174D02*
X6170182Y-5100650D01*
X6170182Y-5100650D02*
X6208277Y-5100650D01*
X6208277Y-5100650D02*
X6227325Y-5110174D01*
X6303515Y-5310174D02*
X6313039Y-5300650D01*
X6313039Y-5300650D02*
X6332087Y-5272079D01*
X6332087Y-5272079D02*
X6341611Y-5253031D01*
X6341611Y-5253031D02*
X6351134Y-5224460D01*
X6351134Y-5224460D02*
X6360658Y-5176841D01*
X6360658Y-5176841D02*
X6360658Y-5138746D01*
X6360658Y-5138746D02*
X6351134Y-5091127D01*
X6351134Y-5091127D02*
X6341611Y-5062555D01*
X6341611Y-5062555D02*
X6332087Y-5043508D01*
X6332087Y-5043508D02*
X6313039Y-5014936D01*
X6313039Y-5014936D02*
X6303515Y-5005412D01*
M02*
