G04 #@! TF.GenerationSoftware,KiCad,Pcbnew,9.0.7-9-ga3ce409f20*
G04 #@! TF.CreationDate,2026-04-27T01:25:52+08:00*
G04 #@! TF.ProjectId,SuperCap_Power,53757065-7243-4617-905f-506f7765722e,rev?*
G04 #@! TF.SameCoordinates,Original*
G04 #@! TF.FileFunction,Copper,L2,Inr*
G04 #@! TF.FilePolarity,Positive*
%FSLAX46Y46*%
G04 Gerber Fmt 4.6, Leading zero omitted, Abs format (unit mm)*
G04 Created by KiCad (PCBNEW 9.0.7-9-ga3ce409f20) date 2026-04-27 01:25:52*
%MOMM*%
%LPD*%
G01*
G04 APERTURE LIST*
G04 #@! TA.AperFunction,ComponentPad*
%ADD10C,1.600000*%
G04 #@! TD*
G04 #@! TA.AperFunction,ViaPad*
%ADD11C,0.600000*%
G04 #@! TD*
G04 #@! TA.AperFunction,ViaPad*
%ADD12C,0.500000*%
G04 #@! TD*
G04 APERTURE END LIST*
D10*
G04 #@! TO.N,Vbside*
G04 #@! TO.C,C33*
X39500000Y-34250000D03*
G04 #@! TO.N,GND*
X43000000Y-34250000D03*
G04 #@! TD*
G04 #@! TO.N,Vaside*
G04 #@! TO.C,C24*
X7730000Y-11290000D03*
G04 #@! TO.N,GND*
X2730000Y-11290000D03*
G04 #@! TD*
D11*
G04 #@! TO.N,Vaside*
X12979988Y-30951307D03*
X14063679Y-30951307D03*
X11500000Y-30500000D03*
X12500000Y-30500000D03*
X13500000Y-30500000D03*
X14500000Y-30500000D03*
G04 #@! TO.N,Vbside*
X36000000Y-33000000D03*
X35000000Y-33000000D03*
X34000000Y-33000000D03*
X36000000Y-18500000D03*
X35000000Y-18500000D03*
X34500000Y-18000000D03*
X35500000Y-18000000D03*
X36000000Y-16500000D03*
X36000000Y-17500000D03*
X36500000Y-18000000D03*
X36500000Y-17000000D03*
X36500000Y-16000000D03*
X36000000Y-34000000D03*
X35000000Y-34000000D03*
X34000000Y-34000000D03*
X36500000Y-32500000D03*
X35500000Y-32500000D03*
X34500000Y-32500000D03*
X33500000Y-33500000D03*
X36500000Y-33500000D03*
X35500000Y-33500000D03*
X34500000Y-33500000D03*
X33500000Y-32500000D03*
G04 #@! TO.N,Balpha_sw*
X35000000Y-5000000D03*
X34500000Y-6000000D03*
X34000000Y-5500000D03*
X34000000Y-6500000D03*
X34500000Y-7000000D03*
X33500000Y-7000000D03*
X33500000Y-3000000D03*
G04 #@! TO.N,Vbside*
X35500000Y-10000000D03*
X37000000Y-14500000D03*
X37000000Y-13500000D03*
X36500000Y-14000000D03*
X35500000Y-11000000D03*
X35000000Y-11500000D03*
X36000000Y-10500000D03*
X35000000Y-10500000D03*
G04 #@! TO.N,Bbeta_sw*
X33000000Y-26500000D03*
X34000000Y-26500000D03*
X33000000Y-25500000D03*
X33500000Y-26000000D03*
X33500000Y-25000000D03*
X34000000Y-24500000D03*
X34000000Y-25500000D03*
X34500000Y-26000000D03*
X34500000Y-25000000D03*
X34500000Y-24000000D03*
G04 #@! TO.N,Bgamma_sw*
X33000000Y-42000000D03*
X34000000Y-42000000D03*
X34500000Y-41500000D03*
X33500000Y-41500000D03*
X34000000Y-41000000D03*
X33500000Y-40500000D03*
X34000000Y-40000000D03*
X34500000Y-40500000D03*
X34500000Y-39500000D03*
G04 #@! TO.N,Vaside*
X11500000Y-27000000D03*
X13500000Y-27000000D03*
X12500000Y-27000000D03*
G04 #@! TO.N,Aalpha_sw*
X14500000Y-4500000D03*
X14500000Y-3500000D03*
X13500000Y-4500000D03*
X13500000Y-3500000D03*
G04 #@! TO.N,Agamma_sw*
X14000000Y-38500000D03*
X14000000Y-39500000D03*
X14000000Y-40500000D03*
X13500000Y-40000000D03*
X13500000Y-41000000D03*
X14500000Y-41000000D03*
X14500000Y-40000000D03*
X14500000Y-39000000D03*
X14500000Y-38000000D03*
G04 #@! TO.N,Vaside*
X11000000Y-27500000D03*
X14000000Y-27500000D03*
X13000000Y-27500000D03*
X12000000Y-27500000D03*
X14000000Y-26500000D03*
X13000000Y-26500000D03*
X12000000Y-26500000D03*
X11000000Y-26500000D03*
X14000000Y-25500000D03*
X13000000Y-25500000D03*
X11000000Y-25500000D03*
G04 #@! TO.N,Aalpha_sw*
X13000000Y-5000000D03*
X13000000Y-3000000D03*
X13000000Y-4000000D03*
G04 #@! TO.N,Vaside*
X14000000Y-10500000D03*
X12000000Y-10500000D03*
G04 #@! TO.N,Abeta_sw*
X15000000Y-22000000D03*
X14500000Y-20000000D03*
X13500000Y-21000000D03*
X14000000Y-20500000D03*
X13000000Y-21500000D03*
X13000000Y-18000000D03*
G04 #@! TO.N,Vaside*
X13000000Y-10500000D03*
X14500000Y-11000000D03*
X13500000Y-11000000D03*
X12500000Y-11000000D03*
X11500000Y-11000000D03*
G04 #@! TO.N,Aalpha_sw*
X13500000Y-7000000D03*
X13500000Y-6000000D03*
X14000000Y-5000000D03*
X14000000Y-4000000D03*
X14000000Y-3000000D03*
G04 #@! TO.N,VPP*
X40500000Y-9500000D03*
X25130000Y-26030000D03*
X1740000Y-14320000D03*
X39500000Y-9500000D03*
X1740000Y-13560000D03*
X25130000Y-26800000D03*
X24360000Y-26800000D03*
X40500000Y-8500000D03*
X2370000Y-12930000D03*
G04 #@! TO.N,GND*
X32955000Y-43800000D03*
X42000000Y-17000000D03*
X28500000Y-32900000D03*
X44000000Y-26000000D03*
X42000000Y-26000000D03*
X17800000Y-27200000D03*
X42000000Y-16000000D03*
X3000000Y-37500000D03*
X34225000Y-28960000D03*
X8500000Y-36500000D03*
X-2000000Y-17000000D03*
X14740000Y-2210000D03*
X26580000Y-26950000D03*
X0Y-19000000D03*
X4000000Y-37500000D03*
X19000000Y-1000000D03*
X9500000Y-36500000D03*
X23020000Y-11740000D03*
X23130000Y-18800000D03*
X42000000Y-27000000D03*
X8500000Y-39500000D03*
X43000000Y-26000000D03*
X27500000Y-38500000D03*
X29680000Y-18520000D03*
X35000000Y-2000000D03*
X8500000Y-40500000D03*
X8500000Y-37500000D03*
X-1000000Y-18000000D03*
X5000000Y-36500000D03*
X5600000Y-34000000D03*
X25130000Y-19800000D03*
X29680000Y-17630002D03*
X-1000000Y-17000000D03*
X25130000Y-17800000D03*
X34740000Y-29830000D03*
X8500000Y-38500000D03*
D12*
X9650000Y-4800000D03*
D11*
X44000000Y-18000000D03*
X24130000Y-18800000D03*
X14060000Y-16890000D03*
X44000000Y-27000000D03*
D12*
X37940000Y-41420000D03*
X1801762Y-31610000D03*
D11*
X14725000Y-1160000D03*
X15800000Y-27200000D03*
X15300000Y-15130000D03*
X14100000Y-1700000D03*
X20000000Y-2000000D03*
X18300000Y-40500000D03*
X13455000Y-16000000D03*
X18000000Y-2000000D03*
X41500000Y-8500000D03*
X42000000Y-15000000D03*
X27500000Y-33900000D03*
D12*
X9640000Y-4140000D03*
D11*
X23910000Y-24022500D03*
X25130000Y-18800000D03*
X20000000Y-3000000D03*
X13455000Y-43800000D03*
X19000000Y-3000000D03*
X32500000Y-43000000D03*
X3000000Y-36500000D03*
X37200000Y-9340000D03*
X24130000Y-20800000D03*
X13460000Y-1160000D03*
X14050000Y-15120000D03*
X0Y-17000000D03*
X24880000Y-8480000D03*
X19300000Y-41500000D03*
X26571495Y-15111224D03*
X2190000Y-16100000D03*
X43000000Y-18000000D03*
X38500000Y-1500000D03*
X44000000Y-19000000D03*
X24020000Y-10740000D03*
X27500000Y-32900000D03*
D12*
X37940000Y-42220000D03*
D11*
X36100000Y-29830000D03*
X13470000Y-2200000D03*
X34000000Y-2000000D03*
X15000000Y-16000000D03*
X42000000Y-18000000D03*
X42500000Y-8500000D03*
X18000000Y-1000000D03*
X18300000Y-41500000D03*
X7500000Y-36500000D03*
X29670000Y-11790000D03*
X30670000Y-17620000D03*
X42500000Y-9500000D03*
X27500000Y-37500000D03*
X43000000Y-27000000D03*
X-1000000Y-19000000D03*
X15800000Y-28200000D03*
X19300000Y-40500000D03*
X-2000000Y-19000000D03*
X25880000Y-8480000D03*
X23130000Y-17800000D03*
D12*
X37930000Y-40540000D03*
D11*
X7500000Y-40500000D03*
X26880000Y-7480000D03*
X23020000Y-10740000D03*
X24130000Y-19800000D03*
D12*
X9640000Y-3470000D03*
D11*
X34225000Y-43800000D03*
X34220000Y-28000000D03*
X27010000Y-6020000D03*
X19000000Y-2000000D03*
X24130000Y-21800000D03*
X0Y-18000000D03*
X7500000Y-38500000D03*
X26880000Y-8480000D03*
X26500000Y-32900000D03*
X16800000Y-28200000D03*
X25880000Y-7480000D03*
X35495000Y-1160000D03*
X40500000Y-7500000D03*
X41500000Y-7500000D03*
X7500000Y-39500000D03*
X42000000Y-19000000D03*
X4000000Y-36500000D03*
X43000000Y-17000000D03*
X20300000Y-40500000D03*
X34225000Y-1160000D03*
X15490000Y-800000D03*
X43000000Y-19000000D03*
X24020000Y-11740000D03*
X34000000Y-43000000D03*
X42500000Y-7500000D03*
X20000000Y-1000000D03*
X4000000Y-35500000D03*
X15800000Y-26200000D03*
X38500000Y-2500000D03*
X32960000Y-28000000D03*
X43000000Y-15000000D03*
X25630000Y-15090000D03*
D12*
X1802762Y-30530000D03*
D11*
X24130000Y-17800000D03*
X15700000Y-35300000D03*
X26500000Y-33900000D03*
X26880000Y-9480000D03*
X43000000Y-16000000D03*
X5000000Y-37500000D03*
X25020000Y-11740000D03*
X7500000Y-37500000D03*
X16800000Y-27200000D03*
X5500000Y-19000000D03*
X25130000Y-20800000D03*
X-2000000Y-18000000D03*
X28720000Y-18080000D03*
X25130000Y-21800000D03*
X25620000Y-6020000D03*
X2500000Y-18000000D03*
X24880000Y-7480000D03*
X25880000Y-9480000D03*
X32955000Y-28960000D03*
X38000000Y-43800000D03*
X41500000Y-9500000D03*
D12*
G04 #@! TO.N,+5V*
X21000000Y-28150003D03*
X21000000Y-27500000D03*
X29100000Y-30140000D03*
D11*
X4600000Y-8200000D03*
X3600000Y-7300000D03*
D12*
X20000000Y-28260000D03*
X-3511433Y-20600084D03*
D11*
X2600000Y-8200000D03*
X21250000Y-15590000D03*
D12*
X21900000Y-15000000D03*
X20000000Y-27500000D03*
D11*
X3600000Y-8200000D03*
X20800000Y-14818000D03*
D12*
X20500000Y-27000000D03*
D11*
X2600000Y-9300000D03*
X22200000Y-11300000D03*
X21600000Y-10800000D03*
D12*
X29090000Y-30790000D03*
D11*
X21600000Y-11785500D03*
G04 #@! TO.N,+12V*
X28844250Y-15100000D03*
X26500000Y-11440000D03*
X17000000Y-2400000D03*
X29341500Y-15570000D03*
X27540000Y-11440000D03*
D12*
X30920000Y-43690000D03*
D11*
X29900000Y-32900000D03*
X16400000Y-1800000D03*
X26700000Y-21700000D03*
X28844250Y-16100000D03*
X30897500Y-32900000D03*
X27540000Y-10400000D03*
X29844250Y-16100000D03*
X37500000Y-2200000D03*
X26700000Y-21000000D03*
X9800000Y-41900000D03*
X26000000Y-21000000D03*
X36700000Y-2200000D03*
X30897500Y-33597500D03*
X9800000Y-42700000D03*
D12*
X30475000Y-43245000D03*
D11*
X18200000Y-14900000D03*
D12*
X31150000Y-43150000D03*
D11*
X29844250Y-15100000D03*
X17000000Y-1800000D03*
X18900000Y-14900000D03*
G04 #@! TO.N,Vaside*
X6800000Y-30998400D03*
G04 #@! TO.N,Vbside*
X41000000Y-16000000D03*
X5700000Y-31600000D03*
X40490000Y-16672500D03*
D12*
X40025000Y-15600000D03*
X40025000Y-16207500D03*
D11*
X24881176Y-30881176D03*
G04 #@! TO.N,ibeta*
X18435000Y-30823674D03*
X5400000Y-28900000D03*
G04 #@! TO.N,igamma*
X5525000Y-32975000D03*
X27870000Y-28900000D03*
G04 #@! TO.N,ialpha*
X4549501Y-27899410D03*
X18004308Y-17516925D03*
G04 #@! TO.N,iRefree*
X-880000Y-20830000D03*
X2300764Y-33352720D03*
G04 #@! TO.N,Vaside_in*
X1167684Y-23558713D03*
D12*
X1800000Y-25200000D03*
D11*
X1867685Y-23560374D03*
X-350000Y-23500000D03*
X467681Y-23558713D03*
G04 #@! TO.N,Abeta_sw*
X16410000Y-21485000D03*
X15610000Y-21485000D03*
G04 #@! TO.N,Aalpha_sw*
X16410000Y-6685000D03*
X15620000Y-6685000D03*
G04 #@! TO.N,iaside*
X4941496Y-30579411D03*
X3949501Y-14700000D03*
G04 #@! TO.N,Agamma_sw*
X11485000Y-38230000D03*
G04 #@! TO.N,VREF*
X2300000Y-35200000D03*
X26452947Y-30249999D03*
X17244258Y-14932258D03*
X17085000Y-32307426D03*
D12*
X-2811449Y-20594954D03*
D11*
X3200000Y-15700000D03*
X2300000Y-34345761D03*
D12*
G04 #@! TO.N,VRefree*
X1800000Y-26000000D03*
D11*
G04 #@! TO.N,Balpha_sw*
X36000000Y-6685000D03*
X36802500Y-6685000D03*
G04 #@! TO.N,Bgamma_sw*
X31335000Y-38350000D03*
X30550000Y-38350000D03*
G04 #@! TO.N,Aalpha_H_Gate*
X10915000Y-8320000D03*
G04 #@! TO.N,Aalpha_L_Gate*
X10915000Y-1160000D03*
G04 #@! TO.N,Abeta_H_Gate*
X10915000Y-23160000D03*
G04 #@! TO.N,Abeta_L_Gate*
X10915000Y-16000000D03*
G04 #@! TO.N,Agamma_H_Gate*
X14725000Y-36640000D03*
G04 #@! TO.N,Agamma_L_Gate*
X14725000Y-43800000D03*
G04 #@! TO.N,Balpha_H_Gate*
X32955000Y-8320000D03*
G04 #@! TO.N,Balpha_L_Gate*
X32955000Y-1160000D03*
G04 #@! TO.N,Bbeta_H_Gate*
X36765000Y-21800000D03*
G04 #@! TO.N,Bbeta_L_Gate*
X36765000Y-28960000D03*
G04 #@! TO.N,Bgamma_H_Gate*
X36765000Y-36640000D03*
G04 #@! TO.N,Bgamma_L_Gate*
X36765000Y-43800000D03*
G04 #@! TO.N,Vaside*
X12000000Y-25500000D03*
G04 #@! TO.N,Agamma_sw*
X12280000Y-38230000D03*
G04 #@! TO.N,Bbeta_sw*
X31335000Y-23500000D03*
X30480000Y-23500000D03*
G04 #@! TD*
G04 #@! TA.AperFunction,Conductor*
G04 #@! TO.N,GND*
G36*
X41551745Y-500598D02*
G01*
X41876740Y-518849D01*
X41883697Y-519633D01*
X42202878Y-573864D01*
X42209690Y-575419D01*
X42481030Y-653591D01*
X42520784Y-665044D01*
X42527386Y-667353D01*
X42826528Y-791261D01*
X42832800Y-794283D01*
X43116158Y-950890D01*
X43122084Y-954613D01*
X43386119Y-1141957D01*
X43391599Y-1146326D01*
X43632993Y-1362050D01*
X43637949Y-1367006D01*
X43853673Y-1608400D01*
X43858042Y-1613880D01*
X44045386Y-1877915D01*
X44049112Y-1883846D01*
X44187428Y-2134109D01*
X44205709Y-2167185D01*
X44208741Y-2173478D01*
X44332641Y-2472599D01*
X44334955Y-2479215D01*
X44424577Y-2790298D01*
X44426137Y-2797131D01*
X44480365Y-3116298D01*
X44481150Y-3123262D01*
X44499402Y-3448253D01*
X44499500Y-3451758D01*
X44499500Y-41548241D01*
X44499402Y-41551746D01*
X44481150Y-41876737D01*
X44480365Y-41883701D01*
X44426137Y-42202868D01*
X44424577Y-42209701D01*
X44334955Y-42520784D01*
X44332641Y-42527400D01*
X44208744Y-42826514D01*
X44205709Y-42832814D01*
X44049115Y-43116149D01*
X44045386Y-43122084D01*
X43858042Y-43386119D01*
X43853673Y-43391599D01*
X43637949Y-43632993D01*
X43632993Y-43637949D01*
X43391599Y-43853673D01*
X43386119Y-43858042D01*
X43122084Y-44045386D01*
X43116149Y-44049115D01*
X42832814Y-44205709D01*
X42826514Y-44208744D01*
X42604996Y-44300500D01*
X42527400Y-44332641D01*
X42520784Y-44334955D01*
X42209701Y-44424577D01*
X42202868Y-44426137D01*
X41883701Y-44480365D01*
X41876737Y-44481150D01*
X41576063Y-44498036D01*
X41551744Y-44499402D01*
X41548241Y-44499500D01*
X3451759Y-44499500D01*
X3448255Y-44499402D01*
X3421891Y-44497921D01*
X3123262Y-44481150D01*
X3116298Y-44480365D01*
X2797131Y-44426137D01*
X2790298Y-44424577D01*
X2479215Y-44334955D01*
X2472603Y-44332642D01*
X2173478Y-44208741D01*
X2167191Y-44205712D01*
X1883846Y-44049112D01*
X1877915Y-44045386D01*
X1613880Y-43858042D01*
X1608400Y-43853672D01*
X1522174Y-43776615D01*
X1522173Y-43776615D01*
X1474609Y-43734109D01*
X14224500Y-43734109D01*
X14224500Y-43865890D01*
X14224501Y-43865898D01*
X14258606Y-43993182D01*
X14258607Y-43993185D01*
X14258608Y-43993186D01*
X14306686Y-44076460D01*
X14324501Y-44107315D01*
X14324504Y-44107319D01*
X14417680Y-44200495D01*
X14417684Y-44200498D01*
X14417686Y-44200500D01*
X14531814Y-44266392D01*
X14531817Y-44266393D01*
X14609712Y-44287264D01*
X14659108Y-44300500D01*
X14659109Y-44300500D01*
X14790891Y-44300500D01*
X14790892Y-44300500D01*
X14918186Y-44266392D01*
X15032314Y-44200500D01*
X15125500Y-44107314D01*
X15191392Y-43993186D01*
X15225500Y-43865892D01*
X15225500Y-43734108D01*
X15191392Y-43606814D01*
X15125500Y-43492686D01*
X15125498Y-43492684D01*
X15125495Y-43492680D01*
X15032319Y-43399504D01*
X15032315Y-43399501D01*
X15032314Y-43399500D01*
X14947442Y-43350499D01*
X14918185Y-43333607D01*
X14918182Y-43333606D01*
X14790898Y-43299501D01*
X14790893Y-43299500D01*
X14790892Y-43299500D01*
X14659108Y-43299500D01*
X14659107Y-43299500D01*
X14659101Y-43299501D01*
X14531817Y-43333606D01*
X14531814Y-43333607D01*
X14417684Y-43399501D01*
X14417680Y-43399504D01*
X14324504Y-43492680D01*
X14324501Y-43492684D01*
X14258607Y-43606814D01*
X14258606Y-43606817D01*
X14224501Y-43734101D01*
X14224500Y-43734109D01*
X1474609Y-43734109D01*
X1367006Y-43637949D01*
X1362050Y-43632993D01*
X1146326Y-43391599D01*
X1141957Y-43386119D01*
X954613Y-43122084D01*
X950890Y-43116158D01*
X794283Y-42832800D01*
X791261Y-42826528D01*
X667353Y-42527386D01*
X665044Y-42520784D01*
X630389Y-42400495D01*
X575419Y-42209690D01*
X573864Y-42202878D01*
X519633Y-41883697D01*
X518849Y-41876736D01*
X514950Y-41807315D01*
X500598Y-41551745D01*
X500500Y-41548241D01*
X500500Y-41378707D01*
X1649500Y-41378707D01*
X1649500Y-41621292D01*
X1681162Y-41861792D01*
X1681162Y-41861793D01*
X1743940Y-42096083D01*
X1743944Y-42096094D01*
X1836774Y-42320208D01*
X1836775Y-42320211D01*
X1958062Y-42530286D01*
X2087904Y-42699501D01*
X2105735Y-42722738D01*
X2277262Y-42894265D01*
X2469711Y-43041936D01*
X2679788Y-43163224D01*
X2903900Y-43256054D01*
X2903908Y-43256056D01*
X2903916Y-43256059D01*
X3138207Y-43318837D01*
X3138211Y-43318838D01*
X3378712Y-43350500D01*
X3378718Y-43350500D01*
X3621282Y-43350500D01*
X3621288Y-43350500D01*
X3861789Y-43318838D01*
X3861793Y-43318837D01*
X4096083Y-43256059D01*
X4096087Y-43256057D01*
X4096100Y-43256054D01*
X4320212Y-43163224D01*
X4530289Y-43041936D01*
X4722738Y-42894265D01*
X4894265Y-42722738D01*
X5041936Y-42530289D01*
X5163224Y-42320212D01*
X5256054Y-42096100D01*
X5256836Y-42093185D01*
X5318837Y-41861793D01*
X5318837Y-41861792D01*
X5318838Y-41861789D01*
X5322482Y-41834109D01*
X9299500Y-41834109D01*
X9299500Y-41965890D01*
X9299501Y-41965898D01*
X9333606Y-42093182D01*
X9333607Y-42093185D01*
X9335287Y-42096094D01*
X9395049Y-42199605D01*
X9399501Y-42207315D01*
X9399504Y-42207319D01*
X9447991Y-42255806D01*
X9466297Y-42300000D01*
X9447991Y-42344194D01*
X9399504Y-42392680D01*
X9399501Y-42392684D01*
X9333607Y-42506814D01*
X9333606Y-42506817D01*
X9299501Y-42634101D01*
X9299500Y-42634109D01*
X9299500Y-42765890D01*
X9299501Y-42765898D01*
X9333606Y-42893182D01*
X9333607Y-42893185D01*
X9333608Y-42893186D01*
X9377025Y-42968387D01*
X9399501Y-43007315D01*
X9399504Y-43007319D01*
X9492680Y-43100495D01*
X9492684Y-43100498D01*
X9492686Y-43100500D01*
X9573909Y-43147394D01*
X9606814Y-43166392D01*
X9606817Y-43166393D01*
X9678843Y-43185692D01*
X9734108Y-43200500D01*
X9734109Y-43200500D01*
X9865891Y-43200500D01*
X9865892Y-43200500D01*
X9921157Y-43185692D01*
X30024500Y-43185692D01*
X30024500Y-43304307D01*
X30024501Y-43304315D01*
X30055200Y-43418885D01*
X30055203Y-43418891D01*
X30114508Y-43521609D01*
X30114515Y-43521618D01*
X30198381Y-43605484D01*
X30198390Y-43605491D01*
X30301108Y-43664796D01*
X30301114Y-43664799D01*
X30419648Y-43696561D01*
X30419363Y-43697623D01*
X30457111Y-43719408D01*
X30467918Y-43745491D01*
X30468439Y-43745352D01*
X30469497Y-43749302D01*
X30469499Y-43749306D01*
X30469499Y-43749309D01*
X30500200Y-43863885D01*
X30500203Y-43863891D01*
X30559508Y-43966609D01*
X30559515Y-43966618D01*
X30643381Y-44050484D01*
X30643390Y-44050491D01*
X30746108Y-44109796D01*
X30746114Y-44109799D01*
X30860691Y-44140500D01*
X30860692Y-44140500D01*
X30979308Y-44140500D01*
X30979309Y-44140500D01*
X31093886Y-44109799D01*
X31196613Y-44050489D01*
X31280489Y-43966613D01*
X31339799Y-43863886D01*
X31370500Y-43749309D01*
X31370500Y-43734109D01*
X36264500Y-43734109D01*
X36264500Y-43865890D01*
X36264501Y-43865898D01*
X36298606Y-43993182D01*
X36298607Y-43993185D01*
X36298608Y-43993186D01*
X36346686Y-44076460D01*
X36364501Y-44107315D01*
X36364504Y-44107319D01*
X36457680Y-44200495D01*
X36457684Y-44200498D01*
X36457686Y-44200500D01*
X36571814Y-44266392D01*
X36571817Y-44266393D01*
X36649712Y-44287264D01*
X36699108Y-44300500D01*
X36699109Y-44300500D01*
X36830891Y-44300500D01*
X36830892Y-44300500D01*
X36958186Y-44266392D01*
X37072314Y-44200500D01*
X37165500Y-44107314D01*
X37231392Y-43993186D01*
X37265500Y-43865892D01*
X37265500Y-43734108D01*
X37231392Y-43606814D01*
X37165500Y-43492686D01*
X37165498Y-43492684D01*
X37165495Y-43492680D01*
X37072319Y-43399504D01*
X37072315Y-43399501D01*
X37072314Y-43399500D01*
X36987442Y-43350499D01*
X36958185Y-43333607D01*
X36958182Y-43333606D01*
X36830898Y-43299501D01*
X36830893Y-43299500D01*
X36830892Y-43299500D01*
X36699108Y-43299500D01*
X36699107Y-43299500D01*
X36699101Y-43299501D01*
X36571817Y-43333606D01*
X36571814Y-43333607D01*
X36457684Y-43399501D01*
X36457680Y-43399504D01*
X36364504Y-43492680D01*
X36364501Y-43492684D01*
X36298607Y-43606814D01*
X36298606Y-43606817D01*
X36264501Y-43734101D01*
X36264500Y-43734109D01*
X31370500Y-43734109D01*
X31370500Y-43630691D01*
X31362537Y-43600973D01*
X31368780Y-43553547D01*
X31391655Y-43530671D01*
X31426613Y-43510489D01*
X31510489Y-43426613D01*
X31569799Y-43323886D01*
X31600500Y-43209309D01*
X31600500Y-43090691D01*
X31569799Y-42976114D01*
X31565334Y-42968381D01*
X31510491Y-42873390D01*
X31510484Y-42873381D01*
X31426618Y-42789515D01*
X31426609Y-42789508D01*
X31323891Y-42730203D01*
X31323885Y-42730200D01*
X31209315Y-42699501D01*
X31209310Y-42699500D01*
X31209309Y-42699500D01*
X31090691Y-42699500D01*
X31090690Y-42699500D01*
X31090684Y-42699501D01*
X30976114Y-42730200D01*
X30976108Y-42730203D01*
X30873390Y-42789508D01*
X30873381Y-42789515D01*
X30802497Y-42860399D01*
X30758303Y-42878705D01*
X30727053Y-42870331D01*
X30705885Y-42858110D01*
X30648888Y-42825201D01*
X30648885Y-42825200D01*
X30534315Y-42794501D01*
X30534310Y-42794500D01*
X30534309Y-42794500D01*
X30415691Y-42794500D01*
X30415690Y-42794500D01*
X30415684Y-42794501D01*
X30301114Y-42825200D01*
X30301108Y-42825203D01*
X30198390Y-42884508D01*
X30198381Y-42884515D01*
X30114515Y-42968381D01*
X30114508Y-42968390D01*
X30055203Y-43071108D01*
X30055200Y-43071114D01*
X30024501Y-43185684D01*
X30024500Y-43185692D01*
X9921157Y-43185692D01*
X9993186Y-43166392D01*
X10107314Y-43100500D01*
X10200500Y-43007314D01*
X10266392Y-42893186D01*
X10300500Y-42765892D01*
X10300500Y-42634108D01*
X10266392Y-42506814D01*
X10200500Y-42392686D01*
X10152007Y-42344193D01*
X10133702Y-42300001D01*
X10152006Y-42255807D01*
X10200500Y-42207314D01*
X10266392Y-42093186D01*
X10300500Y-41965892D01*
X10300500Y-41934109D01*
X32499500Y-41934109D01*
X32499500Y-42065890D01*
X32499501Y-42065898D01*
X32533606Y-42193182D01*
X32533607Y-42193185D01*
X32566554Y-42250250D01*
X32595277Y-42300000D01*
X32599501Y-42307315D01*
X32599504Y-42307319D01*
X32692680Y-42400495D01*
X32692684Y-42400498D01*
X32692686Y-42400500D01*
X32787836Y-42455435D01*
X32806814Y-42466392D01*
X32806817Y-42466393D01*
X32884712Y-42487264D01*
X32934108Y-42500500D01*
X32934109Y-42500500D01*
X33065891Y-42500500D01*
X33065892Y-42500500D01*
X33193186Y-42466392D01*
X33307314Y-42400500D01*
X33400500Y-42307314D01*
X33445873Y-42228724D01*
X33483824Y-42199605D01*
X33531250Y-42205848D01*
X33554125Y-42228723D01*
X33595278Y-42300001D01*
X33599501Y-42307315D01*
X33599504Y-42307319D01*
X33692680Y-42400495D01*
X33692684Y-42400498D01*
X33692686Y-42400500D01*
X33787836Y-42455435D01*
X33806814Y-42466392D01*
X33806817Y-42466393D01*
X33884712Y-42487264D01*
X33934108Y-42500500D01*
X33934109Y-42500500D01*
X34065891Y-42500500D01*
X34065892Y-42500500D01*
X34193186Y-42466392D01*
X34307314Y-42400500D01*
X34400500Y-42307314D01*
X34466392Y-42193186D01*
X34500500Y-42065892D01*
X34500500Y-42063000D01*
X34518806Y-42018806D01*
X34563000Y-42000500D01*
X34565891Y-42000500D01*
X34565892Y-42000500D01*
X34693186Y-41966392D01*
X34807314Y-41900500D01*
X34900500Y-41807314D01*
X34966392Y-41693186D01*
X35000500Y-41565892D01*
X35000500Y-41434108D01*
X35000365Y-41433606D01*
X34991494Y-41400498D01*
X34989443Y-41392842D01*
X34985656Y-41378707D01*
X39649500Y-41378707D01*
X39649500Y-41621292D01*
X39681162Y-41861792D01*
X39681162Y-41861793D01*
X39743940Y-42096083D01*
X39743944Y-42096094D01*
X39836774Y-42320208D01*
X39836775Y-42320211D01*
X39958062Y-42530286D01*
X40087904Y-42699501D01*
X40105735Y-42722738D01*
X40277262Y-42894265D01*
X40469711Y-43041936D01*
X40679788Y-43163224D01*
X40903900Y-43256054D01*
X40903908Y-43256056D01*
X40903916Y-43256059D01*
X41138207Y-43318837D01*
X41138211Y-43318838D01*
X41378712Y-43350500D01*
X41378718Y-43350500D01*
X41621282Y-43350500D01*
X41621288Y-43350500D01*
X41861789Y-43318838D01*
X41861793Y-43318837D01*
X42096083Y-43256059D01*
X42096087Y-43256057D01*
X42096100Y-43256054D01*
X42320212Y-43163224D01*
X42530289Y-43041936D01*
X42722738Y-42894265D01*
X42894265Y-42722738D01*
X43041936Y-42530289D01*
X43163224Y-42320212D01*
X43256054Y-42096100D01*
X43256836Y-42093185D01*
X43318837Y-41861793D01*
X43318837Y-41861792D01*
X43318838Y-41861789D01*
X43350500Y-41621288D01*
X43350500Y-41378712D01*
X43318838Y-41138211D01*
X43318837Y-41138206D01*
X43256059Y-40903916D01*
X43256055Y-40903905D01*
X43256054Y-40903900D01*
X43163224Y-40679788D01*
X43041936Y-40469711D01*
X42928830Y-40322309D01*
X42894269Y-40277267D01*
X42894260Y-40277257D01*
X42722742Y-40105739D01*
X42722732Y-40105730D01*
X42584291Y-39999501D01*
X42530289Y-39958064D01*
X42509174Y-39945873D01*
X42320211Y-39836775D01*
X42320208Y-39836774D01*
X42227375Y-39798322D01*
X42096100Y-39743946D01*
X42096096Y-39743945D01*
X42096094Y-39743944D01*
X42096083Y-39743940D01*
X41861792Y-39681162D01*
X41621292Y-39649500D01*
X41621288Y-39649500D01*
X41378712Y-39649500D01*
X41378707Y-39649500D01*
X41138207Y-39681162D01*
X41138206Y-39681162D01*
X40903916Y-39743940D01*
X40903905Y-39743944D01*
X40679791Y-39836774D01*
X40679788Y-39836775D01*
X40469713Y-39958062D01*
X40277267Y-40105730D01*
X40277257Y-40105739D01*
X40105739Y-40277257D01*
X40105730Y-40277267D01*
X39958062Y-40469713D01*
X39836775Y-40679788D01*
X39836774Y-40679791D01*
X39783951Y-40807319D01*
X39745354Y-40900502D01*
X39743944Y-40903905D01*
X39743940Y-40903916D01*
X39681162Y-41138206D01*
X39681162Y-41138207D01*
X39649500Y-41378707D01*
X34985656Y-41378707D01*
X34966393Y-41306817D01*
X34966392Y-41306814D01*
X34921307Y-41228725D01*
X34900500Y-41192686D01*
X34900498Y-41192684D01*
X34900495Y-41192680D01*
X34807319Y-41099504D01*
X34807315Y-41099501D01*
X34807314Y-41099500D01*
X34728724Y-41054126D01*
X34699605Y-41016176D01*
X34705848Y-40968750D01*
X34728723Y-40945874D01*
X34807314Y-40900500D01*
X34900500Y-40807314D01*
X34966392Y-40693186D01*
X35000500Y-40565892D01*
X35000500Y-40434108D01*
X34987264Y-40384712D01*
X34966393Y-40306817D01*
X34966392Y-40306814D01*
X34949327Y-40277257D01*
X34900500Y-40192686D01*
X34900498Y-40192684D01*
X34900495Y-40192680D01*
X34807319Y-40099504D01*
X34807315Y-40099501D01*
X34807314Y-40099500D01*
X34728724Y-40054126D01*
X34699605Y-40016176D01*
X34705848Y-39968750D01*
X34728723Y-39945874D01*
X34807314Y-39900500D01*
X34900500Y-39807314D01*
X34966392Y-39693186D01*
X35000500Y-39565892D01*
X35000500Y-39434108D01*
X34987264Y-39384712D01*
X34966393Y-39306817D01*
X34966392Y-39306814D01*
X34900500Y-39192686D01*
X34900498Y-39192684D01*
X34900495Y-39192680D01*
X34807319Y-39099504D01*
X34807315Y-39099501D01*
X34807314Y-39099500D01*
X34728724Y-39054126D01*
X34693185Y-39033607D01*
X34693182Y-39033606D01*
X34565898Y-38999501D01*
X34565893Y-38999500D01*
X34565892Y-38999500D01*
X34434108Y-38999500D01*
X34434107Y-38999500D01*
X34434101Y-38999501D01*
X34306817Y-39033606D01*
X34306814Y-39033607D01*
X34192684Y-39099501D01*
X34192680Y-39099504D01*
X34099504Y-39192680D01*
X34099501Y-39192684D01*
X34033607Y-39306814D01*
X34033606Y-39306817D01*
X33999501Y-39434101D01*
X33999500Y-39434109D01*
X33999500Y-39437000D01*
X33981194Y-39481194D01*
X33937000Y-39499500D01*
X33934108Y-39499500D01*
X33934107Y-39499500D01*
X33934101Y-39499501D01*
X33806817Y-39533606D01*
X33806814Y-39533607D01*
X33692684Y-39599501D01*
X33692680Y-39599504D01*
X33599504Y-39692680D01*
X33599501Y-39692684D01*
X33533607Y-39806814D01*
X33533606Y-39806817D01*
X33499501Y-39934101D01*
X33499500Y-39934109D01*
X33499500Y-39937000D01*
X33481194Y-39981194D01*
X33437000Y-39999500D01*
X33434108Y-39999500D01*
X33434107Y-39999500D01*
X33434101Y-39999501D01*
X33306817Y-40033606D01*
X33306814Y-40033607D01*
X33192684Y-40099501D01*
X33192680Y-40099504D01*
X33099504Y-40192680D01*
X33099501Y-40192684D01*
X33033607Y-40306814D01*
X33033606Y-40306817D01*
X32999501Y-40434101D01*
X32999500Y-40434109D01*
X32999500Y-40565890D01*
X32999501Y-40565898D01*
X33033606Y-40693182D01*
X33033607Y-40693185D01*
X33033608Y-40693186D01*
X33099211Y-40806814D01*
X33099501Y-40807315D01*
X33099504Y-40807319D01*
X33192680Y-40900495D01*
X33192689Y-40900502D01*
X33271274Y-40945874D01*
X33300394Y-40983824D01*
X33294150Y-41031250D01*
X33271274Y-41054126D01*
X33192689Y-41099497D01*
X33192680Y-41099504D01*
X33099504Y-41192680D01*
X33099501Y-41192684D01*
X33033607Y-41306814D01*
X33033606Y-41306817D01*
X32999501Y-41434101D01*
X32999500Y-41434109D01*
X32999500Y-41437000D01*
X32981194Y-41481194D01*
X32937000Y-41499500D01*
X32934108Y-41499500D01*
X32934107Y-41499500D01*
X32934101Y-41499501D01*
X32806817Y-41533606D01*
X32806814Y-41533607D01*
X32692684Y-41599501D01*
X32692680Y-41599504D01*
X32599504Y-41692680D01*
X32599501Y-41692684D01*
X32533607Y-41806814D01*
X32533606Y-41806817D01*
X32499501Y-41934101D01*
X32499500Y-41934109D01*
X10300500Y-41934109D01*
X10300500Y-41834108D01*
X10266392Y-41706814D01*
X10200500Y-41592686D01*
X10200498Y-41592684D01*
X10200495Y-41592680D01*
X10107319Y-41499504D01*
X10107315Y-41499501D01*
X10107314Y-41499500D01*
X10049969Y-41466392D01*
X9993185Y-41433607D01*
X9993182Y-41433606D01*
X9865898Y-41399501D01*
X9865893Y-41399500D01*
X9865892Y-41399500D01*
X9734108Y-41399500D01*
X9734107Y-41399500D01*
X9734101Y-41399501D01*
X9606817Y-41433606D01*
X9606814Y-41433607D01*
X9492684Y-41499501D01*
X9492680Y-41499504D01*
X9399504Y-41592680D01*
X9399501Y-41592684D01*
X9333607Y-41706814D01*
X9333606Y-41706817D01*
X9299501Y-41834101D01*
X9299500Y-41834109D01*
X5322482Y-41834109D01*
X5350500Y-41621288D01*
X5350500Y-41378712D01*
X5318838Y-41138211D01*
X5318837Y-41138206D01*
X5256059Y-40903916D01*
X5256055Y-40903905D01*
X5256054Y-40903900D01*
X5163224Y-40679788D01*
X5041936Y-40469711D01*
X4928830Y-40322309D01*
X4894269Y-40277267D01*
X4894260Y-40277257D01*
X4722742Y-40105739D01*
X4722732Y-40105730D01*
X4584291Y-39999501D01*
X4530289Y-39958064D01*
X4509174Y-39945873D01*
X4488798Y-39934109D01*
X12999500Y-39934109D01*
X12999500Y-40065890D01*
X12999501Y-40065898D01*
X13033606Y-40193182D01*
X13033607Y-40193185D01*
X13033608Y-40193186D01*
X13099211Y-40306814D01*
X13099501Y-40307315D01*
X13099504Y-40307319D01*
X13192680Y-40400495D01*
X13192689Y-40400502D01*
X13271274Y-40445874D01*
X13300394Y-40483824D01*
X13294150Y-40531250D01*
X13271274Y-40554126D01*
X13192689Y-40599497D01*
X13192680Y-40599504D01*
X13099504Y-40692680D01*
X13099501Y-40692684D01*
X13033607Y-40806814D01*
X13033606Y-40806817D01*
X12999501Y-40934101D01*
X12999500Y-40934109D01*
X12999500Y-41065890D01*
X12999501Y-41065898D01*
X13033606Y-41193182D01*
X13033607Y-41193185D01*
X13066554Y-41250250D01*
X13099211Y-41306814D01*
X13099501Y-41307315D01*
X13099504Y-41307319D01*
X13192680Y-41400495D01*
X13192684Y-41400498D01*
X13192686Y-41400500D01*
X13255906Y-41437000D01*
X13306814Y-41466392D01*
X13306817Y-41466393D01*
X13362056Y-41481194D01*
X13434108Y-41500500D01*
X13434109Y-41500500D01*
X13565891Y-41500500D01*
X13565892Y-41500500D01*
X13693186Y-41466392D01*
X13807314Y-41400500D01*
X13900500Y-41307314D01*
X13945873Y-41228724D01*
X13983824Y-41199605D01*
X14031250Y-41205848D01*
X14054125Y-41228723D01*
X14099213Y-41306817D01*
X14099501Y-41307315D01*
X14099504Y-41307319D01*
X14192680Y-41400495D01*
X14192684Y-41400498D01*
X14192686Y-41400500D01*
X14255906Y-41437000D01*
X14306814Y-41466392D01*
X14306817Y-41466393D01*
X14362056Y-41481194D01*
X14434108Y-41500500D01*
X14434109Y-41500500D01*
X14565891Y-41500500D01*
X14565892Y-41500500D01*
X14693186Y-41466392D01*
X14807314Y-41400500D01*
X14900500Y-41307314D01*
X14966392Y-41193186D01*
X15000500Y-41065892D01*
X15000500Y-40934108D01*
X14987264Y-40884712D01*
X14966393Y-40806817D01*
X14966392Y-40806814D01*
X14900500Y-40692686D01*
X14900498Y-40692684D01*
X14900495Y-40692680D01*
X14807319Y-40599504D01*
X14807315Y-40599501D01*
X14807314Y-40599500D01*
X14728724Y-40554126D01*
X14699605Y-40516176D01*
X14705848Y-40468750D01*
X14728723Y-40445874D01*
X14807314Y-40400500D01*
X14900500Y-40307314D01*
X14966392Y-40193186D01*
X15000500Y-40065892D01*
X15000500Y-39934108D01*
X14974420Y-39836774D01*
X14966393Y-39806817D01*
X14966392Y-39806814D01*
X14930095Y-39743946D01*
X14900500Y-39692686D01*
X14900498Y-39692684D01*
X14900495Y-39692680D01*
X14807319Y-39599504D01*
X14807315Y-39599501D01*
X14807314Y-39599500D01*
X14728724Y-39554126D01*
X14699605Y-39516176D01*
X14705848Y-39468750D01*
X14728723Y-39445874D01*
X14807314Y-39400500D01*
X14900500Y-39307314D01*
X14966392Y-39193186D01*
X15000500Y-39065892D01*
X15000500Y-38934108D01*
X14968959Y-38816393D01*
X14966393Y-38806817D01*
X14966392Y-38806814D01*
X14933879Y-38750500D01*
X14900500Y-38692686D01*
X14900498Y-38692684D01*
X14900495Y-38692680D01*
X14807319Y-38599504D01*
X14807315Y-38599501D01*
X14807314Y-38599500D01*
X14728724Y-38554126D01*
X14699605Y-38516176D01*
X14705848Y-38468750D01*
X14728723Y-38445874D01*
X14807314Y-38400500D01*
X14900500Y-38307314D01*
X14911603Y-38288081D01*
X14913896Y-38284109D01*
X30049500Y-38284109D01*
X30049500Y-38415890D01*
X30049501Y-38415898D01*
X30083606Y-38543182D01*
X30083607Y-38543185D01*
X30149501Y-38657315D01*
X30149504Y-38657319D01*
X30242680Y-38750495D01*
X30242684Y-38750498D01*
X30242686Y-38750500D01*
X30341092Y-38807315D01*
X30356814Y-38816392D01*
X30356817Y-38816393D01*
X30434712Y-38837264D01*
X30484108Y-38850500D01*
X30484109Y-38850500D01*
X30615891Y-38850500D01*
X30615892Y-38850500D01*
X30743186Y-38816392D01*
X30857314Y-38750500D01*
X30898306Y-38709507D01*
X30942499Y-38691202D01*
X30986692Y-38709506D01*
X31027686Y-38750500D01*
X31126092Y-38807315D01*
X31141814Y-38816392D01*
X31141817Y-38816393D01*
X31219712Y-38837264D01*
X31269108Y-38850500D01*
X31269109Y-38850500D01*
X31400891Y-38850500D01*
X31400892Y-38850500D01*
X31528186Y-38816392D01*
X31642314Y-38750500D01*
X31735500Y-38657314D01*
X31801392Y-38543186D01*
X31835500Y-38415892D01*
X31835500Y-38284108D01*
X31811138Y-38193186D01*
X31801393Y-38156817D01*
X31801392Y-38156814D01*
X31768302Y-38099501D01*
X31735500Y-38042686D01*
X31735498Y-38042684D01*
X31735495Y-38042680D01*
X31642319Y-37949504D01*
X31642315Y-37949501D01*
X31642314Y-37949500D01*
X31545834Y-37893797D01*
X31528185Y-37883607D01*
X31528182Y-37883606D01*
X31400898Y-37849501D01*
X31400893Y-37849500D01*
X31400892Y-37849500D01*
X31269108Y-37849500D01*
X31269107Y-37849500D01*
X31269101Y-37849501D01*
X31141817Y-37883606D01*
X31141814Y-37883607D01*
X31027684Y-37949501D01*
X31027680Y-37949504D01*
X30986694Y-37990491D01*
X30942500Y-38008797D01*
X30898306Y-37990491D01*
X30857319Y-37949504D01*
X30857315Y-37949501D01*
X30857314Y-37949500D01*
X30760834Y-37893797D01*
X30743185Y-37883607D01*
X30743182Y-37883606D01*
X30615898Y-37849501D01*
X30615893Y-37849500D01*
X30615892Y-37849500D01*
X30484108Y-37849500D01*
X30484107Y-37849500D01*
X30484101Y-37849501D01*
X30356817Y-37883606D01*
X30356814Y-37883607D01*
X30242684Y-37949501D01*
X30242680Y-37949504D01*
X30149504Y-38042680D01*
X30149501Y-38042684D01*
X30083607Y-38156814D01*
X30083606Y-38156817D01*
X30049501Y-38284101D01*
X30049500Y-38284109D01*
X14913896Y-38284109D01*
X14934304Y-38248765D01*
X14934305Y-38248762D01*
X14966392Y-38193186D01*
X15000500Y-38065892D01*
X15000500Y-37934108D01*
X14966392Y-37806814D01*
X14900500Y-37692686D01*
X14900498Y-37692684D01*
X14900495Y-37692680D01*
X14807319Y-37599504D01*
X14807315Y-37599501D01*
X14807314Y-37599500D01*
X14750250Y-37566554D01*
X14693185Y-37533607D01*
X14693182Y-37533606D01*
X14565898Y-37499501D01*
X14565893Y-37499500D01*
X14565892Y-37499500D01*
X14434108Y-37499500D01*
X14434107Y-37499500D01*
X14434101Y-37499501D01*
X14306817Y-37533606D01*
X14306814Y-37533607D01*
X14192684Y-37599501D01*
X14192680Y-37599504D01*
X14099504Y-37692680D01*
X14099501Y-37692684D01*
X14033607Y-37806814D01*
X14033606Y-37806817D01*
X13999501Y-37934101D01*
X13999500Y-37934109D01*
X13999500Y-37937000D01*
X13981194Y-37981194D01*
X13937000Y-37999500D01*
X13934108Y-37999500D01*
X13934107Y-37999500D01*
X13934101Y-37999501D01*
X13806817Y-38033606D01*
X13806814Y-38033607D01*
X13692684Y-38099501D01*
X13692680Y-38099504D01*
X13599504Y-38192680D01*
X13599501Y-38192684D01*
X13533607Y-38306814D01*
X13533606Y-38306817D01*
X13499501Y-38434101D01*
X13499500Y-38434109D01*
X13499500Y-38565890D01*
X13499501Y-38565898D01*
X13533606Y-38693182D01*
X13533607Y-38693185D01*
X13555150Y-38730498D01*
X13599211Y-38806814D01*
X13599501Y-38807315D01*
X13599504Y-38807319D01*
X13692680Y-38900495D01*
X13692689Y-38900502D01*
X13771274Y-38945874D01*
X13800394Y-38983824D01*
X13794150Y-39031250D01*
X13771274Y-39054126D01*
X13692689Y-39099497D01*
X13692680Y-39099504D01*
X13599504Y-39192680D01*
X13599501Y-39192684D01*
X13533607Y-39306814D01*
X13533606Y-39306817D01*
X13499501Y-39434101D01*
X13499500Y-39434109D01*
X13499500Y-39437000D01*
X13481194Y-39481194D01*
X13437000Y-39499500D01*
X13434108Y-39499500D01*
X13434107Y-39499500D01*
X13434101Y-39499501D01*
X13306817Y-39533606D01*
X13306814Y-39533607D01*
X13192684Y-39599501D01*
X13192680Y-39599504D01*
X13099504Y-39692680D01*
X13099501Y-39692684D01*
X13033607Y-39806814D01*
X13033606Y-39806817D01*
X12999501Y-39934101D01*
X12999500Y-39934109D01*
X4488798Y-39934109D01*
X4320211Y-39836775D01*
X4320208Y-39836774D01*
X4227375Y-39798322D01*
X4096100Y-39743946D01*
X4096096Y-39743945D01*
X4096094Y-39743944D01*
X4096083Y-39743940D01*
X3861792Y-39681162D01*
X3621292Y-39649500D01*
X3621288Y-39649500D01*
X3378712Y-39649500D01*
X3378707Y-39649500D01*
X3138207Y-39681162D01*
X3138206Y-39681162D01*
X2903916Y-39743940D01*
X2903905Y-39743944D01*
X2679791Y-39836774D01*
X2679788Y-39836775D01*
X2469713Y-39958062D01*
X2277267Y-40105730D01*
X2277257Y-40105739D01*
X2105739Y-40277257D01*
X2105730Y-40277267D01*
X1958062Y-40469713D01*
X1836775Y-40679788D01*
X1836774Y-40679791D01*
X1783951Y-40807319D01*
X1745354Y-40900502D01*
X1743944Y-40903905D01*
X1743940Y-40903916D01*
X1681162Y-41138206D01*
X1681162Y-41138207D01*
X1649500Y-41378707D01*
X500500Y-41378707D01*
X500500Y-38164109D01*
X10984500Y-38164109D01*
X10984500Y-38295890D01*
X10984501Y-38295898D01*
X11018606Y-38423182D01*
X11018607Y-38423185D01*
X11024914Y-38434109D01*
X11082360Y-38533608D01*
X11084501Y-38537315D01*
X11084504Y-38537319D01*
X11177680Y-38630495D01*
X11177684Y-38630498D01*
X11177686Y-38630500D01*
X11282825Y-38691202D01*
X11291814Y-38696392D01*
X11291817Y-38696393D01*
X11340760Y-38709507D01*
X11419108Y-38730500D01*
X11419109Y-38730500D01*
X11550891Y-38730500D01*
X11550892Y-38730500D01*
X11678186Y-38696392D01*
X11792314Y-38630500D01*
X11838306Y-38584507D01*
X11882499Y-38566202D01*
X11926692Y-38584506D01*
X11972686Y-38630500D01*
X12077825Y-38691202D01*
X12086814Y-38696392D01*
X12086817Y-38696393D01*
X12135760Y-38709507D01*
X12214108Y-38730500D01*
X12214109Y-38730500D01*
X12345891Y-38730500D01*
X12345892Y-38730500D01*
X12473186Y-38696392D01*
X12587314Y-38630500D01*
X12680500Y-38537314D01*
X12746392Y-38423186D01*
X12780500Y-38295892D01*
X12780500Y-38164108D01*
X12754183Y-38065890D01*
X12746393Y-38036817D01*
X12746392Y-38036814D01*
X12724849Y-37999501D01*
X12680500Y-37922686D01*
X12680498Y-37922684D01*
X12680495Y-37922680D01*
X12587319Y-37829504D01*
X12587315Y-37829501D01*
X12587314Y-37829500D01*
X12530250Y-37796554D01*
X12473185Y-37763607D01*
X12473182Y-37763606D01*
X12345898Y-37729501D01*
X12345893Y-37729500D01*
X12345892Y-37729500D01*
X12214108Y-37729500D01*
X12214107Y-37729500D01*
X12214101Y-37729501D01*
X12086817Y-37763606D01*
X12086814Y-37763607D01*
X11972684Y-37829501D01*
X11972680Y-37829504D01*
X11926694Y-37875491D01*
X11882500Y-37893797D01*
X11838306Y-37875491D01*
X11792319Y-37829504D01*
X11792315Y-37829501D01*
X11792314Y-37829500D01*
X11735250Y-37796554D01*
X11678185Y-37763607D01*
X11678182Y-37763606D01*
X11550898Y-37729501D01*
X11550893Y-37729500D01*
X11550892Y-37729500D01*
X11419108Y-37729500D01*
X11419107Y-37729500D01*
X11419101Y-37729501D01*
X11291817Y-37763606D01*
X11291814Y-37763607D01*
X11177684Y-37829501D01*
X11177680Y-37829504D01*
X11084504Y-37922680D01*
X11084501Y-37922684D01*
X11018607Y-38036814D01*
X11018606Y-38036817D01*
X10984501Y-38164101D01*
X10984500Y-38164109D01*
X500500Y-38164109D01*
X500500Y-36574109D01*
X14224500Y-36574109D01*
X14224500Y-36705890D01*
X14224501Y-36705898D01*
X14258606Y-36833182D01*
X14258607Y-36833185D01*
X14324501Y-36947315D01*
X14324504Y-36947319D01*
X14417680Y-37040495D01*
X14417684Y-37040498D01*
X14417686Y-37040500D01*
X14531814Y-37106392D01*
X14531817Y-37106393D01*
X14609712Y-37127264D01*
X14659108Y-37140500D01*
X14659109Y-37140500D01*
X14790891Y-37140500D01*
X14790892Y-37140500D01*
X14918186Y-37106392D01*
X15032314Y-37040500D01*
X15125500Y-36947314D01*
X15191392Y-36833186D01*
X15225500Y-36705892D01*
X15225500Y-36574109D01*
X36264500Y-36574109D01*
X36264500Y-36705890D01*
X36264501Y-36705898D01*
X36298606Y-36833182D01*
X36298607Y-36833185D01*
X36364501Y-36947315D01*
X36364504Y-36947319D01*
X36457680Y-37040495D01*
X36457684Y-37040498D01*
X36457686Y-37040500D01*
X36571814Y-37106392D01*
X36571817Y-37106393D01*
X36649712Y-37127264D01*
X36699108Y-37140500D01*
X36699109Y-37140500D01*
X36830891Y-37140500D01*
X36830892Y-37140500D01*
X36958186Y-37106392D01*
X37072314Y-37040500D01*
X37165500Y-36947314D01*
X37231392Y-36833186D01*
X37265500Y-36705892D01*
X37265500Y-36574108D01*
X37231392Y-36446814D01*
X37165500Y-36332686D01*
X37165498Y-36332684D01*
X37165495Y-36332680D01*
X37072319Y-36239504D01*
X37072315Y-36239501D01*
X37072314Y-36239500D01*
X37015250Y-36206554D01*
X36958185Y-36173607D01*
X36958182Y-36173606D01*
X36830898Y-36139501D01*
X36830893Y-36139500D01*
X36830892Y-36139500D01*
X36699108Y-36139500D01*
X36699107Y-36139500D01*
X36699101Y-36139501D01*
X36571817Y-36173606D01*
X36571814Y-36173607D01*
X36457684Y-36239501D01*
X36457680Y-36239504D01*
X36364504Y-36332680D01*
X36364501Y-36332684D01*
X36298607Y-36446814D01*
X36298606Y-36446817D01*
X36264501Y-36574101D01*
X36264500Y-36574109D01*
X15225500Y-36574109D01*
X15225500Y-36574108D01*
X15191392Y-36446814D01*
X15125500Y-36332686D01*
X15125498Y-36332684D01*
X15125495Y-36332680D01*
X15032319Y-36239504D01*
X15032315Y-36239501D01*
X15032314Y-36239500D01*
X14975250Y-36206554D01*
X14918185Y-36173607D01*
X14918182Y-36173606D01*
X14790898Y-36139501D01*
X14790893Y-36139500D01*
X14790892Y-36139500D01*
X14659108Y-36139500D01*
X14659107Y-36139500D01*
X14659101Y-36139501D01*
X14531817Y-36173606D01*
X14531814Y-36173607D01*
X14417684Y-36239501D01*
X14417680Y-36239504D01*
X14324504Y-36332680D01*
X14324501Y-36332684D01*
X14258607Y-36446814D01*
X14258606Y-36446817D01*
X14224501Y-36574101D01*
X14224500Y-36574109D01*
X500500Y-36574109D01*
X500500Y-34279870D01*
X1799500Y-34279870D01*
X1799500Y-34411651D01*
X1799501Y-34411659D01*
X1833606Y-34538943D01*
X1833607Y-34538946D01*
X1899501Y-34653076D01*
X1899504Y-34653080D01*
X1975110Y-34728686D01*
X1993416Y-34772880D01*
X1975110Y-34817074D01*
X1899504Y-34892680D01*
X1899501Y-34892684D01*
X1833607Y-35006814D01*
X1833606Y-35006817D01*
X1799501Y-35134101D01*
X1799500Y-35134109D01*
X1799500Y-35265890D01*
X1799501Y-35265898D01*
X1833606Y-35393182D01*
X1833607Y-35393185D01*
X1899501Y-35507315D01*
X1899504Y-35507319D01*
X1992680Y-35600495D01*
X1992684Y-35600498D01*
X1992686Y-35600500D01*
X2106814Y-35666392D01*
X2106817Y-35666393D01*
X2184712Y-35687264D01*
X2234108Y-35700500D01*
X2234109Y-35700500D01*
X2365891Y-35700500D01*
X2365892Y-35700500D01*
X2493186Y-35666392D01*
X2607314Y-35600500D01*
X2700500Y-35507314D01*
X2766392Y-35393186D01*
X2800500Y-35265892D01*
X2800500Y-35134108D01*
X2766392Y-35006814D01*
X2700500Y-34892686D01*
X2700498Y-34892684D01*
X2700495Y-34892680D01*
X2624889Y-34817074D01*
X2606583Y-34772880D01*
X2624889Y-34728686D01*
X2629661Y-34723914D01*
X2700500Y-34653075D01*
X2766392Y-34538947D01*
X2800500Y-34411653D01*
X2800500Y-34279869D01*
X2766392Y-34152575D01*
X2700500Y-34038447D01*
X2700498Y-34038445D01*
X2700495Y-34038441D01*
X2607319Y-33945265D01*
X2607315Y-33945262D01*
X2607314Y-33945261D01*
X2535131Y-33903586D01*
X2506013Y-33865637D01*
X2512256Y-33818211D01*
X2535130Y-33795336D01*
X2608078Y-33753220D01*
X2701264Y-33660034D01*
X2767156Y-33545906D01*
X2801264Y-33418612D01*
X2801264Y-33286828D01*
X2779959Y-33207315D01*
X2767157Y-33159537D01*
X2767156Y-33159534D01*
X2736894Y-33107119D01*
X2701264Y-33045406D01*
X2701262Y-33045404D01*
X2701259Y-33045400D01*
X2608081Y-32952222D01*
X2597084Y-32945873D01*
X2533408Y-32909109D01*
X5024500Y-32909109D01*
X5024500Y-33040890D01*
X5024501Y-33040898D01*
X5058606Y-33168182D01*
X5058607Y-33168185D01*
X5124501Y-33282315D01*
X5124504Y-33282319D01*
X5217680Y-33375495D01*
X5217684Y-33375498D01*
X5217686Y-33375500D01*
X5319186Y-33434101D01*
X5331814Y-33441392D01*
X5331817Y-33441393D01*
X5409712Y-33462264D01*
X5459108Y-33475500D01*
X5459109Y-33475500D01*
X5590891Y-33475500D01*
X5590892Y-33475500D01*
X5718186Y-33441392D01*
X5832314Y-33375500D01*
X5925500Y-33282314D01*
X5991392Y-33168186D01*
X6025500Y-33040892D01*
X6025500Y-32909108D01*
X6005404Y-32834109D01*
X29399500Y-32834109D01*
X29399500Y-32965890D01*
X29399501Y-32965898D01*
X29433606Y-33093182D01*
X29433607Y-33093185D01*
X29441652Y-33107119D01*
X29491054Y-33192686D01*
X29499501Y-33207315D01*
X29499504Y-33207319D01*
X29592680Y-33300495D01*
X29592684Y-33300498D01*
X29592686Y-33300500D01*
X29701576Y-33363368D01*
X29706814Y-33366392D01*
X29706817Y-33366393D01*
X29784712Y-33387264D01*
X29834108Y-33400500D01*
X29834109Y-33400500D01*
X29965891Y-33400500D01*
X29965892Y-33400500D01*
X30093186Y-33366392D01*
X30207314Y-33300500D01*
X30300500Y-33207314D01*
X30344623Y-33130889D01*
X30357307Y-33121157D01*
X30366900Y-33108364D01*
X30375601Y-33107119D01*
X30382574Y-33101770D01*
X30398424Y-33103856D01*
X30414254Y-33101593D01*
X30421188Y-33106853D01*
X30430000Y-33108013D01*
X30452526Y-33130290D01*
X30452687Y-33130561D01*
X30497000Y-33207314D01*
X30499809Y-33210123D01*
X30503823Y-33216900D01*
X30506178Y-33233376D01*
X30512547Y-33248750D01*
X30509447Y-33256233D01*
X30510594Y-33264254D01*
X30500608Y-33277570D01*
X30497397Y-33285323D01*
X30499496Y-33286933D01*
X30497001Y-33290184D01*
X30431107Y-33404314D01*
X30431106Y-33404317D01*
X30397001Y-33531601D01*
X30397000Y-33531609D01*
X30397000Y-33663390D01*
X30397001Y-33663398D01*
X30431106Y-33790682D01*
X30431107Y-33790685D01*
X30447520Y-33819112D01*
X30496292Y-33903588D01*
X30497001Y-33904815D01*
X30497004Y-33904819D01*
X30590180Y-33997995D01*
X30590184Y-33997998D01*
X30590186Y-33998000D01*
X30702769Y-34063000D01*
X30704314Y-34063892D01*
X30704317Y-34063893D01*
X30718742Y-34067758D01*
X30831608Y-34098000D01*
X30831609Y-34098000D01*
X30963391Y-34098000D01*
X30963392Y-34098000D01*
X31090686Y-34063892D01*
X31204814Y-33998000D01*
X31298000Y-33904814D01*
X31363892Y-33790686D01*
X31398000Y-33663392D01*
X31398000Y-33531608D01*
X31373827Y-33441392D01*
X31363893Y-33404317D01*
X31363892Y-33404314D01*
X31341998Y-33366393D01*
X31298000Y-33290186D01*
X31297998Y-33290184D01*
X31295504Y-33286933D01*
X31297647Y-33285288D01*
X31282452Y-33248976D01*
X31297554Y-33212140D01*
X31295504Y-33210567D01*
X31297994Y-33207319D01*
X31298000Y-33207314D01*
X31363892Y-33093186D01*
X31398000Y-32965892D01*
X31398000Y-32834108D01*
X31381846Y-32773819D01*
X31363893Y-32706817D01*
X31363892Y-32706814D01*
X31356023Y-32693185D01*
X31298000Y-32592686D01*
X31297998Y-32592684D01*
X31297995Y-32592680D01*
X31204819Y-32499504D01*
X31204815Y-32499501D01*
X31204814Y-32499500D01*
X31091554Y-32434109D01*
X32999500Y-32434109D01*
X32999500Y-32565890D01*
X32999501Y-32565898D01*
X33033606Y-32693182D01*
X33033607Y-32693185D01*
X33099501Y-32807315D01*
X33099504Y-32807319D01*
X33192680Y-32900495D01*
X33192689Y-32900502D01*
X33271274Y-32945874D01*
X33300394Y-32983824D01*
X33294150Y-33031250D01*
X33271274Y-33054126D01*
X33192689Y-33099497D01*
X33192680Y-33099504D01*
X33099504Y-33192680D01*
X33099501Y-33192684D01*
X33033607Y-33306814D01*
X33033606Y-33306817D01*
X32999501Y-33434101D01*
X32999500Y-33434109D01*
X32999500Y-33565890D01*
X32999501Y-33565898D01*
X33033606Y-33693182D01*
X33033607Y-33693185D01*
X33033608Y-33693186D01*
X33092583Y-33795334D01*
X33099501Y-33807315D01*
X33099504Y-33807319D01*
X33192680Y-33900495D01*
X33192684Y-33900498D01*
X33192686Y-33900500D01*
X33292566Y-33958166D01*
X33306814Y-33966392D01*
X33306817Y-33966393D01*
X33384712Y-33987264D01*
X33434108Y-34000500D01*
X33437000Y-34000500D01*
X33481194Y-34018806D01*
X33499500Y-34063000D01*
X33499500Y-34065890D01*
X33499501Y-34065898D01*
X33533606Y-34193182D01*
X33533607Y-34193185D01*
X33599501Y-34307315D01*
X33599504Y-34307319D01*
X33692680Y-34400495D01*
X33692684Y-34400498D01*
X33692686Y-34400500D01*
X33806814Y-34466392D01*
X33806817Y-34466393D01*
X33884712Y-34487264D01*
X33934108Y-34500500D01*
X33934109Y-34500500D01*
X34065891Y-34500500D01*
X34065892Y-34500500D01*
X34193186Y-34466392D01*
X34307314Y-34400500D01*
X34400500Y-34307314D01*
X34445873Y-34228724D01*
X34483824Y-34199605D01*
X34531250Y-34205848D01*
X34554125Y-34228723D01*
X34599500Y-34307314D01*
X34599501Y-34307315D01*
X34599504Y-34307319D01*
X34692680Y-34400495D01*
X34692684Y-34400498D01*
X34692686Y-34400500D01*
X34806814Y-34466392D01*
X34806817Y-34466393D01*
X34884712Y-34487264D01*
X34934108Y-34500500D01*
X34934109Y-34500500D01*
X35065891Y-34500500D01*
X35065892Y-34500500D01*
X35193186Y-34466392D01*
X35307314Y-34400500D01*
X35400500Y-34307314D01*
X35445873Y-34228724D01*
X35483824Y-34199605D01*
X35531250Y-34205848D01*
X35554125Y-34228723D01*
X35599500Y-34307314D01*
X35599501Y-34307315D01*
X35599504Y-34307319D01*
X35692680Y-34400495D01*
X35692684Y-34400498D01*
X35692686Y-34400500D01*
X35806814Y-34466392D01*
X35806817Y-34466393D01*
X35884712Y-34487264D01*
X35934108Y-34500500D01*
X35934109Y-34500500D01*
X36065891Y-34500500D01*
X36065892Y-34500500D01*
X36193186Y-34466392D01*
X36307314Y-34400500D01*
X36400500Y-34307314D01*
X36466392Y-34193186D01*
X36477573Y-34151458D01*
X38499500Y-34151458D01*
X38499500Y-34348541D01*
X38537948Y-34541833D01*
X38537949Y-34541835D01*
X38613368Y-34723914D01*
X38722861Y-34887782D01*
X38862218Y-35027139D01*
X39026086Y-35136632D01*
X39208165Y-35212051D01*
X39401459Y-35250500D01*
X39598541Y-35250500D01*
X39791835Y-35212051D01*
X39973914Y-35136632D01*
X40137782Y-35027139D01*
X40277139Y-34887782D01*
X40386632Y-34723914D01*
X40462051Y-34541835D01*
X40500500Y-34348541D01*
X40500500Y-34151459D01*
X40462051Y-33958165D01*
X40386632Y-33776086D01*
X40277139Y-33612218D01*
X40137782Y-33472861D01*
X40079785Y-33434109D01*
X40055848Y-33418114D01*
X39973914Y-33363368D01*
X39791835Y-33287949D01*
X39791833Y-33287948D01*
X39598541Y-33249500D01*
X39401459Y-33249500D01*
X39208166Y-33287948D01*
X39026084Y-33363369D01*
X38862218Y-33472860D01*
X38722860Y-33612218D01*
X38613369Y-33776084D01*
X38537948Y-33958166D01*
X38499500Y-34151458D01*
X36477573Y-34151458D01*
X36500500Y-34065892D01*
X36500500Y-34055812D01*
X36502131Y-34048814D01*
X36512194Y-34034767D01*
X36518806Y-34018806D01*
X36525665Y-34015964D01*
X36529990Y-34009929D01*
X36547036Y-34007112D01*
X36563000Y-34000500D01*
X36565891Y-34000500D01*
X36565892Y-34000500D01*
X36693186Y-33966392D01*
X36807314Y-33900500D01*
X36900500Y-33807314D01*
X36966392Y-33693186D01*
X37000500Y-33565892D01*
X37000500Y-33434108D01*
X36981546Y-33363369D01*
X36966393Y-33306817D01*
X36966392Y-33306814D01*
X36954914Y-33286933D01*
X36900500Y-33192686D01*
X36900498Y-33192684D01*
X36900495Y-33192680D01*
X36807319Y-33099504D01*
X36807315Y-33099501D01*
X36807314Y-33099500D01*
X36728724Y-33054126D01*
X36699605Y-33016176D01*
X36705848Y-32968750D01*
X36728723Y-32945874D01*
X36807314Y-32900500D01*
X36900500Y-32807314D01*
X36966392Y-32693186D01*
X37000500Y-32565892D01*
X37000500Y-32434108D01*
X36966392Y-32306814D01*
X36900500Y-32192686D01*
X36900498Y-32192684D01*
X36900495Y-32192680D01*
X36807319Y-32099504D01*
X36807315Y-32099501D01*
X36807314Y-32099500D01*
X36749969Y-32066392D01*
X36693185Y-32033607D01*
X36693182Y-32033606D01*
X36565898Y-31999501D01*
X36565893Y-31999500D01*
X36565892Y-31999500D01*
X36434108Y-31999500D01*
X36434107Y-31999500D01*
X36434101Y-31999501D01*
X36306817Y-32033606D01*
X36306814Y-32033607D01*
X36192684Y-32099501D01*
X36192680Y-32099504D01*
X36099504Y-32192680D01*
X36099497Y-32192689D01*
X36054126Y-32271274D01*
X36016176Y-32300394D01*
X35968750Y-32294150D01*
X35945874Y-32271274D01*
X35900502Y-32192689D01*
X35900495Y-32192680D01*
X35807319Y-32099504D01*
X35807315Y-32099501D01*
X35807314Y-32099500D01*
X35749969Y-32066392D01*
X35693185Y-32033607D01*
X35693182Y-32033606D01*
X35565898Y-31999501D01*
X35565893Y-31999500D01*
X35565892Y-31999500D01*
X35434108Y-31999500D01*
X35434107Y-31999500D01*
X35434101Y-31999501D01*
X35306817Y-32033606D01*
X35306814Y-32033607D01*
X35192684Y-32099501D01*
X35192680Y-32099504D01*
X35099504Y-32192680D01*
X35099497Y-32192689D01*
X35054126Y-32271274D01*
X35016176Y-32300394D01*
X34968750Y-32294150D01*
X34945874Y-32271274D01*
X34900502Y-32192689D01*
X34900495Y-32192680D01*
X34807319Y-32099504D01*
X34807315Y-32099501D01*
X34807314Y-32099500D01*
X34749969Y-32066392D01*
X34693185Y-32033607D01*
X34693182Y-32033606D01*
X34565898Y-31999501D01*
X34565893Y-31999500D01*
X34565892Y-31999500D01*
X34434108Y-31999500D01*
X34434107Y-31999500D01*
X34434101Y-31999501D01*
X34306817Y-32033606D01*
X34306814Y-32033607D01*
X34192684Y-32099501D01*
X34192680Y-32099504D01*
X34099504Y-32192680D01*
X34099497Y-32192689D01*
X34054126Y-32271274D01*
X34016176Y-32300394D01*
X33968750Y-32294150D01*
X33945874Y-32271274D01*
X33900502Y-32192689D01*
X33900495Y-32192680D01*
X33807319Y-32099504D01*
X33807315Y-32099501D01*
X33807314Y-32099500D01*
X33749969Y-32066392D01*
X33693185Y-32033607D01*
X33693182Y-32033606D01*
X33565898Y-31999501D01*
X33565893Y-31999500D01*
X33565892Y-31999500D01*
X33434108Y-31999500D01*
X33434107Y-31999500D01*
X33434101Y-31999501D01*
X33306817Y-32033606D01*
X33306814Y-32033607D01*
X33192684Y-32099501D01*
X33192680Y-32099504D01*
X33099504Y-32192680D01*
X33099501Y-32192684D01*
X33033607Y-32306814D01*
X33033606Y-32306817D01*
X32999501Y-32434101D01*
X32999500Y-32434109D01*
X31091554Y-32434109D01*
X31090685Y-32433607D01*
X31090682Y-32433606D01*
X30963398Y-32399501D01*
X30963393Y-32399500D01*
X30963392Y-32399500D01*
X30831608Y-32399500D01*
X30831607Y-32399500D01*
X30831601Y-32399501D01*
X30704317Y-32433606D01*
X30704314Y-32433607D01*
X30590184Y-32499501D01*
X30590180Y-32499504D01*
X30497004Y-32592680D01*
X30496997Y-32592689D01*
X30452876Y-32669109D01*
X30414926Y-32698229D01*
X30367500Y-32691985D01*
X30344624Y-32669109D01*
X30300502Y-32592689D01*
X30300495Y-32592680D01*
X30207319Y-32499504D01*
X30207315Y-32499501D01*
X30207314Y-32499500D01*
X30094054Y-32434109D01*
X30093185Y-32433607D01*
X30093182Y-32433606D01*
X29965898Y-32399501D01*
X29965893Y-32399500D01*
X29965892Y-32399500D01*
X29834108Y-32399500D01*
X29834107Y-32399500D01*
X29834101Y-32399501D01*
X29706817Y-32433606D01*
X29706814Y-32433607D01*
X29592684Y-32499501D01*
X29592680Y-32499504D01*
X29499504Y-32592680D01*
X29499501Y-32592684D01*
X29433607Y-32706814D01*
X29433606Y-32706817D01*
X29399501Y-32834101D01*
X29399500Y-32834109D01*
X6005404Y-32834109D01*
X5991392Y-32781814D01*
X5925500Y-32667686D01*
X5925498Y-32667684D01*
X5925495Y-32667680D01*
X5832319Y-32574504D01*
X5832315Y-32574501D01*
X5832314Y-32574500D01*
X5775250Y-32541554D01*
X5718185Y-32508607D01*
X5718182Y-32508606D01*
X5590898Y-32474501D01*
X5590893Y-32474500D01*
X5590892Y-32474500D01*
X5459108Y-32474500D01*
X5459107Y-32474500D01*
X5459101Y-32474501D01*
X5331817Y-32508606D01*
X5331814Y-32508607D01*
X5217684Y-32574501D01*
X5217680Y-32574504D01*
X5124504Y-32667680D01*
X5124501Y-32667684D01*
X5058607Y-32781814D01*
X5058606Y-32781817D01*
X5024501Y-32909101D01*
X5024500Y-32909109D01*
X2533408Y-32909109D01*
X2533394Y-32909101D01*
X2493949Y-32886327D01*
X2493946Y-32886326D01*
X2366662Y-32852221D01*
X2366657Y-32852220D01*
X2366656Y-32852220D01*
X2234872Y-32852220D01*
X2234871Y-32852220D01*
X2234865Y-32852221D01*
X2107581Y-32886326D01*
X2107578Y-32886327D01*
X1993448Y-32952221D01*
X1993444Y-32952224D01*
X1900268Y-33045400D01*
X1900265Y-33045404D01*
X1834371Y-33159534D01*
X1834370Y-33159537D01*
X1800265Y-33286821D01*
X1800264Y-33286829D01*
X1800264Y-33418610D01*
X1800265Y-33418618D01*
X1834370Y-33545902D01*
X1834371Y-33545905D01*
X1900265Y-33660035D01*
X1900268Y-33660039D01*
X1993447Y-33753218D01*
X1993449Y-33753219D01*
X1993450Y-33753220D01*
X2065631Y-33794894D01*
X2094750Y-33832842D01*
X2088507Y-33880269D01*
X2065631Y-33903145D01*
X1992686Y-33945260D01*
X1992680Y-33945265D01*
X1899504Y-34038441D01*
X1899501Y-34038445D01*
X1833607Y-34152575D01*
X1833606Y-34152578D01*
X1799501Y-34279862D01*
X1799500Y-34279870D01*
X500500Y-34279870D01*
X500500Y-32241535D01*
X16584500Y-32241535D01*
X16584500Y-32373316D01*
X16584501Y-32373324D01*
X16618606Y-32500608D01*
X16618607Y-32500611D01*
X16684501Y-32614741D01*
X16684504Y-32614745D01*
X16777680Y-32707921D01*
X16777684Y-32707924D01*
X16777686Y-32707926D01*
X16891814Y-32773818D01*
X16891817Y-32773819D01*
X16921667Y-32781817D01*
X17019108Y-32807926D01*
X17019109Y-32807926D01*
X17150891Y-32807926D01*
X17150892Y-32807926D01*
X17278186Y-32773818D01*
X17392314Y-32707926D01*
X17485500Y-32614740D01*
X17551392Y-32500612D01*
X17585500Y-32373318D01*
X17585500Y-32241534D01*
X17551392Y-32114240D01*
X17485500Y-32000112D01*
X17485498Y-32000110D01*
X17485495Y-32000106D01*
X17392319Y-31906930D01*
X17392315Y-31906927D01*
X17392314Y-31906926D01*
X17335250Y-31873980D01*
X17278185Y-31841033D01*
X17278182Y-31841032D01*
X17150898Y-31806927D01*
X17150893Y-31806926D01*
X17150892Y-31806926D01*
X17019108Y-31806926D01*
X17019107Y-31806926D01*
X17019101Y-31806927D01*
X16891817Y-31841032D01*
X16891814Y-31841033D01*
X16777684Y-31906927D01*
X16777680Y-31906930D01*
X16684504Y-32000106D01*
X16684501Y-32000110D01*
X16618607Y-32114240D01*
X16618606Y-32114243D01*
X16584501Y-32241527D01*
X16584500Y-32241535D01*
X500500Y-32241535D01*
X500500Y-31568885D01*
X500499Y-31568874D01*
X496457Y-31538170D01*
X495922Y-31534109D01*
X5199500Y-31534109D01*
X5199500Y-31665890D01*
X5199501Y-31665898D01*
X5233606Y-31793182D01*
X5233607Y-31793185D01*
X5261233Y-31841034D01*
X5299278Y-31906930D01*
X5299501Y-31907315D01*
X5299504Y-31907319D01*
X5392680Y-32000495D01*
X5392684Y-32000498D01*
X5392686Y-32000500D01*
X5450031Y-32033608D01*
X5506814Y-32066392D01*
X5506817Y-32066393D01*
X5584712Y-32087264D01*
X5634108Y-32100500D01*
X5634109Y-32100500D01*
X5765891Y-32100500D01*
X5765892Y-32100500D01*
X5893186Y-32066392D01*
X6007314Y-32000500D01*
X6100500Y-31907314D01*
X6166392Y-31793186D01*
X6200500Y-31665892D01*
X6200500Y-31534108D01*
X6166392Y-31406814D01*
X6100500Y-31292686D01*
X6100498Y-31292684D01*
X6100495Y-31292680D01*
X6007319Y-31199504D01*
X6007315Y-31199501D01*
X6007314Y-31199500D01*
X5922416Y-31150484D01*
X5893185Y-31133607D01*
X5893182Y-31133606D01*
X5765898Y-31099501D01*
X5765893Y-31099500D01*
X5765892Y-31099500D01*
X5634108Y-31099500D01*
X5634107Y-31099500D01*
X5634101Y-31099501D01*
X5506817Y-31133606D01*
X5506814Y-31133607D01*
X5392684Y-31199501D01*
X5392680Y-31199504D01*
X5299504Y-31292680D01*
X5299501Y-31292684D01*
X5233607Y-31406814D01*
X5233606Y-31406817D01*
X5199501Y-31534101D01*
X5199500Y-31534109D01*
X495922Y-31534109D01*
X486796Y-31464792D01*
X466270Y-31308884D01*
X461929Y-31292684D01*
X422222Y-31144493D01*
X398398Y-31055581D01*
X298043Y-30813303D01*
X166924Y-30586197D01*
X111157Y-30513520D01*
X4440996Y-30513520D01*
X4440996Y-30645301D01*
X4440997Y-30645309D01*
X4475102Y-30772593D01*
X4475103Y-30772596D01*
X4540997Y-30886726D01*
X4541000Y-30886730D01*
X4634176Y-30979906D01*
X4634180Y-30979909D01*
X4634182Y-30979911D01*
X4728833Y-31034558D01*
X4748310Y-31045803D01*
X4748313Y-31045804D01*
X4817335Y-31064298D01*
X4875604Y-31079911D01*
X4875605Y-31079911D01*
X5007387Y-31079911D01*
X5007388Y-31079911D01*
X5134682Y-31045803D01*
X5248810Y-30979911D01*
X5296212Y-30932509D01*
X6299500Y-30932509D01*
X6299500Y-31064290D01*
X6299501Y-31064298D01*
X6333606Y-31191582D01*
X6333607Y-31191585D01*
X6352423Y-31224174D01*
X6391978Y-31292686D01*
X6399501Y-31305715D01*
X6399504Y-31305719D01*
X6492680Y-31398895D01*
X6492684Y-31398898D01*
X6492686Y-31398900D01*
X6606814Y-31464792D01*
X6606817Y-31464793D01*
X6684712Y-31485664D01*
X6734108Y-31498900D01*
X6734109Y-31498900D01*
X6865891Y-31498900D01*
X6865892Y-31498900D01*
X6993186Y-31464792D01*
X7107314Y-31398900D01*
X7200500Y-31305714D01*
X7266392Y-31191586D01*
X7300500Y-31064292D01*
X7300500Y-30932508D01*
X7278207Y-30849307D01*
X7266393Y-30805217D01*
X7266392Y-30805214D01*
X7200500Y-30691086D01*
X7200498Y-30691084D01*
X7200495Y-30691080D01*
X7107319Y-30597904D01*
X7107315Y-30597901D01*
X7107314Y-30597900D01*
X7037017Y-30557314D01*
X6993185Y-30532007D01*
X6993182Y-30532006D01*
X6865898Y-30497901D01*
X6865893Y-30497900D01*
X6865892Y-30497900D01*
X6734108Y-30497900D01*
X6734107Y-30497900D01*
X6734101Y-30497901D01*
X6606817Y-30532006D01*
X6606814Y-30532007D01*
X6492684Y-30597901D01*
X6492680Y-30597904D01*
X6399504Y-30691080D01*
X6399501Y-30691084D01*
X6333607Y-30805214D01*
X6333606Y-30805217D01*
X6299501Y-30932501D01*
X6299500Y-30932509D01*
X5296212Y-30932509D01*
X5341996Y-30886725D01*
X5407888Y-30772597D01*
X5441996Y-30645303D01*
X5441996Y-30513519D01*
X5441961Y-30513390D01*
X5423955Y-30446189D01*
X5423955Y-30446188D01*
X5420718Y-30434109D01*
X10999500Y-30434109D01*
X10999500Y-30565890D01*
X10999501Y-30565898D01*
X11033606Y-30693182D01*
X11033607Y-30693185D01*
X11055262Y-30730692D01*
X11098289Y-30805217D01*
X11099501Y-30807315D01*
X11099504Y-30807319D01*
X11192680Y-30900495D01*
X11192684Y-30900498D01*
X11192686Y-30900500D01*
X11302482Y-30963891D01*
X11306814Y-30966392D01*
X11306817Y-30966393D01*
X11357268Y-30979911D01*
X11434108Y-31000500D01*
X11434109Y-31000500D01*
X11565891Y-31000500D01*
X11565892Y-31000500D01*
X11693186Y-30966392D01*
X11807314Y-30900500D01*
X11900500Y-30807314D01*
X11945873Y-30728724D01*
X11983824Y-30699605D01*
X12031250Y-30705848D01*
X12054125Y-30728723D01*
X12099500Y-30807314D01*
X12099501Y-30807315D01*
X12099504Y-30807319D01*
X12192680Y-30900495D01*
X12192684Y-30900498D01*
X12192686Y-30900500D01*
X12302482Y-30963891D01*
X12306814Y-30966392D01*
X12306817Y-30966393D01*
X12434098Y-31000498D01*
X12434102Y-31000498D01*
X12434108Y-31000500D01*
X12434113Y-31000500D01*
X12435094Y-31000629D01*
X12435533Y-31000882D01*
X12438065Y-31001561D01*
X12437883Y-31002238D01*
X12476525Y-31024540D01*
X12487317Y-31046420D01*
X12513594Y-31144489D01*
X12513595Y-31144492D01*
X12579489Y-31258622D01*
X12579492Y-31258626D01*
X12672668Y-31351802D01*
X12672672Y-31351805D01*
X12672674Y-31351807D01*
X12767949Y-31406814D01*
X12786802Y-31417699D01*
X12786805Y-31417700D01*
X12864700Y-31438571D01*
X12914096Y-31451807D01*
X12914097Y-31451807D01*
X13045879Y-31451807D01*
X13045880Y-31451807D01*
X13173174Y-31417699D01*
X13287302Y-31351807D01*
X13380488Y-31258621D01*
X13446380Y-31144493D01*
X13461463Y-31088198D01*
X13490582Y-31050251D01*
X13538009Y-31044006D01*
X13575959Y-31073126D01*
X13582203Y-31088201D01*
X13597285Y-31144488D01*
X13597286Y-31144492D01*
X13663180Y-31258622D01*
X13663183Y-31258626D01*
X13756359Y-31351802D01*
X13756363Y-31351805D01*
X13756365Y-31351807D01*
X13851640Y-31406814D01*
X13870493Y-31417699D01*
X13870496Y-31417700D01*
X13948391Y-31438571D01*
X13997787Y-31451807D01*
X13997788Y-31451807D01*
X14129570Y-31451807D01*
X14129571Y-31451807D01*
X14256865Y-31417699D01*
X14370993Y-31351807D01*
X14464179Y-31258621D01*
X14530071Y-31144493D01*
X14535985Y-31122418D01*
X14559528Y-31034558D01*
X14588648Y-30996607D01*
X14603722Y-30990364D01*
X14693182Y-30966393D01*
X14693180Y-30966393D01*
X14693186Y-30966392D01*
X14807314Y-30900500D01*
X14900500Y-30807314D01*
X14929097Y-30757783D01*
X17934500Y-30757783D01*
X17934500Y-30889564D01*
X17934501Y-30889572D01*
X17968606Y-31016856D01*
X17968607Y-31016859D01*
X17992091Y-31057534D01*
X18016320Y-31099500D01*
X18034501Y-31130989D01*
X18034504Y-31130993D01*
X18127680Y-31224169D01*
X18127684Y-31224172D01*
X18127686Y-31224174D01*
X18227279Y-31281674D01*
X18241814Y-31290066D01*
X18241817Y-31290067D01*
X18300214Y-31305714D01*
X18369108Y-31324174D01*
X18369109Y-31324174D01*
X18500891Y-31324174D01*
X18500892Y-31324174D01*
X18628186Y-31290066D01*
X18742314Y-31224174D01*
X18835500Y-31130988D01*
X18901392Y-31016860D01*
X18935500Y-30889566D01*
X18935500Y-30815285D01*
X24380676Y-30815285D01*
X24380676Y-30947066D01*
X24380677Y-30947074D01*
X24414782Y-31074358D01*
X24414783Y-31074361D01*
X24480677Y-31188491D01*
X24480680Y-31188495D01*
X24573856Y-31281671D01*
X24573860Y-31281674D01*
X24573862Y-31281676D01*
X24647471Y-31324174D01*
X24687990Y-31347568D01*
X24687993Y-31347569D01*
X24765888Y-31368440D01*
X24815284Y-31381676D01*
X24815285Y-31381676D01*
X24947067Y-31381676D01*
X24947068Y-31381676D01*
X25074362Y-31347568D01*
X25188490Y-31281676D01*
X25281676Y-31188490D01*
X25347568Y-31074362D01*
X25381676Y-30947068D01*
X25381676Y-30815284D01*
X25347568Y-30687990D01*
X25281676Y-30573862D01*
X25281674Y-30573860D01*
X25281671Y-30573856D01*
X25188495Y-30480680D01*
X25188491Y-30480677D01*
X25188490Y-30480676D01*
X25107820Y-30434101D01*
X25074361Y-30414783D01*
X25074358Y-30414782D01*
X24947074Y-30380677D01*
X24947069Y-30380676D01*
X24947068Y-30380676D01*
X24815284Y-30380676D01*
X24815283Y-30380676D01*
X24815277Y-30380677D01*
X24687993Y-30414782D01*
X24687990Y-30414783D01*
X24573860Y-30480677D01*
X24573856Y-30480680D01*
X24480680Y-30573856D01*
X24480677Y-30573860D01*
X24414783Y-30687990D01*
X24414782Y-30687993D01*
X24380677Y-30815277D01*
X24380676Y-30815285D01*
X18935500Y-30815285D01*
X18935500Y-30757782D01*
X18921584Y-30705848D01*
X18901393Y-30630491D01*
X18901392Y-30630488D01*
X18886803Y-30605220D01*
X18835500Y-30516360D01*
X18835498Y-30516358D01*
X18835495Y-30516354D01*
X18742319Y-30423178D01*
X18742315Y-30423175D01*
X18742314Y-30423174D01*
X18668707Y-30380677D01*
X18628185Y-30357281D01*
X18628182Y-30357280D01*
X18500898Y-30323175D01*
X18500893Y-30323174D01*
X18500892Y-30323174D01*
X18369108Y-30323174D01*
X18369107Y-30323174D01*
X18369101Y-30323175D01*
X18241817Y-30357280D01*
X18241814Y-30357281D01*
X18127684Y-30423175D01*
X18127680Y-30423178D01*
X18034504Y-30516354D01*
X18034501Y-30516358D01*
X17968607Y-30630488D01*
X17968606Y-30630491D01*
X17934501Y-30757775D01*
X17934500Y-30757783D01*
X14929097Y-30757783D01*
X14966392Y-30693186D01*
X15000500Y-30565892D01*
X15000500Y-30434108D01*
X14979915Y-30357282D01*
X14966393Y-30306817D01*
X14966392Y-30306814D01*
X14911224Y-30211261D01*
X14900500Y-30192686D01*
X14900498Y-30192684D01*
X14900495Y-30192680D01*
X14891923Y-30184108D01*
X25952447Y-30184108D01*
X25952447Y-30315889D01*
X25952448Y-30315897D01*
X25986553Y-30443181D01*
X25986554Y-30443184D01*
X26008200Y-30480676D01*
X26027162Y-30513519D01*
X26052448Y-30557314D01*
X26052451Y-30557318D01*
X26145627Y-30650494D01*
X26145631Y-30650497D01*
X26145633Y-30650499D01*
X26219569Y-30693186D01*
X26259761Y-30716391D01*
X26259764Y-30716392D01*
X26337659Y-30737263D01*
X26387055Y-30750499D01*
X26387056Y-30750499D01*
X26518838Y-30750499D01*
X26518839Y-30750499D01*
X26592760Y-30730692D01*
X28639500Y-30730692D01*
X28639500Y-30849307D01*
X28639501Y-30849315D01*
X28670200Y-30963885D01*
X28670203Y-30963891D01*
X28729508Y-31066609D01*
X28729515Y-31066618D01*
X28813381Y-31150484D01*
X28813390Y-31150491D01*
X28916108Y-31209796D01*
X28916114Y-31209799D01*
X29030691Y-31240500D01*
X29030692Y-31240500D01*
X29149308Y-31240500D01*
X29149309Y-31240500D01*
X29263886Y-31209799D01*
X29366613Y-31150489D01*
X29450489Y-31066613D01*
X29509799Y-30963886D01*
X29540500Y-30849309D01*
X29540500Y-30730691D01*
X29509799Y-30616114D01*
X29503509Y-30605220D01*
X29450491Y-30513390D01*
X29447993Y-30510134D01*
X29449223Y-30509189D01*
X29432990Y-30469999D01*
X29451295Y-30425806D01*
X29460489Y-30416613D01*
X29519799Y-30313886D01*
X29550500Y-30199309D01*
X29550500Y-30080691D01*
X29519799Y-29966114D01*
X29506272Y-29942685D01*
X29460491Y-29863390D01*
X29460484Y-29863381D01*
X29376618Y-29779515D01*
X29376609Y-29779508D01*
X29273891Y-29720203D01*
X29273885Y-29720200D01*
X29159315Y-29689501D01*
X29159310Y-29689500D01*
X29159309Y-29689500D01*
X29040691Y-29689500D01*
X29040690Y-29689500D01*
X29040684Y-29689501D01*
X28926114Y-29720200D01*
X28926108Y-29720203D01*
X28823390Y-29779508D01*
X28823381Y-29779515D01*
X28739515Y-29863381D01*
X28739508Y-29863390D01*
X28680203Y-29966108D01*
X28680200Y-29966114D01*
X28649501Y-30080684D01*
X28649500Y-30080692D01*
X28649500Y-30199307D01*
X28649501Y-30199315D01*
X28680200Y-30313885D01*
X28680203Y-30313891D01*
X28739508Y-30416609D01*
X28742007Y-30419866D01*
X28740775Y-30420810D01*
X28757009Y-30460000D01*
X28738703Y-30504194D01*
X28729515Y-30513381D01*
X28729508Y-30513390D01*
X28670203Y-30616108D01*
X28670200Y-30616114D01*
X28639501Y-30730684D01*
X28639500Y-30730692D01*
X26592760Y-30730692D01*
X26646133Y-30716391D01*
X26722210Y-30672467D01*
X26722212Y-30672467D01*
X26742226Y-30660911D01*
X26760261Y-30650499D01*
X26853447Y-30557313D01*
X26919339Y-30443185D01*
X26953447Y-30315891D01*
X26953447Y-30184107D01*
X26919339Y-30056813D01*
X26853447Y-29942685D01*
X26853445Y-29942683D01*
X26853442Y-29942679D01*
X26760266Y-29849503D01*
X26760262Y-29849500D01*
X26760261Y-29849499D01*
X26703197Y-29816553D01*
X26646132Y-29783606D01*
X26646129Y-29783605D01*
X26518845Y-29749500D01*
X26518840Y-29749499D01*
X26518839Y-29749499D01*
X26387055Y-29749499D01*
X26387054Y-29749499D01*
X26387048Y-29749500D01*
X26259764Y-29783605D01*
X26259761Y-29783606D01*
X26145631Y-29849500D01*
X26145627Y-29849503D01*
X26052451Y-29942679D01*
X26052448Y-29942683D01*
X25986554Y-30056813D01*
X25986553Y-30056816D01*
X25952448Y-30184100D01*
X25952447Y-30184108D01*
X14891923Y-30184108D01*
X14807319Y-30099504D01*
X14807315Y-30099501D01*
X14807314Y-30099500D01*
X14750250Y-30066554D01*
X14693185Y-30033607D01*
X14693182Y-30033606D01*
X14565898Y-29999501D01*
X14565893Y-29999500D01*
X14565892Y-29999500D01*
X14434108Y-29999500D01*
X14434107Y-29999500D01*
X14434101Y-29999501D01*
X14306817Y-30033606D01*
X14306814Y-30033607D01*
X14192684Y-30099501D01*
X14192680Y-30099504D01*
X14099504Y-30192680D01*
X14099497Y-30192689D01*
X14054126Y-30271274D01*
X14016176Y-30300394D01*
X13968750Y-30294150D01*
X13945874Y-30271274D01*
X13900502Y-30192689D01*
X13900495Y-30192680D01*
X13807319Y-30099504D01*
X13807315Y-30099501D01*
X13807314Y-30099500D01*
X13750250Y-30066554D01*
X13693185Y-30033607D01*
X13693182Y-30033606D01*
X13565898Y-29999501D01*
X13565893Y-29999500D01*
X13565892Y-29999500D01*
X13434108Y-29999500D01*
X13434107Y-29999500D01*
X13434101Y-29999501D01*
X13306817Y-30033606D01*
X13306814Y-30033607D01*
X13192684Y-30099501D01*
X13192680Y-30099504D01*
X13099504Y-30192680D01*
X13099497Y-30192689D01*
X13054126Y-30271274D01*
X13016176Y-30300394D01*
X12968750Y-30294150D01*
X12945874Y-30271274D01*
X12900502Y-30192689D01*
X12900495Y-30192680D01*
X12807319Y-30099504D01*
X12807315Y-30099501D01*
X12807314Y-30099500D01*
X12750250Y-30066554D01*
X12693185Y-30033607D01*
X12693182Y-30033606D01*
X12565898Y-29999501D01*
X12565893Y-29999500D01*
X12565892Y-29999500D01*
X12434108Y-29999500D01*
X12434107Y-29999500D01*
X12434101Y-29999501D01*
X12306817Y-30033606D01*
X12306814Y-30033607D01*
X12192684Y-30099501D01*
X12192680Y-30099504D01*
X12099504Y-30192680D01*
X12099497Y-30192689D01*
X12054126Y-30271274D01*
X12016176Y-30300394D01*
X11968750Y-30294150D01*
X11945874Y-30271274D01*
X11900502Y-30192689D01*
X11900495Y-30192680D01*
X11807319Y-30099504D01*
X11807315Y-30099501D01*
X11807314Y-30099500D01*
X11750250Y-30066554D01*
X11693185Y-30033607D01*
X11693182Y-30033606D01*
X11565898Y-29999501D01*
X11565893Y-29999500D01*
X11565892Y-29999500D01*
X11434108Y-29999500D01*
X11434107Y-29999500D01*
X11434101Y-29999501D01*
X11306817Y-30033606D01*
X11306814Y-30033607D01*
X11192684Y-30099501D01*
X11192680Y-30099504D01*
X11099504Y-30192680D01*
X11099501Y-30192684D01*
X11033607Y-30306814D01*
X11033606Y-30306817D01*
X10999501Y-30434101D01*
X10999500Y-30434109D01*
X5420718Y-30434109D01*
X5407889Y-30386228D01*
X5407888Y-30386225D01*
X5403224Y-30378147D01*
X5341996Y-30272097D01*
X5341994Y-30272095D01*
X5341991Y-30272091D01*
X5248815Y-30178915D01*
X5248811Y-30178912D01*
X5248810Y-30178911D01*
X5191746Y-30145965D01*
X5134681Y-30113018D01*
X5134678Y-30113017D01*
X5007394Y-30078912D01*
X5007389Y-30078911D01*
X5007388Y-30078911D01*
X4875604Y-30078911D01*
X4875603Y-30078911D01*
X4875597Y-30078912D01*
X4748313Y-30113017D01*
X4748310Y-30113018D01*
X4634180Y-30178912D01*
X4634176Y-30178915D01*
X4541000Y-30272091D01*
X4540997Y-30272095D01*
X4475103Y-30386225D01*
X4475102Y-30386228D01*
X4440997Y-30513512D01*
X4440996Y-30513520D01*
X111157Y-30513520D01*
X7282Y-30378149D01*
X-178149Y-30192718D01*
X-386197Y-30033076D01*
X-502179Y-29966114D01*
X-613297Y-29901960D01*
X-613309Y-29901954D01*
X-739948Y-29849499D01*
X-855581Y-29801602D01*
X-855585Y-29801601D01*
X-855587Y-29801600D01*
X-855586Y-29801600D01*
X-1108872Y-29733732D01*
X-1108884Y-29733730D01*
X-1108889Y-29733729D01*
X-1108891Y-29733729D01*
X-1368875Y-29699500D01*
X-1368880Y-29699500D01*
X-1434108Y-29699500D01*
X-3695084Y-29699500D01*
X-3704861Y-29698730D01*
X-3714995Y-29697125D01*
X-3782774Y-29686389D01*
X-3801370Y-29680347D01*
X-3867223Y-29646794D01*
X-3883043Y-29635300D01*
X-3935301Y-29583042D01*
X-3946795Y-29567222D01*
X-3980348Y-29501369D01*
X-3986389Y-29482778D01*
X-3998732Y-29404849D01*
X-3999500Y-29395084D01*
X-3999500Y-28834109D01*
X4899500Y-28834109D01*
X4899500Y-28965890D01*
X4899501Y-28965898D01*
X4933606Y-29093182D01*
X4933607Y-29093185D01*
X4999501Y-29207315D01*
X4999504Y-29207319D01*
X5092680Y-29300495D01*
X5092684Y-29300498D01*
X5092686Y-29300500D01*
X5150897Y-29334108D01*
X5206814Y-29366392D01*
X5206817Y-29366393D01*
X5284712Y-29387264D01*
X5334108Y-29400500D01*
X5334109Y-29400500D01*
X5465891Y-29400500D01*
X5465892Y-29400500D01*
X5593186Y-29366392D01*
X5707314Y-29300500D01*
X5800500Y-29207314D01*
X5866392Y-29093186D01*
X5900500Y-28965892D01*
X5900500Y-28834109D01*
X27369500Y-28834109D01*
X27369500Y-28965890D01*
X27369501Y-28965898D01*
X27403606Y-29093182D01*
X27403607Y-29093185D01*
X27469501Y-29207315D01*
X27469504Y-29207319D01*
X27562680Y-29300495D01*
X27562684Y-29300498D01*
X27562686Y-29300500D01*
X27620897Y-29334108D01*
X27676814Y-29366392D01*
X27676817Y-29366393D01*
X27754712Y-29387264D01*
X27804108Y-29400500D01*
X27804109Y-29400500D01*
X27935891Y-29400500D01*
X27935892Y-29400500D01*
X28063186Y-29366392D01*
X28177314Y-29300500D01*
X28270500Y-29207314D01*
X28336392Y-29093186D01*
X28370500Y-28965892D01*
X28370500Y-28894109D01*
X36264500Y-28894109D01*
X36264500Y-29025890D01*
X36264501Y-29025898D01*
X36298606Y-29153182D01*
X36298607Y-29153185D01*
X36364501Y-29267315D01*
X36364504Y-29267319D01*
X36457680Y-29360495D01*
X36457684Y-29360498D01*
X36457686Y-29360500D01*
X36571814Y-29426392D01*
X36571817Y-29426393D01*
X36649712Y-29447264D01*
X36699108Y-29460500D01*
X36699109Y-29460500D01*
X36830891Y-29460500D01*
X36830892Y-29460500D01*
X36958186Y-29426392D01*
X37072314Y-29360500D01*
X37165500Y-29267314D01*
X37231392Y-29153186D01*
X37265500Y-29025892D01*
X37265500Y-28894108D01*
X37231392Y-28766814D01*
X37165500Y-28652686D01*
X37165498Y-28652684D01*
X37165495Y-28652680D01*
X37072319Y-28559504D01*
X37072315Y-28559501D01*
X37072314Y-28559500D01*
X37015250Y-28526554D01*
X36958185Y-28493607D01*
X36958182Y-28493606D01*
X36830898Y-28459501D01*
X36830893Y-28459500D01*
X36830892Y-28459500D01*
X36699108Y-28459500D01*
X36699107Y-28459500D01*
X36699101Y-28459501D01*
X36571817Y-28493606D01*
X36571814Y-28493607D01*
X36457684Y-28559501D01*
X36457680Y-28559504D01*
X36364504Y-28652680D01*
X36364501Y-28652684D01*
X36298607Y-28766814D01*
X36298606Y-28766817D01*
X36264501Y-28894101D01*
X36264500Y-28894109D01*
X28370500Y-28894109D01*
X28370500Y-28834108D01*
X28336392Y-28706814D01*
X28270500Y-28592686D01*
X28270498Y-28592684D01*
X28270495Y-28592680D01*
X28177319Y-28499504D01*
X28177315Y-28499501D01*
X28177314Y-28499500D01*
X28108032Y-28459500D01*
X28063185Y-28433607D01*
X28063182Y-28433606D01*
X27935898Y-28399501D01*
X27935893Y-28399500D01*
X27935892Y-28399500D01*
X27804108Y-28399500D01*
X27804107Y-28399500D01*
X27804101Y-28399501D01*
X27676817Y-28433606D01*
X27676814Y-28433607D01*
X27562684Y-28499501D01*
X27562680Y-28499504D01*
X27469504Y-28592680D01*
X27469501Y-28592684D01*
X27403607Y-28706814D01*
X27403606Y-28706817D01*
X27369501Y-28834101D01*
X27369500Y-28834109D01*
X5900500Y-28834109D01*
X5900500Y-28834108D01*
X5866392Y-28706814D01*
X5800500Y-28592686D01*
X5800498Y-28592684D01*
X5800495Y-28592680D01*
X5707319Y-28499504D01*
X5707315Y-28499501D01*
X5707314Y-28499500D01*
X5638032Y-28459500D01*
X5593185Y-28433607D01*
X5593182Y-28433606D01*
X5465898Y-28399501D01*
X5465893Y-28399500D01*
X5465892Y-28399500D01*
X5334108Y-28399500D01*
X5334107Y-28399500D01*
X5334101Y-28399501D01*
X5206817Y-28433606D01*
X5206814Y-28433607D01*
X5092684Y-28499501D01*
X5092680Y-28499504D01*
X4999504Y-28592680D01*
X4999501Y-28592684D01*
X4933607Y-28706814D01*
X4933606Y-28706817D01*
X4899501Y-28834101D01*
X4899500Y-28834109D01*
X-3999500Y-28834109D01*
X-3999500Y-27833519D01*
X4049001Y-27833519D01*
X4049001Y-27965300D01*
X4049002Y-27965308D01*
X4083107Y-28092592D01*
X4083108Y-28092595D01*
X4083109Y-28092596D01*
X4145518Y-28200692D01*
X4149002Y-28206725D01*
X4149005Y-28206729D01*
X4242181Y-28299905D01*
X4242185Y-28299908D01*
X4242187Y-28299910D01*
X4356315Y-28365802D01*
X4356318Y-28365803D01*
X4434213Y-28386674D01*
X4483609Y-28399910D01*
X4483610Y-28399910D01*
X4615392Y-28399910D01*
X4615393Y-28399910D01*
X4742687Y-28365802D01*
X4856815Y-28299910D01*
X4950001Y-28206724D01*
X5015893Y-28092596D01*
X5050001Y-27965302D01*
X5050001Y-27833518D01*
X5034755Y-27776618D01*
X5015894Y-27706227D01*
X5015893Y-27706224D01*
X5015676Y-27705848D01*
X4950001Y-27592096D01*
X4949999Y-27592094D01*
X4949996Y-27592090D01*
X4856820Y-27498914D01*
X4856816Y-27498911D01*
X4856815Y-27498910D01*
X4755979Y-27440692D01*
X4742686Y-27433017D01*
X4742683Y-27433016D01*
X4615399Y-27398911D01*
X4615394Y-27398910D01*
X4615393Y-27398910D01*
X4483609Y-27398910D01*
X4483608Y-27398910D01*
X4483602Y-27398911D01*
X4356318Y-27433016D01*
X4356315Y-27433017D01*
X4242185Y-27498911D01*
X4242181Y-27498914D01*
X4149005Y-27592090D01*
X4149002Y-27592094D01*
X4083108Y-27706224D01*
X4083107Y-27706227D01*
X4049002Y-27833511D01*
X4049001Y-27833519D01*
X-3999500Y-27833519D01*
X-3999500Y-25140692D01*
X1349500Y-25140692D01*
X1349500Y-25259307D01*
X1349501Y-25259315D01*
X1380200Y-25373885D01*
X1380203Y-25373891D01*
X1439508Y-25476609D01*
X1439515Y-25476618D01*
X1518703Y-25555806D01*
X1537009Y-25600000D01*
X1518703Y-25644194D01*
X1439515Y-25723381D01*
X1439508Y-25723390D01*
X1380203Y-25826108D01*
X1380200Y-25826114D01*
X1349501Y-25940684D01*
X1349500Y-25940692D01*
X1349500Y-26059307D01*
X1349501Y-26059315D01*
X1380200Y-26173885D01*
X1380203Y-26173891D01*
X1439508Y-26276609D01*
X1439515Y-26276618D01*
X1523381Y-26360484D01*
X1523390Y-26360491D01*
X1626108Y-26419796D01*
X1626114Y-26419799D01*
X1740691Y-26450500D01*
X1740692Y-26450500D01*
X1859308Y-26450500D01*
X1859309Y-26450500D01*
X1973886Y-26419799D01*
X2076613Y-26360489D01*
X2160489Y-26276613D01*
X2219799Y-26173886D01*
X2250500Y-26059309D01*
X2250500Y-25940691D01*
X2219799Y-25826114D01*
X2208945Y-25807315D01*
X2160491Y-25723390D01*
X2160484Y-25723381D01*
X2081297Y-25644194D01*
X2062991Y-25600000D01*
X2081297Y-25555806D01*
X2160484Y-25476618D01*
X2160489Y-25476613D01*
X2185029Y-25434109D01*
X10499500Y-25434109D01*
X10499500Y-25565890D01*
X10499501Y-25565898D01*
X10533606Y-25693182D01*
X10533607Y-25693185D01*
X10566554Y-25750250D01*
X10599211Y-25806814D01*
X10599501Y-25807315D01*
X10599504Y-25807319D01*
X10692680Y-25900495D01*
X10692689Y-25900502D01*
X10771274Y-25945874D01*
X10800394Y-25983824D01*
X10794150Y-26031250D01*
X10771274Y-26054126D01*
X10692689Y-26099497D01*
X10692680Y-26099504D01*
X10599504Y-26192680D01*
X10599501Y-26192684D01*
X10533607Y-26306814D01*
X10533606Y-26306817D01*
X10499501Y-26434101D01*
X10499500Y-26434109D01*
X10499500Y-26565890D01*
X10499501Y-26565898D01*
X10533606Y-26693182D01*
X10533607Y-26693185D01*
X10599501Y-26807315D01*
X10599504Y-26807319D01*
X10692680Y-26900495D01*
X10692689Y-26900502D01*
X10771274Y-26945874D01*
X10800394Y-26983824D01*
X10794150Y-27031250D01*
X10771274Y-27054126D01*
X10692689Y-27099497D01*
X10692680Y-27099504D01*
X10599504Y-27192680D01*
X10599501Y-27192684D01*
X10533607Y-27306814D01*
X10533606Y-27306817D01*
X10499501Y-27434101D01*
X10499500Y-27434109D01*
X10499500Y-27565890D01*
X10499501Y-27565898D01*
X10533606Y-27693182D01*
X10533607Y-27693185D01*
X10566554Y-27750250D01*
X10584194Y-27780804D01*
X10599501Y-27807315D01*
X10599504Y-27807319D01*
X10692680Y-27900495D01*
X10692684Y-27900498D01*
X10692686Y-27900500D01*
X10804923Y-27965300D01*
X10806814Y-27966392D01*
X10806817Y-27966393D01*
X10870218Y-27983381D01*
X10934108Y-28000500D01*
X10934109Y-28000500D01*
X11065891Y-28000500D01*
X11065892Y-28000500D01*
X11193186Y-27966392D01*
X11307314Y-27900500D01*
X11400500Y-27807314D01*
X11445873Y-27728724D01*
X11483824Y-27699605D01*
X11531250Y-27705848D01*
X11554125Y-27728723D01*
X11584198Y-27780810D01*
X11599501Y-27807315D01*
X11599504Y-27807319D01*
X11692680Y-27900495D01*
X11692684Y-27900498D01*
X11692686Y-27900500D01*
X11804923Y-27965300D01*
X11806814Y-27966392D01*
X11806817Y-27966393D01*
X11870218Y-27983381D01*
X11934108Y-28000500D01*
X11934109Y-28000500D01*
X12065891Y-28000500D01*
X12065892Y-28000500D01*
X12193186Y-27966392D01*
X12307314Y-27900500D01*
X12400500Y-27807314D01*
X12445873Y-27728724D01*
X12483824Y-27699605D01*
X12531250Y-27705848D01*
X12554125Y-27728723D01*
X12584198Y-27780810D01*
X12599501Y-27807315D01*
X12599504Y-27807319D01*
X12692680Y-27900495D01*
X12692684Y-27900498D01*
X12692686Y-27900500D01*
X12804923Y-27965300D01*
X12806814Y-27966392D01*
X12806817Y-27966393D01*
X12870218Y-27983381D01*
X12934108Y-28000500D01*
X12934109Y-28000500D01*
X13065891Y-28000500D01*
X13065892Y-28000500D01*
X13193186Y-27966392D01*
X13307314Y-27900500D01*
X13400500Y-27807314D01*
X13445873Y-27728724D01*
X13483824Y-27699605D01*
X13531250Y-27705848D01*
X13554125Y-27728723D01*
X13584198Y-27780810D01*
X13599501Y-27807315D01*
X13599504Y-27807319D01*
X13692680Y-27900495D01*
X13692684Y-27900498D01*
X13692686Y-27900500D01*
X13804923Y-27965300D01*
X13806814Y-27966392D01*
X13806817Y-27966393D01*
X13870218Y-27983381D01*
X13934108Y-28000500D01*
X13934109Y-28000500D01*
X14065891Y-28000500D01*
X14065892Y-28000500D01*
X14193186Y-27966392D01*
X14307314Y-27900500D01*
X14400500Y-27807314D01*
X14466392Y-27693186D01*
X14500500Y-27565892D01*
X14500500Y-27440692D01*
X19549500Y-27440692D01*
X19549500Y-27559307D01*
X19549501Y-27559315D01*
X19580200Y-27673885D01*
X19580203Y-27673891D01*
X19639508Y-27776609D01*
X19639515Y-27776618D01*
X19698703Y-27835806D01*
X19717009Y-27880000D01*
X19698703Y-27924194D01*
X19639515Y-27983381D01*
X19639508Y-27983390D01*
X19580203Y-28086108D01*
X19580200Y-28086114D01*
X19549501Y-28200684D01*
X19549500Y-28200692D01*
X19549500Y-28319307D01*
X19549501Y-28319315D01*
X19580200Y-28433885D01*
X19580203Y-28433891D01*
X19639508Y-28536609D01*
X19639515Y-28536618D01*
X19723381Y-28620484D01*
X19723390Y-28620491D01*
X19826108Y-28679796D01*
X19826114Y-28679799D01*
X19940691Y-28710500D01*
X19940692Y-28710500D01*
X20059308Y-28710500D01*
X20059309Y-28710500D01*
X20173886Y-28679799D01*
X20276613Y-28620489D01*
X20360489Y-28536613D01*
X20419799Y-28433886D01*
X20450500Y-28319309D01*
X20450500Y-28314572D01*
X20468806Y-28270378D01*
X20513000Y-28252072D01*
X20557194Y-28270378D01*
X20573370Y-28298396D01*
X20580200Y-28323888D01*
X20580203Y-28323894D01*
X20639508Y-28426612D01*
X20639515Y-28426621D01*
X20723381Y-28510487D01*
X20723390Y-28510494D01*
X20826108Y-28569799D01*
X20826114Y-28569802D01*
X20940691Y-28600503D01*
X20940692Y-28600503D01*
X21059308Y-28600503D01*
X21059309Y-28600503D01*
X21173886Y-28569802D01*
X21276613Y-28510492D01*
X21360489Y-28426616D01*
X21419799Y-28323889D01*
X21450500Y-28209312D01*
X21450500Y-28090694D01*
X21419799Y-27976117D01*
X21414184Y-27966392D01*
X21360491Y-27873393D01*
X21360486Y-27873386D01*
X21356297Y-27869198D01*
X21337988Y-27825005D01*
X21356290Y-27780811D01*
X21360489Y-27776613D01*
X21419799Y-27673886D01*
X21450500Y-27559309D01*
X21450500Y-27440691D01*
X21419799Y-27326114D01*
X21405009Y-27300498D01*
X21360491Y-27223390D01*
X21360484Y-27223381D01*
X21276618Y-27139515D01*
X21276609Y-27139508D01*
X21173891Y-27080203D01*
X21173885Y-27080200D01*
X21059315Y-27049501D01*
X21059310Y-27049500D01*
X21059309Y-27049500D01*
X21059308Y-27049500D01*
X21013000Y-27049500D01*
X20968806Y-27031194D01*
X20950500Y-26987000D01*
X20950500Y-26940692D01*
X20950498Y-26940684D01*
X20919799Y-26826114D01*
X20919796Y-26826108D01*
X20882357Y-26761262D01*
X20866680Y-26734109D01*
X23859500Y-26734109D01*
X23859500Y-26865890D01*
X23859501Y-26865898D01*
X23893606Y-26993182D01*
X23893607Y-26993185D01*
X23906881Y-27016176D01*
X23954989Y-27099501D01*
X23959501Y-27107315D01*
X23959504Y-27107319D01*
X24052680Y-27200495D01*
X24052684Y-27200498D01*
X24052686Y-27200500D01*
X24092333Y-27223390D01*
X24166814Y-27266392D01*
X24166817Y-27266393D01*
X24244712Y-27287264D01*
X24294108Y-27300500D01*
X24294109Y-27300500D01*
X24425891Y-27300500D01*
X24425892Y-27300500D01*
X24553186Y-27266392D01*
X24667314Y-27200500D01*
X24700806Y-27167007D01*
X24744999Y-27148702D01*
X24789192Y-27167006D01*
X24822686Y-27200500D01*
X24862333Y-27223390D01*
X24936814Y-27266392D01*
X24936817Y-27266393D01*
X25014712Y-27287264D01*
X25064108Y-27300500D01*
X25064109Y-27300500D01*
X25195891Y-27300500D01*
X25195892Y-27300500D01*
X25323186Y-27266392D01*
X25437314Y-27200500D01*
X25530500Y-27107314D01*
X25596392Y-26993186D01*
X25630500Y-26865892D01*
X25630500Y-26734108D01*
X25596392Y-26606814D01*
X25530500Y-26492686D01*
X25497007Y-26459193D01*
X25478702Y-26415001D01*
X25497006Y-26370807D01*
X25530500Y-26337314D01*
X25596392Y-26223186D01*
X25630500Y-26095892D01*
X25630500Y-25964108D01*
X25596392Y-25836814D01*
X25530500Y-25722686D01*
X25530498Y-25722684D01*
X25530495Y-25722680D01*
X25437319Y-25629504D01*
X25437315Y-25629501D01*
X25437314Y-25629500D01*
X25380250Y-25596554D01*
X25323185Y-25563607D01*
X25323182Y-25563606D01*
X25195898Y-25529501D01*
X25195893Y-25529500D01*
X25195892Y-25529500D01*
X25064108Y-25529500D01*
X25064107Y-25529500D01*
X25064101Y-25529501D01*
X24936817Y-25563606D01*
X24936814Y-25563607D01*
X24822684Y-25629501D01*
X24822680Y-25629504D01*
X24729504Y-25722680D01*
X24729501Y-25722684D01*
X24663607Y-25836814D01*
X24663606Y-25836817D01*
X24629501Y-25964101D01*
X24629500Y-25964109D01*
X24629500Y-26095890D01*
X24629501Y-26095898D01*
X24663606Y-26223182D01*
X24663607Y-26223185D01*
X24697821Y-26282444D01*
X24704064Y-26329870D01*
X24674944Y-26367821D01*
X24627518Y-26374064D01*
X24612445Y-26367821D01*
X24559607Y-26337315D01*
X24553185Y-26333607D01*
X24553182Y-26333606D01*
X24425898Y-26299501D01*
X24425893Y-26299500D01*
X24425892Y-26299500D01*
X24294108Y-26299500D01*
X24294107Y-26299500D01*
X24294101Y-26299501D01*
X24166817Y-26333606D01*
X24166814Y-26333607D01*
X24052684Y-26399501D01*
X24052680Y-26399504D01*
X23959504Y-26492680D01*
X23959501Y-26492684D01*
X23893607Y-26606814D01*
X23893606Y-26606817D01*
X23859501Y-26734101D01*
X23859500Y-26734109D01*
X20866680Y-26734109D01*
X20860491Y-26723390D01*
X20860484Y-26723381D01*
X20776618Y-26639515D01*
X20776609Y-26639508D01*
X20673891Y-26580203D01*
X20673885Y-26580200D01*
X20559315Y-26549501D01*
X20559310Y-26549500D01*
X20559309Y-26549500D01*
X20440691Y-26549500D01*
X20440690Y-26549500D01*
X20440684Y-26549501D01*
X20326114Y-26580200D01*
X20326108Y-26580203D01*
X20223390Y-26639508D01*
X20223381Y-26639515D01*
X20139515Y-26723381D01*
X20139508Y-26723390D01*
X20080203Y-26826108D01*
X20080200Y-26826114D01*
X20049501Y-26940684D01*
X20049500Y-26940692D01*
X20049500Y-26987000D01*
X20031194Y-27031194D01*
X19987000Y-27049500D01*
X19940691Y-27049500D01*
X19940690Y-27049500D01*
X19940684Y-27049501D01*
X19826114Y-27080200D01*
X19826108Y-27080203D01*
X19723390Y-27139508D01*
X19723381Y-27139515D01*
X19639515Y-27223381D01*
X19639508Y-27223390D01*
X19580203Y-27326108D01*
X19580200Y-27326114D01*
X19549501Y-27440684D01*
X19549500Y-27440692D01*
X14500500Y-27440692D01*
X14500500Y-27434108D01*
X14487264Y-27384712D01*
X14466393Y-27306817D01*
X14466392Y-27306814D01*
X14443054Y-27266392D01*
X14400500Y-27192686D01*
X14400498Y-27192684D01*
X14400495Y-27192680D01*
X14307319Y-27099504D01*
X14307315Y-27099501D01*
X14307314Y-27099500D01*
X14228724Y-27054126D01*
X14199605Y-27016176D01*
X14205848Y-26968750D01*
X14228723Y-26945874D01*
X14307314Y-26900500D01*
X14400500Y-26807314D01*
X14466392Y-26693186D01*
X14500500Y-26565892D01*
X14500500Y-26434108D01*
X14472570Y-26329870D01*
X14466393Y-26306817D01*
X14466392Y-26306814D01*
X14418109Y-26223186D01*
X14400500Y-26192686D01*
X14400498Y-26192684D01*
X14400495Y-26192680D01*
X14307319Y-26099504D01*
X14307315Y-26099501D01*
X14307314Y-26099500D01*
X14228724Y-26054126D01*
X14199605Y-26016176D01*
X14205848Y-25968750D01*
X14228723Y-25945874D01*
X14307314Y-25900500D01*
X14400500Y-25807314D01*
X14466392Y-25693186D01*
X14500500Y-25565892D01*
X14500500Y-25434109D01*
X32499500Y-25434109D01*
X32499500Y-25565890D01*
X32499501Y-25565898D01*
X32533606Y-25693182D01*
X32533607Y-25693185D01*
X32566554Y-25750250D01*
X32599211Y-25806814D01*
X32599501Y-25807315D01*
X32599504Y-25807319D01*
X32692680Y-25900495D01*
X32692689Y-25900502D01*
X32771274Y-25945874D01*
X32800394Y-25983824D01*
X32794150Y-26031250D01*
X32771274Y-26054126D01*
X32692689Y-26099497D01*
X32692680Y-26099504D01*
X32599504Y-26192680D01*
X32599501Y-26192684D01*
X32533607Y-26306814D01*
X32533606Y-26306817D01*
X32499501Y-26434101D01*
X32499500Y-26434109D01*
X32499500Y-26565890D01*
X32499501Y-26565898D01*
X32533606Y-26693182D01*
X32533607Y-26693185D01*
X32599501Y-26807315D01*
X32599504Y-26807319D01*
X32692680Y-26900495D01*
X32692684Y-26900498D01*
X32692686Y-26900500D01*
X32771276Y-26945874D01*
X32806814Y-26966392D01*
X32806817Y-26966393D01*
X32815614Y-26968750D01*
X32934108Y-27000500D01*
X32934109Y-27000500D01*
X33065891Y-27000500D01*
X33065892Y-27000500D01*
X33193186Y-26966392D01*
X33307314Y-26900500D01*
X33400500Y-26807314D01*
X33445873Y-26728724D01*
X33483824Y-26699605D01*
X33531250Y-26705848D01*
X33554125Y-26728723D01*
X33557235Y-26734109D01*
X33599501Y-26807315D01*
X33599504Y-26807319D01*
X33692680Y-26900495D01*
X33692684Y-26900498D01*
X33692686Y-26900500D01*
X33771276Y-26945874D01*
X33806814Y-26966392D01*
X33806817Y-26966393D01*
X33815614Y-26968750D01*
X33934108Y-27000500D01*
X33934109Y-27000500D01*
X34065891Y-27000500D01*
X34065892Y-27000500D01*
X34193186Y-26966392D01*
X34307314Y-26900500D01*
X34400500Y-26807314D01*
X34466392Y-26693186D01*
X34500500Y-26565892D01*
X34500500Y-26563000D01*
X34518806Y-26518806D01*
X34563000Y-26500500D01*
X34565891Y-26500500D01*
X34565892Y-26500500D01*
X34693186Y-26466392D01*
X34807314Y-26400500D01*
X34900500Y-26307314D01*
X34966392Y-26193186D01*
X35000500Y-26065892D01*
X35000500Y-25934108D01*
X34974431Y-25836817D01*
X34966393Y-25806817D01*
X34966392Y-25806814D01*
X34921307Y-25728725D01*
X34900500Y-25692686D01*
X34900498Y-25692684D01*
X34900495Y-25692680D01*
X34807319Y-25599504D01*
X34807315Y-25599501D01*
X34807314Y-25599500D01*
X34728724Y-25554126D01*
X34699605Y-25516176D01*
X34705848Y-25468750D01*
X34728723Y-25445874D01*
X34807314Y-25400500D01*
X34900500Y-25307314D01*
X34966392Y-25193186D01*
X35000500Y-25065892D01*
X35000500Y-24934108D01*
X34966392Y-24806814D01*
X34900500Y-24692686D01*
X34900498Y-24692684D01*
X34900495Y-24692680D01*
X34807319Y-24599504D01*
X34807315Y-24599501D01*
X34807314Y-24599500D01*
X34728724Y-24554126D01*
X34699605Y-24516176D01*
X34705848Y-24468750D01*
X34728723Y-24445874D01*
X34807314Y-24400500D01*
X34900500Y-24307314D01*
X34966392Y-24193186D01*
X35000500Y-24065892D01*
X35000500Y-23934108D01*
X34969451Y-23818229D01*
X34966393Y-23806817D01*
X34966392Y-23806814D01*
X34939680Y-23760548D01*
X34900500Y-23692686D01*
X34900498Y-23692684D01*
X34900495Y-23692680D01*
X34807319Y-23599504D01*
X34807315Y-23599501D01*
X34807314Y-23599500D01*
X34739756Y-23560495D01*
X34693185Y-23533607D01*
X34693182Y-23533606D01*
X34565898Y-23499501D01*
X34565893Y-23499500D01*
X34565892Y-23499500D01*
X34434108Y-23499500D01*
X34434107Y-23499500D01*
X34434101Y-23499501D01*
X34306817Y-23533606D01*
X34306814Y-23533607D01*
X34192684Y-23599501D01*
X34192680Y-23599504D01*
X34099504Y-23692680D01*
X34099501Y-23692684D01*
X34033607Y-23806814D01*
X34033606Y-23806817D01*
X33999501Y-23934101D01*
X33999500Y-23934109D01*
X33999500Y-23937000D01*
X33981194Y-23981194D01*
X33937000Y-23999500D01*
X33934108Y-23999500D01*
X33934107Y-23999500D01*
X33934101Y-23999501D01*
X33806817Y-24033606D01*
X33806814Y-24033607D01*
X33692684Y-24099501D01*
X33692680Y-24099504D01*
X33599504Y-24192680D01*
X33599501Y-24192684D01*
X33533607Y-24306814D01*
X33533606Y-24306817D01*
X33499501Y-24434101D01*
X33499500Y-24434109D01*
X33499500Y-24437000D01*
X33481194Y-24481194D01*
X33437000Y-24499500D01*
X33434108Y-24499500D01*
X33434107Y-24499500D01*
X33434101Y-24499501D01*
X33306817Y-24533606D01*
X33306814Y-24533607D01*
X33192684Y-24599501D01*
X33192680Y-24599504D01*
X33099504Y-24692680D01*
X33099501Y-24692684D01*
X33033607Y-24806814D01*
X33033606Y-24806817D01*
X32999501Y-24934101D01*
X32999500Y-24934109D01*
X32999500Y-24937000D01*
X32981194Y-24981194D01*
X32937000Y-24999500D01*
X32934108Y-24999500D01*
X32934107Y-24999500D01*
X32934101Y-24999501D01*
X32806817Y-25033606D01*
X32806814Y-25033607D01*
X32692684Y-25099501D01*
X32692680Y-25099504D01*
X32599504Y-25192680D01*
X32599501Y-25192684D01*
X32533607Y-25306814D01*
X32533606Y-25306817D01*
X32499501Y-25434101D01*
X32499500Y-25434109D01*
X14500500Y-25434109D01*
X14500500Y-25434108D01*
X14484363Y-25373885D01*
X14466393Y-25306817D01*
X14466392Y-25306814D01*
X14438965Y-25259309D01*
X14400500Y-25192686D01*
X14400498Y-25192684D01*
X14400495Y-25192680D01*
X14307319Y-25099504D01*
X14307315Y-25099501D01*
X14307314Y-25099500D01*
X14249100Y-25065890D01*
X14193185Y-25033607D01*
X14193182Y-25033606D01*
X14065898Y-24999501D01*
X14065893Y-24999500D01*
X14065892Y-24999500D01*
X13934108Y-24999500D01*
X13934107Y-24999500D01*
X13934101Y-24999501D01*
X13806817Y-25033606D01*
X13806814Y-25033607D01*
X13692684Y-25099501D01*
X13692680Y-25099504D01*
X13599504Y-25192680D01*
X13599497Y-25192689D01*
X13554126Y-25271274D01*
X13516176Y-25300394D01*
X13468750Y-25294150D01*
X13445874Y-25271274D01*
X13400502Y-25192689D01*
X13400495Y-25192680D01*
X13307319Y-25099504D01*
X13307315Y-25099501D01*
X13307314Y-25099500D01*
X13249100Y-25065890D01*
X13193185Y-25033607D01*
X13193182Y-25033606D01*
X13065898Y-24999501D01*
X13065893Y-24999500D01*
X13065892Y-24999500D01*
X12934108Y-24999500D01*
X12934107Y-24999500D01*
X12934101Y-24999501D01*
X12806817Y-25033606D01*
X12806814Y-25033607D01*
X12692684Y-25099501D01*
X12692680Y-25099504D01*
X12599504Y-25192680D01*
X12599497Y-25192689D01*
X12554126Y-25271274D01*
X12516176Y-25300394D01*
X12468750Y-25294150D01*
X12445874Y-25271274D01*
X12400502Y-25192689D01*
X12400495Y-25192680D01*
X12307319Y-25099504D01*
X12307315Y-25099501D01*
X12307314Y-25099500D01*
X12249100Y-25065890D01*
X12193185Y-25033607D01*
X12193182Y-25033606D01*
X12065898Y-24999501D01*
X12065893Y-24999500D01*
X12065892Y-24999500D01*
X11934108Y-24999500D01*
X11934107Y-24999500D01*
X11934101Y-24999501D01*
X11806817Y-25033606D01*
X11806814Y-25033607D01*
X11692684Y-25099501D01*
X11692680Y-25099504D01*
X11599504Y-25192680D01*
X11599497Y-25192689D01*
X11554126Y-25271274D01*
X11516176Y-25300394D01*
X11468750Y-25294150D01*
X11445874Y-25271274D01*
X11400502Y-25192689D01*
X11400495Y-25192680D01*
X11307319Y-25099504D01*
X11307315Y-25099501D01*
X11307314Y-25099500D01*
X11249100Y-25065890D01*
X11193185Y-25033607D01*
X11193182Y-25033606D01*
X11065898Y-24999501D01*
X11065893Y-24999500D01*
X11065892Y-24999500D01*
X10934108Y-24999500D01*
X10934107Y-24999500D01*
X10934101Y-24999501D01*
X10806817Y-25033606D01*
X10806814Y-25033607D01*
X10692684Y-25099501D01*
X10692680Y-25099504D01*
X10599504Y-25192680D01*
X10599501Y-25192684D01*
X10533607Y-25306814D01*
X10533606Y-25306817D01*
X10499501Y-25434101D01*
X10499500Y-25434109D01*
X2185029Y-25434109D01*
X2205438Y-25398761D01*
X2219796Y-25373891D01*
X2219799Y-25373886D01*
X2250500Y-25259309D01*
X2250500Y-25140691D01*
X2219799Y-25026114D01*
X2204433Y-24999500D01*
X2160491Y-24923390D01*
X2160484Y-24923381D01*
X2076618Y-24839515D01*
X2076609Y-24839508D01*
X1973891Y-24780203D01*
X1973885Y-24780200D01*
X1859315Y-24749501D01*
X1859310Y-24749500D01*
X1859309Y-24749500D01*
X1740691Y-24749500D01*
X1740690Y-24749500D01*
X1740684Y-24749501D01*
X1626114Y-24780200D01*
X1626108Y-24780203D01*
X1523390Y-24839508D01*
X1523381Y-24839515D01*
X1439515Y-24923381D01*
X1439508Y-24923390D01*
X1380203Y-25026108D01*
X1380200Y-25026114D01*
X1349501Y-25140684D01*
X1349500Y-25140692D01*
X-3999500Y-25140692D01*
X-3999500Y-23434109D01*
X-850500Y-23434109D01*
X-850500Y-23565890D01*
X-850499Y-23565898D01*
X-816394Y-23693182D01*
X-816393Y-23693185D01*
X-816392Y-23693186D01*
X-750789Y-23806814D01*
X-750499Y-23807315D01*
X-750496Y-23807319D01*
X-657320Y-23900495D01*
X-657316Y-23900498D01*
X-657314Y-23900500D01*
X-555624Y-23959211D01*
X-543186Y-23966392D01*
X-543183Y-23966393D01*
X-487944Y-23981194D01*
X-415892Y-24000500D01*
X-415891Y-24000500D01*
X-284109Y-24000500D01*
X-284108Y-24000500D01*
X-156814Y-23966392D01*
X-42686Y-23900500D01*
X-14711Y-23872523D01*
X29481Y-23854218D01*
X73676Y-23872522D01*
X73677Y-23872524D01*
X160361Y-23959208D01*
X160364Y-23959210D01*
X160367Y-23959213D01*
X274495Y-24025105D01*
X274498Y-24025106D01*
X352393Y-24045977D01*
X401789Y-24059213D01*
X401790Y-24059213D01*
X533572Y-24059213D01*
X533573Y-24059213D01*
X660867Y-24025105D01*
X774995Y-23959213D01*
X774996Y-23959211D01*
X774999Y-23959210D01*
X778244Y-23956720D01*
X779429Y-23958264D01*
X817660Y-23942413D01*
X855938Y-23958252D01*
X857117Y-23956717D01*
X860367Y-23959210D01*
X860370Y-23959213D01*
X974498Y-24025105D01*
X974501Y-24025106D01*
X1052396Y-24045977D01*
X1101792Y-24059213D01*
X1101793Y-24059213D01*
X1233575Y-24059213D01*
X1233576Y-24059213D01*
X1360870Y-24025105D01*
X1474998Y-23959213D01*
X1475003Y-23959207D01*
X1478251Y-23956717D01*
X1479725Y-23958639D01*
X1516798Y-23943245D01*
X1556229Y-23959536D01*
X1557118Y-23958378D01*
X1560369Y-23960872D01*
X1560371Y-23960874D01*
X1671622Y-24025105D01*
X1674499Y-24026766D01*
X1674502Y-24026767D01*
X1752397Y-24047638D01*
X1801793Y-24060874D01*
X1801794Y-24060874D01*
X1933576Y-24060874D01*
X1933577Y-24060874D01*
X2060871Y-24026766D01*
X2174999Y-23960874D01*
X2268185Y-23867688D01*
X2334077Y-23753560D01*
X2368185Y-23626266D01*
X2368185Y-23494482D01*
X2334077Y-23367188D01*
X2268185Y-23253060D01*
X2268183Y-23253058D01*
X2268180Y-23253054D01*
X2175004Y-23159878D01*
X2175000Y-23159875D01*
X2174999Y-23159874D01*
X2147742Y-23144137D01*
X2061093Y-23094109D01*
X10414500Y-23094109D01*
X10414500Y-23225890D01*
X10414501Y-23225898D01*
X10448606Y-23353182D01*
X10448607Y-23353185D01*
X10474920Y-23398760D01*
X10495328Y-23434108D01*
X10514501Y-23467315D01*
X10514504Y-23467319D01*
X10607680Y-23560495D01*
X10607684Y-23560498D01*
X10607686Y-23560500D01*
X10675236Y-23599500D01*
X10721814Y-23626392D01*
X10721817Y-23626393D01*
X10799712Y-23647264D01*
X10849108Y-23660500D01*
X10849109Y-23660500D01*
X10980891Y-23660500D01*
X10980892Y-23660500D01*
X11108186Y-23626392D01*
X11222314Y-23560500D01*
X11315500Y-23467314D01*
X11334671Y-23434109D01*
X29979500Y-23434109D01*
X29979500Y-23565890D01*
X29979501Y-23565898D01*
X30013606Y-23693182D01*
X30013607Y-23693185D01*
X30013608Y-23693186D01*
X30079211Y-23806814D01*
X30079501Y-23807315D01*
X30079504Y-23807319D01*
X30172680Y-23900495D01*
X30172684Y-23900498D01*
X30172686Y-23900500D01*
X30274376Y-23959211D01*
X30286814Y-23966392D01*
X30286817Y-23966393D01*
X30342056Y-23981194D01*
X30414108Y-24000500D01*
X30414109Y-24000500D01*
X30545891Y-24000500D01*
X30545892Y-24000500D01*
X30673186Y-23966392D01*
X30787314Y-23900500D01*
X30863306Y-23824508D01*
X30907500Y-23806202D01*
X30951694Y-23824508D01*
X31027686Y-23900500D01*
X31129376Y-23959211D01*
X31141814Y-23966392D01*
X31141817Y-23966393D01*
X31197056Y-23981194D01*
X31269108Y-24000500D01*
X31269109Y-24000500D01*
X31400891Y-24000500D01*
X31400892Y-24000500D01*
X31528186Y-23966392D01*
X31642314Y-23900500D01*
X31735500Y-23807314D01*
X31801392Y-23693186D01*
X31835500Y-23565892D01*
X31835500Y-23434108D01*
X31801392Y-23306814D01*
X31735500Y-23192686D01*
X31735498Y-23192684D01*
X31735495Y-23192680D01*
X31642319Y-23099504D01*
X31642315Y-23099501D01*
X31642314Y-23099500D01*
X31570803Y-23058213D01*
X31528185Y-23033607D01*
X31528182Y-23033606D01*
X31400898Y-22999501D01*
X31400893Y-22999500D01*
X31400892Y-22999500D01*
X31269108Y-22999500D01*
X31269107Y-22999500D01*
X31269101Y-22999501D01*
X31141817Y-23033606D01*
X31141814Y-23033607D01*
X31027684Y-23099501D01*
X31027680Y-23099504D01*
X30951694Y-23175491D01*
X30907500Y-23193797D01*
X30863306Y-23175491D01*
X30787319Y-23099504D01*
X30787315Y-23099501D01*
X30787314Y-23099500D01*
X30715803Y-23058213D01*
X30673185Y-23033607D01*
X30673182Y-23033606D01*
X30545898Y-22999501D01*
X30545893Y-22999500D01*
X30545892Y-22999500D01*
X30414108Y-22999500D01*
X30414107Y-22999500D01*
X30414101Y-22999501D01*
X30286817Y-23033606D01*
X30286814Y-23033607D01*
X30172684Y-23099501D01*
X30172680Y-23099504D01*
X30079504Y-23192680D01*
X30079501Y-23192684D01*
X30013607Y-23306814D01*
X30013606Y-23306817D01*
X29979501Y-23434101D01*
X29979500Y-23434109D01*
X11334671Y-23434109D01*
X11381392Y-23353186D01*
X11415500Y-23225892D01*
X11415500Y-23094108D01*
X11381392Y-22966814D01*
X11315500Y-22852686D01*
X11315498Y-22852684D01*
X11315495Y-22852680D01*
X11222319Y-22759504D01*
X11222315Y-22759501D01*
X11222314Y-22759500D01*
X11165250Y-22726554D01*
X11108185Y-22693607D01*
X11108182Y-22693606D01*
X10980898Y-22659501D01*
X10980893Y-22659500D01*
X10980892Y-22659500D01*
X10849108Y-22659500D01*
X10849107Y-22659500D01*
X10849101Y-22659501D01*
X10721817Y-22693606D01*
X10721814Y-22693607D01*
X10607684Y-22759501D01*
X10607680Y-22759504D01*
X10514504Y-22852680D01*
X10514501Y-22852684D01*
X10448607Y-22966814D01*
X10448606Y-22966817D01*
X10414501Y-23094101D01*
X10414500Y-23094109D01*
X2061093Y-23094109D01*
X2060876Y-23093984D01*
X2060867Y-23093980D01*
X1933583Y-23059875D01*
X1933578Y-23059874D01*
X1933577Y-23059874D01*
X1801793Y-23059874D01*
X1801792Y-23059874D01*
X1801786Y-23059875D01*
X1674502Y-23093980D01*
X1674499Y-23093981D01*
X1560369Y-23159875D01*
X1557118Y-23162370D01*
X1555660Y-23160470D01*
X1518458Y-23175841D01*
X1479152Y-23159534D01*
X1478251Y-23160709D01*
X1474999Y-23158214D01*
X1474998Y-23158213D01*
X1417934Y-23125267D01*
X1360869Y-23092320D01*
X1360866Y-23092319D01*
X1233582Y-23058214D01*
X1233577Y-23058213D01*
X1233576Y-23058213D01*
X1101792Y-23058213D01*
X1101791Y-23058213D01*
X1101785Y-23058214D01*
X974501Y-23092319D01*
X974498Y-23092320D01*
X860366Y-23158215D01*
X857121Y-23160706D01*
X855946Y-23159174D01*
X817637Y-23175011D01*
X779429Y-23159168D01*
X778248Y-23160709D01*
X774996Y-23158214D01*
X774995Y-23158213D01*
X717931Y-23125267D01*
X660866Y-23092320D01*
X660863Y-23092319D01*
X533579Y-23058214D01*
X533574Y-23058213D01*
X533573Y-23058213D01*
X401789Y-23058213D01*
X401788Y-23058213D01*
X401782Y-23058214D01*
X274498Y-23092319D01*
X274495Y-23092320D01*
X160365Y-23158214D01*
X132390Y-23186189D01*
X88196Y-23204494D01*
X44003Y-23186188D01*
X-42681Y-23099504D01*
X-42685Y-23099501D01*
X-42686Y-23099500D01*
X-114197Y-23058213D01*
X-156815Y-23033607D01*
X-156818Y-23033606D01*
X-284102Y-22999501D01*
X-284107Y-22999500D01*
X-284108Y-22999500D01*
X-415892Y-22999500D01*
X-415893Y-22999500D01*
X-415899Y-22999501D01*
X-543183Y-23033606D01*
X-543186Y-23033607D01*
X-657316Y-23099501D01*
X-657320Y-23099504D01*
X-750496Y-23192680D01*
X-750499Y-23192684D01*
X-816393Y-23306814D01*
X-816394Y-23306817D01*
X-850499Y-23434101D01*
X-850500Y-23434109D01*
X-3999500Y-23434109D01*
X-3999500Y-21434109D01*
X12499500Y-21434109D01*
X12499500Y-21565890D01*
X12499501Y-21565898D01*
X12533606Y-21693182D01*
X12533607Y-21693185D01*
X12533608Y-21693186D01*
X12599211Y-21806814D01*
X12599501Y-21807315D01*
X12599504Y-21807319D01*
X12692680Y-21900495D01*
X12692684Y-21900498D01*
X12692686Y-21900500D01*
X12780835Y-21951393D01*
X12806814Y-21966392D01*
X12806817Y-21966393D01*
X12834517Y-21973815D01*
X12934108Y-22000500D01*
X12934109Y-22000500D01*
X13065891Y-22000500D01*
X13065892Y-22000500D01*
X13193186Y-21966392D01*
X13249102Y-21934109D01*
X14499500Y-21934109D01*
X14499500Y-22065890D01*
X14499501Y-22065898D01*
X14533606Y-22193182D01*
X14533607Y-22193185D01*
X14599501Y-22307315D01*
X14599504Y-22307319D01*
X14692680Y-22400495D01*
X14692684Y-22400498D01*
X14692686Y-22400500D01*
X14806814Y-22466392D01*
X14806817Y-22466393D01*
X14884712Y-22487264D01*
X14934108Y-22500500D01*
X14934109Y-22500500D01*
X15065891Y-22500500D01*
X15065892Y-22500500D01*
X15193186Y-22466392D01*
X15307314Y-22400500D01*
X15400500Y-22307314D01*
X15466392Y-22193186D01*
X15500500Y-22065892D01*
X15500500Y-22048000D01*
X15518806Y-22003806D01*
X15563000Y-21985500D01*
X15675891Y-21985500D01*
X15675892Y-21985500D01*
X15803186Y-21951392D01*
X15917314Y-21885500D01*
X15965806Y-21837007D01*
X16009999Y-21818702D01*
X16054192Y-21837006D01*
X16102686Y-21885500D01*
X16186879Y-21934109D01*
X16216814Y-21951392D01*
X16216817Y-21951393D01*
X16272795Y-21966392D01*
X16344108Y-21985500D01*
X16344109Y-21985500D01*
X16475891Y-21985500D01*
X16475892Y-21985500D01*
X16603186Y-21951392D01*
X16717314Y-21885500D01*
X16810500Y-21792314D01*
X16876392Y-21678186D01*
X16910500Y-21550892D01*
X16910500Y-21419108D01*
X16880547Y-21307319D01*
X16876393Y-21291817D01*
X16876392Y-21291814D01*
X16840989Y-21230495D01*
X16810500Y-21177686D01*
X16810498Y-21177684D01*
X16810495Y-21177680D01*
X16717319Y-21084504D01*
X16717315Y-21084501D01*
X16717314Y-21084500D01*
X16629165Y-21033607D01*
X16603185Y-21018607D01*
X16603182Y-21018606D01*
X16497847Y-20990382D01*
X16475898Y-20984501D01*
X16475893Y-20984500D01*
X16475892Y-20984500D01*
X16344108Y-20984500D01*
X16344107Y-20984500D01*
X16344101Y-20984501D01*
X16216817Y-21018606D01*
X16216814Y-21018607D01*
X16102684Y-21084501D01*
X16102680Y-21084504D01*
X16054194Y-21132991D01*
X16010000Y-21151297D01*
X15965806Y-21132991D01*
X15917319Y-21084504D01*
X15917315Y-21084501D01*
X15917314Y-21084500D01*
X15829165Y-21033607D01*
X15803185Y-21018607D01*
X15803182Y-21018606D01*
X15675898Y-20984501D01*
X15675893Y-20984500D01*
X15675892Y-20984500D01*
X15544108Y-20984500D01*
X15544107Y-20984500D01*
X15544101Y-20984501D01*
X15416817Y-21018606D01*
X15416814Y-21018607D01*
X15302684Y-21084501D01*
X15302680Y-21084504D01*
X15209504Y-21177680D01*
X15209501Y-21177684D01*
X15143607Y-21291814D01*
X15143606Y-21291817D01*
X15109501Y-21419101D01*
X15109500Y-21419109D01*
X15109500Y-21437000D01*
X15091194Y-21481194D01*
X15047000Y-21499500D01*
X14934108Y-21499500D01*
X14934107Y-21499500D01*
X14934101Y-21499501D01*
X14806817Y-21533606D01*
X14806814Y-21533607D01*
X14692684Y-21599501D01*
X14692680Y-21599504D01*
X14599504Y-21692680D01*
X14599501Y-21692684D01*
X14533607Y-21806814D01*
X14533606Y-21806817D01*
X14499501Y-21934101D01*
X14499500Y-21934109D01*
X13249102Y-21934109D01*
X13307314Y-21900500D01*
X13314632Y-21893182D01*
X13321997Y-21885818D01*
X13400495Y-21807319D01*
X13400500Y-21807314D01*
X13466392Y-21693186D01*
X13500500Y-21565892D01*
X13500500Y-21563000D01*
X13518806Y-21518806D01*
X13563000Y-21500500D01*
X13565891Y-21500500D01*
X13565892Y-21500500D01*
X13693186Y-21466392D01*
X13807314Y-21400500D01*
X13900500Y-21307314D01*
X13966392Y-21193186D01*
X14000500Y-21065892D01*
X14000500Y-21063000D01*
X14018806Y-21018806D01*
X14063000Y-21000500D01*
X14065891Y-21000500D01*
X14065892Y-21000500D01*
X14193186Y-20966392D01*
X14249102Y-20934109D01*
X25499500Y-20934109D01*
X25499500Y-21065890D01*
X25499501Y-21065898D01*
X25533606Y-21193182D01*
X25533607Y-21193185D01*
X25533608Y-21193186D01*
X25599211Y-21306814D01*
X25599501Y-21307315D01*
X25599504Y-21307319D01*
X25692680Y-21400495D01*
X25692684Y-21400498D01*
X25692686Y-21400500D01*
X25755906Y-21437000D01*
X25806814Y-21466392D01*
X25806817Y-21466393D01*
X25862056Y-21481194D01*
X25934108Y-21500500D01*
X25934109Y-21500500D01*
X26065891Y-21500500D01*
X26065892Y-21500500D01*
X26065900Y-21500498D01*
X26073858Y-21498365D01*
X26143839Y-21479614D01*
X26191264Y-21485857D01*
X26220385Y-21523807D01*
X26220385Y-21556160D01*
X26199501Y-21634101D01*
X26199500Y-21634109D01*
X26199500Y-21765890D01*
X26199501Y-21765898D01*
X26233606Y-21893182D01*
X26233607Y-21893185D01*
X26257230Y-21934101D01*
X26286904Y-21985498D01*
X26299501Y-22007315D01*
X26299504Y-22007319D01*
X26392680Y-22100495D01*
X26392684Y-22100498D01*
X26392686Y-22100500D01*
X26506814Y-22166392D01*
X26506817Y-22166393D01*
X26584712Y-22187264D01*
X26634108Y-22200500D01*
X26634109Y-22200500D01*
X26765891Y-22200500D01*
X26765892Y-22200500D01*
X26893186Y-22166392D01*
X27007314Y-22100500D01*
X27100500Y-22007314D01*
X27166392Y-21893186D01*
X27200500Y-21765892D01*
X27200500Y-21734109D01*
X36264500Y-21734109D01*
X36264500Y-21865890D01*
X36264501Y-21865898D01*
X36298606Y-21993182D01*
X36298607Y-21993185D01*
X36330255Y-22048000D01*
X36340588Y-22065898D01*
X36364501Y-22107315D01*
X36364504Y-22107319D01*
X36457680Y-22200495D01*
X36457684Y-22200498D01*
X36457686Y-22200500D01*
X36571814Y-22266392D01*
X36571817Y-22266393D01*
X36649712Y-22287264D01*
X36699108Y-22300500D01*
X36699109Y-22300500D01*
X36830891Y-22300500D01*
X36830892Y-22300500D01*
X36958186Y-22266392D01*
X37072314Y-22200500D01*
X37165500Y-22107314D01*
X37231392Y-21993186D01*
X37265500Y-21865892D01*
X37265500Y-21734108D01*
X37238705Y-21634108D01*
X37231393Y-21606817D01*
X37231392Y-21606814D01*
X37207769Y-21565898D01*
X37165500Y-21492686D01*
X37165498Y-21492684D01*
X37165495Y-21492680D01*
X37072319Y-21399504D01*
X37072315Y-21399501D01*
X37072314Y-21399500D01*
X36986578Y-21350000D01*
X36958185Y-21333607D01*
X36958182Y-21333606D01*
X36830898Y-21299501D01*
X36830893Y-21299500D01*
X36830892Y-21299500D01*
X36699108Y-21299500D01*
X36699107Y-21299500D01*
X36699101Y-21299501D01*
X36571817Y-21333606D01*
X36571814Y-21333607D01*
X36457684Y-21399501D01*
X36457680Y-21399504D01*
X36364504Y-21492680D01*
X36364501Y-21492684D01*
X36298607Y-21606814D01*
X36298606Y-21606817D01*
X36264501Y-21734101D01*
X36264500Y-21734109D01*
X27200500Y-21734109D01*
X27200500Y-21634108D01*
X27166392Y-21506814D01*
X27100500Y-21392686D01*
X27100498Y-21392684D01*
X27098004Y-21389433D01*
X27099551Y-21388246D01*
X27083702Y-21350023D01*
X27099540Y-21311746D01*
X27098004Y-21310567D01*
X27100494Y-21307319D01*
X27100500Y-21307314D01*
X27166392Y-21193186D01*
X27200500Y-21065892D01*
X27200500Y-20934108D01*
X27171661Y-20826478D01*
X27166393Y-20806817D01*
X27166392Y-20806814D01*
X27147429Y-20773970D01*
X27100500Y-20692686D01*
X27100498Y-20692684D01*
X27100495Y-20692680D01*
X27007319Y-20599504D01*
X27007315Y-20599501D01*
X27007314Y-20599500D01*
X26905600Y-20540775D01*
X26893185Y-20533607D01*
X26893182Y-20533606D01*
X26765898Y-20499501D01*
X26765893Y-20499500D01*
X26765892Y-20499500D01*
X26634108Y-20499500D01*
X26634107Y-20499500D01*
X26634101Y-20499501D01*
X26506817Y-20533606D01*
X26506814Y-20533607D01*
X26392684Y-20599501D01*
X26389433Y-20601996D01*
X26388249Y-20600453D01*
X26350000Y-20616297D01*
X26311750Y-20600453D01*
X26310567Y-20601996D01*
X26307315Y-20599501D01*
X26307314Y-20599500D01*
X26205600Y-20540775D01*
X26193185Y-20533607D01*
X26193182Y-20533606D01*
X26065898Y-20499501D01*
X26065893Y-20499500D01*
X26065892Y-20499500D01*
X25934108Y-20499500D01*
X25934107Y-20499500D01*
X25934101Y-20499501D01*
X25806817Y-20533606D01*
X25806814Y-20533607D01*
X25692684Y-20599501D01*
X25692680Y-20599504D01*
X25599504Y-20692680D01*
X25599501Y-20692684D01*
X25533607Y-20806814D01*
X25533606Y-20806817D01*
X25499501Y-20934101D01*
X25499500Y-20934109D01*
X14249102Y-20934109D01*
X14307314Y-20900500D01*
X14400500Y-20807314D01*
X14466392Y-20693186D01*
X14500500Y-20565892D01*
X14500500Y-20563000D01*
X14518806Y-20518806D01*
X14563000Y-20500500D01*
X14565891Y-20500500D01*
X14565892Y-20500500D01*
X14693186Y-20466392D01*
X14807314Y-20400500D01*
X14900500Y-20307314D01*
X14966392Y-20193186D01*
X15000500Y-20065892D01*
X15000500Y-19934108D01*
X14966392Y-19806814D01*
X14900500Y-19692686D01*
X14900498Y-19692684D01*
X14900495Y-19692680D01*
X14807319Y-19599504D01*
X14807315Y-19599501D01*
X14807314Y-19599500D01*
X14750250Y-19566554D01*
X14693185Y-19533607D01*
X14693182Y-19533606D01*
X14565898Y-19499501D01*
X14565893Y-19499500D01*
X14565892Y-19499500D01*
X14434108Y-19499500D01*
X14434107Y-19499500D01*
X14434101Y-19499501D01*
X14306817Y-19533606D01*
X14306814Y-19533607D01*
X14192684Y-19599501D01*
X14192680Y-19599504D01*
X14099504Y-19692680D01*
X14099501Y-19692684D01*
X14033607Y-19806814D01*
X14033606Y-19806817D01*
X13999501Y-19934101D01*
X13999500Y-19934109D01*
X13999500Y-19937000D01*
X13981194Y-19981194D01*
X13937000Y-19999500D01*
X13934108Y-19999500D01*
X13934107Y-19999500D01*
X13934101Y-19999501D01*
X13806817Y-20033606D01*
X13806814Y-20033607D01*
X13692684Y-20099501D01*
X13692680Y-20099504D01*
X13599504Y-20192680D01*
X13599501Y-20192684D01*
X13533607Y-20306814D01*
X13533606Y-20306817D01*
X13499501Y-20434101D01*
X13499500Y-20434109D01*
X13499500Y-20437000D01*
X13481194Y-20481194D01*
X13437000Y-20499500D01*
X13434108Y-20499500D01*
X13434107Y-20499500D01*
X13434101Y-20499501D01*
X13306817Y-20533606D01*
X13306814Y-20533607D01*
X13192684Y-20599501D01*
X13192680Y-20599504D01*
X13099504Y-20692680D01*
X13099501Y-20692684D01*
X13033607Y-20806814D01*
X13033606Y-20806817D01*
X12999501Y-20934101D01*
X12999500Y-20934109D01*
X12999500Y-20937000D01*
X12981194Y-20981194D01*
X12937000Y-20999500D01*
X12934108Y-20999500D01*
X12934107Y-20999500D01*
X12934101Y-20999501D01*
X12806817Y-21033606D01*
X12806814Y-21033607D01*
X12692684Y-21099501D01*
X12692680Y-21099504D01*
X12599504Y-21192680D01*
X12599501Y-21192684D01*
X12533607Y-21306814D01*
X12533606Y-21306817D01*
X12499501Y-21434101D01*
X12499500Y-21434109D01*
X-3999500Y-21434109D01*
X-3999500Y-20888978D01*
X-3981194Y-20844784D01*
X-3937000Y-20826478D01*
X-3892806Y-20844784D01*
X-3882877Y-20857723D01*
X-3874886Y-20871563D01*
X-3871921Y-20876699D01*
X-3788052Y-20960568D01*
X-3788043Y-20960575D01*
X-3685325Y-21019880D01*
X-3685319Y-21019883D01*
X-3570742Y-21050584D01*
X-3570741Y-21050584D01*
X-3452125Y-21050584D01*
X-3452124Y-21050584D01*
X-3337547Y-21019883D01*
X-3234820Y-20960573D01*
X-3203071Y-20928823D01*
X-3158879Y-20910517D01*
X-3114684Y-20928822D01*
X-3088068Y-20955438D01*
X-3088059Y-20955445D01*
X-2985341Y-21014750D01*
X-2985335Y-21014753D01*
X-2870758Y-21045454D01*
X-2870757Y-21045454D01*
X-2752141Y-21045454D01*
X-2752140Y-21045454D01*
X-2637563Y-21014753D01*
X-2534836Y-20955443D01*
X-2450960Y-20871567D01*
X-2391650Y-20768840D01*
X-2390382Y-20764109D01*
X-1380500Y-20764109D01*
X-1380500Y-20895890D01*
X-1380499Y-20895898D01*
X-1346394Y-21023182D01*
X-1346393Y-21023185D01*
X-1280499Y-21137315D01*
X-1280496Y-21137319D01*
X-1187320Y-21230495D01*
X-1187316Y-21230498D01*
X-1187314Y-21230500D01*
X-1081115Y-21291814D01*
X-1073186Y-21296392D01*
X-1073183Y-21296393D01*
X-1020284Y-21310567D01*
X-945892Y-21330500D01*
X-945891Y-21330500D01*
X-814109Y-21330500D01*
X-814108Y-21330500D01*
X-686814Y-21296392D01*
X-572686Y-21230500D01*
X-479500Y-21137314D01*
X-413608Y-21023186D01*
X-379500Y-20895892D01*
X-379500Y-20764108D01*
X-407558Y-20659393D01*
X-413607Y-20636817D01*
X-413608Y-20636814D01*
X-435151Y-20599501D01*
X-479500Y-20522686D01*
X-479502Y-20522684D01*
X-479505Y-20522680D01*
X-572681Y-20429504D01*
X-572685Y-20429501D01*
X-572686Y-20429500D01*
X-629750Y-20396554D01*
X-686815Y-20363607D01*
X-686818Y-20363606D01*
X-814102Y-20329501D01*
X-814107Y-20329500D01*
X-814108Y-20329500D01*
X-945892Y-20329500D01*
X-945893Y-20329500D01*
X-945899Y-20329501D01*
X-1073183Y-20363606D01*
X-1073186Y-20363607D01*
X-1187316Y-20429501D01*
X-1187320Y-20429504D01*
X-1280496Y-20522680D01*
X-1280499Y-20522684D01*
X-1346393Y-20636814D01*
X-1346394Y-20636817D01*
X-1380499Y-20764101D01*
X-1380500Y-20764109D01*
X-2390382Y-20764109D01*
X-2360949Y-20654263D01*
X-2360949Y-20535645D01*
X-2391650Y-20421068D01*
X-2420234Y-20371560D01*
X-2450958Y-20318344D01*
X-2450965Y-20318335D01*
X-2534831Y-20234469D01*
X-2534840Y-20234462D01*
X-2637558Y-20175157D01*
X-2637564Y-20175154D01*
X-2752134Y-20144455D01*
X-2752139Y-20144454D01*
X-2752140Y-20144454D01*
X-2870758Y-20144454D01*
X-2870759Y-20144454D01*
X-2870765Y-20144455D01*
X-2985335Y-20175154D01*
X-2985341Y-20175157D01*
X-3088059Y-20234462D01*
X-3088068Y-20234469D01*
X-3119812Y-20266214D01*
X-3164006Y-20284520D01*
X-3208200Y-20266214D01*
X-3234815Y-20239599D01*
X-3234824Y-20239592D01*
X-3337542Y-20180287D01*
X-3337548Y-20180284D01*
X-3452118Y-20149585D01*
X-3452123Y-20149584D01*
X-3452124Y-20149584D01*
X-3570742Y-20149584D01*
X-3570743Y-20149584D01*
X-3570749Y-20149585D01*
X-3685319Y-20180284D01*
X-3685325Y-20180287D01*
X-3788043Y-20239592D01*
X-3788052Y-20239599D01*
X-3871918Y-20323465D01*
X-3871923Y-20323471D01*
X-3882874Y-20342440D01*
X-3920825Y-20371560D01*
X-3968251Y-20365315D01*
X-3997371Y-20327364D01*
X-3999500Y-20311189D01*
X-3999500Y-17934109D01*
X12499500Y-17934109D01*
X12499500Y-18065890D01*
X12499501Y-18065898D01*
X12533606Y-18193182D01*
X12533607Y-18193185D01*
X12599501Y-18307315D01*
X12599504Y-18307319D01*
X12692680Y-18400495D01*
X12692684Y-18400498D01*
X12692686Y-18400500D01*
X12806814Y-18466392D01*
X12806817Y-18466393D01*
X12884712Y-18487264D01*
X12934108Y-18500500D01*
X12934109Y-18500500D01*
X13065891Y-18500500D01*
X13065892Y-18500500D01*
X13193186Y-18466392D01*
X13307314Y-18400500D01*
X13400500Y-18307314D01*
X13466392Y-18193186D01*
X13500500Y-18065892D01*
X13500500Y-17934108D01*
X13466392Y-17806814D01*
X13400500Y-17692686D01*
X13400498Y-17692684D01*
X13400495Y-17692680D01*
X13307319Y-17599504D01*
X13307315Y-17599501D01*
X13307314Y-17599500D01*
X13228726Y-17554127D01*
X13193185Y-17533607D01*
X13193182Y-17533606D01*
X13095031Y-17507307D01*
X13065898Y-17499501D01*
X13065893Y-17499500D01*
X13065892Y-17499500D01*
X12934108Y-17499500D01*
X12934107Y-17499500D01*
X12934101Y-17499501D01*
X12806817Y-17533606D01*
X12806814Y-17533607D01*
X12692684Y-17599501D01*
X12692680Y-17599504D01*
X12599504Y-17692680D01*
X12599501Y-17692684D01*
X12533607Y-17806814D01*
X12533606Y-17806817D01*
X12499501Y-17934101D01*
X12499500Y-17934109D01*
X-3999500Y-17934109D01*
X-3999500Y-17451034D01*
X17503808Y-17451034D01*
X17503808Y-17582815D01*
X17503809Y-17582823D01*
X17537914Y-17710107D01*
X17537915Y-17710110D01*
X17537916Y-17710111D01*
X17593749Y-17806817D01*
X17603809Y-17824240D01*
X17603812Y-17824244D01*
X17696988Y-17917420D01*
X17696992Y-17917423D01*
X17696994Y-17917425D01*
X17811122Y-17983317D01*
X17811125Y-17983318D01*
X17889020Y-18004189D01*
X17938416Y-18017425D01*
X17938417Y-18017425D01*
X18070199Y-18017425D01*
X18070200Y-18017425D01*
X18197494Y-17983317D01*
X18282725Y-17934109D01*
X33999500Y-17934109D01*
X33999500Y-18065890D01*
X33999501Y-18065898D01*
X34033606Y-18193182D01*
X34033607Y-18193185D01*
X34099501Y-18307315D01*
X34099504Y-18307319D01*
X34192680Y-18400495D01*
X34192684Y-18400498D01*
X34192686Y-18400500D01*
X34306814Y-18466392D01*
X34306817Y-18466393D01*
X34384712Y-18487264D01*
X34434108Y-18500500D01*
X34437000Y-18500500D01*
X34481194Y-18518806D01*
X34499500Y-18563000D01*
X34499500Y-18565890D01*
X34499501Y-18565898D01*
X34533606Y-18693182D01*
X34533607Y-18693185D01*
X34599501Y-18807315D01*
X34599504Y-18807319D01*
X34692680Y-18900495D01*
X34692684Y-18900498D01*
X34692686Y-18900500D01*
X34806814Y-18966392D01*
X34806817Y-18966393D01*
X34884712Y-18987264D01*
X34934108Y-19000500D01*
X34934109Y-19000500D01*
X35065891Y-19000500D01*
X35065892Y-19000500D01*
X35193186Y-18966392D01*
X35307314Y-18900500D01*
X35400500Y-18807314D01*
X35445873Y-18728724D01*
X35483824Y-18699605D01*
X35531250Y-18705848D01*
X35554127Y-18728725D01*
X35599501Y-18807315D01*
X35599504Y-18807319D01*
X35692680Y-18900495D01*
X35692684Y-18900498D01*
X35692686Y-18900500D01*
X35806814Y-18966392D01*
X35806817Y-18966393D01*
X35884712Y-18987264D01*
X35934108Y-19000500D01*
X35934109Y-19000500D01*
X36065891Y-19000500D01*
X36065892Y-19000500D01*
X36193186Y-18966392D01*
X36307314Y-18900500D01*
X36400500Y-18807314D01*
X36466392Y-18693186D01*
X36500500Y-18565892D01*
X36500500Y-18563000D01*
X36518806Y-18518806D01*
X36563000Y-18500500D01*
X36565891Y-18500500D01*
X36565892Y-18500500D01*
X36693186Y-18466392D01*
X36807314Y-18400500D01*
X36900500Y-18307314D01*
X36966392Y-18193186D01*
X37000500Y-18065892D01*
X37000500Y-17934108D01*
X36966392Y-17806814D01*
X36900500Y-17692686D01*
X36900498Y-17692684D01*
X36900495Y-17692680D01*
X36807319Y-17599504D01*
X36807315Y-17599501D01*
X36807314Y-17599500D01*
X36728724Y-17554126D01*
X36699605Y-17516176D01*
X36705848Y-17468750D01*
X36728723Y-17445874D01*
X36807314Y-17400500D01*
X36900500Y-17307314D01*
X36966392Y-17193186D01*
X37000500Y-17065892D01*
X37000500Y-16934108D01*
X36982166Y-16865685D01*
X36966393Y-16806817D01*
X36966392Y-16806814D01*
X36900500Y-16692686D01*
X36900498Y-16692684D01*
X36900495Y-16692680D01*
X36807319Y-16599504D01*
X36807315Y-16599501D01*
X36807314Y-16599500D01*
X36728724Y-16554126D01*
X36699605Y-16516176D01*
X36705848Y-16468750D01*
X36728723Y-16445874D01*
X36807314Y-16400500D01*
X36900500Y-16307314D01*
X36966392Y-16193186D01*
X37000500Y-16065892D01*
X37000500Y-15934108D01*
X36966392Y-15806814D01*
X36900500Y-15692686D01*
X36900498Y-15692684D01*
X36900495Y-15692680D01*
X36807319Y-15599504D01*
X36807315Y-15599501D01*
X36807314Y-15599500D01*
X36732780Y-15556467D01*
X36705457Y-15540692D01*
X39574500Y-15540692D01*
X39574500Y-15659307D01*
X39574501Y-15659315D01*
X39605200Y-15773885D01*
X39662136Y-15872500D01*
X39668379Y-15919926D01*
X39662136Y-15935000D01*
X39605200Y-16033614D01*
X39574501Y-16148184D01*
X39574500Y-16148192D01*
X39574500Y-16266807D01*
X39574501Y-16266815D01*
X39605200Y-16381385D01*
X39605203Y-16381391D01*
X39664508Y-16484109D01*
X39664515Y-16484118D01*
X39748381Y-16567984D01*
X39748390Y-16567991D01*
X39851108Y-16627296D01*
X39851114Y-16627299D01*
X39943176Y-16651967D01*
X39981127Y-16681087D01*
X39989500Y-16712337D01*
X39989500Y-16738390D01*
X39989501Y-16738398D01*
X40023606Y-16865682D01*
X40023607Y-16865685D01*
X40089501Y-16979815D01*
X40089504Y-16979819D01*
X40182680Y-17072995D01*
X40182684Y-17072998D01*
X40182686Y-17073000D01*
X40296814Y-17138892D01*
X40296817Y-17138893D01*
X40374712Y-17159764D01*
X40424108Y-17173000D01*
X40424109Y-17173000D01*
X40555891Y-17173000D01*
X40555892Y-17173000D01*
X40683186Y-17138892D01*
X40797314Y-17073000D01*
X40890500Y-16979814D01*
X40956392Y-16865686D01*
X40990500Y-16738392D01*
X40990500Y-16606608D01*
X40988863Y-16600500D01*
X40983150Y-16579177D01*
X40989393Y-16531751D01*
X41027343Y-16502630D01*
X41043520Y-16500500D01*
X41065891Y-16500500D01*
X41065892Y-16500500D01*
X41193186Y-16466392D01*
X41307314Y-16400500D01*
X41400500Y-16307314D01*
X41466392Y-16193186D01*
X41500500Y-16065892D01*
X41500500Y-15934108D01*
X41466392Y-15806814D01*
X41400500Y-15692686D01*
X41400498Y-15692684D01*
X41400495Y-15692680D01*
X41307319Y-15599504D01*
X41307315Y-15599501D01*
X41307314Y-15599500D01*
X41249969Y-15566392D01*
X41193185Y-15533607D01*
X41193182Y-15533606D01*
X41065898Y-15499501D01*
X41065893Y-15499500D01*
X41065892Y-15499500D01*
X40934108Y-15499500D01*
X40934107Y-15499500D01*
X40934101Y-15499501D01*
X40806817Y-15533606D01*
X40806814Y-15533607D01*
X40692684Y-15599501D01*
X40692680Y-15599504D01*
X40599504Y-15692680D01*
X40599501Y-15692684D01*
X40588791Y-15711234D01*
X40550839Y-15740353D01*
X40503413Y-15734108D01*
X40474294Y-15696156D01*
X40474296Y-15663801D01*
X40475498Y-15659315D01*
X40475500Y-15659309D01*
X40475500Y-15540691D01*
X40444799Y-15426114D01*
X40443554Y-15423958D01*
X40385491Y-15323390D01*
X40385484Y-15323381D01*
X40301618Y-15239515D01*
X40301609Y-15239508D01*
X40198891Y-15180203D01*
X40198885Y-15180200D01*
X40084315Y-15149501D01*
X40084310Y-15149500D01*
X40084309Y-15149500D01*
X39965691Y-15149500D01*
X39965690Y-15149500D01*
X39965684Y-15149501D01*
X39851114Y-15180200D01*
X39851108Y-15180203D01*
X39748390Y-15239508D01*
X39748381Y-15239515D01*
X39664515Y-15323381D01*
X39664508Y-15323390D01*
X39605203Y-15426108D01*
X39605200Y-15426114D01*
X39574501Y-15540684D01*
X39574500Y-15540692D01*
X36705457Y-15540692D01*
X36693185Y-15533607D01*
X36693182Y-15533606D01*
X36565898Y-15499501D01*
X36565893Y-15499500D01*
X36565892Y-15499500D01*
X36434108Y-15499500D01*
X36434107Y-15499500D01*
X36434101Y-15499501D01*
X36306817Y-15533606D01*
X36306814Y-15533607D01*
X36192684Y-15599501D01*
X36192680Y-15599504D01*
X36099504Y-15692680D01*
X36099501Y-15692684D01*
X36033607Y-15806814D01*
X36033606Y-15806817D01*
X35999501Y-15934101D01*
X35999500Y-15934109D01*
X35999500Y-15937000D01*
X35981194Y-15981194D01*
X35937000Y-15999500D01*
X35934108Y-15999500D01*
X35934107Y-15999500D01*
X35934101Y-15999501D01*
X35806817Y-16033606D01*
X35806814Y-16033607D01*
X35692684Y-16099501D01*
X35692680Y-16099504D01*
X35599504Y-16192680D01*
X35599501Y-16192684D01*
X35533607Y-16306814D01*
X35533606Y-16306817D01*
X35499501Y-16434101D01*
X35499500Y-16434109D01*
X35499500Y-16565890D01*
X35499501Y-16565898D01*
X35533606Y-16693182D01*
X35533607Y-16693185D01*
X35533608Y-16693186D01*
X35599211Y-16806814D01*
X35599501Y-16807315D01*
X35599504Y-16807319D01*
X35692680Y-16900495D01*
X35692689Y-16900502D01*
X35771274Y-16945874D01*
X35800394Y-16983824D01*
X35794150Y-17031250D01*
X35771274Y-17054126D01*
X35692689Y-17099497D01*
X35692680Y-17099504D01*
X35599504Y-17192680D01*
X35599501Y-17192684D01*
X35533607Y-17306814D01*
X35533606Y-17306817D01*
X35499501Y-17434101D01*
X35499500Y-17434109D01*
X35499500Y-17437000D01*
X35481194Y-17481194D01*
X35437000Y-17499500D01*
X35434108Y-17499500D01*
X35434107Y-17499500D01*
X35434101Y-17499501D01*
X35306817Y-17533606D01*
X35306814Y-17533607D01*
X35192684Y-17599501D01*
X35192680Y-17599504D01*
X35099504Y-17692680D01*
X35099497Y-17692689D01*
X35054126Y-17771274D01*
X35016176Y-17800394D01*
X34968750Y-17794150D01*
X34945874Y-17771274D01*
X34900502Y-17692689D01*
X34900495Y-17692680D01*
X34807319Y-17599504D01*
X34807315Y-17599501D01*
X34807314Y-17599500D01*
X34728726Y-17554127D01*
X34693185Y-17533607D01*
X34693182Y-17533606D01*
X34565898Y-17499501D01*
X34565893Y-17499500D01*
X34565892Y-17499500D01*
X34434108Y-17499500D01*
X34434107Y-17499500D01*
X34434101Y-17499501D01*
X34306817Y-17533606D01*
X34306814Y-17533607D01*
X34192684Y-17599501D01*
X34192680Y-17599504D01*
X34099504Y-17692680D01*
X34099501Y-17692684D01*
X34033607Y-17806814D01*
X34033606Y-17806817D01*
X33999501Y-17934101D01*
X33999500Y-17934109D01*
X18282725Y-17934109D01*
X18311622Y-17917425D01*
X18311627Y-17917420D01*
X18343230Y-17885818D01*
X18404803Y-17824244D01*
X18404808Y-17824239D01*
X18470700Y-17710111D01*
X18504808Y-17582817D01*
X18504808Y-17451033D01*
X18470700Y-17323739D01*
X18404808Y-17209611D01*
X18404806Y-17209609D01*
X18404803Y-17209605D01*
X18311627Y-17116429D01*
X18311623Y-17116426D01*
X18311622Y-17116425D01*
X18236408Y-17073000D01*
X18197493Y-17050532D01*
X18197490Y-17050531D01*
X18070206Y-17016426D01*
X18070201Y-17016425D01*
X18070200Y-17016425D01*
X17938416Y-17016425D01*
X17938415Y-17016425D01*
X17938409Y-17016426D01*
X17811125Y-17050531D01*
X17811122Y-17050532D01*
X17696992Y-17116426D01*
X17696988Y-17116429D01*
X17603812Y-17209605D01*
X17603809Y-17209609D01*
X17537915Y-17323739D01*
X17537914Y-17323742D01*
X17503809Y-17451026D01*
X17503808Y-17451034D01*
X-3999500Y-17451034D01*
X-3999500Y-15634109D01*
X2699500Y-15634109D01*
X2699500Y-15765890D01*
X2699501Y-15765898D01*
X2733606Y-15893182D01*
X2733607Y-15893185D01*
X2736827Y-15898762D01*
X2794989Y-15999501D01*
X2799501Y-16007315D01*
X2799504Y-16007319D01*
X2892680Y-16100495D01*
X2892684Y-16100498D01*
X2892686Y-16100500D01*
X2975277Y-16148184D01*
X3006814Y-16166392D01*
X3006817Y-16166393D01*
X3084712Y-16187264D01*
X3134108Y-16200500D01*
X3134109Y-16200500D01*
X3265891Y-16200500D01*
X3265892Y-16200500D01*
X3393186Y-16166392D01*
X3507314Y-16100500D01*
X3600500Y-16007314D01*
X3642765Y-15934109D01*
X10414500Y-15934109D01*
X10414500Y-16065890D01*
X10414501Y-16065898D01*
X10448606Y-16193182D01*
X10448607Y-16193185D01*
X10481554Y-16250250D01*
X10514211Y-16306814D01*
X10514501Y-16307315D01*
X10514504Y-16307319D01*
X10607680Y-16400495D01*
X10607684Y-16400498D01*
X10607686Y-16400500D01*
X10721814Y-16466392D01*
X10721817Y-16466393D01*
X10730614Y-16468750D01*
X10849108Y-16500500D01*
X10849109Y-16500500D01*
X10980891Y-16500500D01*
X10980892Y-16500500D01*
X11108186Y-16466392D01*
X11222314Y-16400500D01*
X11315500Y-16307314D01*
X11381392Y-16193186D01*
X11415500Y-16065892D01*
X11415500Y-15934108D01*
X11381392Y-15806814D01*
X11315500Y-15692686D01*
X11315498Y-15692684D01*
X11315495Y-15692680D01*
X11222319Y-15599504D01*
X11222315Y-15599501D01*
X11222314Y-15599500D01*
X11164969Y-15566392D01*
X11108185Y-15533607D01*
X11108182Y-15533606D01*
X10980898Y-15499501D01*
X10980893Y-15499500D01*
X10980892Y-15499500D01*
X10849108Y-15499500D01*
X10849107Y-15499500D01*
X10849101Y-15499501D01*
X10721817Y-15533606D01*
X10721814Y-15533607D01*
X10607684Y-15599501D01*
X10607680Y-15599504D01*
X10514504Y-15692680D01*
X10514501Y-15692684D01*
X10448607Y-15806814D01*
X10448606Y-15806817D01*
X10414501Y-15934101D01*
X10414500Y-15934109D01*
X3642765Y-15934109D01*
X3666392Y-15893186D01*
X3700500Y-15765892D01*
X3700500Y-15634108D01*
X3676858Y-15545873D01*
X3666393Y-15506817D01*
X3666392Y-15506814D01*
X3633879Y-15450500D01*
X3600500Y-15392686D01*
X3600498Y-15392684D01*
X3600495Y-15392680D01*
X3507319Y-15299504D01*
X3507315Y-15299501D01*
X3507314Y-15299500D01*
X3403518Y-15239573D01*
X3393185Y-15233607D01*
X3393182Y-15233606D01*
X3265898Y-15199501D01*
X3265893Y-15199500D01*
X3265892Y-15199500D01*
X3134108Y-15199500D01*
X3134107Y-15199500D01*
X3134101Y-15199501D01*
X3006817Y-15233606D01*
X3006814Y-15233607D01*
X2892684Y-15299501D01*
X2892680Y-15299504D01*
X2799504Y-15392680D01*
X2799501Y-15392684D01*
X2733607Y-15506814D01*
X2733606Y-15506817D01*
X2699501Y-15634101D01*
X2699500Y-15634109D01*
X-3999500Y-15634109D01*
X-3999500Y-15604915D01*
X-3998733Y-15595151D01*
X-3986389Y-15517219D01*
X-3980348Y-15498630D01*
X-3946794Y-15432774D01*
X-3935304Y-15416960D01*
X-3883040Y-15364696D01*
X-3867226Y-15353206D01*
X-3801368Y-15319651D01*
X-3782781Y-15313611D01*
X-3704850Y-15301268D01*
X-3695084Y-15300500D01*
X-1368885Y-15300500D01*
X-1368880Y-15300500D01*
X-1108884Y-15266270D01*
X-1108874Y-15266267D01*
X-1108872Y-15266267D01*
X-1009249Y-15239573D01*
X-855581Y-15198398D01*
X-613303Y-15098043D01*
X-386197Y-14966924D01*
X-178149Y-14807282D01*
X7282Y-14621851D01*
X166924Y-14413803D01*
X298043Y-14186697D01*
X398398Y-13944419D01*
X449640Y-13753182D01*
X466267Y-13691128D01*
X466267Y-13691126D01*
X466270Y-13691116D01*
X487007Y-13533606D01*
X492207Y-13494109D01*
X1239500Y-13494109D01*
X1239500Y-13625890D01*
X1239501Y-13625898D01*
X1273606Y-13753182D01*
X1273607Y-13753185D01*
X1339501Y-13867315D01*
X1339504Y-13867319D01*
X1367991Y-13895806D01*
X1386297Y-13940000D01*
X1367991Y-13984194D01*
X1339504Y-14012680D01*
X1339501Y-14012684D01*
X1273607Y-14126814D01*
X1273606Y-14126817D01*
X1239501Y-14254101D01*
X1239500Y-14254109D01*
X1239500Y-14385890D01*
X1239501Y-14385898D01*
X1273606Y-14513182D01*
X1273607Y-14513185D01*
X1302368Y-14563000D01*
X1338128Y-14624938D01*
X1339501Y-14627315D01*
X1339504Y-14627319D01*
X1432680Y-14720495D01*
X1432684Y-14720498D01*
X1432686Y-14720500D01*
X1546814Y-14786392D01*
X1546817Y-14786393D01*
X1624712Y-14807264D01*
X1674108Y-14820500D01*
X1674109Y-14820500D01*
X1805891Y-14820500D01*
X1805892Y-14820500D01*
X1933186Y-14786392D01*
X2047314Y-14720500D01*
X2133705Y-14634109D01*
X3449001Y-14634109D01*
X3449001Y-14765890D01*
X3449002Y-14765898D01*
X3483107Y-14893182D01*
X3483108Y-14893185D01*
X3510532Y-14940684D01*
X3543710Y-14998150D01*
X3549002Y-15007315D01*
X3549005Y-15007319D01*
X3642181Y-15100495D01*
X3642185Y-15100498D01*
X3642187Y-15100500D01*
X3727059Y-15149501D01*
X3756315Y-15166392D01*
X3756318Y-15166393D01*
X3807851Y-15180201D01*
X3883609Y-15200500D01*
X3883610Y-15200500D01*
X4015392Y-15200500D01*
X4015393Y-15200500D01*
X4142687Y-15166392D01*
X4256815Y-15100500D01*
X4350001Y-15007314D01*
X4415893Y-14893186D01*
X4423079Y-14866367D01*
X16743758Y-14866367D01*
X16743758Y-14998148D01*
X16743759Y-14998156D01*
X16777864Y-15125440D01*
X16777865Y-15125443D01*
X16801219Y-15165892D01*
X16843725Y-15239515D01*
X16843759Y-15239573D01*
X16843762Y-15239577D01*
X16936938Y-15332753D01*
X16936942Y-15332756D01*
X16936944Y-15332758D01*
X17033081Y-15388263D01*
X17051072Y-15398650D01*
X17051075Y-15398651D01*
X17083425Y-15407319D01*
X17178366Y-15432758D01*
X17178367Y-15432758D01*
X17310149Y-15432758D01*
X17310150Y-15432758D01*
X17437444Y-15398650D01*
X17551572Y-15332758D01*
X17644758Y-15239572D01*
X17677315Y-15183180D01*
X17715265Y-15154062D01*
X17762691Y-15160305D01*
X17785566Y-15183180D01*
X17795565Y-15200498D01*
X17799501Y-15207315D01*
X17799504Y-15207319D01*
X17892680Y-15300495D01*
X17892684Y-15300498D01*
X17892686Y-15300500D01*
X17996581Y-15360484D01*
X18006814Y-15366392D01*
X18006817Y-15366393D01*
X18084712Y-15387264D01*
X18134108Y-15400500D01*
X18134109Y-15400500D01*
X18265891Y-15400500D01*
X18265892Y-15400500D01*
X18393186Y-15366392D01*
X18507314Y-15300500D01*
X18507319Y-15300494D01*
X18510567Y-15298004D01*
X18511753Y-15299551D01*
X18549977Y-15283702D01*
X18588253Y-15299540D01*
X18589433Y-15298004D01*
X18592684Y-15300498D01*
X18592686Y-15300500D01*
X18696581Y-15360484D01*
X18706814Y-15366392D01*
X18706817Y-15366393D01*
X18784712Y-15387264D01*
X18834108Y-15400500D01*
X18834109Y-15400500D01*
X18965891Y-15400500D01*
X18965892Y-15400500D01*
X19093186Y-15366392D01*
X19207314Y-15300500D01*
X19300500Y-15207314D01*
X19366392Y-15093186D01*
X19400500Y-14965892D01*
X19400500Y-14834108D01*
X19389402Y-14792689D01*
X19381766Y-14764188D01*
X19378529Y-14752109D01*
X20299500Y-14752109D01*
X20299500Y-14883890D01*
X20299501Y-14883898D01*
X20333606Y-15011182D01*
X20333607Y-15011185D01*
X20349807Y-15039243D01*
X20385172Y-15100498D01*
X20399501Y-15125315D01*
X20399504Y-15125319D01*
X20492680Y-15218495D01*
X20492684Y-15218498D01*
X20492686Y-15218500D01*
X20593349Y-15276618D01*
X20606814Y-15284392D01*
X20606817Y-15284393D01*
X20738065Y-15319561D01*
X20737513Y-15321620D01*
X20772946Y-15342062D01*
X20785342Y-15388263D01*
X20783744Y-15396302D01*
X20749501Y-15524101D01*
X20749500Y-15524109D01*
X20749500Y-15655890D01*
X20749501Y-15655898D01*
X20783606Y-15783182D01*
X20783607Y-15783185D01*
X20797251Y-15806817D01*
X20847117Y-15893187D01*
X20849501Y-15897315D01*
X20849504Y-15897319D01*
X20942680Y-15990495D01*
X20942684Y-15990498D01*
X20942686Y-15990500D01*
X21018219Y-16034109D01*
X21056814Y-16056392D01*
X21056817Y-16056393D01*
X21092291Y-16065898D01*
X21184108Y-16090500D01*
X21184109Y-16090500D01*
X21315891Y-16090500D01*
X21315892Y-16090500D01*
X21443186Y-16056392D01*
X21557314Y-15990500D01*
X21650500Y-15897314D01*
X21716392Y-15783186D01*
X21750500Y-15655892D01*
X21750500Y-15524108D01*
X21750295Y-15523342D01*
X21750346Y-15522946D01*
X21749965Y-15520045D01*
X21750742Y-15519942D01*
X21756533Y-15475915D01*
X21794480Y-15446791D01*
X21826839Y-15446789D01*
X21838473Y-15449905D01*
X21840691Y-15450500D01*
X21840692Y-15450500D01*
X21959308Y-15450500D01*
X21959309Y-15450500D01*
X22073886Y-15419799D01*
X22176613Y-15360489D01*
X22260489Y-15276613D01*
X22319799Y-15173886D01*
X22350500Y-15059309D01*
X22350500Y-15034109D01*
X28343750Y-15034109D01*
X28343750Y-15165890D01*
X28343751Y-15165898D01*
X28377856Y-15293182D01*
X28377857Y-15293185D01*
X28395296Y-15323390D01*
X28438748Y-15398651D01*
X28443751Y-15407315D01*
X28443754Y-15407319D01*
X28536930Y-15500495D01*
X28536939Y-15500502D01*
X28615524Y-15545874D01*
X28644644Y-15583824D01*
X28638400Y-15631250D01*
X28615524Y-15654126D01*
X28536939Y-15699497D01*
X28536930Y-15699504D01*
X28443754Y-15792680D01*
X28443751Y-15792684D01*
X28377857Y-15906814D01*
X28377856Y-15906817D01*
X28343751Y-16034101D01*
X28343750Y-16034109D01*
X28343750Y-16165890D01*
X28343751Y-16165898D01*
X28377856Y-16293182D01*
X28377857Y-16293185D01*
X28410804Y-16350250D01*
X28428783Y-16381391D01*
X28443751Y-16407315D01*
X28443754Y-16407319D01*
X28536930Y-16500495D01*
X28536934Y-16500498D01*
X28536936Y-16500500D01*
X28650195Y-16565890D01*
X28651064Y-16566392D01*
X28651067Y-16566393D01*
X28728962Y-16587264D01*
X28778358Y-16600500D01*
X28778359Y-16600500D01*
X28910141Y-16600500D01*
X28910142Y-16600500D01*
X29037436Y-16566392D01*
X29151564Y-16500500D01*
X29244750Y-16407314D01*
X29290123Y-16328724D01*
X29328074Y-16299605D01*
X29375500Y-16305848D01*
X29398375Y-16328723D01*
X29439813Y-16400495D01*
X29443751Y-16407315D01*
X29443754Y-16407319D01*
X29536930Y-16500495D01*
X29536934Y-16500498D01*
X29536936Y-16500500D01*
X29650195Y-16565890D01*
X29651064Y-16566392D01*
X29651067Y-16566393D01*
X29728962Y-16587264D01*
X29778358Y-16600500D01*
X29778359Y-16600500D01*
X29910141Y-16600500D01*
X29910142Y-16600500D01*
X30037436Y-16566392D01*
X30151564Y-16500500D01*
X30244750Y-16407314D01*
X30310642Y-16293186D01*
X30344750Y-16165892D01*
X30344750Y-16034108D01*
X30317955Y-15934108D01*
X30310643Y-15906817D01*
X30310642Y-15906814D01*
X30302773Y-15893185D01*
X30244750Y-15792686D01*
X30244748Y-15792684D01*
X30244745Y-15792680D01*
X30151569Y-15699504D01*
X30151565Y-15699501D01*
X30151564Y-15699500D01*
X30072974Y-15654126D01*
X30043855Y-15616176D01*
X30050098Y-15568750D01*
X30072973Y-15545874D01*
X30151564Y-15500500D01*
X30244750Y-15407314D01*
X30310642Y-15293186D01*
X30344750Y-15165892D01*
X30344750Y-15034108D01*
X30326471Y-14965890D01*
X30310643Y-14906817D01*
X30310642Y-14906814D01*
X30302772Y-14893183D01*
X30244750Y-14792686D01*
X30244748Y-14792684D01*
X30244745Y-14792680D01*
X30151569Y-14699504D01*
X30151565Y-14699501D01*
X30151564Y-14699500D01*
X30094500Y-14666554D01*
X30037435Y-14633607D01*
X30037432Y-14633606D01*
X29910148Y-14599501D01*
X29910143Y-14599500D01*
X29910142Y-14599500D01*
X29778358Y-14599500D01*
X29778357Y-14599500D01*
X29778351Y-14599501D01*
X29651067Y-14633606D01*
X29651064Y-14633607D01*
X29536934Y-14699501D01*
X29536930Y-14699504D01*
X29443754Y-14792680D01*
X29443747Y-14792689D01*
X29398376Y-14871274D01*
X29360426Y-14900394D01*
X29313000Y-14894150D01*
X29290124Y-14871274D01*
X29244752Y-14792689D01*
X29244745Y-14792680D01*
X29151569Y-14699504D01*
X29151565Y-14699501D01*
X29151564Y-14699500D01*
X29094500Y-14666554D01*
X29037435Y-14633607D01*
X29037432Y-14633606D01*
X28910148Y-14599501D01*
X28910143Y-14599500D01*
X28910142Y-14599500D01*
X28778358Y-14599500D01*
X28778357Y-14599500D01*
X28778351Y-14599501D01*
X28651067Y-14633606D01*
X28651064Y-14633607D01*
X28536934Y-14699501D01*
X28536930Y-14699504D01*
X28443754Y-14792680D01*
X28443751Y-14792684D01*
X28377857Y-14906814D01*
X28377856Y-14906817D01*
X28343751Y-15034101D01*
X28343750Y-15034109D01*
X22350500Y-15034109D01*
X22350500Y-14940691D01*
X22319799Y-14826114D01*
X22308945Y-14807315D01*
X22260491Y-14723390D01*
X22260484Y-14723381D01*
X22176618Y-14639515D01*
X22176609Y-14639508D01*
X22073891Y-14580203D01*
X22073885Y-14580200D01*
X21959315Y-14549501D01*
X21959310Y-14549500D01*
X21959309Y-14549500D01*
X21840691Y-14549500D01*
X21840690Y-14549500D01*
X21840684Y-14549501D01*
X21726114Y-14580200D01*
X21726108Y-14580203D01*
X21623390Y-14639508D01*
X21623381Y-14639515D01*
X21539515Y-14723381D01*
X21539508Y-14723390D01*
X21480203Y-14826108D01*
X21480200Y-14826114D01*
X21449501Y-14940684D01*
X21449500Y-14940692D01*
X21449500Y-15043848D01*
X21446305Y-15051560D01*
X21447421Y-15059835D01*
X21437472Y-15072883D01*
X21431194Y-15088042D01*
X21423480Y-15091237D01*
X21418419Y-15097876D01*
X21402252Y-15100030D01*
X21387000Y-15106348D01*
X21371013Y-15104269D01*
X21370867Y-15104230D01*
X21315892Y-15089500D01*
X21315196Y-15089500D01*
X21310638Y-15088294D01*
X21294551Y-15076029D01*
X21277031Y-15065909D01*
X21275942Y-15061842D01*
X21272597Y-15059292D01*
X21269893Y-15039243D01*
X21264662Y-15019700D01*
X21266209Y-15011926D01*
X21266204Y-15011886D01*
X21266222Y-15011862D01*
X21266255Y-15011697D01*
X21278529Y-14965890D01*
X21300500Y-14883892D01*
X21300500Y-14752108D01*
X21272893Y-14649076D01*
X21266393Y-14624817D01*
X21266392Y-14624814D01*
X21247843Y-14592686D01*
X21200500Y-14510686D01*
X21200498Y-14510684D01*
X21200495Y-14510680D01*
X21107319Y-14417504D01*
X21107315Y-14417501D01*
X21107314Y-14417500D01*
X21050250Y-14384554D01*
X20993185Y-14351607D01*
X20993182Y-14351606D01*
X20865898Y-14317501D01*
X20865893Y-14317500D01*
X20865892Y-14317500D01*
X20734108Y-14317500D01*
X20734107Y-14317500D01*
X20734101Y-14317501D01*
X20606817Y-14351606D01*
X20606814Y-14351607D01*
X20492684Y-14417501D01*
X20492680Y-14417504D01*
X20399504Y-14510680D01*
X20399501Y-14510684D01*
X20333607Y-14624814D01*
X20333606Y-14624817D01*
X20299501Y-14752101D01*
X20299500Y-14752109D01*
X19378529Y-14752109D01*
X19370059Y-14720500D01*
X19366392Y-14706814D01*
X19300500Y-14592686D01*
X19300498Y-14592684D01*
X19300495Y-14592680D01*
X19207319Y-14499504D01*
X19207315Y-14499501D01*
X19207314Y-14499500D01*
X19094054Y-14434109D01*
X19093185Y-14433607D01*
X19093182Y-14433606D01*
X18965898Y-14399501D01*
X18965893Y-14399500D01*
X18965892Y-14399500D01*
X18834108Y-14399500D01*
X18834107Y-14399500D01*
X18834101Y-14399501D01*
X18706817Y-14433606D01*
X18706814Y-14433607D01*
X18592684Y-14499501D01*
X18589433Y-14501996D01*
X18588249Y-14500453D01*
X18550000Y-14516297D01*
X18511750Y-14500453D01*
X18510567Y-14501996D01*
X18507315Y-14499501D01*
X18507314Y-14499500D01*
X18394054Y-14434109D01*
X18393185Y-14433607D01*
X18393182Y-14433606D01*
X18265898Y-14399501D01*
X18265893Y-14399500D01*
X18265892Y-14399500D01*
X18134108Y-14399500D01*
X18134107Y-14399500D01*
X18134101Y-14399501D01*
X18006817Y-14433606D01*
X18006814Y-14433607D01*
X17892684Y-14499501D01*
X17892680Y-14499504D01*
X17799504Y-14592680D01*
X17799499Y-14592686D01*
X17766942Y-14649076D01*
X17728991Y-14678196D01*
X17681565Y-14671951D01*
X17658689Y-14649074D01*
X17653170Y-14639515D01*
X17644758Y-14624944D01*
X17644756Y-14624942D01*
X17644753Y-14624938D01*
X17551577Y-14531762D01*
X17551573Y-14531759D01*
X17551572Y-14531758D01*
X17475284Y-14487713D01*
X17437443Y-14465865D01*
X17437440Y-14465864D01*
X17310156Y-14431759D01*
X17310151Y-14431758D01*
X17310150Y-14431758D01*
X17178366Y-14431758D01*
X17178365Y-14431758D01*
X17178359Y-14431759D01*
X17051075Y-14465864D01*
X17051072Y-14465865D01*
X16936942Y-14531759D01*
X16936938Y-14531762D01*
X16843762Y-14624938D01*
X16843759Y-14624942D01*
X16777865Y-14739072D01*
X16777864Y-14739075D01*
X16743759Y-14866359D01*
X16743758Y-14866367D01*
X4423079Y-14866367D01*
X4423177Y-14866001D01*
X4428512Y-14846093D01*
X4428512Y-14846092D01*
X4442821Y-14792689D01*
X4450001Y-14765892D01*
X4450001Y-14634108D01*
X4418434Y-14516297D01*
X4415894Y-14506817D01*
X4415893Y-14506814D01*
X4392555Y-14466392D01*
X4350001Y-14392686D01*
X4349999Y-14392684D01*
X4349996Y-14392680D01*
X4256820Y-14299504D01*
X4256816Y-14299501D01*
X4256815Y-14299500D01*
X4178182Y-14254101D01*
X4142686Y-14233607D01*
X4142683Y-14233606D01*
X4015399Y-14199501D01*
X4015394Y-14199500D01*
X4015393Y-14199500D01*
X3883609Y-14199500D01*
X3883608Y-14199500D01*
X3883602Y-14199501D01*
X3756318Y-14233606D01*
X3756315Y-14233607D01*
X3642185Y-14299501D01*
X3642181Y-14299504D01*
X3549005Y-14392680D01*
X3549002Y-14392684D01*
X3483108Y-14506814D01*
X3483107Y-14506817D01*
X3449002Y-14634101D01*
X3449001Y-14634109D01*
X2133705Y-14634109D01*
X2140500Y-14627314D01*
X2206392Y-14513186D01*
X2240500Y-14385892D01*
X2240500Y-14254108D01*
X2222436Y-14186691D01*
X2206393Y-14126817D01*
X2206392Y-14126814D01*
X2140500Y-14012686D01*
X2140498Y-14012684D01*
X2140496Y-14012681D01*
X2112009Y-13984195D01*
X2112008Y-13984194D01*
X2096331Y-13946348D01*
X2093702Y-13940001D01*
X2094462Y-13938167D01*
X2096143Y-13934109D01*
X35999500Y-13934109D01*
X35999500Y-14065890D01*
X35999501Y-14065898D01*
X36033606Y-14193182D01*
X36033607Y-14193185D01*
X36066554Y-14250250D01*
X36099211Y-14306814D01*
X36099501Y-14307315D01*
X36099504Y-14307319D01*
X36192680Y-14400495D01*
X36192684Y-14400498D01*
X36192686Y-14400500D01*
X36305899Y-14465864D01*
X36306814Y-14466392D01*
X36306817Y-14466393D01*
X36384712Y-14487264D01*
X36434108Y-14500500D01*
X36437000Y-14500500D01*
X36481194Y-14518806D01*
X36499500Y-14563000D01*
X36499500Y-14565890D01*
X36499501Y-14565898D01*
X36533606Y-14693182D01*
X36533607Y-14693185D01*
X36551046Y-14723390D01*
X36599480Y-14807280D01*
X36599501Y-14807315D01*
X36599504Y-14807319D01*
X36692680Y-14900495D01*
X36692684Y-14900498D01*
X36692686Y-14900500D01*
X36805945Y-14965890D01*
X36806814Y-14966392D01*
X36806817Y-14966393D01*
X36884712Y-14987264D01*
X36934108Y-15000500D01*
X36934109Y-15000500D01*
X37065891Y-15000500D01*
X37065892Y-15000500D01*
X37193186Y-14966392D01*
X37307314Y-14900500D01*
X37400500Y-14807314D01*
X37466392Y-14693186D01*
X37500500Y-14565892D01*
X37500500Y-14434108D01*
X37469255Y-14317500D01*
X37466393Y-14306817D01*
X37466392Y-14306814D01*
X37453402Y-14284315D01*
X37400500Y-14192686D01*
X37400498Y-14192684D01*
X37400495Y-14192680D01*
X37307319Y-14099504D01*
X37307315Y-14099501D01*
X37307314Y-14099500D01*
X37228724Y-14054126D01*
X37199605Y-14016176D01*
X37205848Y-13968750D01*
X37228723Y-13945874D01*
X37307314Y-13900500D01*
X37400500Y-13807314D01*
X37466392Y-13693186D01*
X37500500Y-13565892D01*
X37500500Y-13434108D01*
X37466392Y-13306814D01*
X37400500Y-13192686D01*
X37400498Y-13192684D01*
X37400495Y-13192680D01*
X37307319Y-13099504D01*
X37307315Y-13099501D01*
X37307314Y-13099500D01*
X37238032Y-13059500D01*
X37193185Y-13033607D01*
X37193182Y-13033606D01*
X37065898Y-12999501D01*
X37065893Y-12999500D01*
X37065892Y-12999500D01*
X36934108Y-12999500D01*
X36934107Y-12999500D01*
X36934101Y-12999501D01*
X36806817Y-13033606D01*
X36806814Y-13033607D01*
X36692684Y-13099501D01*
X36692680Y-13099504D01*
X36599504Y-13192680D01*
X36599501Y-13192684D01*
X36533607Y-13306814D01*
X36533606Y-13306817D01*
X36499501Y-13434101D01*
X36499500Y-13434109D01*
X36499500Y-13437000D01*
X36481194Y-13481194D01*
X36437000Y-13499500D01*
X36434108Y-13499500D01*
X36434107Y-13499500D01*
X36434101Y-13499501D01*
X36306817Y-13533606D01*
X36306814Y-13533607D01*
X36192684Y-13599501D01*
X36192680Y-13599504D01*
X36099504Y-13692680D01*
X36099501Y-13692684D01*
X36033607Y-13806814D01*
X36033606Y-13806817D01*
X35999501Y-13934101D01*
X35999500Y-13934109D01*
X2096143Y-13934109D01*
X2101284Y-13921695D01*
X2112007Y-13895807D01*
X2140496Y-13867318D01*
X2140500Y-13867314D01*
X2206392Y-13753186D01*
X2240500Y-13625892D01*
X2240500Y-13494108D01*
X2240500Y-13493000D01*
X2258806Y-13448806D01*
X2303000Y-13430500D01*
X2435891Y-13430500D01*
X2435892Y-13430500D01*
X2563186Y-13396392D01*
X2677314Y-13330500D01*
X2770500Y-13237314D01*
X2836392Y-13123186D01*
X2870500Y-12995892D01*
X2870500Y-12864108D01*
X2836392Y-12736814D01*
X2770500Y-12622686D01*
X2770498Y-12622684D01*
X2770495Y-12622680D01*
X2677319Y-12529504D01*
X2677315Y-12529501D01*
X2677314Y-12529500D01*
X2620250Y-12496554D01*
X2563185Y-12463607D01*
X2563182Y-12463606D01*
X2435898Y-12429501D01*
X2435893Y-12429500D01*
X2435892Y-12429500D01*
X2304108Y-12429500D01*
X2304107Y-12429500D01*
X2304101Y-12429501D01*
X2176817Y-12463606D01*
X2176814Y-12463607D01*
X2062684Y-12529501D01*
X2062680Y-12529504D01*
X1969504Y-12622680D01*
X1969501Y-12622684D01*
X1903607Y-12736814D01*
X1903606Y-12736817D01*
X1869501Y-12864101D01*
X1869500Y-12864109D01*
X1869500Y-12997000D01*
X1851194Y-13041194D01*
X1807000Y-13059500D01*
X1805892Y-13059500D01*
X1674108Y-13059500D01*
X1674107Y-13059500D01*
X1674101Y-13059501D01*
X1546817Y-13093606D01*
X1546814Y-13093607D01*
X1432684Y-13159501D01*
X1432680Y-13159504D01*
X1339504Y-13252680D01*
X1339501Y-13252684D01*
X1273607Y-13366814D01*
X1273606Y-13366817D01*
X1239501Y-13494101D01*
X1239500Y-13494109D01*
X492207Y-13494109D01*
X493821Y-13481854D01*
X497538Y-13453617D01*
X500500Y-13431120D01*
X500500Y-13300000D01*
X500500Y-13234108D01*
X500500Y-11191458D01*
X6729500Y-11191458D01*
X6729500Y-11388541D01*
X6767948Y-11581833D01*
X6772291Y-11592317D01*
X6843368Y-11763914D01*
X6867813Y-11800498D01*
X6938568Y-11906392D01*
X6952861Y-11927782D01*
X7092218Y-12067139D01*
X7256086Y-12176632D01*
X7438165Y-12252051D01*
X7631459Y-12290500D01*
X7828541Y-12290500D01*
X8021835Y-12252051D01*
X8203914Y-12176632D01*
X8367782Y-12067139D01*
X8507139Y-11927782D01*
X8616632Y-11763914D01*
X8692051Y-11581835D01*
X8730500Y-11388541D01*
X8730500Y-11191459D01*
X8692051Y-10998165D01*
X8692050Y-10998164D01*
X8692050Y-10998161D01*
X8673730Y-10953933D01*
X8673728Y-10953930D01*
X8672618Y-10951250D01*
X8665518Y-10934109D01*
X10999500Y-10934109D01*
X10999500Y-11065890D01*
X10999501Y-11065898D01*
X11033606Y-11193182D01*
X11033607Y-11193185D01*
X11057230Y-11234101D01*
X11099211Y-11306814D01*
X11099501Y-11307315D01*
X11099504Y-11307319D01*
X11192680Y-11400495D01*
X11192684Y-11400498D01*
X11192686Y-11400500D01*
X11306814Y-11466392D01*
X11306817Y-11466393D01*
X11350830Y-11478186D01*
X11434108Y-11500500D01*
X11434109Y-11500500D01*
X11565891Y-11500500D01*
X11565892Y-11500500D01*
X11693186Y-11466392D01*
X11807314Y-11400500D01*
X11900500Y-11307314D01*
X11945873Y-11228724D01*
X11983824Y-11199605D01*
X12031250Y-11205848D01*
X12054125Y-11228723D01*
X12099213Y-11306817D01*
X12099501Y-11307315D01*
X12099504Y-11307319D01*
X12192680Y-11400495D01*
X12192684Y-11400498D01*
X12192686Y-11400500D01*
X12306814Y-11466392D01*
X12306817Y-11466393D01*
X12350830Y-11478186D01*
X12434108Y-11500500D01*
X12434109Y-11500500D01*
X12565891Y-11500500D01*
X12565892Y-11500500D01*
X12693186Y-11466392D01*
X12807314Y-11400500D01*
X12900500Y-11307314D01*
X12945873Y-11228724D01*
X12983824Y-11199605D01*
X13031250Y-11205848D01*
X13054125Y-11228723D01*
X13099213Y-11306817D01*
X13099501Y-11307315D01*
X13099504Y-11307319D01*
X13192680Y-11400495D01*
X13192684Y-11400498D01*
X13192686Y-11400500D01*
X13306814Y-11466392D01*
X13306817Y-11466393D01*
X13350830Y-11478186D01*
X13434108Y-11500500D01*
X13434109Y-11500500D01*
X13565891Y-11500500D01*
X13565892Y-11500500D01*
X13693186Y-11466392D01*
X13807314Y-11400500D01*
X13900500Y-11307314D01*
X13945873Y-11228724D01*
X13983824Y-11199605D01*
X14031250Y-11205848D01*
X14054125Y-11228723D01*
X14099213Y-11306817D01*
X14099501Y-11307315D01*
X14099504Y-11307319D01*
X14192680Y-11400495D01*
X14192684Y-11400498D01*
X14192686Y-11400500D01*
X14306814Y-11466392D01*
X14306817Y-11466393D01*
X14350830Y-11478186D01*
X14434108Y-11500500D01*
X14434109Y-11500500D01*
X14565891Y-11500500D01*
X14565892Y-11500500D01*
X14693186Y-11466392D01*
X14807314Y-11400500D01*
X14900500Y-11307314D01*
X14966392Y-11193186D01*
X15000500Y-11065892D01*
X15000500Y-10934108D01*
X14973571Y-10833606D01*
X14966393Y-10806817D01*
X14966392Y-10806814D01*
X14940092Y-10761262D01*
X14924415Y-10734109D01*
X21099500Y-10734109D01*
X21099500Y-10865890D01*
X21099501Y-10865898D01*
X21133606Y-10993182D01*
X21133607Y-10993185D01*
X21148400Y-11018806D01*
X21199211Y-11106814D01*
X21199501Y-11107315D01*
X21199504Y-11107319D01*
X21292680Y-11200495D01*
X21292689Y-11200502D01*
X21358717Y-11238624D01*
X21387837Y-11276574D01*
X21381593Y-11324000D01*
X21358717Y-11346876D01*
X21292689Y-11384997D01*
X21292680Y-11385004D01*
X21199504Y-11478180D01*
X21199501Y-11478184D01*
X21133607Y-11592314D01*
X21133606Y-11592317D01*
X21099501Y-11719601D01*
X21099500Y-11719609D01*
X21099500Y-11851390D01*
X21099501Y-11851398D01*
X21133606Y-11978682D01*
X21133607Y-11978685D01*
X21133608Y-11978686D01*
X21184676Y-12067139D01*
X21199501Y-12092815D01*
X21199504Y-12092819D01*
X21292680Y-12185995D01*
X21292684Y-12185998D01*
X21292686Y-12186000D01*
X21406814Y-12251892D01*
X21406817Y-12251893D01*
X21407407Y-12252051D01*
X21534108Y-12286000D01*
X21534109Y-12286000D01*
X21665891Y-12286000D01*
X21665892Y-12286000D01*
X21793186Y-12251892D01*
X21907314Y-12186000D01*
X22000500Y-12092814D01*
X22066392Y-11978686D01*
X22076624Y-11940500D01*
X22101561Y-11847435D01*
X22103963Y-11848078D01*
X22123928Y-11813442D01*
X22162011Y-11800500D01*
X22265891Y-11800500D01*
X22265892Y-11800500D01*
X22393186Y-11766392D01*
X22507314Y-11700500D01*
X22600500Y-11607314D01*
X22666392Y-11493186D01*
X22698298Y-11374109D01*
X25999500Y-11374109D01*
X25999500Y-11505890D01*
X25999501Y-11505898D01*
X26033606Y-11633182D01*
X26033607Y-11633185D01*
X26033608Y-11633186D01*
X26083504Y-11719609D01*
X26099501Y-11747315D01*
X26099504Y-11747319D01*
X26192680Y-11840495D01*
X26192684Y-11840498D01*
X26192686Y-11840500D01*
X26296600Y-11900495D01*
X26306814Y-11906392D01*
X26306817Y-11906393D01*
X26384712Y-11927264D01*
X26434108Y-11940500D01*
X26434109Y-11940500D01*
X26565891Y-11940500D01*
X26565892Y-11940500D01*
X26693186Y-11906392D01*
X26807314Y-11840500D01*
X26900500Y-11747314D01*
X26965873Y-11634083D01*
X27003824Y-11604964D01*
X27051250Y-11611207D01*
X27074125Y-11634082D01*
X27139500Y-11747314D01*
X27139501Y-11747315D01*
X27139504Y-11747319D01*
X27232680Y-11840495D01*
X27232684Y-11840498D01*
X27232686Y-11840500D01*
X27336600Y-11900495D01*
X27346814Y-11906392D01*
X27346817Y-11906393D01*
X27424712Y-11927264D01*
X27474108Y-11940500D01*
X27474109Y-11940500D01*
X27605891Y-11940500D01*
X27605892Y-11940500D01*
X27733186Y-11906392D01*
X27847314Y-11840500D01*
X27940500Y-11747314D01*
X28006392Y-11633186D01*
X28040500Y-11505892D01*
X28040500Y-11374108D01*
X28006392Y-11246814D01*
X27940500Y-11132686D01*
X27940498Y-11132684D01*
X27940495Y-11132680D01*
X27847319Y-11039504D01*
X27847315Y-11039501D01*
X27847314Y-11039500D01*
X27734083Y-10974126D01*
X27704964Y-10936176D01*
X27711207Y-10888750D01*
X27734082Y-10865874D01*
X27847314Y-10800500D01*
X27940500Y-10707314D01*
X28006392Y-10593186D01*
X28040500Y-10465892D01*
X28040500Y-10434109D01*
X34499500Y-10434109D01*
X34499500Y-10565890D01*
X34499501Y-10565898D01*
X34533606Y-10693182D01*
X34533607Y-10693185D01*
X34557230Y-10734101D01*
X34599211Y-10806814D01*
X34599501Y-10807315D01*
X34599504Y-10807319D01*
X34692680Y-10900495D01*
X34692689Y-10900502D01*
X34771274Y-10945874D01*
X34800394Y-10983824D01*
X34794150Y-11031250D01*
X34771274Y-11054126D01*
X34692689Y-11099497D01*
X34692680Y-11099504D01*
X34599504Y-11192680D01*
X34599501Y-11192684D01*
X34533607Y-11306814D01*
X34533606Y-11306817D01*
X34499501Y-11434101D01*
X34499500Y-11434109D01*
X34499500Y-11565890D01*
X34499501Y-11565898D01*
X34533606Y-11693182D01*
X34533607Y-11693185D01*
X34548859Y-11719601D01*
X34590366Y-11791494D01*
X34599501Y-11807315D01*
X34599504Y-11807319D01*
X34692680Y-11900495D01*
X34692684Y-11900498D01*
X34692686Y-11900500D01*
X34761968Y-11940500D01*
X34806814Y-11966392D01*
X34806817Y-11966393D01*
X34852696Y-11978686D01*
X34934108Y-12000500D01*
X34934109Y-12000500D01*
X35065891Y-12000500D01*
X35065892Y-12000500D01*
X35193186Y-11966392D01*
X35307314Y-11900500D01*
X35400500Y-11807314D01*
X35466392Y-11693186D01*
X35500500Y-11565892D01*
X35500500Y-11563000D01*
X35518806Y-11518806D01*
X35563000Y-11500500D01*
X35565891Y-11500500D01*
X35565892Y-11500500D01*
X35693186Y-11466392D01*
X35807314Y-11400500D01*
X35900500Y-11307314D01*
X35966392Y-11193186D01*
X36000500Y-11065892D01*
X36000500Y-11063000D01*
X36018806Y-11018806D01*
X36063000Y-11000500D01*
X36065891Y-11000500D01*
X36065892Y-11000500D01*
X36193186Y-10966392D01*
X36307314Y-10900500D01*
X36400500Y-10807314D01*
X36466392Y-10693186D01*
X36500500Y-10565892D01*
X36500500Y-10434108D01*
X36473705Y-10334108D01*
X36466393Y-10306817D01*
X36466392Y-10306814D01*
X36445873Y-10271274D01*
X36400500Y-10192686D01*
X36400498Y-10192684D01*
X36400495Y-10192680D01*
X36307319Y-10099504D01*
X36307315Y-10099501D01*
X36307314Y-10099500D01*
X36250250Y-10066554D01*
X36193185Y-10033607D01*
X36193182Y-10033606D01*
X36065898Y-9999501D01*
X36065893Y-9999500D01*
X36065892Y-9999500D01*
X36065891Y-9999500D01*
X36063000Y-9999500D01*
X36018806Y-9981194D01*
X36000500Y-9937000D01*
X36000500Y-9934109D01*
X36000498Y-9934101D01*
X35991493Y-9900495D01*
X35987264Y-9884712D01*
X35966393Y-9806817D01*
X35966392Y-9806814D01*
X35921307Y-9728725D01*
X35900500Y-9692686D01*
X35900498Y-9692684D01*
X35900495Y-9692680D01*
X35807319Y-9599504D01*
X35807315Y-9599501D01*
X35807314Y-9599500D01*
X35749100Y-9565890D01*
X35693185Y-9533607D01*
X35693182Y-9533606D01*
X35565898Y-9499501D01*
X35565893Y-9499500D01*
X35565892Y-9499500D01*
X35434108Y-9499500D01*
X35434107Y-9499500D01*
X35434101Y-9499501D01*
X35306817Y-9533606D01*
X35306814Y-9533607D01*
X35192684Y-9599501D01*
X35192680Y-9599504D01*
X35099504Y-9692680D01*
X35099501Y-9692684D01*
X35033607Y-9806814D01*
X35033606Y-9806817D01*
X34999501Y-9934101D01*
X34999500Y-9934109D01*
X34999500Y-9937000D01*
X34981194Y-9981194D01*
X34937000Y-9999500D01*
X34934108Y-9999500D01*
X34934107Y-9999500D01*
X34934101Y-9999501D01*
X34806817Y-10033606D01*
X34806814Y-10033607D01*
X34692684Y-10099501D01*
X34692680Y-10099504D01*
X34599504Y-10192680D01*
X34599501Y-10192684D01*
X34533607Y-10306814D01*
X34533606Y-10306817D01*
X34499501Y-10434101D01*
X34499500Y-10434109D01*
X28040500Y-10434109D01*
X28040500Y-10334108D01*
X28006392Y-10206814D01*
X27940500Y-10092686D01*
X27940498Y-10092684D01*
X27940495Y-10092680D01*
X27847319Y-9999504D01*
X27847315Y-9999501D01*
X27847314Y-9999500D01*
X27789969Y-9966392D01*
X27733185Y-9933607D01*
X27733182Y-9933606D01*
X27605898Y-9899501D01*
X27605893Y-9899500D01*
X27605892Y-9899500D01*
X27474108Y-9899500D01*
X27474107Y-9899500D01*
X27474101Y-9899501D01*
X27346817Y-9933606D01*
X27346814Y-9933607D01*
X27232684Y-9999501D01*
X27232680Y-9999504D01*
X27139504Y-10092680D01*
X27139501Y-10092684D01*
X27073607Y-10206814D01*
X27073606Y-10206817D01*
X27039501Y-10334101D01*
X27039500Y-10334109D01*
X27039500Y-10465890D01*
X27039501Y-10465898D01*
X27073606Y-10593182D01*
X27073607Y-10593185D01*
X27081476Y-10606814D01*
X27131054Y-10692686D01*
X27139501Y-10707315D01*
X27139504Y-10707319D01*
X27232680Y-10800495D01*
X27232689Y-10800502D01*
X27345915Y-10865874D01*
X27375035Y-10903824D01*
X27368791Y-10951250D01*
X27345915Y-10974126D01*
X27232689Y-11039497D01*
X27232680Y-11039504D01*
X27139504Y-11132680D01*
X27139497Y-11132689D01*
X27074126Y-11245915D01*
X27036176Y-11275035D01*
X26988750Y-11268791D01*
X26965874Y-11245915D01*
X26900502Y-11132689D01*
X26900495Y-11132680D01*
X26807319Y-11039504D01*
X26807315Y-11039501D01*
X26807314Y-11039500D01*
X26727096Y-10993186D01*
X26693185Y-10973607D01*
X26693182Y-10973606D01*
X26565898Y-10939501D01*
X26565893Y-10939500D01*
X26565892Y-10939500D01*
X26434108Y-10939500D01*
X26434107Y-10939500D01*
X26434101Y-10939501D01*
X26306817Y-10973606D01*
X26306814Y-10973607D01*
X26192684Y-11039501D01*
X26192680Y-11039504D01*
X26099504Y-11132680D01*
X26099501Y-11132684D01*
X26033607Y-11246814D01*
X26033606Y-11246817D01*
X25999501Y-11374101D01*
X25999500Y-11374109D01*
X22698298Y-11374109D01*
X22700500Y-11365892D01*
X22700500Y-11234108D01*
X22673323Y-11132680D01*
X22666393Y-11106817D01*
X22666392Y-11106814D01*
X22662169Y-11099500D01*
X22600500Y-10992686D01*
X22600498Y-10992684D01*
X22600495Y-10992680D01*
X22507319Y-10899504D01*
X22507315Y-10899501D01*
X22507314Y-10899500D01*
X22449070Y-10865873D01*
X22393185Y-10833607D01*
X22393182Y-10833606D01*
X22265898Y-10799501D01*
X22265893Y-10799500D01*
X22265892Y-10799500D01*
X22163000Y-10799500D01*
X22118806Y-10781194D01*
X22100500Y-10737000D01*
X22100500Y-10734109D01*
X22100498Y-10734101D01*
X22089399Y-10692680D01*
X22066392Y-10606814D01*
X22000500Y-10492686D01*
X22000498Y-10492684D01*
X22000495Y-10492680D01*
X21907319Y-10399504D01*
X21907315Y-10399501D01*
X21907314Y-10399500D01*
X21794054Y-10334109D01*
X21793185Y-10333607D01*
X21793182Y-10333606D01*
X21665898Y-10299501D01*
X21665893Y-10299500D01*
X21665892Y-10299500D01*
X21534108Y-10299500D01*
X21534107Y-10299500D01*
X21534101Y-10299501D01*
X21406817Y-10333606D01*
X21406814Y-10333607D01*
X21292684Y-10399501D01*
X21292680Y-10399504D01*
X21199504Y-10492680D01*
X21199501Y-10492684D01*
X21133607Y-10606814D01*
X21133606Y-10606817D01*
X21099501Y-10734101D01*
X21099500Y-10734109D01*
X14924415Y-10734109D01*
X14900500Y-10692686D01*
X14900498Y-10692684D01*
X14900495Y-10692680D01*
X14807319Y-10599504D01*
X14807315Y-10599501D01*
X14807314Y-10599500D01*
X14749100Y-10565890D01*
X14693185Y-10533607D01*
X14693182Y-10533606D01*
X14565898Y-10499501D01*
X14565893Y-10499500D01*
X14565892Y-10499500D01*
X14565891Y-10499500D01*
X14563000Y-10499500D01*
X14518806Y-10481194D01*
X14500500Y-10437000D01*
X14500500Y-10434109D01*
X14500498Y-10434101D01*
X14466393Y-10306817D01*
X14466392Y-10306814D01*
X14445873Y-10271274D01*
X14400500Y-10192686D01*
X14400498Y-10192684D01*
X14400495Y-10192680D01*
X14307319Y-10099504D01*
X14307315Y-10099501D01*
X14307314Y-10099500D01*
X14250250Y-10066554D01*
X14193185Y-10033607D01*
X14193182Y-10033606D01*
X14065898Y-9999501D01*
X14065893Y-9999500D01*
X14065892Y-9999500D01*
X13934108Y-9999500D01*
X13934107Y-9999500D01*
X13934101Y-9999501D01*
X13806817Y-10033606D01*
X13806814Y-10033607D01*
X13692684Y-10099501D01*
X13692680Y-10099504D01*
X13599504Y-10192680D01*
X13599497Y-10192689D01*
X13554126Y-10271274D01*
X13516176Y-10300394D01*
X13468750Y-10294150D01*
X13445874Y-10271274D01*
X13400502Y-10192689D01*
X13400495Y-10192680D01*
X13307319Y-10099504D01*
X13307315Y-10099501D01*
X13307314Y-10099500D01*
X13250250Y-10066554D01*
X13193185Y-10033607D01*
X13193182Y-10033606D01*
X13065898Y-9999501D01*
X13065893Y-9999500D01*
X13065892Y-9999500D01*
X12934108Y-9999500D01*
X12934107Y-9999500D01*
X12934101Y-9999501D01*
X12806817Y-10033606D01*
X12806814Y-10033607D01*
X12692684Y-10099501D01*
X12692680Y-10099504D01*
X12599504Y-10192680D01*
X12599497Y-10192689D01*
X12554126Y-10271274D01*
X12516176Y-10300394D01*
X12468750Y-10294150D01*
X12445874Y-10271274D01*
X12400502Y-10192689D01*
X12400495Y-10192680D01*
X12307319Y-10099504D01*
X12307315Y-10099501D01*
X12307314Y-10099500D01*
X12250250Y-10066554D01*
X12193185Y-10033607D01*
X12193182Y-10033606D01*
X12065898Y-9999501D01*
X12065893Y-9999500D01*
X12065892Y-9999500D01*
X11934108Y-9999500D01*
X11934107Y-9999500D01*
X11934101Y-9999501D01*
X11806817Y-10033606D01*
X11806814Y-10033607D01*
X11692684Y-10099501D01*
X11692680Y-10099504D01*
X11599504Y-10192680D01*
X11599501Y-10192684D01*
X11533607Y-10306814D01*
X11533606Y-10306817D01*
X11499501Y-10434101D01*
X11499500Y-10434109D01*
X11499500Y-10437000D01*
X11481194Y-10481194D01*
X11437000Y-10499500D01*
X11434108Y-10499500D01*
X11434107Y-10499500D01*
X11434101Y-10499501D01*
X11306817Y-10533606D01*
X11306814Y-10533607D01*
X11192684Y-10599501D01*
X11192680Y-10599504D01*
X11099504Y-10692680D01*
X11099501Y-10692684D01*
X11033607Y-10806814D01*
X11033606Y-10806817D01*
X10999501Y-10934101D01*
X10999500Y-10934109D01*
X8665518Y-10934109D01*
X8616632Y-10816086D01*
X8507139Y-10652218D01*
X8367782Y-10512861D01*
X8347787Y-10499501D01*
X8249921Y-10434109D01*
X8203914Y-10403368D01*
X8036707Y-10334109D01*
X8021833Y-10327948D01*
X7828541Y-10289500D01*
X7631459Y-10289500D01*
X7438166Y-10327948D01*
X7297334Y-10386282D01*
X7265425Y-10399500D01*
X7256084Y-10403369D01*
X7092218Y-10512860D01*
X6952860Y-10652218D01*
X6843369Y-10816084D01*
X6767948Y-10998166D01*
X6729500Y-11191458D01*
X500500Y-11191458D01*
X500500Y-8134109D01*
X2099500Y-8134109D01*
X2099500Y-8265890D01*
X2099501Y-8265898D01*
X2133606Y-8393182D01*
X2133607Y-8393185D01*
X2199501Y-8507315D01*
X2199504Y-8507319D01*
X2292680Y-8600495D01*
X2292684Y-8600498D01*
X2292686Y-8600500D01*
X2406814Y-8666392D01*
X2406817Y-8666393D01*
X2493538Y-8689630D01*
X2531489Y-8718750D01*
X2537732Y-8766176D01*
X2508612Y-8804127D01*
X2493538Y-8810370D01*
X2406817Y-8833606D01*
X2406814Y-8833607D01*
X2292684Y-8899501D01*
X2292680Y-8899504D01*
X2199504Y-8992680D01*
X2199501Y-8992684D01*
X2133607Y-9106814D01*
X2133606Y-9106817D01*
X2099501Y-9234101D01*
X2099500Y-9234109D01*
X2099500Y-9365890D01*
X2099501Y-9365898D01*
X2133606Y-9493182D01*
X2133607Y-9493185D01*
X2156945Y-9533607D01*
X2194989Y-9599501D01*
X2199501Y-9607315D01*
X2199504Y-9607319D01*
X2292680Y-9700495D01*
X2292684Y-9700498D01*
X2292686Y-9700500D01*
X2406814Y-9766392D01*
X2406817Y-9766393D01*
X2484712Y-9787264D01*
X2534108Y-9800500D01*
X2534109Y-9800500D01*
X2665891Y-9800500D01*
X2665892Y-9800500D01*
X2793186Y-9766392D01*
X2907314Y-9700500D01*
X3000500Y-9607314D01*
X3066392Y-9493186D01*
X3069411Y-9481917D01*
X3082222Y-9434109D01*
X38999500Y-9434109D01*
X38999500Y-9565890D01*
X38999501Y-9565898D01*
X39033606Y-9693182D01*
X39033607Y-9693185D01*
X39066554Y-9750250D01*
X39099211Y-9806814D01*
X39099501Y-9807315D01*
X39099504Y-9807319D01*
X39192680Y-9900495D01*
X39192684Y-9900498D01*
X39192686Y-9900500D01*
X39255906Y-9937000D01*
X39306814Y-9966392D01*
X39306817Y-9966393D01*
X39362056Y-9981194D01*
X39434108Y-10000500D01*
X39434109Y-10000500D01*
X39565891Y-10000500D01*
X39565892Y-10000500D01*
X39693186Y-9966392D01*
X39807314Y-9900500D01*
X39900500Y-9807314D01*
X39945873Y-9728724D01*
X39983824Y-9699605D01*
X40031250Y-9705848D01*
X40054125Y-9728723D01*
X40099213Y-9806817D01*
X40099501Y-9807315D01*
X40099504Y-9807319D01*
X40192680Y-9900495D01*
X40192684Y-9900498D01*
X40192686Y-9900500D01*
X40255906Y-9937000D01*
X40306814Y-9966392D01*
X40306817Y-9966393D01*
X40362056Y-9981194D01*
X40434108Y-10000500D01*
X40434109Y-10000500D01*
X40565891Y-10000500D01*
X40565892Y-10000500D01*
X40693186Y-9966392D01*
X40807314Y-9900500D01*
X40900500Y-9807314D01*
X40966392Y-9693186D01*
X41000500Y-9565892D01*
X41000500Y-9434108D01*
X40966392Y-9306814D01*
X40900500Y-9192686D01*
X40900498Y-9192684D01*
X40900495Y-9192680D01*
X40807319Y-9099504D01*
X40807315Y-9099501D01*
X40807314Y-9099500D01*
X40728724Y-9054126D01*
X40699605Y-9016176D01*
X40705848Y-8968750D01*
X40728723Y-8945874D01*
X40807314Y-8900500D01*
X40900500Y-8807314D01*
X40966392Y-8693186D01*
X41000500Y-8565892D01*
X41000500Y-8434108D01*
X40966392Y-8306814D01*
X40900500Y-8192686D01*
X40900498Y-8192684D01*
X40900495Y-8192680D01*
X40807319Y-8099504D01*
X40807315Y-8099501D01*
X40807314Y-8099500D01*
X40750250Y-8066554D01*
X40693185Y-8033607D01*
X40693182Y-8033606D01*
X40565898Y-7999501D01*
X40565893Y-7999500D01*
X40565892Y-7999500D01*
X40434108Y-7999500D01*
X40434107Y-7999500D01*
X40434101Y-7999501D01*
X40306817Y-8033606D01*
X40306814Y-8033607D01*
X40192684Y-8099501D01*
X40192680Y-8099504D01*
X40099504Y-8192680D01*
X40099501Y-8192684D01*
X40033607Y-8306814D01*
X40033606Y-8306817D01*
X39999501Y-8434101D01*
X39999500Y-8434109D01*
X39999500Y-8565890D01*
X39999501Y-8565898D01*
X40033606Y-8693182D01*
X40033607Y-8693185D01*
X40099501Y-8807315D01*
X40099504Y-8807319D01*
X40192680Y-8900495D01*
X40192689Y-8900502D01*
X40271274Y-8945874D01*
X40300394Y-8983824D01*
X40294150Y-9031250D01*
X40271274Y-9054126D01*
X40192689Y-9099497D01*
X40192680Y-9099504D01*
X40099504Y-9192680D01*
X40099497Y-9192689D01*
X40054126Y-9271274D01*
X40016176Y-9300394D01*
X39968750Y-9294150D01*
X39945874Y-9271274D01*
X39900502Y-9192689D01*
X39900495Y-9192680D01*
X39807319Y-9099504D01*
X39807315Y-9099501D01*
X39807314Y-9099500D01*
X39728724Y-9054126D01*
X39693185Y-9033607D01*
X39693182Y-9033606D01*
X39565898Y-8999501D01*
X39565893Y-8999500D01*
X39565892Y-8999500D01*
X39434108Y-8999500D01*
X39434107Y-8999500D01*
X39434101Y-8999501D01*
X39306817Y-9033606D01*
X39306814Y-9033607D01*
X39192684Y-9099501D01*
X39192680Y-9099504D01*
X39099504Y-9192680D01*
X39099501Y-9192684D01*
X39033607Y-9306814D01*
X39033606Y-9306817D01*
X38999501Y-9434101D01*
X38999500Y-9434109D01*
X3082222Y-9434109D01*
X3087654Y-9413836D01*
X3100498Y-9365898D01*
X3100500Y-9365890D01*
X3100500Y-9234109D01*
X3100498Y-9234101D01*
X3089399Y-9192680D01*
X3066392Y-9106814D01*
X3000500Y-8992686D01*
X3000498Y-8992684D01*
X3000495Y-8992680D01*
X2907319Y-8899504D01*
X2907315Y-8899501D01*
X2907314Y-8899500D01*
X2850250Y-8866554D01*
X2793185Y-8833607D01*
X2793182Y-8833606D01*
X2706461Y-8810370D01*
X2668510Y-8781250D01*
X2662267Y-8733824D01*
X2691387Y-8695873D01*
X2706461Y-8689630D01*
X2793182Y-8666393D01*
X2793180Y-8666393D01*
X2793186Y-8666392D01*
X2907314Y-8600500D01*
X3000500Y-8507314D01*
X3045873Y-8428724D01*
X3083824Y-8399605D01*
X3131250Y-8405848D01*
X3154125Y-8428723D01*
X3157235Y-8434109D01*
X3199501Y-8507315D01*
X3199504Y-8507319D01*
X3292680Y-8600495D01*
X3292684Y-8600498D01*
X3292686Y-8600500D01*
X3406814Y-8666392D01*
X3406817Y-8666393D01*
X3484712Y-8687264D01*
X3534108Y-8700500D01*
X3534109Y-8700500D01*
X3665891Y-8700500D01*
X3665892Y-8700500D01*
X3793186Y-8666392D01*
X3907314Y-8600500D01*
X4000500Y-8507314D01*
X4045873Y-8428724D01*
X4083824Y-8399605D01*
X4131250Y-8405848D01*
X4154125Y-8428723D01*
X4157235Y-8434109D01*
X4199501Y-8507315D01*
X4199504Y-8507319D01*
X4292680Y-8600495D01*
X4292684Y-8600498D01*
X4292686Y-8600500D01*
X4406814Y-8666392D01*
X4406817Y-8666393D01*
X4484712Y-8687264D01*
X4534108Y-8700500D01*
X4534109Y-8700500D01*
X4665891Y-8700500D01*
X4665892Y-8700500D01*
X4793186Y-8666392D01*
X4907314Y-8600500D01*
X5000500Y-8507314D01*
X5066392Y-8393186D01*
X5100500Y-8265892D01*
X5100500Y-8254109D01*
X10414500Y-8254109D01*
X10414500Y-8385890D01*
X10414501Y-8385898D01*
X10448606Y-8513182D01*
X10448607Y-8513185D01*
X10514501Y-8627315D01*
X10514504Y-8627319D01*
X10607680Y-8720495D01*
X10607684Y-8720498D01*
X10607686Y-8720500D01*
X10686799Y-8766176D01*
X10721814Y-8786392D01*
X10721817Y-8786393D01*
X10799712Y-8807264D01*
X10849108Y-8820500D01*
X10849109Y-8820500D01*
X10980891Y-8820500D01*
X10980892Y-8820500D01*
X11108186Y-8786392D01*
X11222314Y-8720500D01*
X11315500Y-8627314D01*
X11381392Y-8513186D01*
X11415500Y-8385892D01*
X11415500Y-8254109D01*
X32454500Y-8254109D01*
X32454500Y-8385890D01*
X32454501Y-8385898D01*
X32488606Y-8513182D01*
X32488607Y-8513185D01*
X32554501Y-8627315D01*
X32554504Y-8627319D01*
X32647680Y-8720495D01*
X32647684Y-8720498D01*
X32647686Y-8720500D01*
X32726799Y-8766176D01*
X32761814Y-8786392D01*
X32761817Y-8786393D01*
X32839712Y-8807264D01*
X32889108Y-8820500D01*
X32889109Y-8820500D01*
X33020891Y-8820500D01*
X33020892Y-8820500D01*
X33148186Y-8786392D01*
X33262314Y-8720500D01*
X33355500Y-8627314D01*
X33421392Y-8513186D01*
X33455500Y-8385892D01*
X33455500Y-8254108D01*
X33423347Y-8134109D01*
X33421393Y-8126817D01*
X33421392Y-8126814D01*
X33355500Y-8012686D01*
X33355498Y-8012684D01*
X33355495Y-8012680D01*
X33262319Y-7919504D01*
X33262315Y-7919501D01*
X33262314Y-7919500D01*
X33205250Y-7886554D01*
X33148185Y-7853607D01*
X33148182Y-7853606D01*
X33020898Y-7819501D01*
X33020893Y-7819500D01*
X33020892Y-7819500D01*
X32889108Y-7819500D01*
X32889107Y-7819500D01*
X32889101Y-7819501D01*
X32761817Y-7853606D01*
X32761814Y-7853607D01*
X32647684Y-7919501D01*
X32647680Y-7919504D01*
X32554504Y-8012680D01*
X32554501Y-8012684D01*
X32488607Y-8126814D01*
X32488606Y-8126817D01*
X32454501Y-8254101D01*
X32454500Y-8254109D01*
X11415500Y-8254109D01*
X11415500Y-8254108D01*
X11383347Y-8134109D01*
X11381393Y-8126817D01*
X11381392Y-8126814D01*
X11315500Y-8012686D01*
X11315498Y-8012684D01*
X11315495Y-8012680D01*
X11222319Y-7919504D01*
X11222315Y-7919501D01*
X11222314Y-7919500D01*
X11165250Y-7886554D01*
X11108185Y-7853607D01*
X11108182Y-7853606D01*
X10980898Y-7819501D01*
X10980893Y-7819500D01*
X10980892Y-7819500D01*
X10849108Y-7819500D01*
X10849107Y-7819500D01*
X10849101Y-7819501D01*
X10721817Y-7853606D01*
X10721814Y-7853607D01*
X10607684Y-7919501D01*
X10607680Y-7919504D01*
X10514504Y-8012680D01*
X10514501Y-8012684D01*
X10448607Y-8126814D01*
X10448606Y-8126817D01*
X10414501Y-8254101D01*
X10414500Y-8254109D01*
X5100500Y-8254109D01*
X5100500Y-8134108D01*
X5073571Y-8033606D01*
X5066393Y-8006817D01*
X5066392Y-8006814D01*
X5015983Y-7919504D01*
X5000500Y-7892686D01*
X5000498Y-7892684D01*
X5000495Y-7892680D01*
X4907319Y-7799504D01*
X4907315Y-7799501D01*
X4907314Y-7799500D01*
X4850250Y-7766554D01*
X4793185Y-7733607D01*
X4793182Y-7733606D01*
X4665898Y-7699501D01*
X4665893Y-7699500D01*
X4665892Y-7699500D01*
X4534108Y-7699500D01*
X4534107Y-7699500D01*
X4534101Y-7699501D01*
X4406817Y-7733606D01*
X4406814Y-7733607D01*
X4292684Y-7799501D01*
X4292680Y-7799504D01*
X4199504Y-7892680D01*
X4199497Y-7892689D01*
X4154126Y-7971274D01*
X4116176Y-8000394D01*
X4068750Y-7994150D01*
X4045874Y-7971274D01*
X4000502Y-7892689D01*
X4000495Y-7892680D01*
X3904418Y-7796603D01*
X3905233Y-7795787D01*
X3883507Y-7758163D01*
X3895884Y-7711956D01*
X3904430Y-7703409D01*
X3904418Y-7703397D01*
X4000495Y-7607319D01*
X4000500Y-7607314D01*
X4066392Y-7493186D01*
X4100500Y-7365892D01*
X4100500Y-7234108D01*
X4066392Y-7106814D01*
X4000500Y-6992686D01*
X4000498Y-6992684D01*
X4000495Y-6992680D01*
X3907319Y-6899504D01*
X3907315Y-6899501D01*
X3907314Y-6899500D01*
X3850250Y-6866554D01*
X3793185Y-6833607D01*
X3793182Y-6833606D01*
X3665898Y-6799501D01*
X3665893Y-6799500D01*
X3665892Y-6799500D01*
X3534108Y-6799500D01*
X3534107Y-6799500D01*
X3534101Y-6799501D01*
X3406817Y-6833606D01*
X3406814Y-6833607D01*
X3292684Y-6899501D01*
X3292680Y-6899504D01*
X3199504Y-6992680D01*
X3199501Y-6992684D01*
X3133607Y-7106814D01*
X3133606Y-7106817D01*
X3099501Y-7234101D01*
X3099500Y-7234109D01*
X3099500Y-7365890D01*
X3099501Y-7365898D01*
X3133606Y-7493182D01*
X3133607Y-7493185D01*
X3199501Y-7607315D01*
X3199504Y-7607319D01*
X3295582Y-7703397D01*
X3294767Y-7704211D01*
X3316493Y-7741847D01*
X3304109Y-7788051D01*
X3295569Y-7796590D01*
X3295582Y-7796603D01*
X3199504Y-7892680D01*
X3199497Y-7892689D01*
X3154126Y-7971274D01*
X3116176Y-8000394D01*
X3068750Y-7994150D01*
X3045874Y-7971274D01*
X3000502Y-7892689D01*
X3000495Y-7892680D01*
X2907319Y-7799504D01*
X2907315Y-7799501D01*
X2907314Y-7799500D01*
X2850250Y-7766554D01*
X2793185Y-7733607D01*
X2793182Y-7733606D01*
X2665898Y-7699501D01*
X2665893Y-7699500D01*
X2665892Y-7699500D01*
X2534108Y-7699500D01*
X2534107Y-7699500D01*
X2534101Y-7699501D01*
X2406817Y-7733606D01*
X2406814Y-7733607D01*
X2292684Y-7799501D01*
X2292680Y-7799504D01*
X2199504Y-7892680D01*
X2199501Y-7892684D01*
X2133607Y-8006814D01*
X2133606Y-8006817D01*
X2099501Y-8134101D01*
X2099500Y-8134109D01*
X500500Y-8134109D01*
X500500Y-3451758D01*
X500598Y-3448254D01*
X504504Y-3378707D01*
X1649500Y-3378707D01*
X1649500Y-3621292D01*
X1681162Y-3861792D01*
X1681162Y-3861793D01*
X1743940Y-4096083D01*
X1743944Y-4096094D01*
X1743946Y-4096100D01*
X1745355Y-4099501D01*
X1836774Y-4320208D01*
X1836775Y-4320211D01*
X1958062Y-4530286D01*
X1958064Y-4530289D01*
X1960610Y-4533607D01*
X2082670Y-4692680D01*
X2105735Y-4722738D01*
X2277262Y-4894265D01*
X2277265Y-4894267D01*
X2277267Y-4894269D01*
X2322309Y-4928830D01*
X2469711Y-5041936D01*
X2679788Y-5163224D01*
X2903900Y-5256054D01*
X2903908Y-5256056D01*
X2903916Y-5256059D01*
X3138207Y-5318837D01*
X3138211Y-5318838D01*
X3378712Y-5350500D01*
X3378718Y-5350500D01*
X3621282Y-5350500D01*
X3621288Y-5350500D01*
X3861789Y-5318838D01*
X3861793Y-5318837D01*
X4096083Y-5256059D01*
X4096087Y-5256057D01*
X4096100Y-5256054D01*
X4320212Y-5163224D01*
X4530289Y-5041936D01*
X4722738Y-4894265D01*
X4894265Y-4722738D01*
X5041936Y-4530289D01*
X5163224Y-4320212D01*
X5256054Y-4096100D01*
X5264149Y-4065892D01*
X5318837Y-3861793D01*
X5318837Y-3861792D01*
X5318838Y-3861789D01*
X5350500Y-3621288D01*
X5350500Y-3378712D01*
X5318838Y-3138211D01*
X5314833Y-3123263D01*
X5267386Y-2946188D01*
X5264149Y-2934109D01*
X12499500Y-2934109D01*
X12499500Y-3065890D01*
X12499501Y-3065898D01*
X12533606Y-3193182D01*
X12533607Y-3193185D01*
X12533608Y-3193186D01*
X12599211Y-3306814D01*
X12599501Y-3307315D01*
X12599504Y-3307319D01*
X12692680Y-3400495D01*
X12692689Y-3400502D01*
X12771274Y-3445874D01*
X12800394Y-3483824D01*
X12794150Y-3531250D01*
X12771274Y-3554126D01*
X12692689Y-3599497D01*
X12692680Y-3599504D01*
X12599504Y-3692680D01*
X12599501Y-3692684D01*
X12533607Y-3806814D01*
X12533606Y-3806817D01*
X12499501Y-3934101D01*
X12499500Y-3934109D01*
X12499500Y-4065890D01*
X12499501Y-4065898D01*
X12533606Y-4193182D01*
X12533607Y-4193185D01*
X12533608Y-4193186D01*
X12599211Y-4306814D01*
X12599501Y-4307315D01*
X12599504Y-4307319D01*
X12692680Y-4400495D01*
X12692689Y-4400502D01*
X12771274Y-4445874D01*
X12800394Y-4483824D01*
X12794150Y-4531250D01*
X12771274Y-4554126D01*
X12692689Y-4599497D01*
X12692680Y-4599504D01*
X12599504Y-4692680D01*
X12599501Y-4692684D01*
X12533607Y-4806814D01*
X12533606Y-4806817D01*
X12499501Y-4934101D01*
X12499500Y-4934109D01*
X12499500Y-5065890D01*
X12499501Y-5065898D01*
X12533606Y-5193182D01*
X12533607Y-5193185D01*
X12557293Y-5234209D01*
X12599211Y-5306814D01*
X12599501Y-5307315D01*
X12599504Y-5307319D01*
X12692680Y-5400495D01*
X12692684Y-5400498D01*
X12692686Y-5400500D01*
X12750956Y-5434142D01*
X12806814Y-5466392D01*
X12806817Y-5466393D01*
X12862056Y-5481194D01*
X12934108Y-5500500D01*
X12934109Y-5500500D01*
X13065891Y-5500500D01*
X13065892Y-5500500D01*
X13065900Y-5500498D01*
X13080294Y-5496641D01*
X13163907Y-5474237D01*
X13211333Y-5480480D01*
X13240453Y-5518430D01*
X13234210Y-5565857D01*
X13211334Y-5588733D01*
X13192686Y-5599499D01*
X13192680Y-5599504D01*
X13099504Y-5692680D01*
X13099501Y-5692684D01*
X13033607Y-5806814D01*
X13033606Y-5806817D01*
X12999501Y-5934101D01*
X12999500Y-5934109D01*
X12999500Y-6065890D01*
X12999501Y-6065898D01*
X13033606Y-6193182D01*
X13033607Y-6193185D01*
X13033608Y-6193186D01*
X13099211Y-6306814D01*
X13099501Y-6307315D01*
X13099504Y-6307319D01*
X13192680Y-6400495D01*
X13192689Y-6400502D01*
X13271274Y-6445874D01*
X13300394Y-6483824D01*
X13294150Y-6531250D01*
X13271274Y-6554126D01*
X13192689Y-6599497D01*
X13192680Y-6599504D01*
X13099504Y-6692680D01*
X13099501Y-6692684D01*
X13033607Y-6806814D01*
X13033606Y-6806817D01*
X12999501Y-6934101D01*
X12999500Y-6934109D01*
X12999500Y-7065890D01*
X12999501Y-7065898D01*
X13033606Y-7193182D01*
X13033607Y-7193185D01*
X13099501Y-7307315D01*
X13099504Y-7307319D01*
X13192680Y-7400495D01*
X13192684Y-7400498D01*
X13192686Y-7400500D01*
X13306814Y-7466392D01*
X13306817Y-7466393D01*
X13384712Y-7487264D01*
X13434108Y-7500500D01*
X13434109Y-7500500D01*
X13565891Y-7500500D01*
X13565892Y-7500500D01*
X13693186Y-7466392D01*
X13807314Y-7400500D01*
X13900500Y-7307314D01*
X13966392Y-7193186D01*
X14000500Y-7065892D01*
X14000500Y-6934108D01*
X13966392Y-6806814D01*
X13900500Y-6692686D01*
X13900498Y-6692684D01*
X13900495Y-6692680D01*
X13826924Y-6619109D01*
X15119500Y-6619109D01*
X15119500Y-6750890D01*
X15119501Y-6750898D01*
X15153606Y-6878182D01*
X15153607Y-6878185D01*
X15165914Y-6899501D01*
X15218749Y-6991014D01*
X15219501Y-6992315D01*
X15219504Y-6992319D01*
X15312680Y-7085495D01*
X15312684Y-7085498D01*
X15312686Y-7085500D01*
X15426814Y-7151392D01*
X15426817Y-7151393D01*
X15504712Y-7172264D01*
X15554108Y-7185500D01*
X15554109Y-7185500D01*
X15685891Y-7185500D01*
X15685892Y-7185500D01*
X15813186Y-7151392D01*
X15927314Y-7085500D01*
X15970806Y-7042007D01*
X16014999Y-7023702D01*
X16059192Y-7042006D01*
X16102686Y-7085500D01*
X16216814Y-7151392D01*
X16216817Y-7151393D01*
X16294712Y-7172264D01*
X16344108Y-7185500D01*
X16344109Y-7185500D01*
X16475891Y-7185500D01*
X16475892Y-7185500D01*
X16603186Y-7151392D01*
X16717314Y-7085500D01*
X16810500Y-6992314D01*
X16844105Y-6934109D01*
X32999500Y-6934109D01*
X32999500Y-7065890D01*
X32999501Y-7065898D01*
X33033606Y-7193182D01*
X33033607Y-7193185D01*
X33099501Y-7307315D01*
X33099504Y-7307319D01*
X33192680Y-7400495D01*
X33192684Y-7400498D01*
X33192686Y-7400500D01*
X33306814Y-7466392D01*
X33306817Y-7466393D01*
X33384712Y-7487264D01*
X33434108Y-7500500D01*
X33434109Y-7500500D01*
X33565891Y-7500500D01*
X33565892Y-7500500D01*
X33693186Y-7466392D01*
X33807314Y-7400500D01*
X33900500Y-7307314D01*
X33945873Y-7228724D01*
X33983824Y-7199605D01*
X34031250Y-7205848D01*
X34054125Y-7228723D01*
X34057235Y-7234109D01*
X34099501Y-7307315D01*
X34099504Y-7307319D01*
X34192680Y-7400495D01*
X34192684Y-7400498D01*
X34192686Y-7400500D01*
X34306814Y-7466392D01*
X34306817Y-7466393D01*
X34384712Y-7487264D01*
X34434108Y-7500500D01*
X34434109Y-7500500D01*
X34565891Y-7500500D01*
X34565892Y-7500500D01*
X34693186Y-7466392D01*
X34807314Y-7400500D01*
X34900500Y-7307314D01*
X34966392Y-7193186D01*
X35000500Y-7065892D01*
X35000500Y-6934108D01*
X34966392Y-6806814D01*
X34900500Y-6692686D01*
X34900498Y-6692684D01*
X34900495Y-6692680D01*
X34826924Y-6619109D01*
X35499500Y-6619109D01*
X35499500Y-6750890D01*
X35499501Y-6750898D01*
X35533606Y-6878182D01*
X35533607Y-6878185D01*
X35545914Y-6899501D01*
X35598749Y-6991014D01*
X35599501Y-6992315D01*
X35599504Y-6992319D01*
X35692680Y-7085495D01*
X35692684Y-7085498D01*
X35692686Y-7085500D01*
X35806814Y-7151392D01*
X35806817Y-7151393D01*
X35884712Y-7172264D01*
X35934108Y-7185500D01*
X35934109Y-7185500D01*
X36065891Y-7185500D01*
X36065892Y-7185500D01*
X36193186Y-7151392D01*
X36307314Y-7085500D01*
X36357056Y-7035757D01*
X36401249Y-7017452D01*
X36445442Y-7035756D01*
X36495186Y-7085500D01*
X36609314Y-7151392D01*
X36609317Y-7151393D01*
X36687212Y-7172264D01*
X36736608Y-7185500D01*
X36736609Y-7185500D01*
X36868391Y-7185500D01*
X36868392Y-7185500D01*
X36995686Y-7151392D01*
X37109814Y-7085500D01*
X37203000Y-6992314D01*
X37268892Y-6878186D01*
X37303000Y-6750892D01*
X37303000Y-6619108D01*
X37275420Y-6516176D01*
X37268893Y-6491817D01*
X37268892Y-6491814D01*
X37264279Y-6483824D01*
X37203000Y-6377686D01*
X37202998Y-6377684D01*
X37202995Y-6377680D01*
X37109819Y-6284504D01*
X37109815Y-6284501D01*
X37109814Y-6284500D01*
X37052750Y-6251554D01*
X36995685Y-6218607D01*
X36995682Y-6218606D01*
X36868398Y-6184501D01*
X36868393Y-6184500D01*
X36868392Y-6184500D01*
X36736608Y-6184500D01*
X36736607Y-6184500D01*
X36736601Y-6184501D01*
X36609317Y-6218606D01*
X36609314Y-6218607D01*
X36495184Y-6284501D01*
X36495180Y-6284504D01*
X36445444Y-6334241D01*
X36401250Y-6352547D01*
X36357056Y-6334241D01*
X36307319Y-6284504D01*
X36307315Y-6284501D01*
X36307314Y-6284500D01*
X36250250Y-6251554D01*
X36193185Y-6218607D01*
X36193182Y-6218606D01*
X36065898Y-6184501D01*
X36065893Y-6184500D01*
X36065892Y-6184500D01*
X35934108Y-6184500D01*
X35934107Y-6184500D01*
X35934101Y-6184501D01*
X35806817Y-6218606D01*
X35806814Y-6218607D01*
X35692684Y-6284501D01*
X35692680Y-6284504D01*
X35599504Y-6377680D01*
X35599501Y-6377684D01*
X35533607Y-6491814D01*
X35533606Y-6491817D01*
X35499501Y-6619101D01*
X35499500Y-6619109D01*
X34826924Y-6619109D01*
X34807319Y-6599504D01*
X34807315Y-6599501D01*
X34807314Y-6599500D01*
X34728724Y-6554126D01*
X34699605Y-6516176D01*
X34705848Y-6468750D01*
X34728723Y-6445874D01*
X34807314Y-6400500D01*
X34900500Y-6307314D01*
X34966392Y-6193186D01*
X35000500Y-6065892D01*
X35000500Y-5934108D01*
X34987264Y-5884712D01*
X34966393Y-5806817D01*
X34966392Y-5806814D01*
X34900500Y-5692686D01*
X34900498Y-5692684D01*
X34900495Y-5692680D01*
X34807319Y-5599504D01*
X34807310Y-5599497D01*
X34788666Y-5588733D01*
X34759546Y-5550783D01*
X34765790Y-5503357D01*
X34803740Y-5474237D01*
X34836092Y-5474237D01*
X34934108Y-5500500D01*
X34934109Y-5500500D01*
X35065891Y-5500500D01*
X35065892Y-5500500D01*
X35193186Y-5466392D01*
X35307314Y-5400500D01*
X35400500Y-5307314D01*
X35466392Y-5193186D01*
X35500500Y-5065892D01*
X35500500Y-4934108D01*
X35487264Y-4884712D01*
X35466393Y-4806817D01*
X35466392Y-4806814D01*
X35400500Y-4692686D01*
X35400498Y-4692684D01*
X35400495Y-4692680D01*
X35307319Y-4599504D01*
X35307315Y-4599501D01*
X35307314Y-4599500D01*
X35228724Y-4554126D01*
X35193185Y-4533607D01*
X35193182Y-4533606D01*
X35065898Y-4499501D01*
X35065893Y-4499500D01*
X35065892Y-4499500D01*
X34934108Y-4499500D01*
X34934107Y-4499500D01*
X34934101Y-4499501D01*
X34806817Y-4533606D01*
X34806814Y-4533607D01*
X34692684Y-4599501D01*
X34692680Y-4599504D01*
X34599504Y-4692680D01*
X34599501Y-4692684D01*
X34533607Y-4806814D01*
X34533606Y-4806817D01*
X34499501Y-4934101D01*
X34499500Y-4934109D01*
X34499500Y-5065890D01*
X34499501Y-5065898D01*
X34525762Y-5163907D01*
X34519518Y-5211333D01*
X34481568Y-5240453D01*
X34434142Y-5234209D01*
X34411265Y-5211332D01*
X34400500Y-5192686D01*
X34400495Y-5192680D01*
X34307319Y-5099504D01*
X34307315Y-5099501D01*
X34307314Y-5099500D01*
X34244094Y-5063000D01*
X34193185Y-5033607D01*
X34193182Y-5033606D01*
X34065898Y-4999501D01*
X34065893Y-4999500D01*
X34065892Y-4999500D01*
X33934108Y-4999500D01*
X33934107Y-4999500D01*
X33934101Y-4999501D01*
X33806817Y-5033606D01*
X33806814Y-5033607D01*
X33692684Y-5099501D01*
X33692680Y-5099504D01*
X33599504Y-5192680D01*
X33599501Y-5192684D01*
X33533607Y-5306814D01*
X33533606Y-5306817D01*
X33499501Y-5434101D01*
X33499500Y-5434109D01*
X33499500Y-5565890D01*
X33499501Y-5565898D01*
X33533606Y-5693182D01*
X33533607Y-5693185D01*
X33533608Y-5693186D01*
X33599211Y-5806814D01*
X33599501Y-5807315D01*
X33599504Y-5807319D01*
X33692680Y-5900495D01*
X33692689Y-5900502D01*
X33771274Y-5945874D01*
X33800394Y-5983824D01*
X33794150Y-6031250D01*
X33771274Y-6054126D01*
X33692689Y-6099497D01*
X33692680Y-6099504D01*
X33599504Y-6192680D01*
X33599501Y-6192684D01*
X33533607Y-6306814D01*
X33533606Y-6306817D01*
X33499501Y-6434101D01*
X33499500Y-6434109D01*
X33499500Y-6437000D01*
X33481194Y-6481194D01*
X33437000Y-6499500D01*
X33434108Y-6499500D01*
X33434107Y-6499500D01*
X33434101Y-6499501D01*
X33306817Y-6533606D01*
X33306814Y-6533607D01*
X33192684Y-6599501D01*
X33192680Y-6599504D01*
X33099504Y-6692680D01*
X33099501Y-6692684D01*
X33033607Y-6806814D01*
X33033606Y-6806817D01*
X32999501Y-6934101D01*
X32999500Y-6934109D01*
X16844105Y-6934109D01*
X16876392Y-6878186D01*
X16910500Y-6750892D01*
X16910500Y-6619108D01*
X16882920Y-6516176D01*
X16876393Y-6491817D01*
X16876392Y-6491814D01*
X16871779Y-6483824D01*
X16810500Y-6377686D01*
X16810498Y-6377684D01*
X16810495Y-6377680D01*
X16717319Y-6284504D01*
X16717315Y-6284501D01*
X16717314Y-6284500D01*
X16660250Y-6251554D01*
X16603185Y-6218607D01*
X16603182Y-6218606D01*
X16475898Y-6184501D01*
X16475893Y-6184500D01*
X16475892Y-6184500D01*
X16344108Y-6184500D01*
X16344107Y-6184500D01*
X16344101Y-6184501D01*
X16216817Y-6218606D01*
X16216814Y-6218607D01*
X16102684Y-6284501D01*
X16102680Y-6284504D01*
X16059194Y-6327991D01*
X16015000Y-6346297D01*
X15970806Y-6327991D01*
X15927319Y-6284504D01*
X15927315Y-6284501D01*
X15927314Y-6284500D01*
X15870250Y-6251554D01*
X15813185Y-6218607D01*
X15813182Y-6218606D01*
X15685898Y-6184501D01*
X15685893Y-6184500D01*
X15685892Y-6184500D01*
X15554108Y-6184500D01*
X15554107Y-6184500D01*
X15554101Y-6184501D01*
X15426817Y-6218606D01*
X15426814Y-6218607D01*
X15312684Y-6284501D01*
X15312680Y-6284504D01*
X15219504Y-6377680D01*
X15219501Y-6377684D01*
X15153607Y-6491814D01*
X15153606Y-6491817D01*
X15119501Y-6619101D01*
X15119500Y-6619109D01*
X13826924Y-6619109D01*
X13807319Y-6599504D01*
X13807315Y-6599501D01*
X13807314Y-6599500D01*
X13728724Y-6554126D01*
X13699605Y-6516176D01*
X13705848Y-6468750D01*
X13728723Y-6445874D01*
X13807314Y-6400500D01*
X13900500Y-6307314D01*
X13966392Y-6193186D01*
X14000500Y-6065892D01*
X14000500Y-5934108D01*
X13987264Y-5884712D01*
X13966393Y-5806817D01*
X13966392Y-5806814D01*
X13900500Y-5692686D01*
X13900498Y-5692684D01*
X13900495Y-5692680D01*
X13807319Y-5599504D01*
X13807310Y-5599497D01*
X13788666Y-5588733D01*
X13759546Y-5550783D01*
X13765790Y-5503357D01*
X13803740Y-5474237D01*
X13836092Y-5474237D01*
X13934108Y-5500500D01*
X13934109Y-5500500D01*
X14065891Y-5500500D01*
X14065892Y-5500500D01*
X14193186Y-5466392D01*
X14307314Y-5400500D01*
X14400500Y-5307314D01*
X14466392Y-5193186D01*
X14500500Y-5065892D01*
X14500500Y-5063000D01*
X14518806Y-5018806D01*
X14563000Y-5000500D01*
X14565891Y-5000500D01*
X14565892Y-5000500D01*
X14693186Y-4966392D01*
X14807314Y-4900500D01*
X14900500Y-4807314D01*
X14966392Y-4693186D01*
X15000500Y-4565892D01*
X15000500Y-4434108D01*
X14969981Y-4320208D01*
X14966393Y-4306817D01*
X14966392Y-4306814D01*
X14900500Y-4192686D01*
X14900498Y-4192684D01*
X14900495Y-4192680D01*
X14807319Y-4099504D01*
X14807315Y-4099501D01*
X14807314Y-4099500D01*
X14728724Y-4054126D01*
X14699605Y-4016176D01*
X14705848Y-3968750D01*
X14728723Y-3945874D01*
X14807314Y-3900500D01*
X14900500Y-3807314D01*
X14966392Y-3693186D01*
X15000500Y-3565892D01*
X15000500Y-3434108D01*
X14985657Y-3378712D01*
X14966393Y-3306817D01*
X14966392Y-3306814D01*
X14943611Y-3267357D01*
X14900500Y-3192686D01*
X14900498Y-3192684D01*
X14900495Y-3192680D01*
X14807319Y-3099504D01*
X14807315Y-3099501D01*
X14807314Y-3099500D01*
X14749100Y-3065890D01*
X14693185Y-3033607D01*
X14693182Y-3033606D01*
X14565898Y-2999501D01*
X14565893Y-2999500D01*
X14565892Y-2999500D01*
X14565891Y-2999500D01*
X14563000Y-2999500D01*
X14518806Y-2981194D01*
X14500500Y-2937000D01*
X14500500Y-2934109D01*
X32999500Y-2934109D01*
X32999500Y-3065890D01*
X32999501Y-3065898D01*
X33033606Y-3193182D01*
X33033607Y-3193185D01*
X33033608Y-3193186D01*
X33099211Y-3306814D01*
X33099501Y-3307315D01*
X33099504Y-3307319D01*
X33192680Y-3400495D01*
X33192684Y-3400498D01*
X33192686Y-3400500D01*
X33306814Y-3466392D01*
X33306817Y-3466393D01*
X33371872Y-3483824D01*
X33434108Y-3500500D01*
X33434109Y-3500500D01*
X33565891Y-3500500D01*
X33565892Y-3500500D01*
X33693186Y-3466392D01*
X33807314Y-3400500D01*
X33829107Y-3378707D01*
X39649500Y-3378707D01*
X39649500Y-3621292D01*
X39681162Y-3861792D01*
X39681162Y-3861793D01*
X39743940Y-4096083D01*
X39743944Y-4096094D01*
X39743946Y-4096100D01*
X39745355Y-4099501D01*
X39836774Y-4320208D01*
X39836775Y-4320211D01*
X39958062Y-4530286D01*
X39958064Y-4530289D01*
X39960610Y-4533607D01*
X40082670Y-4692680D01*
X40105735Y-4722738D01*
X40277262Y-4894265D01*
X40277265Y-4894267D01*
X40277267Y-4894269D01*
X40322309Y-4928830D01*
X40469711Y-5041936D01*
X40679788Y-5163224D01*
X40903900Y-5256054D01*
X40903908Y-5256056D01*
X40903916Y-5256059D01*
X41138207Y-5318837D01*
X41138211Y-5318838D01*
X41378712Y-5350500D01*
X41378718Y-5350500D01*
X41621282Y-5350500D01*
X41621288Y-5350500D01*
X41861789Y-5318838D01*
X41861793Y-5318837D01*
X42096083Y-5256059D01*
X42096087Y-5256057D01*
X42096100Y-5256054D01*
X42320212Y-5163224D01*
X42530289Y-5041936D01*
X42722738Y-4894265D01*
X42894265Y-4722738D01*
X43041936Y-4530289D01*
X43163224Y-4320212D01*
X43256054Y-4096100D01*
X43264149Y-4065892D01*
X43318837Y-3861793D01*
X43318837Y-3861792D01*
X43318838Y-3861789D01*
X43350500Y-3621288D01*
X43350500Y-3378712D01*
X43318838Y-3138211D01*
X43314833Y-3123263D01*
X43256059Y-2903916D01*
X43256055Y-2903905D01*
X43256054Y-2903900D01*
X43163224Y-2679788D01*
X43041936Y-2469711D01*
X42912095Y-2300498D01*
X42894269Y-2277267D01*
X42894260Y-2277257D01*
X42722742Y-2105739D01*
X42722732Y-2105730D01*
X42576061Y-1993186D01*
X42530289Y-1958064D01*
X42530286Y-1958062D01*
X42320211Y-1836775D01*
X42320208Y-1836774D01*
X42227375Y-1798322D01*
X42096100Y-1743946D01*
X42096096Y-1743945D01*
X42096094Y-1743944D01*
X42096083Y-1743940D01*
X41861792Y-1681162D01*
X41621292Y-1649500D01*
X41621288Y-1649500D01*
X41378712Y-1649500D01*
X41378707Y-1649500D01*
X41138207Y-1681162D01*
X41138206Y-1681162D01*
X40903916Y-1743940D01*
X40903905Y-1743944D01*
X40679791Y-1836774D01*
X40679788Y-1836775D01*
X40469713Y-1958062D01*
X40277267Y-2105730D01*
X40277257Y-2105739D01*
X40105739Y-2277257D01*
X40105730Y-2277267D01*
X39958062Y-2469713D01*
X39836775Y-2679788D01*
X39836774Y-2679791D01*
X39743944Y-2903905D01*
X39743940Y-2903916D01*
X39681162Y-3138206D01*
X39681162Y-3138207D01*
X39649500Y-3378707D01*
X33829107Y-3378707D01*
X33834652Y-3373162D01*
X33875343Y-3332472D01*
X33900495Y-3307319D01*
X33900500Y-3307314D01*
X33966392Y-3193186D01*
X34000500Y-3065892D01*
X34000500Y-2934108D01*
X33966392Y-2806814D01*
X33900500Y-2692686D01*
X33900498Y-2692684D01*
X33900495Y-2692680D01*
X33807319Y-2599504D01*
X33807315Y-2599501D01*
X33807314Y-2599500D01*
X33725054Y-2552007D01*
X33693185Y-2533607D01*
X33693182Y-2533606D01*
X33565898Y-2499501D01*
X33565893Y-2499500D01*
X33565892Y-2499500D01*
X33434108Y-2499500D01*
X33434107Y-2499500D01*
X33434101Y-2499501D01*
X33306817Y-2533606D01*
X33306814Y-2533607D01*
X33192684Y-2599501D01*
X33192680Y-2599504D01*
X33099504Y-2692680D01*
X33099501Y-2692684D01*
X33033607Y-2806814D01*
X33033606Y-2806817D01*
X32999501Y-2934101D01*
X32999500Y-2934109D01*
X14500500Y-2934109D01*
X14500498Y-2934101D01*
X14492333Y-2903630D01*
X14466392Y-2806814D01*
X14400500Y-2692686D01*
X14400498Y-2692684D01*
X14400495Y-2692680D01*
X14307319Y-2599504D01*
X14307315Y-2599501D01*
X14307314Y-2599500D01*
X14225054Y-2552007D01*
X14193185Y-2533607D01*
X14193182Y-2533606D01*
X14065898Y-2499501D01*
X14065893Y-2499500D01*
X14065892Y-2499500D01*
X13934108Y-2499500D01*
X13934107Y-2499500D01*
X13934101Y-2499501D01*
X13806817Y-2533606D01*
X13806814Y-2533607D01*
X13692684Y-2599501D01*
X13692680Y-2599504D01*
X13599504Y-2692680D01*
X13599497Y-2692689D01*
X13554126Y-2771274D01*
X13516176Y-2800394D01*
X13468750Y-2794150D01*
X13445874Y-2771274D01*
X13400502Y-2692689D01*
X13400495Y-2692680D01*
X13307319Y-2599504D01*
X13307315Y-2599501D01*
X13307314Y-2599500D01*
X13225054Y-2552007D01*
X13193185Y-2533607D01*
X13193182Y-2533606D01*
X13065898Y-2499501D01*
X13065893Y-2499500D01*
X13065892Y-2499500D01*
X12934108Y-2499500D01*
X12934107Y-2499500D01*
X12934101Y-2499501D01*
X12806817Y-2533606D01*
X12806814Y-2533607D01*
X12692684Y-2599501D01*
X12692680Y-2599504D01*
X12599504Y-2692680D01*
X12599501Y-2692684D01*
X12533607Y-2806814D01*
X12533606Y-2806817D01*
X12499501Y-2934101D01*
X12499500Y-2934109D01*
X5264149Y-2934109D01*
X5256059Y-2903916D01*
X5256055Y-2903905D01*
X5256054Y-2903900D01*
X5163224Y-2679788D01*
X5041936Y-2469711D01*
X4912095Y-2300498D01*
X4894269Y-2277267D01*
X4894260Y-2277257D01*
X4722742Y-2105739D01*
X4722732Y-2105730D01*
X4576061Y-1993186D01*
X4530289Y-1958064D01*
X4530286Y-1958062D01*
X4320211Y-1836775D01*
X4320208Y-1836774D01*
X4230222Y-1799501D01*
X4096100Y-1743946D01*
X4096096Y-1743945D01*
X4096094Y-1743944D01*
X4096083Y-1743940D01*
X4059393Y-1734109D01*
X15899500Y-1734109D01*
X15899500Y-1865890D01*
X15899501Y-1865898D01*
X15933606Y-1993182D01*
X15933607Y-1993185D01*
X15941476Y-2006814D01*
X15998588Y-2105735D01*
X15999501Y-2107315D01*
X15999504Y-2107319D01*
X16092680Y-2200495D01*
X16092684Y-2200498D01*
X16092686Y-2200500D01*
X16205945Y-2265890D01*
X16206814Y-2266392D01*
X16206817Y-2266393D01*
X16247400Y-2277267D01*
X16334108Y-2300500D01*
X16334109Y-2300500D01*
X16437000Y-2300500D01*
X16481194Y-2318806D01*
X16499500Y-2363000D01*
X16499500Y-2465890D01*
X16499501Y-2465898D01*
X16533606Y-2593182D01*
X16533607Y-2593185D01*
X16566554Y-2650250D01*
X16591056Y-2692689D01*
X16599501Y-2707315D01*
X16599504Y-2707319D01*
X16692680Y-2800495D01*
X16692684Y-2800498D01*
X16692686Y-2800500D01*
X16806814Y-2866392D01*
X16806817Y-2866393D01*
X16818943Y-2869642D01*
X16934108Y-2900500D01*
X16934109Y-2900500D01*
X17065891Y-2900500D01*
X17065892Y-2900500D01*
X17127330Y-2884037D01*
X17181058Y-2869642D01*
X17193182Y-2866393D01*
X17193180Y-2866393D01*
X17193186Y-2866392D01*
X17307314Y-2800500D01*
X17400500Y-2707314D01*
X17466392Y-2593186D01*
X17500500Y-2465892D01*
X17500500Y-2334108D01*
X17466392Y-2206814D01*
X17424415Y-2134109D01*
X36199500Y-2134109D01*
X36199500Y-2265890D01*
X36199501Y-2265898D01*
X36233606Y-2393182D01*
X36233607Y-2393185D01*
X36233608Y-2393186D01*
X36294989Y-2499501D01*
X36299501Y-2507315D01*
X36299504Y-2507319D01*
X36392680Y-2600495D01*
X36392684Y-2600498D01*
X36392686Y-2600500D01*
X36506814Y-2666392D01*
X36506817Y-2666393D01*
X36556809Y-2679788D01*
X36634108Y-2700500D01*
X36634109Y-2700500D01*
X36765891Y-2700500D01*
X36765892Y-2700500D01*
X36893186Y-2666392D01*
X37007314Y-2600500D01*
X37055806Y-2552007D01*
X37099999Y-2533702D01*
X37144192Y-2552006D01*
X37192686Y-2600500D01*
X37306814Y-2666392D01*
X37306817Y-2666393D01*
X37356809Y-2679788D01*
X37434108Y-2700500D01*
X37434109Y-2700500D01*
X37565891Y-2700500D01*
X37565892Y-2700500D01*
X37693186Y-2666392D01*
X37807314Y-2600500D01*
X37900500Y-2507314D01*
X37966392Y-2393186D01*
X38000500Y-2265892D01*
X38000500Y-2134108D01*
X37966392Y-2006814D01*
X37900500Y-1892686D01*
X37900498Y-1892684D01*
X37900495Y-1892680D01*
X37807319Y-1799504D01*
X37807315Y-1799501D01*
X37807314Y-1799500D01*
X37711092Y-1743946D01*
X37693185Y-1733607D01*
X37693182Y-1733606D01*
X37565898Y-1699501D01*
X37565893Y-1699500D01*
X37565892Y-1699500D01*
X37434108Y-1699500D01*
X37434107Y-1699500D01*
X37434101Y-1699501D01*
X37306817Y-1733606D01*
X37306814Y-1733607D01*
X37192684Y-1799501D01*
X37192680Y-1799504D01*
X37144194Y-1847991D01*
X37100000Y-1866297D01*
X37055806Y-1847991D01*
X37007319Y-1799504D01*
X37007315Y-1799501D01*
X37007314Y-1799500D01*
X36911092Y-1743946D01*
X36893185Y-1733607D01*
X36893182Y-1733606D01*
X36765898Y-1699501D01*
X36765893Y-1699500D01*
X36765892Y-1699500D01*
X36634108Y-1699500D01*
X36634107Y-1699500D01*
X36634101Y-1699501D01*
X36506817Y-1733606D01*
X36506814Y-1733607D01*
X36392684Y-1799501D01*
X36392680Y-1799504D01*
X36299504Y-1892680D01*
X36299501Y-1892684D01*
X36233607Y-2006814D01*
X36233606Y-2006817D01*
X36199501Y-2134101D01*
X36199500Y-2134109D01*
X17424415Y-2134109D01*
X17422763Y-2131248D01*
X17416519Y-2083825D01*
X17422761Y-2068755D01*
X17466392Y-1993186D01*
X17500500Y-1865892D01*
X17500500Y-1734108D01*
X17480777Y-1660500D01*
X17466393Y-1606817D01*
X17466392Y-1606814D01*
X17400500Y-1492686D01*
X17400498Y-1492684D01*
X17400495Y-1492680D01*
X17307319Y-1399504D01*
X17307315Y-1399501D01*
X17307314Y-1399500D01*
X17227096Y-1353186D01*
X17193185Y-1333607D01*
X17193182Y-1333606D01*
X17065898Y-1299501D01*
X17065893Y-1299500D01*
X17065892Y-1299500D01*
X16934108Y-1299500D01*
X16934107Y-1299500D01*
X16934101Y-1299501D01*
X16806817Y-1333606D01*
X16806810Y-1333609D01*
X16731249Y-1377234D01*
X16683823Y-1383477D01*
X16668751Y-1377234D01*
X16593189Y-1333609D01*
X16593182Y-1333606D01*
X16465898Y-1299501D01*
X16465893Y-1299500D01*
X16465892Y-1299500D01*
X16334108Y-1299500D01*
X16334107Y-1299500D01*
X16334101Y-1299501D01*
X16206817Y-1333606D01*
X16206814Y-1333607D01*
X16092684Y-1399501D01*
X16092680Y-1399504D01*
X15999504Y-1492680D01*
X15999501Y-1492684D01*
X15933607Y-1606814D01*
X15933606Y-1606817D01*
X15899501Y-1734101D01*
X15899500Y-1734109D01*
X4059393Y-1734109D01*
X3861792Y-1681162D01*
X3621292Y-1649500D01*
X3621288Y-1649500D01*
X3378712Y-1649500D01*
X3378707Y-1649500D01*
X3138207Y-1681162D01*
X3138206Y-1681162D01*
X2903916Y-1743940D01*
X2903905Y-1743944D01*
X2679791Y-1836774D01*
X2679788Y-1836775D01*
X2469713Y-1958062D01*
X2277267Y-2105730D01*
X2277257Y-2105739D01*
X2105739Y-2277257D01*
X2105730Y-2277267D01*
X1958062Y-2469713D01*
X1836775Y-2679788D01*
X1836774Y-2679791D01*
X1743944Y-2903905D01*
X1743940Y-2903916D01*
X1681162Y-3138206D01*
X1681162Y-3138207D01*
X1649500Y-3378707D01*
X504504Y-3378707D01*
X504815Y-3373162D01*
X510757Y-3267357D01*
X518849Y-3123257D01*
X519634Y-3116298D01*
X573865Y-2797117D01*
X575418Y-2790312D01*
X665045Y-2479210D01*
X667350Y-2472619D01*
X791264Y-2173464D01*
X794279Y-2167206D01*
X950894Y-1883832D01*
X954613Y-1877915D01*
X962857Y-1866297D01*
X1081206Y-1699500D01*
X1141957Y-1613880D01*
X1146320Y-1608407D01*
X1362052Y-1367003D01*
X1367006Y-1362050D01*
X1376926Y-1353185D01*
X1608407Y-1146320D01*
X1613880Y-1141957D01*
X1681315Y-1094109D01*
X10414500Y-1094109D01*
X10414500Y-1225890D01*
X10414501Y-1225898D01*
X10448606Y-1353182D01*
X10448607Y-1353185D01*
X10514501Y-1467315D01*
X10514504Y-1467319D01*
X10607680Y-1560495D01*
X10607684Y-1560498D01*
X10607686Y-1560500D01*
X10690651Y-1608400D01*
X10721814Y-1626392D01*
X10721817Y-1626393D01*
X10799712Y-1647264D01*
X10849108Y-1660500D01*
X10849109Y-1660500D01*
X10980891Y-1660500D01*
X10980892Y-1660500D01*
X11108186Y-1626392D01*
X11222314Y-1560500D01*
X11315500Y-1467314D01*
X11381392Y-1353186D01*
X11415500Y-1225892D01*
X11415500Y-1094109D01*
X32454500Y-1094109D01*
X32454500Y-1225890D01*
X32454501Y-1225898D01*
X32488606Y-1353182D01*
X32488607Y-1353185D01*
X32554501Y-1467315D01*
X32554504Y-1467319D01*
X32647680Y-1560495D01*
X32647684Y-1560498D01*
X32647686Y-1560500D01*
X32730651Y-1608400D01*
X32761814Y-1626392D01*
X32761817Y-1626393D01*
X32839712Y-1647264D01*
X32889108Y-1660500D01*
X32889109Y-1660500D01*
X33020891Y-1660500D01*
X33020892Y-1660500D01*
X33148186Y-1626392D01*
X33262314Y-1560500D01*
X33355500Y-1467314D01*
X33421392Y-1353186D01*
X33455500Y-1225892D01*
X33455500Y-1094108D01*
X33421392Y-966814D01*
X33355500Y-852686D01*
X33355498Y-852684D01*
X33355495Y-852680D01*
X33262319Y-759504D01*
X33262315Y-759501D01*
X33262314Y-759500D01*
X33205250Y-726554D01*
X33148185Y-693607D01*
X33148182Y-693606D01*
X33020898Y-659501D01*
X33020893Y-659500D01*
X33020892Y-659500D01*
X32889108Y-659500D01*
X32889107Y-659500D01*
X32889101Y-659501D01*
X32761817Y-693606D01*
X32761814Y-693607D01*
X32647684Y-759501D01*
X32647680Y-759504D01*
X32554504Y-852680D01*
X32554501Y-852684D01*
X32488607Y-966814D01*
X32488606Y-966817D01*
X32454501Y-1094101D01*
X32454500Y-1094109D01*
X11415500Y-1094109D01*
X11415500Y-1094108D01*
X11381392Y-966814D01*
X11315500Y-852686D01*
X11315498Y-852684D01*
X11315495Y-852680D01*
X11222319Y-759504D01*
X11222315Y-759501D01*
X11222314Y-759500D01*
X11165250Y-726554D01*
X11108185Y-693607D01*
X11108182Y-693606D01*
X10980898Y-659501D01*
X10980893Y-659500D01*
X10980892Y-659500D01*
X10849108Y-659500D01*
X10849107Y-659500D01*
X10849101Y-659501D01*
X10721817Y-693606D01*
X10721814Y-693607D01*
X10607684Y-759501D01*
X10607680Y-759504D01*
X10514504Y-852680D01*
X10514501Y-852684D01*
X10448607Y-966814D01*
X10448606Y-966817D01*
X10414501Y-1094101D01*
X10414500Y-1094109D01*
X1681315Y-1094109D01*
X1758927Y-1039040D01*
X1877920Y-954609D01*
X1883832Y-950894D01*
X2167206Y-794279D01*
X2173464Y-791264D01*
X2472619Y-667350D01*
X2479210Y-665045D01*
X2790312Y-575418D01*
X2797117Y-573865D01*
X3116304Y-519633D01*
X3123257Y-518849D01*
X3448255Y-500598D01*
X3451759Y-500500D01*
X3515892Y-500500D01*
X41484108Y-500500D01*
X41548241Y-500500D01*
X41551745Y-500598D01*
G37*
G04 #@! TD.AperFunction*
G04 #@! TD*
M02*
