M48
; DRILL file {KiCad 9.0.7-9-ga3ce409f20} date 2026-03-03T19:30:44+0800
; FORMAT={-:-/ absolute / metric / decimal}
; #@! TF.CreationDate,2026-03-03T19:30:44+08:00
; #@! TF.GenerationSoftware,Kicad,Pcbnew,9.0.7-9-ga3ce409f20
; #@! TF.FileFunction,Plated,1,2,PTH
FMAT,2
METRIC
; #@! TA.AperFunction,Plated,PTH,ViaDrill
T1C0.300
%
G90
G05
T1
X107.9Y-79.3
X107.9Y-80.3
X108.9Y-79.3
X108.9Y-80.3
X108.9Y-81.3
X109.9Y-108.3
X109.9Y-109.3
X109.9Y-110.3
X110.9Y-77.3
X110.9Y-108.3
X110.9Y-109.3
X110.9Y-110.3
X111.3Y-95.47
X111.9Y-77.3
X111.9Y-78.3
X111.9Y-89.3
X111.9Y-91.3
X111.9Y-98.3
X111.9Y-108.3
X111.9Y-109.3
X111.9Y-110.3
X112.225Y-95.47
X112.9Y-77.3
X112.9Y-78.3
X112.9Y-89.3
X112.9Y-90.3
X112.9Y-91.3
X112.9Y-98.3
X112.9Y-99.3
X113.1Y-108.3
X113.9Y-90.3
X113.9Y-91.3
X113.9Y-98.3
X114.042Y-78.138
X114.1Y-92.9
X114.9Y-100.7
X114.9Y-101.5
X114.9Y-106.3
X114.9Y-107.3
X114.9Y-108.3
X114.925Y-92.925
X115.0Y-86.7
X115.2Y-102.4
X115.3Y-79.4
X115.4Y-87.9
X115.9Y-79.4
X115.928Y-88.372
X116.3Y-103.75
X116.3Y-104.3
X116.3Y-104.95
X116.4Y-93.987
X116.4Y-95.812
X117.037Y-85.462
X117.5Y-79.2
X117.5Y-84.2
X117.6Y-85.9
X117.7Y-107.4
X117.8Y-102.8
X118.1Y-103.7
X118.3Y-78.598
X118.3Y-107.5
X118.5Y-84.9
X118.8Y-102.9
X118.8Y-103.7
X119.4Y-84.9
X119.6Y-91.1
X119.6Y-91.9
X119.6Y-97.9
X119.6Y-98.7
X119.8Y-78.1
X120.125Y-103.725
X120.697Y-78.1
X121.1Y-104.443
X121.241Y-107.086
X121.6Y-78.1
X121.6Y-104.2
X121.6Y-107.6
X121.9Y-89.292
X121.9Y-91.3
X121.9Y-92.3
X121.9Y-93.3
X121.9Y-97.3
X121.9Y-98.3
X121.9Y-99.3
X121.9Y-106.3
X122.5Y-78.1
X122.6Y-105.8
X122.9Y-89.292
X122.9Y-91.3
X122.9Y-92.3
X122.9Y-93.3
X122.9Y-97.3
X122.9Y-98.3
X122.9Y-99.3
X123.349Y-78.1
X123.4Y-100.7
X123.9Y-92.3
X123.9Y-93.3
X123.9Y-97.3
X123.9Y-98.3
X124.0Y-89.292
X124.197Y-78.1
X124.7Y-90.2
X124.7Y-106.4
X124.8Y-88.5
X124.8Y-99.9
X124.9Y-108.3
X125.194Y-78.1
X125.2Y-99.5
X125.3Y-90.2
X125.4Y-88.5
X125.65Y-104.4
X125.9Y-90.2
X125.9Y-107.3
X125.9Y-108.3
X126.097Y-78.1
X126.374Y-85.074
X126.425Y-100.0
X126.8Y-89.2
X126.874Y-84.574
X126.9Y-107.3
X126.9Y-108.3
X126.946Y-78.1
X128.1Y-78.1
X128.44Y-107.237
X128.44Y-108.6
X129.9Y-107.237
X129.9Y-108.6
X130.95Y-98.95
X131.36Y-107.237
X131.4Y-99.4
X131.4Y-110.2
X132.1Y-110.2
X132.2Y-93.9
X133.4Y-107.6
X133.5Y-91.75
X133.5Y-92.425
X133.5Y-93.1
X133.9Y-78.9
X133.9Y-85.3
X133.9Y-86.3
X133.9Y-105.0
X133.9Y-105.7
X134.0Y-107.6
X134.9Y-78.9
X134.9Y-79.9
X134.9Y-80.9
X134.9Y-84.3
X134.9Y-85.3
X134.9Y-86.3
X135.05Y-104.45
X135.475Y-91.0
X135.5Y-104.9
X135.5Y-107.8
X135.9Y-78.9
X135.9Y-79.9
X135.9Y-80.9
X135.9Y-84.3
X135.9Y-85.3
X135.9Y-86.3
X136.3Y-107.8
X136.5Y-89.462
X137.6Y-94.0
X138.3Y-94.0
X139.025Y-97.3
X139.025Y-98.76
X139.025Y-100.22
X139.025Y-101.68
X139.8Y-92.6
X139.8Y-93.3
X139.8Y-94.0
X139.9Y-86.3
X139.9Y-87.3
X139.9Y-88.3
X140.75Y-97.3
X140.75Y-98.76
X140.75Y-100.22
X140.75Y-101.68
X140.9Y-86.3
X140.9Y-87.3
X140.9Y-88.3
M30
