G04 #@! TF.GenerationSoftware,KiCad,Pcbnew,9.0.7-9-ga3ce409f20*
G04 #@! TF.CreationDate,2026-03-28T15:52:46+08:00*
G04 #@! TF.ProjectId,SuperCap_Ctrl,53757065-7243-4617-905f-4374726c2e6b,rev?*
G04 #@! TF.SameCoordinates,Original*
G04 #@! TF.FileFunction,Legend,Bot*
G04 #@! TF.FilePolarity,Positive*
%FSLAX46Y46*%
G04 Gerber Fmt 4.6, Leading zero omitted, Abs format (unit mm)*
G04 Created by KiCad (PCBNEW 9.0.7-9-ga3ce409f20) date 2026-03-28 15:52:46*
%MOMM*%
%LPD*%
G01*
G04 APERTURE LIST*
G04 Aperture macros list*
%AMRoundRect*
0 Rectangle with rounded corners*
0 $1 Rounding radius*
0 $2 $3 $4 $5 $6 $7 $8 $9 X,Y pos of 4 corners*
0 Add a 4 corners polygon primitive as box body*
4,1,4,$2,$3,$4,$5,$6,$7,$8,$9,$2,$3,0*
0 Add four circle primitives for the rounded corners*
1,1,$1+$1,$2,$3*
1,1,$1+$1,$4,$5*
1,1,$1+$1,$6,$7*
1,1,$1+$1,$8,$9*
0 Add four rect primitives between the rounded corners*
20,1,$1+$1,$2,$3,$4,$5,0*
20,1,$1+$1,$4,$5,$6,$7,0*
20,1,$1+$1,$6,$7,$8,$9,0*
20,1,$1+$1,$8,$9,$2,$3,0*%
G04 Aperture macros list end*
%ADD10C,0.100000*%
%ADD11C,0.150000*%
%ADD12C,0.120000*%
%ADD13C,0.000000*%
%ADD14C,0.127000*%
%ADD15RoundRect,0.237500X0.250000X0.237500X-0.250000X0.237500X-0.250000X-0.237500X0.250000X-0.237500X0*%
%ADD16RoundRect,0.150000X-0.587500X-0.150000X0.587500X-0.150000X0.587500X0.150000X-0.587500X0.150000X0*%
%ADD17RoundRect,0.237500X-0.250000X-0.237500X0.250000X-0.237500X0.250000X0.237500X-0.250000X0.237500X0*%
%ADD18C,3.200000*%
%ADD19R,0.300000X1.300000*%
%ADD20R,1.800000X2.200000*%
%ADD21RoundRect,0.218750X0.218750X0.256250X-0.218750X0.256250X-0.218750X-0.256250X0.218750X-0.256250X0*%
%ADD22RoundRect,0.218750X-0.218750X-0.256250X0.218750X-0.256250X0.218750X0.256250X-0.218750X0.256250X0*%
%ADD23RoundRect,0.200000X-0.200000X-0.275000X0.200000X-0.275000X0.200000X0.275000X-0.200000X0.275000X0*%
%ADD24RoundRect,0.200000X0.200000X0.275000X-0.200000X0.275000X-0.200000X-0.275000X0.200000X-0.275000X0*%
%ADD25RoundRect,0.200000X-0.275000X0.200000X-0.275000X-0.200000X0.275000X-0.200000X0.275000X0.200000X0*%
%ADD26RoundRect,0.237500X0.300000X0.237500X-0.300000X0.237500X-0.300000X-0.237500X0.300000X-0.237500X0*%
%ADD27RoundRect,0.150000X-0.825000X-0.150000X0.825000X-0.150000X0.825000X0.150000X-0.825000X0.150000X0*%
%ADD28RoundRect,0.237500X-0.237500X0.300000X-0.237500X-0.300000X0.237500X-0.300000X0.237500X0.300000X0*%
%ADD29RoundRect,0.102000X-0.900000X-0.900000X0.900000X-0.900000X0.900000X0.900000X-0.900000X0.900000X0*%
%ADD30RoundRect,0.237500X-0.237500X0.250000X-0.237500X-0.250000X0.237500X-0.250000X0.237500X0.250000X0*%
G04 APERTURE END LIST*
D10*
X135700000Y-88200000D02*
X137500000Y-88200000D01*
X135400000Y-94600000D02*
X129600000Y-94600000D01*
X137285990Y-88870550D02*
X137309800Y-88846741D01*
X137309800Y-88846741D02*
X137333609Y-88775312D01*
X137333609Y-88775312D02*
X137333609Y-88727693D01*
X137333609Y-88727693D02*
X137309800Y-88656265D01*
X137309800Y-88656265D02*
X137262180Y-88608646D01*
X137262180Y-88608646D02*
X137214561Y-88584836D01*
X137214561Y-88584836D02*
X137119323Y-88561027D01*
X137119323Y-88561027D02*
X137047895Y-88561027D01*
X137047895Y-88561027D02*
X136952657Y-88584836D01*
X136952657Y-88584836D02*
X136905038Y-88608646D01*
X136905038Y-88608646D02*
X136857419Y-88656265D01*
X136857419Y-88656265D02*
X136833609Y-88727693D01*
X136833609Y-88727693D02*
X136833609Y-88775312D01*
X136833609Y-88775312D02*
X136857419Y-88846741D01*
X136857419Y-88846741D02*
X136881228Y-88870550D01*
X136833609Y-89180074D02*
X136833609Y-89275312D01*
X136833609Y-89275312D02*
X136857419Y-89322931D01*
X136857419Y-89322931D02*
X136905038Y-89370550D01*
X136905038Y-89370550D02*
X137000276Y-89394360D01*
X137000276Y-89394360D02*
X137166942Y-89394360D01*
X137166942Y-89394360D02*
X137262180Y-89370550D01*
X137262180Y-89370550D02*
X137309800Y-89322931D01*
X137309800Y-89322931D02*
X137333609Y-89275312D01*
X137333609Y-89275312D02*
X137333609Y-89180074D01*
X137333609Y-89180074D02*
X137309800Y-89132455D01*
X137309800Y-89132455D02*
X137262180Y-89084836D01*
X137262180Y-89084836D02*
X137166942Y-89061027D01*
X137166942Y-89061027D02*
X137000276Y-89061027D01*
X137000276Y-89061027D02*
X136905038Y-89084836D01*
X136905038Y-89084836D02*
X136857419Y-89132455D01*
X136857419Y-89132455D02*
X136833609Y-89180074D01*
X137333609Y-89608646D02*
X136833609Y-89608646D01*
X136833609Y-89608646D02*
X137333609Y-89894360D01*
X137333609Y-89894360D02*
X136833609Y-89894360D01*
X137071704Y-90299123D02*
X137071704Y-90132456D01*
X137333609Y-90132456D02*
X136833609Y-90132456D01*
X136833609Y-90132456D02*
X136833609Y-90370551D01*
X137381228Y-90441980D02*
X137381228Y-90822932D01*
X137285990Y-91227693D02*
X137309800Y-91203884D01*
X137309800Y-91203884D02*
X137333609Y-91132455D01*
X137333609Y-91132455D02*
X137333609Y-91084836D01*
X137333609Y-91084836D02*
X137309800Y-91013408D01*
X137309800Y-91013408D02*
X137262180Y-90965789D01*
X137262180Y-90965789D02*
X137214561Y-90941979D01*
X137214561Y-90941979D02*
X137119323Y-90918170D01*
X137119323Y-90918170D02*
X137047895Y-90918170D01*
X137047895Y-90918170D02*
X136952657Y-90941979D01*
X136952657Y-90941979D02*
X136905038Y-90965789D01*
X136905038Y-90965789D02*
X136857419Y-91013408D01*
X136857419Y-91013408D02*
X136833609Y-91084836D01*
X136833609Y-91084836D02*
X136833609Y-91132455D01*
X136833609Y-91132455D02*
X136857419Y-91203884D01*
X136857419Y-91203884D02*
X136881228Y-91227693D01*
X136833609Y-91537217D02*
X136833609Y-91632455D01*
X136833609Y-91632455D02*
X136857419Y-91680074D01*
X136857419Y-91680074D02*
X136905038Y-91727693D01*
X136905038Y-91727693D02*
X137000276Y-91751503D01*
X137000276Y-91751503D02*
X137166942Y-91751503D01*
X137166942Y-91751503D02*
X137262180Y-91727693D01*
X137262180Y-91727693D02*
X137309800Y-91680074D01*
X137309800Y-91680074D02*
X137333609Y-91632455D01*
X137333609Y-91632455D02*
X137333609Y-91537217D01*
X137333609Y-91537217D02*
X137309800Y-91489598D01*
X137309800Y-91489598D02*
X137262180Y-91441979D01*
X137262180Y-91441979D02*
X137166942Y-91418170D01*
X137166942Y-91418170D02*
X137000276Y-91418170D01*
X137000276Y-91418170D02*
X136905038Y-91441979D01*
X136905038Y-91441979D02*
X136857419Y-91489598D01*
X136857419Y-91489598D02*
X136833609Y-91537217D01*
X137333609Y-91965789D02*
X136833609Y-91965789D01*
X136833609Y-91965789D02*
X137333609Y-92251503D01*
X137333609Y-92251503D02*
X136833609Y-92251503D01*
X137285990Y-92775313D02*
X137309800Y-92751504D01*
X137309800Y-92751504D02*
X137333609Y-92680075D01*
X137333609Y-92680075D02*
X137333609Y-92632456D01*
X137333609Y-92632456D02*
X137309800Y-92561028D01*
X137309800Y-92561028D02*
X137262180Y-92513409D01*
X137262180Y-92513409D02*
X137214561Y-92489599D01*
X137214561Y-92489599D02*
X137119323Y-92465790D01*
X137119323Y-92465790D02*
X137047895Y-92465790D01*
X137047895Y-92465790D02*
X136952657Y-92489599D01*
X136952657Y-92489599D02*
X136905038Y-92513409D01*
X136905038Y-92513409D02*
X136857419Y-92561028D01*
X136857419Y-92561028D02*
X136833609Y-92632456D01*
X136833609Y-92632456D02*
X136833609Y-92680075D01*
X136833609Y-92680075D02*
X136857419Y-92751504D01*
X136857419Y-92751504D02*
X136881228Y-92775313D01*
X135833609Y-88537217D02*
X136333609Y-88656265D01*
X136333609Y-88656265D02*
X135976466Y-88751503D01*
X135976466Y-88751503D02*
X136333609Y-88846741D01*
X136333609Y-88846741D02*
X135833609Y-88965789D01*
X136071704Y-89156265D02*
X136071704Y-89322932D01*
X136333609Y-89394360D02*
X136333609Y-89156265D01*
X136333609Y-89156265D02*
X135833609Y-89156265D01*
X135833609Y-89156265D02*
X135833609Y-89394360D01*
X136333609Y-89608646D02*
X135833609Y-89608646D01*
X136333609Y-90084836D02*
X136333609Y-89846741D01*
X136333609Y-89846741D02*
X135833609Y-89846741D01*
X136190752Y-90227694D02*
X136190752Y-90465789D01*
X136333609Y-90180075D02*
X135833609Y-90346741D01*
X135833609Y-90346741D02*
X136333609Y-90513408D01*
X136333609Y-90680074D02*
X135833609Y-90680074D01*
X136381228Y-90799122D02*
X136381228Y-91180074D01*
X136309800Y-91275312D02*
X136333609Y-91346740D01*
X136333609Y-91346740D02*
X136333609Y-91465788D01*
X136333609Y-91465788D02*
X136309800Y-91513407D01*
X136309800Y-91513407D02*
X136285990Y-91537216D01*
X136285990Y-91537216D02*
X136238371Y-91561026D01*
X136238371Y-91561026D02*
X136190752Y-91561026D01*
X136190752Y-91561026D02*
X136143133Y-91537216D01*
X136143133Y-91537216D02*
X136119323Y-91513407D01*
X136119323Y-91513407D02*
X136095514Y-91465788D01*
X136095514Y-91465788D02*
X136071704Y-91370550D01*
X136071704Y-91370550D02*
X136047895Y-91322931D01*
X136047895Y-91322931D02*
X136024085Y-91299121D01*
X136024085Y-91299121D02*
X135976466Y-91275312D01*
X135976466Y-91275312D02*
X135928847Y-91275312D01*
X135928847Y-91275312D02*
X135881228Y-91299121D01*
X135881228Y-91299121D02*
X135857419Y-91322931D01*
X135857419Y-91322931D02*
X135833609Y-91370550D01*
X135833609Y-91370550D02*
X135833609Y-91489597D01*
X135833609Y-91489597D02*
X135857419Y-91561026D01*
X136000276Y-91989597D02*
X136333609Y-91989597D01*
X136000276Y-91775311D02*
X136262180Y-91775311D01*
X136262180Y-91775311D02*
X136309800Y-91799121D01*
X136309800Y-91799121D02*
X136333609Y-91846740D01*
X136333609Y-91846740D02*
X136333609Y-91918168D01*
X136333609Y-91918168D02*
X136309800Y-91965787D01*
X136309800Y-91965787D02*
X136285990Y-91989597D01*
X136000276Y-92227692D02*
X136500276Y-92227692D01*
X136024085Y-92227692D02*
X136000276Y-92275311D01*
X136000276Y-92275311D02*
X136000276Y-92370549D01*
X136000276Y-92370549D02*
X136024085Y-92418168D01*
X136024085Y-92418168D02*
X136047895Y-92441978D01*
X136047895Y-92441978D02*
X136095514Y-92465787D01*
X136095514Y-92465787D02*
X136238371Y-92465787D01*
X136238371Y-92465787D02*
X136285990Y-92441978D01*
X136285990Y-92441978D02*
X136309800Y-92418168D01*
X136309800Y-92418168D02*
X136333609Y-92370549D01*
X136333609Y-92370549D02*
X136333609Y-92275311D01*
X136333609Y-92275311D02*
X136309800Y-92227692D01*
X136309800Y-92870549D02*
X136333609Y-92822930D01*
X136333609Y-92822930D02*
X136333609Y-92727692D01*
X136333609Y-92727692D02*
X136309800Y-92680073D01*
X136309800Y-92680073D02*
X136262180Y-92656264D01*
X136262180Y-92656264D02*
X136071704Y-92656264D01*
X136071704Y-92656264D02*
X136024085Y-92680073D01*
X136024085Y-92680073D02*
X136000276Y-92727692D01*
X136000276Y-92727692D02*
X136000276Y-92822930D01*
X136000276Y-92822930D02*
X136024085Y-92870549D01*
X136024085Y-92870549D02*
X136071704Y-92894359D01*
X136071704Y-92894359D02*
X136119323Y-92894359D01*
X136119323Y-92894359D02*
X136166942Y-92656264D01*
X136333609Y-93108644D02*
X136000276Y-93108644D01*
X136095514Y-93108644D02*
X136047895Y-93132454D01*
X136047895Y-93132454D02*
X136024085Y-93156263D01*
X136024085Y-93156263D02*
X136000276Y-93203882D01*
X136000276Y-93203882D02*
X136000276Y-93251501D01*
X136285990Y-93703882D02*
X136309800Y-93680073D01*
X136309800Y-93680073D02*
X136333609Y-93608644D01*
X136333609Y-93608644D02*
X136333609Y-93561025D01*
X136333609Y-93561025D02*
X136309800Y-93489597D01*
X136309800Y-93489597D02*
X136262180Y-93441978D01*
X136262180Y-93441978D02*
X136214561Y-93418168D01*
X136214561Y-93418168D02*
X136119323Y-93394359D01*
X136119323Y-93394359D02*
X136047895Y-93394359D01*
X136047895Y-93394359D02*
X135952657Y-93418168D01*
X135952657Y-93418168D02*
X135905038Y-93441978D01*
X135905038Y-93441978D02*
X135857419Y-93489597D01*
X135857419Y-93489597D02*
X135833609Y-93561025D01*
X135833609Y-93561025D02*
X135833609Y-93608644D01*
X135833609Y-93608644D02*
X135857419Y-93680073D01*
X135857419Y-93680073D02*
X135881228Y-93703882D01*
X136333609Y-94132454D02*
X136071704Y-94132454D01*
X136071704Y-94132454D02*
X136024085Y-94108644D01*
X136024085Y-94108644D02*
X136000276Y-94061025D01*
X136000276Y-94061025D02*
X136000276Y-93965787D01*
X136000276Y-93965787D02*
X136024085Y-93918168D01*
X136309800Y-94132454D02*
X136333609Y-94084835D01*
X136333609Y-94084835D02*
X136333609Y-93965787D01*
X136333609Y-93965787D02*
X136309800Y-93918168D01*
X136309800Y-93918168D02*
X136262180Y-93894359D01*
X136262180Y-93894359D02*
X136214561Y-93894359D01*
X136214561Y-93894359D02*
X136166942Y-93918168D01*
X136166942Y-93918168D02*
X136143133Y-93965787D01*
X136143133Y-93965787D02*
X136143133Y-94084835D01*
X136143133Y-94084835D02*
X136119323Y-94132454D01*
X136000276Y-94370549D02*
X136500276Y-94370549D01*
X136024085Y-94370549D02*
X136000276Y-94418168D01*
X136000276Y-94418168D02*
X136000276Y-94513406D01*
X136000276Y-94513406D02*
X136024085Y-94561025D01*
X136024085Y-94561025D02*
X136047895Y-94584835D01*
X136047895Y-94584835D02*
X136095514Y-94608644D01*
X136095514Y-94608644D02*
X136238371Y-94608644D01*
X136238371Y-94608644D02*
X136285990Y-94584835D01*
X136285990Y-94584835D02*
X136309800Y-94561025D01*
X136309800Y-94561025D02*
X136333609Y-94513406D01*
X136333609Y-94513406D02*
X136333609Y-94418168D01*
X136333609Y-94418168D02*
X136309800Y-94370549D01*
X136381228Y-94703883D02*
X136381228Y-95084835D01*
X136285990Y-95489596D02*
X136309800Y-95465787D01*
X136309800Y-95465787D02*
X136333609Y-95394358D01*
X136333609Y-95394358D02*
X136333609Y-95346739D01*
X136333609Y-95346739D02*
X136309800Y-95275311D01*
X136309800Y-95275311D02*
X136262180Y-95227692D01*
X136262180Y-95227692D02*
X136214561Y-95203882D01*
X136214561Y-95203882D02*
X136119323Y-95180073D01*
X136119323Y-95180073D02*
X136047895Y-95180073D01*
X136047895Y-95180073D02*
X135952657Y-95203882D01*
X135952657Y-95203882D02*
X135905038Y-95227692D01*
X135905038Y-95227692D02*
X135857419Y-95275311D01*
X135857419Y-95275311D02*
X135833609Y-95346739D01*
X135833609Y-95346739D02*
X135833609Y-95394358D01*
X135833609Y-95394358D02*
X135857419Y-95465787D01*
X135857419Y-95465787D02*
X135881228Y-95489596D01*
X136000276Y-95632454D02*
X136000276Y-95822930D01*
X135833609Y-95703882D02*
X136262180Y-95703882D01*
X136262180Y-95703882D02*
X136309800Y-95727692D01*
X136309800Y-95727692D02*
X136333609Y-95775311D01*
X136333609Y-95775311D02*
X136333609Y-95822930D01*
X136333609Y-95989596D02*
X136000276Y-95989596D01*
X136095514Y-95989596D02*
X136047895Y-96013406D01*
X136047895Y-96013406D02*
X136024085Y-96037215D01*
X136024085Y-96037215D02*
X136000276Y-96084834D01*
X136000276Y-96084834D02*
X136000276Y-96132453D01*
X136333609Y-96370549D02*
X136309800Y-96322930D01*
X136309800Y-96322930D02*
X136262180Y-96299120D01*
X136262180Y-96299120D02*
X135833609Y-96299120D01*
X136381228Y-96441978D02*
X136381228Y-96822930D01*
X136000276Y-96894358D02*
X136333609Y-97013406D01*
X136333609Y-97013406D02*
X136000276Y-97132453D01*
X135833609Y-97418167D02*
X135833609Y-97465786D01*
X135833609Y-97465786D02*
X135857419Y-97513405D01*
X135857419Y-97513405D02*
X135881228Y-97537215D01*
X135881228Y-97537215D02*
X135928847Y-97561024D01*
X135928847Y-97561024D02*
X136024085Y-97584834D01*
X136024085Y-97584834D02*
X136143133Y-97584834D01*
X136143133Y-97584834D02*
X136238371Y-97561024D01*
X136238371Y-97561024D02*
X136285990Y-97537215D01*
X136285990Y-97537215D02*
X136309800Y-97513405D01*
X136309800Y-97513405D02*
X136333609Y-97465786D01*
X136333609Y-97465786D02*
X136333609Y-97418167D01*
X136333609Y-97418167D02*
X136309800Y-97370548D01*
X136309800Y-97370548D02*
X136285990Y-97346739D01*
X136285990Y-97346739D02*
X136238371Y-97322929D01*
X136238371Y-97322929D02*
X136143133Y-97299120D01*
X136143133Y-97299120D02*
X136024085Y-97299120D01*
X136024085Y-97299120D02*
X135928847Y-97322929D01*
X135928847Y-97322929D02*
X135881228Y-97346739D01*
X135881228Y-97346739D02*
X135857419Y-97370548D01*
X135857419Y-97370548D02*
X135833609Y-97418167D01*
X136285990Y-97799119D02*
X136309800Y-97822929D01*
X136309800Y-97822929D02*
X136333609Y-97799119D01*
X136333609Y-97799119D02*
X136309800Y-97775310D01*
X136309800Y-97775310D02*
X136285990Y-97799119D01*
X136285990Y-97799119D02*
X136333609Y-97799119D01*
X135881228Y-98013405D02*
X135857419Y-98037214D01*
X135857419Y-98037214D02*
X135833609Y-98084833D01*
X135833609Y-98084833D02*
X135833609Y-98203881D01*
X135833609Y-98203881D02*
X135857419Y-98251500D01*
X135857419Y-98251500D02*
X135881228Y-98275309D01*
X135881228Y-98275309D02*
X135928847Y-98299119D01*
X135928847Y-98299119D02*
X135976466Y-98299119D01*
X135976466Y-98299119D02*
X136047895Y-98275309D01*
X136047895Y-98275309D02*
X136333609Y-97989595D01*
X136333609Y-97989595D02*
X136333609Y-98299119D01*
D11*
X115461904Y-97689819D02*
X115461904Y-98499342D01*
X115461904Y-98499342D02*
X115414285Y-98594580D01*
X115414285Y-98594580D02*
X115366666Y-98642200D01*
X115366666Y-98642200D02*
X115271428Y-98689819D01*
X115271428Y-98689819D02*
X115080952Y-98689819D01*
X115080952Y-98689819D02*
X114985714Y-98642200D01*
X114985714Y-98642200D02*
X114938095Y-98594580D01*
X114938095Y-98594580D02*
X114890476Y-98499342D01*
X114890476Y-98499342D02*
X114890476Y-97689819D01*
X113985714Y-98023152D02*
X113985714Y-98689819D01*
X114223809Y-97642200D02*
X114461904Y-98356485D01*
X114461904Y-98356485D02*
X113842857Y-98356485D01*
X132128809Y-109819466D02*
X131641190Y-109819466D01*
X131884999Y-110063276D02*
X131884999Y-109575657D01*
X132328809Y-104104466D02*
X131841190Y-104104466D01*
D12*
G04 #@! TO.C,R10*
X117812224Y-104422500D02*
X117302776Y-104422500D01*
X117812224Y-103377500D02*
X117302776Y-103377500D01*
G04 #@! TO.C,Q6*
X116915000Y-103240000D02*
X116435000Y-103240000D01*
X116675000Y-102910000D01*
X116915000Y-103240000D01*
G36*
X116915000Y-103240000D02*
G01*
X116435000Y-103240000D01*
X116675000Y-102910000D01*
X116915000Y-103240000D01*
G37*
X117837500Y-99840000D02*
X118487500Y-99840000D01*
X117837500Y-99840000D02*
X117187500Y-99840000D01*
X117837500Y-102960000D02*
X118487500Y-102960000D01*
X117837500Y-102960000D02*
X117187500Y-102960000D01*
G04 #@! TO.C,R8*
X121762776Y-103377500D02*
X122272224Y-103377500D01*
X121762776Y-104422500D02*
X122272224Y-104422500D01*
G04 #@! TO.C,J3*
X116250000Y-80750000D02*
X116250000Y-82090000D01*
X116250000Y-86550000D02*
X116250000Y-84810000D01*
X117740000Y-80750000D02*
X116250000Y-80750000D01*
X134060000Y-80750000D02*
X134060000Y-79550000D01*
X134060000Y-80750000D02*
X135550000Y-80750000D01*
X135550000Y-80750000D02*
X135550000Y-82090000D01*
X135550000Y-84810000D02*
X135550000Y-86550000D01*
X135550000Y-86550000D02*
X116250000Y-86550000D01*
G04 #@! TO.C,FB5*
X111975279Y-82750000D02*
X111649721Y-82750000D01*
X111975279Y-83770000D02*
X111649721Y-83770000D01*
G04 #@! TO.C,FB6*
X113737221Y-104090000D02*
X114062779Y-104090000D01*
X113737221Y-105110000D02*
X114062779Y-105110000D01*
G04 #@! TO.C,R7*
X122272224Y-108377500D02*
X121762776Y-108377500D01*
X122272224Y-109422500D02*
X121762776Y-109422500D01*
G04 #@! TO.C,R11*
X136462742Y-99697500D02*
X136937258Y-99697500D01*
X136462742Y-100742500D02*
X136937258Y-100742500D01*
G04 #@! TO.C,R12*
X140124758Y-99697500D02*
X139650242Y-99697500D01*
X140124758Y-100742500D02*
X139650242Y-100742500D01*
G04 #@! TO.C,Q5*
X117837500Y-107960000D02*
X117187500Y-107960000D01*
X117837500Y-107960000D02*
X118487500Y-107960000D01*
X117837500Y-104840000D02*
X117187500Y-104840000D01*
X117837500Y-104840000D02*
X118487500Y-104840000D01*
X116915000Y-108240000D02*
X116435000Y-108240000D01*
X116675000Y-107910000D01*
X116915000Y-108240000D01*
G36*
X116915000Y-108240000D02*
G01*
X116435000Y-108240000D01*
X116675000Y-107910000D01*
X116915000Y-108240000D01*
G37*
G04 #@! TO.C,Q4*
X121737500Y-102960000D02*
X121087500Y-102960000D01*
X121737500Y-102960000D02*
X122387500Y-102960000D01*
X121737500Y-99840000D02*
X121087500Y-99840000D01*
X121737500Y-99840000D02*
X122387500Y-99840000D01*
X120815000Y-103240000D02*
X120335000Y-103240000D01*
X120575000Y-102910000D01*
X120815000Y-103240000D01*
G36*
X120815000Y-103240000D02*
G01*
X120335000Y-103240000D01*
X120575000Y-102910000D01*
X120815000Y-103240000D01*
G37*
G04 #@! TO.C,R3*
X128577500Y-102362742D02*
X128577500Y-102837258D01*
X129622500Y-102362742D02*
X129622500Y-102837258D01*
G04 #@! TO.C,Q3*
X121737500Y-107960000D02*
X121087500Y-107960000D01*
X121737500Y-107960000D02*
X122387500Y-107960000D01*
X121737500Y-104840000D02*
X121087500Y-104840000D01*
X121737500Y-104840000D02*
X122387500Y-104840000D01*
X120815000Y-108240000D02*
X120335000Y-108240000D01*
X120575000Y-107910000D01*
X120815000Y-108240000D01*
G36*
X120815000Y-108240000D02*
G01*
X120335000Y-108240000D01*
X120575000Y-107910000D01*
X120815000Y-108240000D01*
G37*
G04 #@! TO.C,C1*
X125746267Y-100990000D02*
X125453733Y-100990000D01*
X125746267Y-102010000D02*
X125453733Y-102010000D01*
D13*
G04 #@! TO.C,G\u002A\u002A\u002A*
G36*
X131679250Y-98037952D02*
G01*
X131661636Y-98208831D01*
X131235499Y-98225177D01*
X131049297Y-98229891D01*
X130894471Y-98222808D01*
X130810487Y-98196988D01*
X130771545Y-98148148D01*
X130769967Y-98144195D01*
X130754446Y-98020331D01*
X130827890Y-97936603D01*
X130998634Y-97888425D01*
X131275011Y-97871213D01*
X131696864Y-97867074D01*
X131679250Y-98037952D01*
G37*
G36*
X131440184Y-97265306D02*
G01*
X131568495Y-97276313D01*
X131621720Y-97318500D01*
X131632275Y-97410793D01*
X131602058Y-97530961D01*
X131490316Y-97591378D01*
X131340685Y-97606078D01*
X131210955Y-97560489D01*
X131163022Y-97452556D01*
X131160863Y-97391834D01*
X131148357Y-97306936D01*
X131153743Y-97295937D01*
X131234521Y-97274400D01*
X131382968Y-97265251D01*
X131440184Y-97265306D01*
G37*
G36*
X132534338Y-100689138D02*
G01*
X132634291Y-100754121D01*
X132688195Y-100885586D01*
X132686591Y-100925197D01*
X132660097Y-100984803D01*
X132577174Y-101010255D01*
X132407463Y-101015614D01*
X132344649Y-101015195D01*
X132203730Y-101004361D01*
X132141017Y-100969434D01*
X132126730Y-100897932D01*
X132136034Y-100834962D01*
X132221293Y-100718066D01*
X132366158Y-100663261D01*
X132534338Y-100689138D01*
G37*
G36*
X132633558Y-95413686D02*
G01*
X132679698Y-95452836D01*
X132688195Y-95539144D01*
X132662435Y-95647966D01*
X132541544Y-95745640D01*
X132446401Y-95773718D01*
X132285303Y-95763934D01*
X132168899Y-95687772D01*
X132130238Y-95560140D01*
X132132601Y-95536831D01*
X132161686Y-95466250D01*
X132245026Y-95430388D01*
X132414145Y-95412897D01*
X132518802Y-95407425D01*
X132633558Y-95413686D01*
G37*
G36*
X133744084Y-98669741D02*
G01*
X133732564Y-98864666D01*
X133674133Y-99040867D01*
X133549838Y-99155779D01*
X133341544Y-99234862D01*
X133157479Y-99284879D01*
X133157479Y-98871910D01*
X133157445Y-98843435D01*
X133155137Y-98642040D01*
X133149925Y-98489616D01*
X133142814Y-98417255D01*
X133161893Y-98399547D01*
X133267288Y-98375210D01*
X133436117Y-98358771D01*
X133744084Y-98341971D01*
X133744084Y-98669741D01*
G37*
G36*
X133920654Y-97441225D02*
G01*
X133948348Y-97476309D01*
X134011980Y-97604732D01*
X134070919Y-97774704D01*
X134097806Y-97869457D01*
X134134616Y-97999164D01*
X134150749Y-98055986D01*
X134137210Y-98063334D01*
X134052052Y-98069881D01*
X134032018Y-98068626D01*
X133967053Y-98021339D01*
X133946124Y-97889247D01*
X133931551Y-97725983D01*
X133894556Y-97541873D01*
X133875662Y-97470489D01*
X133875046Y-97415021D01*
X133920654Y-97441225D01*
G37*
G36*
X134086037Y-98314129D02*
G01*
X134088985Y-98316085D01*
X134113647Y-98398043D01*
X134091340Y-98555909D01*
X134082717Y-98591605D01*
X134051939Y-98729356D01*
X134038786Y-98806315D01*
X134038737Y-98807362D01*
X133993391Y-98847891D01*
X133990670Y-98847487D01*
X133965272Y-98791453D01*
X133952152Y-98669472D01*
X133951612Y-98522673D01*
X133963956Y-98392188D01*
X133989489Y-98319148D01*
X134003300Y-98309654D01*
X134086037Y-98314129D01*
G37*
G36*
X132032752Y-99168027D02*
G01*
X132178437Y-99184700D01*
X132243529Y-99209269D01*
X132271395Y-99310225D01*
X132241965Y-99427042D01*
X132231487Y-99446020D01*
X132165962Y-99487487D01*
X132031081Y-99508882D01*
X131803129Y-99514958D01*
X131728406Y-99514816D01*
X131544447Y-99509710D01*
X131441008Y-99490506D01*
X131389769Y-99448108D01*
X131362406Y-99373420D01*
X131346781Y-99271312D01*
X131361354Y-99197355D01*
X131373458Y-99190134D01*
X131476828Y-99170302D01*
X131645479Y-99160335D01*
X131842943Y-99159741D01*
X132032752Y-99168027D01*
G37*
G36*
X131528632Y-98509035D02*
G01*
X131746658Y-98516041D01*
X131935164Y-98529415D01*
X132057595Y-98548561D01*
X132128701Y-98588968D01*
X132154367Y-98686509D01*
X132082926Y-98802345D01*
X132063546Y-98816933D01*
X131962710Y-98847541D01*
X131785019Y-98857378D01*
X131510986Y-98847999D01*
X131329105Y-98836900D01*
X131157133Y-98820135D01*
X131062220Y-98795510D01*
X131020886Y-98755801D01*
X131009645Y-98693786D01*
X131017950Y-98609714D01*
X131062742Y-98532331D01*
X131062984Y-98532192D01*
X131150239Y-98516514D01*
X131317640Y-98508994D01*
X131528632Y-98509035D01*
G37*
G36*
X133449873Y-97224182D02*
G01*
X133497317Y-97282009D01*
X133612162Y-97451045D01*
X133682906Y-97597452D01*
X133691799Y-97626608D01*
X133724455Y-97828905D01*
X133676898Y-97967553D01*
X133542896Y-98063285D01*
X133504517Y-98080304D01*
X133402790Y-98109576D01*
X133323805Y-98077841D01*
X133220264Y-97971667D01*
X133207323Y-97957036D01*
X133075734Y-97800996D01*
X132964094Y-97658158D01*
X132961170Y-97654184D01*
X132874793Y-97565425D01*
X132760723Y-97524187D01*
X132574664Y-97514083D01*
X132440558Y-97515896D01*
X132332719Y-97534843D01*
X132281584Y-97592095D01*
X132252068Y-97708832D01*
X132214133Y-97818992D01*
X132126618Y-97964819D01*
X132022202Y-98079182D01*
X131929212Y-98125520D01*
X131925213Y-98124608D01*
X131904609Y-98063272D01*
X131900059Y-97928746D01*
X131909070Y-97753337D01*
X131929150Y-97569356D01*
X131957804Y-97409111D01*
X131992539Y-97304912D01*
X132013609Y-97271013D01*
X132113728Y-97171655D01*
X132266963Y-97104286D01*
X132494508Y-97062053D01*
X132817558Y-97038102D01*
X133269554Y-97017652D01*
X133449873Y-97224182D01*
G37*
G36*
X133203864Y-94988865D02*
G01*
X133269931Y-95044903D01*
X133310408Y-95126308D01*
X133328837Y-95259736D01*
X133333060Y-95474674D01*
X133332416Y-95605253D01*
X133323807Y-95764773D01*
X133295073Y-95863482D01*
X133233844Y-95933438D01*
X133127748Y-96006696D01*
X133110477Y-96017883D01*
X133005053Y-96094974D01*
X132949008Y-96174303D01*
X132926787Y-96292167D01*
X132922837Y-96484864D01*
X132922837Y-96830813D01*
X132471550Y-96866957D01*
X132447320Y-96868982D01*
X132220743Y-96896817D01*
X132053086Y-96933340D01*
X131973517Y-96972378D01*
X131966850Y-96980807D01*
X131945064Y-96964361D01*
X131947966Y-96859876D01*
X131949269Y-96847884D01*
X131950335Y-96719947D01*
X131927835Y-96653898D01*
X131927188Y-96653497D01*
X131906300Y-96585905D01*
X131912819Y-96459853D01*
X131916823Y-96428868D01*
X131907370Y-96320875D01*
X131841878Y-96216885D01*
X131700898Y-96082242D01*
X131696646Y-96078530D01*
X131567185Y-95956826D01*
X131493570Y-95850049D01*
X131456202Y-95716182D01*
X131435483Y-95513207D01*
X131434471Y-95499492D01*
X131427559Y-95282025D01*
X131448074Y-95143330D01*
X131500064Y-95054673D01*
X131503763Y-95050771D01*
X131595806Y-94973543D01*
X131653181Y-94981838D01*
X131682647Y-95083921D01*
X131690966Y-95288059D01*
X131694699Y-95460138D01*
X131717223Y-95583274D01*
X131774287Y-95667018D01*
X131881613Y-95749413D01*
X131948441Y-95794684D01*
X132148011Y-95916751D01*
X132298288Y-95975434D01*
X132429531Y-95978877D01*
X132571997Y-95935222D01*
X132574076Y-95934371D01*
X132767306Y-95837054D01*
X132945888Y-95720390D01*
X132946180Y-95720164D01*
X133042491Y-95639714D01*
X133084624Y-95568273D01*
X133081378Y-95466838D01*
X133041555Y-95296406D01*
X133005733Y-95111934D01*
X133014133Y-94975356D01*
X133080033Y-94934604D01*
X133203864Y-94988865D01*
G37*
G36*
X132729215Y-97742379D02*
G01*
X132798046Y-97766193D01*
X132848304Y-97822360D01*
X132882897Y-97924014D01*
X132904736Y-98084289D01*
X132916732Y-98316317D01*
X132921796Y-98633234D01*
X132922837Y-99048171D01*
X132922837Y-100226548D01*
X133123914Y-100384867D01*
X133173690Y-100424736D01*
X133258731Y-100507027D01*
X133304524Y-100597384D01*
X133323784Y-100730170D01*
X133329226Y-100939747D01*
X133329634Y-100985308D01*
X133326357Y-101178919D01*
X133307322Y-101297058D01*
X133263738Y-101369833D01*
X133186809Y-101427352D01*
X133181749Y-101430458D01*
X133079272Y-101475402D01*
X133032826Y-101461535D01*
X133030688Y-101445432D01*
X133014561Y-101335199D01*
X133014326Y-101303732D01*
X133055463Y-101199610D01*
X133097694Y-101121486D01*
X133088387Y-100963441D01*
X132967545Y-100791793D01*
X132737611Y-100611064D01*
X132405734Y-100396069D01*
X132209666Y-100490992D01*
X131980603Y-100607414D01*
X131825960Y-100710233D01*
X131737984Y-100819413D01*
X131695900Y-100961216D01*
X131678933Y-101161905D01*
X131661636Y-101526497D01*
X131498112Y-101404326D01*
X131439871Y-101357853D01*
X131376754Y-101276251D01*
X131399975Y-101207505D01*
X131420965Y-101166175D01*
X131446505Y-101029123D01*
X131449613Y-100851689D01*
X131445042Y-100703228D01*
X131467003Y-100591254D01*
X131539865Y-100502962D01*
X131686252Y-100394660D01*
X131810524Y-100304491D01*
X131894524Y-100217987D01*
X131920540Y-100122470D01*
X131910001Y-99978038D01*
X131906903Y-99951238D01*
X131899409Y-99813144D01*
X131925201Y-99751437D01*
X131994388Y-99737277D01*
X132063064Y-99731192D01*
X132246851Y-99667900D01*
X132403646Y-99558248D01*
X132488500Y-99430172D01*
X132489402Y-99320442D01*
X132442762Y-99179015D01*
X132365445Y-99062910D01*
X132278947Y-99014739D01*
X132273869Y-99013918D01*
X132269913Y-98963019D01*
X132319697Y-98857360D01*
X132333418Y-98833733D01*
X132382693Y-98673526D01*
X132327722Y-98539088D01*
X132162200Y-98412609D01*
X131984227Y-98310062D01*
X132123956Y-98249740D01*
X132158911Y-98229907D01*
X132274100Y-98118127D01*
X132373284Y-97964344D01*
X132432231Y-97856772D01*
X132520943Y-97763966D01*
X132632468Y-97737836D01*
X132638899Y-97737785D01*
X132729215Y-97742379D01*
G37*
G36*
X133676463Y-95699641D02*
G01*
X133819294Y-95754707D01*
X133919813Y-95800619D01*
X134056737Y-95891533D01*
X134122634Y-95977496D01*
X134098896Y-96039548D01*
X134052732Y-96085443D01*
X134041847Y-96206933D01*
X134114997Y-96363503D01*
X134265561Y-96535451D01*
X134388833Y-96645910D01*
X134478262Y-96703997D01*
X134549755Y-96704115D01*
X134637315Y-96657421D01*
X134722283Y-96609277D01*
X134795578Y-96602394D01*
X134866289Y-96666020D01*
X134960361Y-96789422D01*
X135042446Y-96935383D01*
X135079093Y-97051476D01*
X135057599Y-97108333D01*
X135002286Y-97132843D01*
X134888991Y-97200809D01*
X134881676Y-97205918D01*
X134830837Y-97251923D01*
X134815850Y-97313204D01*
X134837192Y-97419803D01*
X134895337Y-97601759D01*
X134956921Y-97774443D01*
X135010889Y-97875318D01*
X135072518Y-97913995D01*
X135161618Y-97913678D01*
X135284110Y-97922171D01*
X135340446Y-97997048D01*
X135351590Y-98085410D01*
X135351249Y-98236621D01*
X135342762Y-98337535D01*
X135333737Y-98445045D01*
X135280583Y-98493768D01*
X135156099Y-98514520D01*
X135069963Y-98520526D01*
X135000585Y-98557822D01*
X134947149Y-98652063D01*
X134887855Y-98828790D01*
X134791431Y-99143059D01*
X134951642Y-99264098D01*
X135111852Y-99385137D01*
X134974441Y-99616787D01*
X134887037Y-99756521D01*
X134812992Y-99829392D01*
X134728023Y-99833451D01*
X134597613Y-99784018D01*
X134527033Y-99758759D01*
X134445238Y-99761231D01*
X134350069Y-99818625D01*
X134208643Y-99944510D01*
X134188765Y-99963169D01*
X134064362Y-100085290D01*
X134009852Y-100166475D01*
X134012846Y-100239741D01*
X134060957Y-100338103D01*
X134153021Y-100506785D01*
X133882504Y-100650040D01*
X133777377Y-100704823D01*
X133649189Y-100768489D01*
X133590044Y-100793295D01*
X133576398Y-100765991D01*
X133568101Y-100668240D01*
X133567574Y-100657287D01*
X133508902Y-100529641D01*
X133370294Y-100393645D01*
X133274769Y-100308493D01*
X133166803Y-100152672D01*
X133137120Y-100006925D01*
X133195015Y-99897564D01*
X133239038Y-99869202D01*
X133274800Y-99872250D01*
X133279132Y-99878271D01*
X133340986Y-99854224D01*
X133456800Y-99779387D01*
X133601689Y-99671907D01*
X133750771Y-99549925D01*
X133879159Y-99431588D01*
X133955519Y-99343202D01*
X134085747Y-99158642D01*
X134202131Y-98959159D01*
X134304818Y-98698805D01*
X134367901Y-98299055D01*
X134334954Y-97891521D01*
X134205893Y-97509147D01*
X134130701Y-97375475D01*
X133900567Y-97076078D01*
X133617564Y-96811526D01*
X133318795Y-96619049D01*
X133300398Y-96609862D01*
X133152481Y-96508117D01*
X133109022Y-96398025D01*
X133170491Y-96266404D01*
X133337360Y-96100070D01*
X133428344Y-96014651D01*
X133538088Y-95884212D01*
X133584485Y-95787913D01*
X133589683Y-95729243D01*
X133610666Y-95689633D01*
X133676463Y-95699641D01*
G37*
G36*
X131159472Y-95755473D02*
G01*
X131199859Y-95828396D01*
X131238562Y-95890301D01*
X131342008Y-96005297D01*
X131485861Y-96143971D01*
X131615874Y-96274397D01*
X131703553Y-96388645D01*
X131722394Y-96454850D01*
X131709664Y-96469520D01*
X131612762Y-96539967D01*
X131467009Y-96620153D01*
X131422265Y-96643060D01*
X131124679Y-96852511D01*
X130855314Y-97135232D01*
X130646208Y-97458503D01*
X130527980Y-97789369D01*
X130480747Y-98190085D01*
X130519984Y-98592781D01*
X130645702Y-98959159D01*
X130773504Y-99178942D01*
X131079317Y-99535641D01*
X131468279Y-99813938D01*
X131620918Y-99908301D01*
X131700939Y-99991411D01*
X131707429Y-100072692D01*
X131683081Y-100135955D01*
X131640129Y-100182182D01*
X131623926Y-100184920D01*
X131529505Y-100240819D01*
X131409480Y-100346034D01*
X131292775Y-100470437D01*
X131208313Y-100583895D01*
X131185018Y-100656279D01*
X131193447Y-100697239D01*
X131158268Y-100737715D01*
X131152160Y-100737218D01*
X131061305Y-100708962D01*
X130923358Y-100652623D01*
X130787791Y-100589598D01*
X130704077Y-100541282D01*
X130702813Y-100539442D01*
X130718830Y-100477334D01*
X130774213Y-100362427D01*
X130788480Y-100336060D01*
X130824197Y-100251091D01*
X130813963Y-100180122D01*
X130744993Y-100092716D01*
X130604503Y-99958441D01*
X130460960Y-99830070D01*
X130362350Y-99764758D01*
X130282360Y-99754177D01*
X130189490Y-99785176D01*
X130074936Y-99827344D01*
X130014921Y-99835174D01*
X129966938Y-99776025D01*
X129885806Y-99664131D01*
X129797166Y-99536106D01*
X129725805Y-99427776D01*
X129696509Y-99374967D01*
X129696939Y-99373059D01*
X129750829Y-99330923D01*
X129867461Y-99267313D01*
X129878379Y-99261806D01*
X129987476Y-99184170D01*
X130024777Y-99113041D01*
X129981764Y-98909271D01*
X129921944Y-98709363D01*
X129851000Y-98589026D01*
X129756897Y-98530124D01*
X129627600Y-98514520D01*
X129532432Y-98510249D01*
X129480912Y-98478810D01*
X129466174Y-98392278D01*
X129473467Y-98222726D01*
X129482625Y-98100496D01*
X129505253Y-97987485D01*
X129552232Y-97939333D01*
X129639320Y-97928043D01*
X129798668Y-97907303D01*
X129889752Y-97831881D01*
X129918357Y-97678951D01*
X129942665Y-97536676D01*
X129998943Y-97420288D01*
X130031551Y-97371888D01*
X130018188Y-97305245D01*
X129917720Y-97215716D01*
X129843784Y-97152192D01*
X129784009Y-97046562D01*
X129809816Y-96921488D01*
X129921429Y-96748902D01*
X129957627Y-96701251D01*
X130035548Y-96617754D01*
X130103117Y-96608924D01*
X130201844Y-96661878D01*
X130221144Y-96673765D01*
X130300443Y-96712334D01*
X130370548Y-96705991D01*
X130462140Y-96643470D01*
X130605897Y-96513505D01*
X130645387Y-96476715D01*
X130767669Y-96356403D01*
X130821378Y-96275706D01*
X130819298Y-96204039D01*
X130774213Y-96110815D01*
X130766918Y-96097277D01*
X130714976Y-95986079D01*
X130704077Y-95931960D01*
X130715236Y-95923696D01*
X130814600Y-95869475D01*
X130950786Y-95809216D01*
X131077002Y-95762347D01*
X131146455Y-95748296D01*
X131159472Y-95755473D01*
G37*
D12*
G04 #@! TO.C,U4*
X114700000Y-92275000D02*
X112750000Y-92275000D01*
X114700000Y-92275000D02*
X116650000Y-92275000D01*
X114700000Y-97395000D02*
X112750000Y-97395000D01*
X114700000Y-97395000D02*
X116650000Y-97395000D01*
X112240000Y-97630000D02*
X111760000Y-97630000D01*
X112000000Y-97300000D01*
X112240000Y-97630000D01*
G36*
X112240000Y-97630000D02*
G01*
X111760000Y-97630000D01*
X112000000Y-97300000D01*
X112240000Y-97630000D01*
G37*
G04 #@! TO.C,R1*
X125362742Y-99477500D02*
X125837258Y-99477500D01*
X125362742Y-100522500D02*
X125837258Y-100522500D01*
G04 #@! TO.C,C30*
X113532500Y-78853733D02*
X113532500Y-79146267D01*
X114552500Y-78853733D02*
X114552500Y-79146267D01*
D14*
G04 #@! TO.C,Buzzer1*
X133050000Y-108300000D02*
X133050000Y-104900000D01*
X135100000Y-102850000D02*
X138500000Y-102850000D01*
X138500000Y-110350000D02*
X135100000Y-110350000D01*
X140550000Y-104900000D02*
X140550000Y-108300000D01*
D13*
G04 #@! TO.C,G\u002A\u002A\u002A*
G36*
X133268851Y-93906812D02*
G01*
X133266656Y-94122404D01*
X133022186Y-94122404D01*
X132777716Y-94122404D01*
X132775521Y-93906812D01*
X132773326Y-93691220D01*
X133022186Y-93691220D01*
X133271046Y-93691220D01*
X133268851Y-93906812D01*
G37*
G36*
X133245938Y-91658495D02*
G01*
X133245938Y-91872275D01*
X132997324Y-91872275D01*
X132748711Y-91872275D01*
X132748711Y-91658495D01*
X132748711Y-91444715D01*
X132997324Y-91444715D01*
X133245938Y-91444715D01*
X133245938Y-91658495D01*
G37*
G36*
X133776313Y-88611163D02*
G01*
X133776313Y-88828623D01*
X133270676Y-88828623D01*
X132765039Y-88828623D01*
X132767234Y-88613031D01*
X132769429Y-88397439D01*
X133272871Y-88395571D01*
X133776313Y-88393704D01*
X133776313Y-88611163D01*
G37*
G36*
X133776313Y-90868595D02*
G01*
X133776313Y-91082375D01*
X133270799Y-91082375D01*
X132765285Y-91082375D01*
X132765285Y-90868595D01*
X132765285Y-90654814D01*
X133270799Y-90654814D01*
X133776313Y-90654814D01*
X133776313Y-90868595D01*
G37*
G36*
X135348916Y-93906812D02*
G01*
X135346721Y-94122404D01*
X134843279Y-94124271D01*
X134339837Y-94126139D01*
X134339837Y-93908679D01*
X134339837Y-93691220D01*
X134845474Y-93691220D01*
X135351111Y-93691220D01*
X135348916Y-93906812D01*
G37*
G36*
X135350864Y-91658495D02*
G01*
X135350864Y-91872275D01*
X134845351Y-91872275D01*
X134339837Y-91872275D01*
X134339837Y-91658495D01*
X134339837Y-91444715D01*
X134845351Y-91444715D01*
X135350864Y-91444715D01*
X135350864Y-91658495D01*
G37*
G36*
X135334290Y-90973673D02*
G01*
X135334290Y-91038894D01*
X134944796Y-91038894D01*
X134555302Y-91038894D01*
X134555302Y-90973673D01*
X134555302Y-90908452D01*
X134944796Y-90908452D01*
X135334290Y-90908452D01*
X135334290Y-90973673D01*
G37*
G36*
X135334290Y-88698181D02*
G01*
X135334290Y-89038780D01*
X135276280Y-89038780D01*
X135218271Y-89038780D01*
X135218271Y-88763402D01*
X135218271Y-88488024D01*
X134886786Y-88488024D01*
X134555302Y-88488024D01*
X134555302Y-88422803D01*
X134555302Y-88357582D01*
X134944796Y-88357582D01*
X135334290Y-88357582D01*
X135334290Y-88698181D01*
G37*
G36*
X130874924Y-94011515D02*
G01*
X130924708Y-94011811D01*
X130963011Y-94012246D01*
X130988135Y-94012814D01*
X130998383Y-94013506D01*
X131001300Y-94015477D01*
X131005461Y-94026102D01*
X131007169Y-94047154D01*
X131006670Y-94080616D01*
X131004274Y-94144144D01*
X130614780Y-94144144D01*
X130225285Y-94144144D01*
X130225285Y-94078923D01*
X130225285Y-94013702D01*
X130606492Y-94011813D01*
X130673658Y-94011537D01*
X130747702Y-94011371D01*
X130815356Y-94011366D01*
X130874924Y-94011515D01*
G37*
G36*
X130874853Y-93004180D02*
G01*
X130924580Y-93004460D01*
X130962821Y-93004877D01*
X130987879Y-93005423D01*
X130998059Y-93006093D01*
X131000500Y-93009784D01*
X131002596Y-93020004D01*
X131004317Y-93037731D01*
X131005692Y-93063964D01*
X131006752Y-93099701D01*
X131007525Y-93145939D01*
X131008040Y-93203676D01*
X131008328Y-93273910D01*
X131008417Y-93357640D01*
X131008417Y-93705713D01*
X130946264Y-93705713D01*
X130884111Y-93705713D01*
X130884111Y-93419465D01*
X130884111Y-93133217D01*
X130768091Y-93133217D01*
X130652072Y-93133217D01*
X130652072Y-93404971D01*
X130652072Y-93676726D01*
X130594163Y-93676726D01*
X130536254Y-93676726D01*
X130534081Y-93406783D01*
X130531908Y-93136840D01*
X130436607Y-93136840D01*
X130341305Y-93136840D01*
X130339137Y-93421277D01*
X130336969Y-93705713D01*
X130278976Y-93705713D01*
X130220983Y-93705713D01*
X130223134Y-93356056D01*
X130225285Y-93006398D01*
X130606492Y-93004509D01*
X130673704Y-93004231D01*
X130747719Y-93004059D01*
X130815334Y-93004044D01*
X130874853Y-93004180D01*
G37*
G36*
X135330719Y-89466629D02*
G01*
X135333052Y-89477318D01*
X135334068Y-89497811D01*
X135334290Y-89530451D01*
X135334290Y-89602318D01*
X135154046Y-89705250D01*
X135129911Y-89719030D01*
X135069400Y-89753560D01*
X135006469Y-89789447D01*
X134945191Y-89824371D01*
X134889641Y-89856009D01*
X134843890Y-89882039D01*
X134713980Y-89955896D01*
X134835603Y-90024176D01*
X134855805Y-90035519D01*
X134906878Y-90064208D01*
X134959427Y-90093740D01*
X135008310Y-90121224D01*
X135048385Y-90143771D01*
X135086191Y-90165010D01*
X135137549Y-90193772D01*
X135190092Y-90223124D01*
X135236917Y-90249202D01*
X135334290Y-90303318D01*
X135334290Y-90378104D01*
X135334290Y-90452891D01*
X135311501Y-90438882D01*
X135307062Y-90436211D01*
X135288173Y-90425114D01*
X135258806Y-90408040D01*
X135221303Y-90386346D01*
X135178005Y-90361388D01*
X135131256Y-90334521D01*
X135089679Y-90310642D01*
X135030319Y-90276502D01*
X134964248Y-90238462D01*
X134895344Y-90198758D01*
X134827486Y-90159621D01*
X134764551Y-90123288D01*
X134555302Y-90002406D01*
X134555302Y-89955188D01*
X134555302Y-89907971D01*
X134930293Y-89690085D01*
X134968304Y-89668007D01*
X135037463Y-89627882D01*
X135102052Y-89590463D01*
X135160752Y-89556513D01*
X135212245Y-89526790D01*
X135255214Y-89502057D01*
X135288339Y-89483072D01*
X135310303Y-89470597D01*
X135319788Y-89465391D01*
X135320017Y-89465284D01*
X135326549Y-89463399D01*
X135330719Y-89466629D01*
G37*
G36*
X130834388Y-88966312D02*
G01*
X130834388Y-89531562D01*
X131373050Y-89531562D01*
X131911713Y-89531562D01*
X131911713Y-88969936D01*
X131911713Y-88408309D01*
X132160326Y-88408309D01*
X132408939Y-88408309D01*
X132408939Y-88969936D01*
X132408939Y-89531562D01*
X133092626Y-89531562D01*
X133776313Y-89531562D01*
X133776313Y-89748966D01*
X133776313Y-89966369D01*
X133092626Y-89966369D01*
X132408939Y-89966369D01*
X132408939Y-91270792D01*
X132408939Y-92575214D01*
X132947602Y-92575214D01*
X133486264Y-92575214D01*
X133486264Y-92009964D01*
X133486264Y-91444715D01*
X133734827Y-91444715D01*
X133983389Y-91444715D01*
X133985512Y-92008153D01*
X133987634Y-92571590D01*
X134669249Y-92573444D01*
X135350864Y-92575298D01*
X135350864Y-92792660D01*
X135350864Y-93010021D01*
X134667178Y-93010021D01*
X133983491Y-93010021D01*
X133983491Y-93568024D01*
X133983491Y-94126027D01*
X133734877Y-94126027D01*
X133486264Y-94126027D01*
X133486264Y-93568024D01*
X133486264Y-93010021D01*
X132947602Y-93010021D01*
X132408939Y-93010021D01*
X132408939Y-93568024D01*
X132408939Y-94126027D01*
X132160326Y-94126027D01*
X131911713Y-94126027D01*
X131911713Y-93568024D01*
X131911713Y-93010021D01*
X131625807Y-93010021D01*
X131339902Y-93010021D01*
X131339902Y-92792618D01*
X131339902Y-92575214D01*
X131625807Y-92575214D01*
X131911713Y-92575214D01*
X131911713Y-91270792D01*
X131911713Y-89966369D01*
X131373050Y-89966369D01*
X130834388Y-89966369D01*
X130834388Y-90524372D01*
X130834388Y-91082375D01*
X130585775Y-91082375D01*
X130337161Y-91082375D01*
X130337161Y-90524372D01*
X130337161Y-89966369D01*
X129964241Y-89966369D01*
X129591321Y-89966369D01*
X129591321Y-89748966D01*
X129591321Y-89531562D01*
X129964241Y-89531562D01*
X130337161Y-89531562D01*
X130337161Y-88966312D01*
X130337161Y-88401063D01*
X130585775Y-88401063D01*
X130834388Y-88401063D01*
X130834388Y-88966312D01*
G37*
G36*
X130229774Y-91454105D02*
G01*
X130248711Y-91461443D01*
X130278104Y-91473059D01*
X130315488Y-91487980D01*
X130358398Y-91505230D01*
X130378649Y-91513394D01*
X130438783Y-91537610D01*
X130504714Y-91564130D01*
X130569753Y-91590263D01*
X130627210Y-91613320D01*
X130656602Y-91625122D01*
X130711085Y-91647075D01*
X130765406Y-91669045D01*
X130814593Y-91689020D01*
X130853674Y-91704988D01*
X130888845Y-91719253D01*
X130918624Y-91730996D01*
X130939714Y-91738936D01*
X130948976Y-91741860D01*
X130950272Y-91742063D01*
X130962683Y-91746931D01*
X130981484Y-91756247D01*
X130995852Y-91764772D01*
X131004319Y-91774334D01*
X131007764Y-91788939D01*
X131008417Y-91813307D01*
X131007859Y-91829041D01*
X131004294Y-91851388D01*
X130998059Y-91862829D01*
X130997540Y-91863128D01*
X130985810Y-91868427D01*
X130960970Y-91878940D01*
X130924734Y-91893963D01*
X130878814Y-91912794D01*
X130824925Y-91934729D01*
X130764779Y-91959065D01*
X130700090Y-91985100D01*
X130412480Y-92100549D01*
X130455781Y-92118666D01*
X130475219Y-92126737D01*
X130501735Y-92137576D01*
X130533780Y-92150494D01*
X130573273Y-92166259D01*
X130622138Y-92185636D01*
X130682293Y-92209392D01*
X130755661Y-92238293D01*
X130785397Y-92249999D01*
X130834399Y-92269301D01*
X130880633Y-92287524D01*
X130919984Y-92303046D01*
X130948336Y-92314245D01*
X131008417Y-92338010D01*
X131008417Y-92386544D01*
X131008417Y-92435077D01*
X130960767Y-92453871D01*
X130957916Y-92454997D01*
X130933024Y-92464911D01*
X130896863Y-92479398D01*
X130852066Y-92497394D01*
X130801266Y-92517837D01*
X130747097Y-92539666D01*
X130692190Y-92561818D01*
X130639180Y-92583231D01*
X130590699Y-92602842D01*
X130549380Y-92619591D01*
X130517856Y-92632413D01*
X130498760Y-92640248D01*
X130477018Y-92649160D01*
X130444756Y-92662187D01*
X130411745Y-92675359D01*
X130409749Y-92676151D01*
X130374002Y-92690425D01*
X130332428Y-92707167D01*
X130293619Y-92722918D01*
X130281935Y-92727657D01*
X130254262Y-92738639D01*
X130234127Y-92746274D01*
X130225250Y-92749137D01*
X130224500Y-92748102D01*
X130222783Y-92736736D01*
X130221589Y-92715487D01*
X130221142Y-92687686D01*
X130221142Y-92626236D01*
X130252218Y-92612462D01*
X130255897Y-92610874D01*
X130275879Y-92602581D01*
X130308047Y-92589479D01*
X130350239Y-92572438D01*
X130400293Y-92552331D01*
X130456046Y-92530028D01*
X130515334Y-92506403D01*
X130535742Y-92498280D01*
X130594230Y-92474937D01*
X130648545Y-92453166D01*
X130696502Y-92433851D01*
X130735916Y-92417872D01*
X130764603Y-92406111D01*
X130780378Y-92399450D01*
X130813382Y-92384783D01*
X130767947Y-92365671D01*
X130746803Y-92356910D01*
X130708554Y-92341455D01*
X130672789Y-92327391D01*
X130642459Y-92315670D01*
X130526679Y-92270496D01*
X130406244Y-92222891D01*
X130289124Y-92176000D01*
X130220368Y-92148277D01*
X130222827Y-92099558D01*
X130225285Y-92050839D01*
X130494616Y-91942889D01*
X130550630Y-91920475D01*
X130610386Y-91896650D01*
X130664487Y-91875168D01*
X130711054Y-91856774D01*
X130748205Y-91842208D01*
X130774059Y-91832214D01*
X130786737Y-91827534D01*
X130799323Y-91822775D01*
X130808063Y-91815282D01*
X130801215Y-91807310D01*
X130778450Y-91797667D01*
X130757184Y-91789839D01*
X130725924Y-91777836D01*
X130693507Y-91765001D01*
X130668763Y-91755084D01*
X130630452Y-91739828D01*
X130587159Y-91722662D01*
X130544339Y-91705752D01*
X130514417Y-91693960D01*
X130480414Y-91680532D01*
X130451111Y-91668905D01*
X130422559Y-91657500D01*
X130390813Y-91644738D01*
X130351922Y-91629041D01*
X130301941Y-91608830D01*
X130221142Y-91576146D01*
X130221142Y-91514054D01*
X130221189Y-91502266D01*
X130221672Y-91476528D01*
X130222566Y-91458656D01*
X130223732Y-91451961D01*
X130229774Y-91454105D01*
G37*
D12*
G04 #@! TO.C,C29*
X113532500Y-82153733D02*
X113532500Y-82446267D01*
X114552500Y-82153733D02*
X114552500Y-82446267D01*
G04 #@! TO.C,FB7*
X113737221Y-105590000D02*
X114062779Y-105590000D01*
X113737221Y-106610000D02*
X114062779Y-106610000D01*
G04 #@! TO.C,R4*
X130777500Y-106145276D02*
X130777500Y-106654724D01*
X131822500Y-106145276D02*
X131822500Y-106654724D01*
G04 #@! TO.C,R9*
X117812224Y-108377500D02*
X117302776Y-108377500D01*
X117812224Y-109422500D02*
X117302776Y-109422500D01*
G04 #@! TO.C,FB4*
X111975279Y-81290000D02*
X111649721Y-81290000D01*
X111975279Y-82310000D02*
X111649721Y-82310000D01*
G04 #@! TO.C,C31*
X112128767Y-84210000D02*
X111836233Y-84210000D01*
X112128767Y-85230000D02*
X111836233Y-85230000D01*
G04 #@! TD*
%LPC*%
D15*
G04 #@! TO.C,R10*
X118470000Y-103900000D03*
X116645000Y-103900000D03*
G04 #@! TD*
D16*
G04 #@! TO.C,Q6*
X118775000Y-101400000D03*
X116900000Y-100450000D03*
X116900000Y-102350000D03*
G04 #@! TD*
D17*
G04 #@! TO.C,R8*
X121105000Y-103900000D03*
X122930000Y-103900000D03*
G04 #@! TD*
D18*
G04 #@! TO.C,H1*
X106900000Y-113300000D03*
G04 #@! TD*
G04 #@! TO.C,H4*
X144900000Y-113300000D03*
G04 #@! TD*
G04 #@! TO.C,H3*
X144900000Y-75300000D03*
G04 #@! TD*
G04 #@! TO.C,H2*
X106900000Y-75300000D03*
G04 #@! TD*
D19*
G04 #@! TO.C,J3*
X133650000Y-80200000D03*
X133150000Y-80200000D03*
X132650000Y-80200000D03*
X132150000Y-80200000D03*
X131650000Y-80200000D03*
X131150000Y-80200000D03*
X130650000Y-80200000D03*
X130150000Y-80200000D03*
X129650000Y-80200000D03*
X129150000Y-80200000D03*
X128650000Y-80200000D03*
X128150000Y-80200000D03*
X127650000Y-80200000D03*
X127150000Y-80200000D03*
X126650000Y-80200000D03*
X126150000Y-80200000D03*
X125650000Y-80200000D03*
X125150000Y-80200000D03*
X124650000Y-80200000D03*
X124150000Y-80200000D03*
X123650000Y-80200000D03*
X123150000Y-80200000D03*
X122650000Y-80200000D03*
X122150000Y-80200000D03*
X121650000Y-80200000D03*
X121150000Y-80200000D03*
X120650000Y-80200000D03*
X120150000Y-80200000D03*
X119650000Y-80200000D03*
X119150000Y-80200000D03*
X118650000Y-80200000D03*
X118150000Y-80200000D03*
D20*
X135550000Y-83450000D03*
X116250000Y-83450000D03*
G04 #@! TD*
D21*
G04 #@! TO.C,FB5*
X112600000Y-83260000D03*
X111025000Y-83260000D03*
G04 #@! TD*
D22*
G04 #@! TO.C,FB6*
X113112500Y-104600000D03*
X114687500Y-104600000D03*
G04 #@! TD*
D15*
G04 #@! TO.C,R7*
X122930000Y-108900000D03*
X121105000Y-108900000D03*
G04 #@! TD*
D23*
G04 #@! TO.C,R11*
X135875000Y-100220000D03*
X137525000Y-100220000D03*
G04 #@! TD*
D24*
G04 #@! TO.C,R12*
X140712500Y-100220000D03*
X139062500Y-100220000D03*
G04 #@! TD*
D16*
G04 #@! TO.C,Q5*
X116900000Y-107350000D03*
X116900000Y-105450000D03*
X118775000Y-106400000D03*
G04 #@! TD*
G04 #@! TO.C,Q4*
X120800000Y-102350000D03*
X120800000Y-100450000D03*
X122675000Y-101400000D03*
G04 #@! TD*
D25*
G04 #@! TO.C,R3*
X129100000Y-101775000D03*
X129100000Y-103425000D03*
G04 #@! TD*
D16*
G04 #@! TO.C,Q3*
X120800000Y-107350000D03*
X120800000Y-105450000D03*
X122675000Y-106400000D03*
G04 #@! TD*
D26*
G04 #@! TO.C,C1*
X126462500Y-101500000D03*
X124737500Y-101500000D03*
G04 #@! TD*
D27*
G04 #@! TO.C,U4*
X112225000Y-96740000D03*
X112225000Y-95470000D03*
X112225000Y-94200000D03*
X112225000Y-92930000D03*
X117175000Y-92930000D03*
X117175000Y-94200000D03*
X117175000Y-95470000D03*
X117175000Y-96740000D03*
G04 #@! TD*
D23*
G04 #@! TO.C,R1*
X124775000Y-100000000D03*
X126425000Y-100000000D03*
G04 #@! TD*
D28*
G04 #@! TO.C,C30*
X114042500Y-78137500D03*
X114042500Y-79862500D03*
G04 #@! TD*
D29*
G04 #@! TO.C,Buzzer1*
X139875000Y-109675000D03*
X139875000Y-103525000D03*
X133725000Y-103525000D03*
X133725000Y-109675000D03*
G04 #@! TD*
D28*
G04 #@! TO.C,C29*
X114042500Y-81437500D03*
X114042500Y-83162500D03*
G04 #@! TD*
D22*
G04 #@! TO.C,FB7*
X113112500Y-106100000D03*
X114687500Y-106100000D03*
G04 #@! TD*
D30*
G04 #@! TO.C,R4*
X131300000Y-105487500D03*
X131300000Y-107312500D03*
G04 #@! TD*
D15*
G04 #@! TO.C,R9*
X118470000Y-108900000D03*
X116645000Y-108900000D03*
G04 #@! TD*
D21*
G04 #@! TO.C,FB4*
X112600000Y-81800000D03*
X111025000Y-81800000D03*
G04 #@! TD*
D26*
G04 #@! TO.C,C31*
X112845000Y-84720000D03*
X111120000Y-84720000D03*
G04 #@! TD*
%LPD*%
M02*
