G04 #@! TF.GenerationSoftware,KiCad,Pcbnew,9.0.7-9-ga3ce409f20*
G04 #@! TF.CreationDate,2026-03-28T15:52:46+08:00*
G04 #@! TF.ProjectId,SuperCap_Ctrl,53757065-7243-4617-905f-4374726c2e6b,rev?*
G04 #@! TF.SameCoordinates,Original*
G04 #@! TF.FileFunction,Profile,NP*
%FSLAX46Y46*%
G04 Gerber Fmt 4.6, Leading zero omitted, Abs format (unit mm)*
G04 Created by KiCad (PCBNEW 9.0.7-9-ga3ce409f20) date 2026-03-28 15:52:46*
%MOMM*%
%LPD*%
G01*
G04 APERTURE LIST*
%ADD10C,0.050000*%
G04 #@! TA.AperFunction,Profile*
%ADD11C,0.050000*%
G04 #@! TD*
G04 APERTURE END LIST*
D10*
X108900000Y-85078175D02*
X108899990Y-85066773D01*
X108899960Y-85055380D01*
X108899910Y-85044006D01*
X108899840Y-85032640D01*
X108899750Y-85021293D01*
X108899641Y-85009954D01*
X108899511Y-84998634D01*
X108899362Y-84987323D01*
X108899192Y-84976029D01*
X108899003Y-84964744D01*
X108898794Y-84953478D01*
X108898566Y-84942220D01*
X108898317Y-84930980D01*
X108898049Y-84919748D01*
X108897762Y-84908535D01*
X108897454Y-84897330D01*
X108897127Y-84886143D01*
X108896780Y-84874965D01*
X108896414Y-84863804D01*
X108896028Y-84852652D01*
X108895623Y-84841518D01*
X108895198Y-84830392D01*
X108894753Y-84819283D01*
X108894289Y-84808184D01*
X108893806Y-84797101D01*
X108893302Y-84786028D01*
X108892780Y-84774971D01*
X108892238Y-84763923D01*
X108891677Y-84752892D01*
X108891096Y-84741870D01*
X108890497Y-84730865D01*
X108889877Y-84719869D01*
X108889239Y-84708889D01*
X108888581Y-84697918D01*
X108887904Y-84686964D01*
X108887207Y-84676019D01*
X108886492Y-84665090D01*
X108885757Y-84654170D01*
X108885003Y-84643266D01*
X108884229Y-84632371D01*
X108883437Y-84621493D01*
X108882625Y-84610623D01*
X108881795Y-84599769D01*
X108880945Y-84588925D01*
X108880076Y-84578096D01*
X108879188Y-84567276D01*
X108878281Y-84556472D01*
X108877355Y-84545677D01*
X108876410Y-84534898D01*
X108875446Y-84524127D01*
X108874463Y-84513373D01*
X108873461Y-84502627D01*
X108872440Y-84491897D01*
X108871400Y-84481175D01*
X108870341Y-84470469D01*
X108869263Y-84459772D01*
X108868167Y-84449091D01*
X108867051Y-84438418D01*
X108865917Y-84427760D01*
X108864764Y-84417112D01*
X108863592Y-84406478D01*
X108862401Y-84395853D01*
X108861192Y-84385244D01*
X108859963Y-84374643D01*
X108858716Y-84364057D01*
X108857450Y-84353480D01*
X108856166Y-84342918D01*
X108854862Y-84332365D01*
X108853541Y-84321826D01*
X108852200Y-84311297D01*
X108850841Y-84300782D01*
X108849462Y-84290276D01*
X108848066Y-84279784D01*
X108846651Y-84269301D01*
X108845217Y-84258833D01*
X108843764Y-84248373D01*
X108842293Y-84237928D01*
X108840804Y-84227492D01*
X108839296Y-84217070D01*
X108837769Y-84206657D01*
X108836224Y-84196258D01*
X108834660Y-84185867D01*
X108833078Y-84175491D01*
X108831477Y-84165124D01*
X108829858Y-84154770D01*
X108828220Y-84144426D01*
X108826564Y-84134095D01*
X108824889Y-84123773D01*
X108823196Y-84113465D01*
X108821484Y-84103165D01*
X108819755Y-84092880D01*
X108818006Y-84082603D01*
X108816240Y-84072339D01*
X108814454Y-84062084D01*
X108812651Y-84051843D01*
X108810829Y-84041611D01*
X108808989Y-84031392D01*
X108807131Y-84021182D01*
X108805254Y-84010985D01*
X108803359Y-84000797D01*
X108801446Y-83990622D01*
X108799514Y-83980455D01*
X108797564Y-83970302D01*
X108795595Y-83960158D01*
X108793609Y-83950027D01*
X108791604Y-83939904D01*
X108789581Y-83929794D01*
X108787540Y-83919693D01*
X108785481Y-83909605D01*
X108783403Y-83899525D01*
X108781307Y-83889459D01*
X108779193Y-83879401D01*
X108777061Y-83869355D01*
X108774910Y-83859319D01*
X108772741Y-83849295D01*
X108770554Y-83839279D01*
X108768349Y-83829276D01*
X108766126Y-83819282D01*
X108763885Y-83809300D01*
X108761625Y-83799327D01*
X108759348Y-83789366D01*
X108757052Y-83779414D01*
X108754738Y-83769474D01*
X108752406Y-83759542D01*
X108750056Y-83749623D01*
X108747688Y-83739712D01*
X108745302Y-83729814D01*
X108742897Y-83719924D01*
X108740475Y-83710046D01*
X108738034Y-83700176D01*
X108735576Y-83690319D01*
X108733099Y-83680470D01*
X108731591Y-83674513D01*
D11*
X143437041Y-82855699D02*
X143891614Y-82076093D01*
D10*
X112614983Y-113210847D02*
X112629872Y-113196825D01*
X112644770Y-113182823D01*
X112659533Y-113168975D01*
X112674306Y-113155147D01*
X112688948Y-113141467D01*
X112703599Y-113127807D01*
X112718125Y-113114291D01*
X112732660Y-113100795D01*
X112747074Y-113087437D01*
X112761497Y-113074100D01*
X112775803Y-113060897D01*
X112790118Y-113047714D01*
X112804320Y-113034662D01*
X112818531Y-113021629D01*
X112832633Y-113008723D01*
X112846744Y-112995837D01*
X112860750Y-112983074D01*
X112874764Y-112970331D01*
X112888676Y-112957707D01*
X112902596Y-112945103D01*
X112916418Y-112932616D01*
X112930248Y-112920148D01*
X112943982Y-112907794D01*
X112957725Y-112895459D01*
X112971374Y-112883234D01*
X112985033Y-112871029D01*
X112998600Y-112858932D01*
X113012176Y-112846854D01*
X113025664Y-112834882D01*
X113039161Y-112822928D01*
X113052572Y-112811077D01*
X113065992Y-112799246D01*
X113079329Y-112787514D01*
X113092674Y-112775802D01*
X113105938Y-112764188D01*
X113119211Y-112752593D01*
X113132404Y-112741094D01*
X113145607Y-112729613D01*
X113158732Y-112718227D01*
X113171866Y-112706859D01*
X113184925Y-112695583D01*
X113197992Y-112684326D01*
X113210987Y-112673158D01*
X113223990Y-112662010D01*
X113236921Y-112650949D01*
X113249862Y-112639908D01*
X113262732Y-112628952D01*
X113275611Y-112618015D01*
X113288422Y-112607163D01*
X113301242Y-112596329D01*
X113313996Y-112585578D01*
X113326757Y-112574846D01*
X113339454Y-112564195D01*
X113352160Y-112553563D01*
X113364802Y-112543010D01*
X113377453Y-112532476D01*
X113390041Y-112522020D01*
X113402638Y-112511582D01*
X113415175Y-112501222D01*
X113427720Y-112490880D01*
X113440206Y-112480613D01*
X113452700Y-112470365D01*
X113465136Y-112460191D01*
X113477581Y-112450035D01*
X113489968Y-112439952D01*
X113502365Y-112429888D01*
X113514705Y-112419895D01*
X113527055Y-112409921D01*
X113539349Y-112400017D01*
X113551652Y-112390132D01*
X113563902Y-112380315D01*
X113576160Y-112370517D01*
X113588366Y-112360787D01*
X113600581Y-112351076D01*
X113612744Y-112341431D01*
X113624915Y-112331805D01*
X113637036Y-112322245D01*
X113649166Y-112312703D01*
X113661246Y-112303226D01*
X113673335Y-112293767D01*
X113676093Y-112291613D01*
X135121826Y-111300000D02*
X135133228Y-111300010D01*
X135144621Y-111300040D01*
X135155995Y-111300090D01*
X135167361Y-111300160D01*
X135178708Y-111300250D01*
X135190046Y-111300359D01*
X135201367Y-111300489D01*
X135212678Y-111300638D01*
X135223972Y-111300808D01*
X135235256Y-111300997D01*
X135246523Y-111301206D01*
X135257781Y-111301434D01*
X135269021Y-111301683D01*
X135280252Y-111301951D01*
X135291466Y-111302238D01*
X135302671Y-111302546D01*
X135313858Y-111302873D01*
X135325036Y-111303220D01*
X135336197Y-111303586D01*
X135347349Y-111303972D01*
X135358483Y-111304377D01*
X135369609Y-111304802D01*
X135380717Y-111305247D01*
X135391817Y-111305711D01*
X135402899Y-111306194D01*
X135413973Y-111306698D01*
X135425030Y-111307220D01*
X135436077Y-111307762D01*
X135447108Y-111308323D01*
X135458130Y-111308904D01*
X135469135Y-111309503D01*
X135480132Y-111310123D01*
X135491111Y-111310761D01*
X135502082Y-111311419D01*
X135513036Y-111312096D01*
X135523982Y-111312793D01*
X135534911Y-111313508D01*
X135545831Y-111314243D01*
X135556734Y-111314997D01*
X135567629Y-111315771D01*
X135578508Y-111316563D01*
X135589378Y-111317375D01*
X135600231Y-111318205D01*
X135611076Y-111319055D01*
X135621905Y-111319924D01*
X135632725Y-111320812D01*
X135643528Y-111321719D01*
X135654324Y-111322645D01*
X135665103Y-111323590D01*
X135675873Y-111324554D01*
X135686628Y-111325537D01*
X135697374Y-111326539D01*
X135708104Y-111327560D01*
X135718825Y-111328600D01*
X135729531Y-111329659D01*
X135740228Y-111330737D01*
X135750910Y-111331833D01*
X135761583Y-111332949D01*
X135772240Y-111334083D01*
X135782889Y-111335236D01*
X135793523Y-111336408D01*
X135804147Y-111337599D01*
X135814757Y-111338808D01*
X135825358Y-111340037D01*
X135835943Y-111341284D01*
X135846520Y-111342550D01*
X135857083Y-111343834D01*
X135867636Y-111345138D01*
X135878174Y-111346459D01*
X135888704Y-111347800D01*
X135899219Y-111349159D01*
X135909725Y-111350538D01*
X135920217Y-111351934D01*
X135930699Y-111353349D01*
X135941168Y-111354783D01*
X135951627Y-111356236D01*
X135962072Y-111357707D01*
X135972509Y-111359196D01*
X135982931Y-111360704D01*
X135993344Y-111362231D01*
X136003743Y-111363776D01*
X136014133Y-111365340D01*
X136024509Y-111366922D01*
X136034877Y-111368523D01*
X136045230Y-111370142D01*
X136055575Y-111371780D01*
X136065906Y-111373436D01*
X136076228Y-111375111D01*
X136086536Y-111376804D01*
X136096835Y-111378516D01*
X136107121Y-111380245D01*
X136117398Y-111381994D01*
X136127661Y-111383760D01*
X136137916Y-111385546D01*
X136148157Y-111387349D01*
X136158390Y-111389171D01*
X136168608Y-111391011D01*
X136178819Y-111392869D01*
X136189016Y-111394746D01*
X136199204Y-111396641D01*
X136209379Y-111398554D01*
X136219545Y-111400486D01*
X136229698Y-111402436D01*
X136239842Y-111404405D01*
X136249974Y-111406391D01*
X136260096Y-111408396D01*
X136270206Y-111410419D01*
X136280307Y-111412460D01*
X136290395Y-111414519D01*
X136300475Y-111416597D01*
X136310541Y-111418693D01*
X136320599Y-111420807D01*
X136330645Y-111422939D01*
X136340681Y-111425090D01*
X136350705Y-111427259D01*
X136360721Y-111429446D01*
X136370724Y-111431650D01*
X136380718Y-111433874D01*
X136390700Y-111436115D01*
X136400673Y-111438375D01*
X136410634Y-111440652D01*
X136420586Y-111442948D01*
X136430526Y-111445262D01*
X136440457Y-111447594D01*
X136450376Y-111449944D01*
X136460287Y-111452312D01*
X136470186Y-111454698D01*
X136480076Y-111457103D01*
X136489953Y-111459525D01*
X136499823Y-111461965D01*
X136509680Y-111464424D01*
X136519529Y-111466901D01*
X136525487Y-111468409D01*
X105310848Y-79313191D02*
X105296827Y-79298302D01*
X105282825Y-79283405D01*
X105268978Y-79268642D01*
X105255150Y-79253871D01*
X105241471Y-79239229D01*
X105227811Y-79224579D01*
X105214296Y-79210053D01*
X105200800Y-79195519D01*
X105187443Y-79181105D01*
X105174106Y-79166683D01*
X105160903Y-79152377D01*
X105147721Y-79138063D01*
X105134669Y-79123861D01*
X105121636Y-79109650D01*
X105108731Y-79095548D01*
X105095845Y-79081438D01*
X105083082Y-79067433D01*
X105070339Y-79053419D01*
X105057716Y-79039507D01*
X105045112Y-79025587D01*
X105032625Y-79011766D01*
X105020157Y-78997936D01*
X105007803Y-78984202D01*
X104995468Y-78970459D01*
X104983244Y-78956810D01*
X104971039Y-78943152D01*
X104958942Y-78929585D01*
X104946865Y-78916009D01*
X104934892Y-78902521D01*
X104922939Y-78889024D01*
X104911088Y-78875613D01*
X104899257Y-78862193D01*
X104887525Y-78848857D01*
X104875813Y-78835512D01*
X104864199Y-78822248D01*
X104852604Y-78808975D01*
X104841105Y-78795782D01*
X104829624Y-78782580D01*
X104818238Y-78769454D01*
X104806870Y-78756320D01*
X104795594Y-78743261D01*
X104784337Y-78730194D01*
X104773170Y-78717200D01*
X104762021Y-78704197D01*
X104750961Y-78691265D01*
X104739919Y-78678325D01*
X104728963Y-78665454D01*
X104718027Y-78652575D01*
X104707174Y-78639764D01*
X104696340Y-78626944D01*
X104685589Y-78614191D01*
X104674857Y-78601429D01*
X104664206Y-78588732D01*
X104653574Y-78576026D01*
X104643021Y-78563384D01*
X104632487Y-78550733D01*
X104622030Y-78538145D01*
X104611593Y-78525548D01*
X104601232Y-78513011D01*
X104590890Y-78500466D01*
X104580624Y-78487980D01*
X104570376Y-78475486D01*
X104560201Y-78463050D01*
X104550046Y-78450605D01*
X104539963Y-78438217D01*
X104529898Y-78425820D01*
X104519905Y-78413480D01*
X104509931Y-78401130D01*
X104500027Y-78388836D01*
X104490141Y-78376532D01*
X104480325Y-78364283D01*
X104470527Y-78352024D01*
X104460797Y-78339818D01*
X104451085Y-78327604D01*
X104441440Y-78315441D01*
X104431814Y-78303269D01*
X104422253Y-78291148D01*
X104412712Y-78279018D01*
X104403234Y-78266937D01*
X104393775Y-78254848D01*
X104391614Y-78252081D01*
D11*
X103937041Y-77472476D02*
X104391614Y-78252081D01*
X146489152Y-109286809D02*
X145823059Y-108603706D01*
D10*
X137344302Y-111837041D02*
X137364439Y-111847457D01*
X137384575Y-111857962D01*
X137404709Y-111868556D01*
X137424842Y-111879241D01*
X137444975Y-111890015D01*
X137465108Y-111900880D01*
X137485240Y-111911836D01*
X137505372Y-111922883D01*
X137525505Y-111934021D01*
X137545638Y-111945251D01*
X137565772Y-111956573D01*
X137585907Y-111967987D01*
X137606044Y-111979494D01*
X137626182Y-111991094D01*
X137646322Y-112002787D01*
X137666464Y-112014574D01*
X137686609Y-112026455D01*
X137706756Y-112038430D01*
X137726906Y-112050500D01*
X137747060Y-112062666D01*
X137767217Y-112074926D01*
X137787378Y-112087283D01*
X137807543Y-112099736D01*
X137827712Y-112112285D01*
X137847885Y-112124932D01*
X137868064Y-112137675D01*
X137888248Y-112150517D01*
X137908437Y-112163457D01*
X137928632Y-112176495D01*
X137948833Y-112189633D01*
X137969040Y-112202870D01*
X137989253Y-112216207D01*
X138009474Y-112229644D01*
X138029701Y-112243181D01*
X138049936Y-112256820D01*
X138070179Y-112270561D01*
X138090430Y-112284403D01*
X138110689Y-112298349D01*
X138130957Y-112312397D01*
X138151233Y-112326548D01*
X138171519Y-112340804D01*
X138191814Y-112355163D01*
X138212119Y-112369628D01*
X138232435Y-112384198D01*
X138252760Y-112398874D01*
X138273097Y-112413656D01*
X138293444Y-112428545D01*
X138313803Y-112443542D01*
X138334174Y-112458647D01*
X138354557Y-112473859D01*
X138374952Y-112489181D01*
X138395360Y-112504613D01*
X138415781Y-112520154D01*
X138436215Y-112535807D01*
X138456663Y-112551570D01*
X138477125Y-112567445D01*
X138487774Y-112575747D01*
D11*
X146489152Y-79313191D02*
X147124252Y-78615948D01*
D10*
X110913190Y-114889152D02*
X110942940Y-114861053D01*
X110972950Y-114832599D01*
X111003231Y-114803779D01*
X111033795Y-114774580D01*
X111064654Y-114744988D01*
X111095822Y-114714990D01*
X111127314Y-114684569D01*
X111159146Y-114653710D01*
X111191335Y-114622394D01*
X111223900Y-114590601D01*
X111256861Y-114558310D01*
X111290241Y-114525498D01*
X111324064Y-114492138D01*
X111358358Y-114458203D01*
X111393152Y-114423662D01*
X111428479Y-114388479D01*
X111464377Y-114352615D01*
X111500888Y-114316027D01*
X111538058Y-114278666D01*
X111575942Y-114240476D01*
X111614601Y-114201391D01*
X111654107Y-114161339D01*
X111694542Y-114120232D01*
X111736004Y-114077968D01*
X111778611Y-114034424D01*
X111822504Y-113989453D01*
X111867859Y-113942871D01*
X111914897Y-113894450D01*
X111931880Y-113876940D01*
D11*
X108362959Y-82855699D02*
X108731591Y-83674513D01*
X139185016Y-75389152D02*
X138487774Y-76024252D01*
D10*
X142900000Y-103521825D02*
X142900010Y-103533227D01*
X142900040Y-103544620D01*
X142900090Y-103555994D01*
X142900160Y-103567360D01*
X142900250Y-103578707D01*
X142900359Y-103590046D01*
X142900489Y-103601366D01*
X142900638Y-103612677D01*
X142900808Y-103623971D01*
X142900997Y-103635256D01*
X142901206Y-103646522D01*
X142901434Y-103657780D01*
X142901683Y-103669020D01*
X142901951Y-103680252D01*
X142902238Y-103691465D01*
X142902546Y-103702670D01*
X142902873Y-103713857D01*
X142903220Y-103725035D01*
X142903586Y-103736196D01*
X142903972Y-103747348D01*
X142904377Y-103758482D01*
X142904802Y-103769608D01*
X142905247Y-103780717D01*
X142905711Y-103791816D01*
X142906194Y-103802899D01*
X142906698Y-103813972D01*
X142907220Y-103825029D01*
X142907762Y-103836077D01*
X142908323Y-103847108D01*
X142908904Y-103858130D01*
X142909503Y-103869135D01*
X142910123Y-103880131D01*
X142910761Y-103891111D01*
X142911419Y-103902082D01*
X142912096Y-103913036D01*
X142912793Y-103923981D01*
X142913508Y-103934910D01*
X142914243Y-103945830D01*
X142914997Y-103956734D01*
X142915771Y-103967629D01*
X142916563Y-103978507D01*
X142917375Y-103989377D01*
X142918205Y-104000231D01*
X142919055Y-104011075D01*
X142919924Y-104021904D01*
X142920812Y-104032724D01*
X142921719Y-104043528D01*
X142922645Y-104054323D01*
X142923590Y-104065102D01*
X142924554Y-104075873D01*
X142925537Y-104086627D01*
X142926539Y-104097373D01*
X142927560Y-104108103D01*
X142928600Y-104118825D01*
X142929659Y-104129531D01*
X142930737Y-104140228D01*
X142931833Y-104150909D01*
X142932949Y-104161582D01*
X142934083Y-104172240D01*
X142935236Y-104182888D01*
X142936408Y-104193522D01*
X142937599Y-104204147D01*
X142938808Y-104214756D01*
X142940037Y-104225357D01*
X142941284Y-104235943D01*
X142942550Y-104246520D01*
X142943834Y-104257082D01*
X142945138Y-104267635D01*
X142946459Y-104278174D01*
X142947800Y-104288703D01*
X142949159Y-104299218D01*
X142950538Y-104309724D01*
X142951934Y-104320216D01*
X142953349Y-104330699D01*
X142954783Y-104341167D01*
X142956236Y-104351627D01*
X142957707Y-104362072D01*
X142959196Y-104372508D01*
X142960704Y-104382930D01*
X142962231Y-104393343D01*
X142963776Y-104403742D01*
X142965340Y-104414133D01*
X142966922Y-104424509D01*
X142968523Y-104434876D01*
X142970142Y-104445230D01*
X142971780Y-104455574D01*
X142973436Y-104465905D01*
X142975111Y-104476227D01*
X142976804Y-104486535D01*
X142978516Y-104496835D01*
X142980245Y-104507120D01*
X142981994Y-104517397D01*
X142983760Y-104527661D01*
X142985546Y-104537916D01*
X142987349Y-104548157D01*
X142989171Y-104558389D01*
X142991011Y-104568608D01*
X142992869Y-104578818D01*
X142994746Y-104589015D01*
X142996641Y-104599203D01*
X142998554Y-104609378D01*
X143000486Y-104619545D01*
X143002436Y-104629698D01*
X143004405Y-104639842D01*
X143006391Y-104649973D01*
X143008396Y-104660096D01*
X143010419Y-104670206D01*
X143012460Y-104680307D01*
X143014519Y-104690395D01*
X143016597Y-104700475D01*
X143018693Y-104710541D01*
X143020807Y-104720599D01*
X143022939Y-104730645D01*
X143025090Y-104740681D01*
X143027259Y-104750705D01*
X143029446Y-104760721D01*
X143031651Y-104770724D01*
X143033874Y-104780718D01*
X143036115Y-104790700D01*
X143038375Y-104800673D01*
X143040652Y-104810634D01*
X143042948Y-104820586D01*
X143045262Y-104830526D01*
X143047594Y-104840458D01*
X143049944Y-104850377D01*
X143052312Y-104860288D01*
X143054698Y-104870186D01*
X143057103Y-104880076D01*
X143059525Y-104889954D01*
X143061966Y-104899824D01*
X143064424Y-104909681D01*
X143066901Y-104919530D01*
X143068409Y-104925487D01*
D11*
X135121826Y-111300000D02*
X125900000Y-111300000D01*
X137344301Y-76762959D02*
X136525487Y-77131591D01*
D10*
X147862959Y-77472476D02*
X147852543Y-77492613D01*
X147842038Y-77512748D01*
X147831444Y-77532882D01*
X147820760Y-77553016D01*
X147809985Y-77573148D01*
X147799120Y-77593281D01*
X147788165Y-77613413D01*
X147777118Y-77633545D01*
X147765980Y-77653677D01*
X147754750Y-77673810D01*
X147743428Y-77693944D01*
X147732014Y-77714079D01*
X147720507Y-77734216D01*
X147708907Y-77754354D01*
X147697214Y-77774494D01*
X147685427Y-77794636D01*
X147673546Y-77814780D01*
X147661571Y-77834928D01*
X147649501Y-77855078D01*
X147637336Y-77875231D01*
X147625075Y-77895388D01*
X147612718Y-77915549D01*
X147600266Y-77935714D01*
X147587716Y-77955883D01*
X147575070Y-77976057D01*
X147562326Y-77996235D01*
X147549484Y-78016419D01*
X147536544Y-78036608D01*
X147523506Y-78056803D01*
X147510368Y-78077004D01*
X147497131Y-78097211D01*
X147483795Y-78117424D01*
X147470358Y-78137645D01*
X147456820Y-78157873D01*
X147443181Y-78178108D01*
X147429440Y-78198350D01*
X147415598Y-78218601D01*
X147401653Y-78238860D01*
X147387604Y-78259128D01*
X147373453Y-78279405D01*
X147359197Y-78299691D01*
X147344837Y-78319986D01*
X147330373Y-78340291D01*
X147315803Y-78360606D01*
X147301127Y-78380932D01*
X147286344Y-78401269D01*
X147271455Y-78421617D01*
X147256458Y-78441976D01*
X147241354Y-78462346D01*
X147226141Y-78482729D01*
X147210819Y-78503125D01*
X147195387Y-78523533D01*
X147179845Y-78543954D01*
X147164193Y-78564388D01*
X147148429Y-78584837D01*
X147132554Y-78605299D01*
X147124252Y-78615948D01*
D11*
X142900000Y-85078175D02*
X142900000Y-94300000D01*
X109072476Y-72337041D02*
X108253661Y-71968409D01*
X115716797Y-111356156D02*
X116678174Y-111300000D01*
D10*
X114455699Y-76762959D02*
X114465780Y-76768140D01*
X114475869Y-76773302D01*
X114485951Y-76778438D01*
X114496041Y-76783556D01*
X114506124Y-76788647D01*
X114516215Y-76793721D01*
X114526299Y-76798768D01*
X114536391Y-76803797D01*
X114546477Y-76808800D01*
X114556570Y-76813785D01*
X114566657Y-76818745D01*
X114576751Y-76823685D01*
X114586839Y-76828601D01*
X114596936Y-76833498D01*
X114607025Y-76838370D01*
X114617123Y-76843223D01*
X114627214Y-76848051D01*
X114637314Y-76852861D01*
X114647407Y-76857645D01*
X114657508Y-76862411D01*
X114667603Y-76867153D01*
X114677706Y-76871876D01*
X114687804Y-76876573D01*
X114697909Y-76881253D01*
X114708008Y-76885908D01*
X114718116Y-76890545D01*
X114728218Y-76895156D01*
X114738328Y-76899750D01*
X114748432Y-76904319D01*
X114758544Y-76908870D01*
X114768651Y-76913396D01*
X114778766Y-76917904D01*
X114788875Y-76922388D01*
X114798993Y-76926853D01*
X114809105Y-76931294D01*
X114819225Y-76935717D01*
X114829340Y-76940115D01*
X114839464Y-76944496D01*
X114849582Y-76948852D01*
X114859709Y-76953190D01*
X114869830Y-76957504D01*
X114879959Y-76961800D01*
X114890084Y-76966072D01*
X114900217Y-76970326D01*
X114910345Y-76974556D01*
X114920482Y-76978768D01*
X114930613Y-76982956D01*
X114940753Y-76987126D01*
X114950888Y-76991272D01*
X114961032Y-76995401D01*
X114971171Y-76999505D01*
X114981318Y-77003592D01*
X114991461Y-77007655D01*
X115001612Y-77011700D01*
X115011759Y-77015721D01*
X115021915Y-77019725D01*
X115032066Y-77023705D01*
X115042225Y-77027667D01*
X115052381Y-77031606D01*
X115062544Y-77035526D01*
X115072704Y-77039424D01*
X115082872Y-77043303D01*
X115093036Y-77047160D01*
X115103209Y-77050998D01*
X115113378Y-77054814D01*
X115123555Y-77058611D01*
X115133729Y-77062385D01*
X115143910Y-77066142D01*
X115154089Y-77069875D01*
X115164276Y-77073591D01*
X115174459Y-77077283D01*
X115184651Y-77080958D01*
X115194839Y-77084610D01*
X115205036Y-77088244D01*
X115215230Y-77091855D01*
X115225432Y-77095449D01*
X115235631Y-77099020D01*
X115245839Y-77102572D01*
X115256043Y-77106103D01*
X115266256Y-77109615D01*
X115276466Y-77113105D01*
X115286685Y-77116576D01*
X115296900Y-77120026D01*
X115307125Y-77123457D01*
X115317346Y-77126867D01*
X115327576Y-77130258D01*
X115337804Y-77133627D01*
X115348040Y-77136978D01*
X115358273Y-77140307D01*
X115368515Y-77143618D01*
X115378755Y-77146907D01*
X115389003Y-77150177D01*
X115399249Y-77153426D01*
X115409503Y-77156657D01*
X115419756Y-77159866D01*
X115430017Y-77163056D01*
X115440276Y-77166225D01*
X115450543Y-77169376D01*
X115460809Y-77172505D01*
X115471083Y-77175616D01*
X115481355Y-77178706D01*
X115491636Y-77181777D01*
X115501915Y-77184827D01*
X115512203Y-77187858D01*
X115522489Y-77190868D01*
X115532784Y-77193860D01*
X115543077Y-77196830D01*
X115553379Y-77199782D01*
X115563679Y-77202713D01*
X115573988Y-77205626D01*
X115584296Y-77208517D01*
X115594613Y-77211390D01*
X115604928Y-77214242D01*
X115615252Y-77217076D01*
X115625575Y-77219888D01*
X115635906Y-77222682D01*
X115646237Y-77225455D01*
X115656576Y-77228210D01*
X115666915Y-77230944D01*
X115677262Y-77233659D01*
X115687608Y-77236354D01*
X115697963Y-77239030D01*
X115716798Y-77243844D01*
D11*
X107624252Y-106887774D02*
X106989152Y-107585016D01*
D10*
X112614984Y-75389152D02*
X112629873Y-75403173D01*
X112644771Y-75417175D01*
X112659533Y-75431023D01*
X112674305Y-75444851D01*
X112688947Y-75458530D01*
X112703598Y-75472190D01*
X112718124Y-75485706D01*
X112732658Y-75499202D01*
X112747072Y-75512559D01*
X112761494Y-75525897D01*
X112775800Y-75539099D01*
X112790115Y-75552282D01*
X112804317Y-75565334D01*
X112818528Y-75578367D01*
X112832630Y-75591272D01*
X112846741Y-75604158D01*
X112860746Y-75616921D01*
X112874760Y-75629664D01*
X112888672Y-75642288D01*
X112902592Y-75654892D01*
X112916413Y-75667379D01*
X112930243Y-75679846D01*
X112943977Y-75692201D01*
X112957720Y-75704536D01*
X112971369Y-75716760D01*
X112985027Y-75728965D01*
X112998595Y-75741062D01*
X113012171Y-75753140D01*
X113025659Y-75765112D01*
X113039155Y-75777065D01*
X113052566Y-75788916D01*
X113065986Y-75800748D01*
X113079322Y-75812479D01*
X113092668Y-75824191D01*
X113105931Y-75835805D01*
X113119204Y-75847400D01*
X113132398Y-75858900D01*
X113145600Y-75870380D01*
X113158725Y-75881766D01*
X113171859Y-75893134D01*
X113184918Y-75904410D01*
X113197985Y-75915667D01*
X113210980Y-75926834D01*
X113223983Y-75937983D01*
X113236914Y-75949043D01*
X113249854Y-75960085D01*
X113262725Y-75971041D01*
X113275604Y-75981977D01*
X113288415Y-75992830D01*
X113301235Y-76003663D01*
X113313988Y-76014414D01*
X113326750Y-76025146D01*
X113339447Y-76035798D01*
X113352152Y-76046430D01*
X113364794Y-76056983D01*
X113377445Y-76067517D01*
X113390033Y-76077973D01*
X113402630Y-76088410D01*
X113415167Y-76098771D01*
X113427712Y-76109113D01*
X113440198Y-76119379D01*
X113452692Y-76129627D01*
X113465128Y-76139802D01*
X113477573Y-76149957D01*
X113489960Y-76160040D01*
X113502357Y-76170104D01*
X113514697Y-76180097D01*
X113527047Y-76190071D01*
X113539341Y-76199975D01*
X113551644Y-76209861D01*
X113563894Y-76219677D01*
X113576152Y-76229475D01*
X113588358Y-76239205D01*
X113600572Y-76248917D01*
X113612735Y-76258561D01*
X113624907Y-76268187D01*
X113637028Y-76277748D01*
X113649158Y-76287290D01*
X113661238Y-76296767D01*
X113673327Y-76306226D01*
X113676093Y-76308386D01*
D11*
X144810848Y-81014984D02*
X145476941Y-80331881D01*
D10*
X105310848Y-109286809D02*
X105296827Y-109301698D01*
X105282825Y-109316595D01*
X105268978Y-109331358D01*
X105255150Y-109346129D01*
X105241471Y-109360771D01*
X105227811Y-109375421D01*
X105214296Y-109389947D01*
X105200800Y-109404481D01*
X105187443Y-109418895D01*
X105174106Y-109433317D01*
X105160903Y-109447623D01*
X105147721Y-109461937D01*
X105134669Y-109476139D01*
X105121636Y-109490350D01*
X105108731Y-109504452D01*
X105095845Y-109518562D01*
X105083082Y-109532567D01*
X105070339Y-109546581D01*
X105057716Y-109560493D01*
X105045112Y-109574413D01*
X105032625Y-109588234D01*
X105020157Y-109602064D01*
X105007803Y-109615798D01*
X104995468Y-109629541D01*
X104983244Y-109643190D01*
X104971039Y-109656848D01*
X104958942Y-109670415D01*
X104946865Y-109683991D01*
X104934892Y-109697479D01*
X104922939Y-109710976D01*
X104911088Y-109724387D01*
X104899257Y-109737807D01*
X104887525Y-109751143D01*
X104875813Y-109764488D01*
X104864199Y-109777752D01*
X104852604Y-109791025D01*
X104841105Y-109804218D01*
X104829624Y-109817420D01*
X104818238Y-109830546D01*
X104806870Y-109843680D01*
X104795594Y-109856739D01*
X104784337Y-109869806D01*
X104773170Y-109882800D01*
X104762021Y-109895803D01*
X104750961Y-109908735D01*
X104739919Y-109921675D01*
X104728963Y-109934546D01*
X104718027Y-109947425D01*
X104707174Y-109960236D01*
X104696340Y-109973056D01*
X104685589Y-109985809D01*
X104674857Y-109998571D01*
X104664206Y-110011268D01*
X104653574Y-110023974D01*
X104643021Y-110036616D01*
X104632487Y-110049267D01*
X104622030Y-110061855D01*
X104611593Y-110074452D01*
X104601232Y-110086989D01*
X104590890Y-110099534D01*
X104580624Y-110112020D01*
X104570376Y-110124514D01*
X104560201Y-110136950D01*
X104550046Y-110149395D01*
X104539963Y-110161783D01*
X104529898Y-110174180D01*
X104519905Y-110186520D01*
X104509931Y-110198870D01*
X104500027Y-110211164D01*
X104490141Y-110223468D01*
X104480325Y-110235717D01*
X104470527Y-110247976D01*
X104460797Y-110260182D01*
X104451085Y-110272396D01*
X104441440Y-110284559D01*
X104431814Y-110296731D01*
X104422253Y-110308852D01*
X104412712Y-110320982D01*
X104403234Y-110333063D01*
X104393775Y-110345152D01*
X104391614Y-110347919D01*
D11*
X116678175Y-77300000D02*
X115716798Y-77243844D01*
D10*
X114455698Y-111837041D02*
X114465779Y-111831860D01*
X114475868Y-111826698D01*
X114485950Y-111821562D01*
X114496040Y-111816444D01*
X114506123Y-111811353D01*
X114516214Y-111806279D01*
X114526298Y-111801232D01*
X114536390Y-111796203D01*
X114546475Y-111791200D01*
X114556569Y-111786215D01*
X114566655Y-111781256D01*
X114576750Y-111776315D01*
X114586838Y-111771399D01*
X114596934Y-111766502D01*
X114607023Y-111761631D01*
X114617121Y-111756777D01*
X114627213Y-111751949D01*
X114637312Y-111747140D01*
X114647405Y-111742355D01*
X114657506Y-111737589D01*
X114667601Y-111732848D01*
X114677705Y-111728125D01*
X114687802Y-111723427D01*
X114697907Y-111718747D01*
X114708007Y-111714092D01*
X114718114Y-111709456D01*
X114728216Y-111704844D01*
X114738326Y-111700250D01*
X114748430Y-111695681D01*
X114758542Y-111691131D01*
X114768649Y-111686604D01*
X114778764Y-111682096D01*
X114788873Y-111677613D01*
X114798991Y-111673148D01*
X114809103Y-111668706D01*
X114819224Y-111664284D01*
X114829339Y-111659885D01*
X114839462Y-111655505D01*
X114849580Y-111651148D01*
X114859707Y-111646810D01*
X114869828Y-111642496D01*
X114879958Y-111638200D01*
X114890082Y-111633928D01*
X114900215Y-111629674D01*
X114910343Y-111625444D01*
X114920480Y-111621232D01*
X114930611Y-111617044D01*
X114940751Y-111612874D01*
X114950887Y-111608728D01*
X114961030Y-111604600D01*
X114971169Y-111600495D01*
X114981317Y-111596409D01*
X114991460Y-111592346D01*
X115001611Y-111588301D01*
X115011758Y-111584279D01*
X115021913Y-111580276D01*
X115032064Y-111576295D01*
X115042224Y-111572334D01*
X115052379Y-111568395D01*
X115062543Y-111564474D01*
X115072703Y-111560576D01*
X115082871Y-111556697D01*
X115093035Y-111552840D01*
X115103208Y-111549002D01*
X115113376Y-111545187D01*
X115123554Y-111541389D01*
X115133727Y-111537615D01*
X115143909Y-111533859D01*
X115154088Y-111530125D01*
X115164274Y-111526410D01*
X115174458Y-111522717D01*
X115184650Y-111519042D01*
X115194838Y-111515390D01*
X115205035Y-111511756D01*
X115215229Y-111508145D01*
X115225431Y-111504551D01*
X115235630Y-111500981D01*
X115245838Y-111497428D01*
X115256042Y-111493898D01*
X115266255Y-111490385D01*
X115276465Y-111486895D01*
X115286684Y-111483424D01*
X115296900Y-111479974D01*
X115307124Y-111476543D01*
X115317345Y-111473133D01*
X115327575Y-111469742D01*
X115337803Y-111466373D01*
X115348039Y-111463022D01*
X115358273Y-111459693D01*
X115368515Y-111456382D01*
X115378754Y-111453093D01*
X115389002Y-111449823D01*
X115399249Y-111446574D01*
X115409503Y-111443343D01*
X115419755Y-111440134D01*
X115430016Y-111436944D01*
X115440275Y-111433774D01*
X115450543Y-111430624D01*
X115460808Y-111427494D01*
X115471082Y-111424384D01*
X115481355Y-111421294D01*
X115491636Y-111418223D01*
X115501915Y-111415173D01*
X115512202Y-111412142D01*
X115522489Y-111409132D01*
X115532783Y-111406140D01*
X115543077Y-111403169D01*
X115553379Y-111400217D01*
X115563679Y-111397286D01*
X115573988Y-111394374D01*
X115584296Y-111391483D01*
X115594613Y-111388610D01*
X115604928Y-111385758D01*
X115615252Y-111382924D01*
X115625575Y-111380112D01*
X115635907Y-111377318D01*
X115646237Y-111374544D01*
X115656576Y-111371790D01*
X115666915Y-111369056D01*
X115677262Y-111366341D01*
X115687609Y-111363646D01*
X115697964Y-111360970D01*
X115716797Y-111356156D01*
D11*
X106989152Y-81014984D02*
X107624252Y-81712226D01*
D10*
X108900000Y-103521825D02*
X108899990Y-103533227D01*
X108899960Y-103544620D01*
X108899910Y-103555994D01*
X108899840Y-103567360D01*
X108899750Y-103578707D01*
X108899641Y-103590046D01*
X108899511Y-103601366D01*
X108899362Y-103612677D01*
X108899192Y-103623971D01*
X108899003Y-103635256D01*
X108898794Y-103646522D01*
X108898566Y-103657780D01*
X108898317Y-103669020D01*
X108898049Y-103680252D01*
X108897762Y-103691465D01*
X108897454Y-103702670D01*
X108897127Y-103713857D01*
X108896780Y-103725035D01*
X108896414Y-103736196D01*
X108896028Y-103747348D01*
X108895623Y-103758482D01*
X108895198Y-103769608D01*
X108894753Y-103780717D01*
X108894289Y-103791816D01*
X108893806Y-103802899D01*
X108893302Y-103813972D01*
X108892780Y-103825029D01*
X108892238Y-103836077D01*
X108891677Y-103847108D01*
X108891096Y-103858130D01*
X108890497Y-103869135D01*
X108889877Y-103880131D01*
X108889239Y-103891111D01*
X108888581Y-103902082D01*
X108887904Y-103913036D01*
X108887207Y-103923981D01*
X108886492Y-103934910D01*
X108885757Y-103945830D01*
X108885003Y-103956734D01*
X108884229Y-103967629D01*
X108883437Y-103978507D01*
X108882625Y-103989377D01*
X108881795Y-104000231D01*
X108880945Y-104011075D01*
X108880076Y-104021904D01*
X108879188Y-104032724D01*
X108878281Y-104043528D01*
X108877355Y-104054323D01*
X108876410Y-104065102D01*
X108875446Y-104075873D01*
X108874463Y-104086627D01*
X108873461Y-104097373D01*
X108872440Y-104108103D01*
X108871400Y-104118825D01*
X108870341Y-104129531D01*
X108869263Y-104140228D01*
X108868167Y-104150909D01*
X108867051Y-104161582D01*
X108865917Y-104172240D01*
X108864764Y-104182888D01*
X108863592Y-104193522D01*
X108862401Y-104204147D01*
X108861192Y-104214756D01*
X108859963Y-104225357D01*
X108858716Y-104235943D01*
X108857450Y-104246520D01*
X108856166Y-104257082D01*
X108854862Y-104267635D01*
X108853541Y-104278174D01*
X108852200Y-104288703D01*
X108850841Y-104299218D01*
X108849462Y-104309724D01*
X108848066Y-104320216D01*
X108846651Y-104330699D01*
X108845217Y-104341167D01*
X108843764Y-104351627D01*
X108842293Y-104362072D01*
X108840804Y-104372508D01*
X108839296Y-104382930D01*
X108837769Y-104393343D01*
X108836224Y-104403742D01*
X108834660Y-104414133D01*
X108833078Y-104424509D01*
X108831477Y-104434876D01*
X108829858Y-104445230D01*
X108828220Y-104455574D01*
X108826564Y-104465905D01*
X108824889Y-104476227D01*
X108823196Y-104486535D01*
X108821484Y-104496835D01*
X108819755Y-104507120D01*
X108818006Y-104517397D01*
X108816240Y-104527661D01*
X108814454Y-104537916D01*
X108812651Y-104548157D01*
X108810829Y-104558389D01*
X108808989Y-104568608D01*
X108807131Y-104578818D01*
X108805254Y-104589015D01*
X108803359Y-104599203D01*
X108801446Y-104609378D01*
X108799514Y-104619545D01*
X108797564Y-104629698D01*
X108795595Y-104639842D01*
X108793609Y-104649973D01*
X108791604Y-104660096D01*
X108789581Y-104670206D01*
X108787540Y-104680307D01*
X108785481Y-104690395D01*
X108783403Y-104700475D01*
X108781307Y-104710541D01*
X108779193Y-104720599D01*
X108777061Y-104730645D01*
X108774910Y-104740681D01*
X108772741Y-104750705D01*
X108770554Y-104760721D01*
X108768349Y-104770724D01*
X108766126Y-104780718D01*
X108763885Y-104790700D01*
X108761625Y-104800673D01*
X108759348Y-104810634D01*
X108757052Y-104820586D01*
X108754738Y-104830526D01*
X108752406Y-104840458D01*
X108750056Y-104850377D01*
X108747688Y-104860288D01*
X108745302Y-104870186D01*
X108742897Y-104880076D01*
X108740475Y-104889954D01*
X108738034Y-104899824D01*
X108735576Y-104909681D01*
X108733099Y-104919530D01*
X108731591Y-104925487D01*
X106989152Y-81014984D02*
X106961053Y-80985234D01*
X106932599Y-80955224D01*
X106903779Y-80924943D01*
X106874580Y-80894379D01*
X106844988Y-80863520D01*
X106814990Y-80832352D01*
X106784569Y-80800859D01*
X106753710Y-80769027D01*
X106722393Y-80736838D01*
X106690600Y-80704273D01*
X106658309Y-80671311D01*
X106625496Y-80637931D01*
X106592136Y-80604108D01*
X106558201Y-80569814D01*
X106523659Y-80535019D01*
X106488475Y-80499691D01*
X106452611Y-80463793D01*
X106416022Y-80427281D01*
X106378661Y-80390110D01*
X106340469Y-80352225D01*
X106301384Y-80313565D01*
X106261330Y-80274058D01*
X106220221Y-80233622D01*
X106177955Y-80192158D01*
X106134410Y-80149549D01*
X106089436Y-80105653D01*
X106042852Y-80060295D01*
X105994427Y-80013255D01*
X105976941Y-79996294D01*
D11*
X105310848Y-79313191D02*
X105976941Y-79996294D01*
X143988624Y-116743844D02*
X144950001Y-116799999D01*
X142900000Y-103521825D02*
X142900000Y-94300000D01*
D10*
X108362959Y-105744301D02*
X108352543Y-105764438D01*
X108342038Y-105784573D01*
X108331444Y-105804708D01*
X108320760Y-105824841D01*
X108309985Y-105844974D01*
X108299120Y-105865106D01*
X108288164Y-105885238D01*
X108277118Y-105905370D01*
X108265979Y-105925503D01*
X108254750Y-105945636D01*
X108243428Y-105965770D01*
X108232014Y-105985905D01*
X108220507Y-106006042D01*
X108208907Y-106026180D01*
X108197214Y-106046320D01*
X108185427Y-106066462D01*
X108173546Y-106086607D01*
X108161570Y-106106754D01*
X108149500Y-106126905D01*
X108137335Y-106147058D01*
X108125074Y-106167215D01*
X108112718Y-106187376D01*
X108100265Y-106207541D01*
X108087715Y-106227710D01*
X108075069Y-106247884D01*
X108062325Y-106268062D01*
X108049483Y-106288246D01*
X108036543Y-106308435D01*
X108023505Y-106328630D01*
X108010367Y-106348831D01*
X107997130Y-106369038D01*
X107983794Y-106389252D01*
X107970357Y-106409472D01*
X107956819Y-106429700D01*
X107943180Y-106449935D01*
X107929439Y-106470178D01*
X107915597Y-106490428D01*
X107901652Y-106510687D01*
X107887603Y-106530955D01*
X107873452Y-106551232D01*
X107859196Y-106571518D01*
X107844837Y-106591813D01*
X107830372Y-106612118D01*
X107815802Y-106632433D01*
X107801126Y-106652759D01*
X107786344Y-106673096D01*
X107771454Y-106693443D01*
X107756458Y-106713802D01*
X107741353Y-106734173D01*
X107726140Y-106754556D01*
X107710818Y-106774951D01*
X107695387Y-106795359D01*
X107679845Y-106815780D01*
X107664193Y-106836214D01*
X107648429Y-106856662D01*
X107632554Y-106877125D01*
X107624252Y-106887774D01*
D11*
X136525487Y-111468409D02*
X137344302Y-111837041D01*
D10*
X106850000Y-71800000D02*
X106861402Y-71800010D01*
X106872795Y-71800040D01*
X106884169Y-71800090D01*
X106895535Y-71800160D01*
X106906882Y-71800250D01*
X106918220Y-71800359D01*
X106929541Y-71800489D01*
X106940852Y-71800638D01*
X106952146Y-71800808D01*
X106963430Y-71800997D01*
X106974697Y-71801206D01*
X106985955Y-71801434D01*
X106997195Y-71801683D01*
X107008426Y-71801951D01*
X107019640Y-71802238D01*
X107030845Y-71802546D01*
X107042032Y-71802873D01*
X107053210Y-71803220D01*
X107064371Y-71803586D01*
X107075523Y-71803972D01*
X107086657Y-71804377D01*
X107097783Y-71804802D01*
X107108891Y-71805247D01*
X107119991Y-71805711D01*
X107131073Y-71806194D01*
X107142147Y-71806698D01*
X107153204Y-71807220D01*
X107164251Y-71807762D01*
X107175282Y-71808323D01*
X107186304Y-71808904D01*
X107197309Y-71809503D01*
X107208306Y-71810123D01*
X107219285Y-71810761D01*
X107230256Y-71811419D01*
X107241210Y-71812096D01*
X107252156Y-71812793D01*
X107263085Y-71813508D01*
X107274005Y-71814243D01*
X107284908Y-71814997D01*
X107295803Y-71815771D01*
X107306682Y-71816563D01*
X107317552Y-71817375D01*
X107328405Y-71818205D01*
X107339250Y-71819055D01*
X107350079Y-71819924D01*
X107360899Y-71820812D01*
X107371702Y-71821719D01*
X107382498Y-71822645D01*
X107393277Y-71823590D01*
X107404047Y-71824554D01*
X107414802Y-71825537D01*
X107425548Y-71826539D01*
X107436278Y-71827560D01*
X107446999Y-71828600D01*
X107457705Y-71829659D01*
X107468402Y-71830737D01*
X107479084Y-71831833D01*
X107489757Y-71832949D01*
X107500414Y-71834083D01*
X107511063Y-71835236D01*
X107521697Y-71836408D01*
X107532321Y-71837599D01*
X107542931Y-71838808D01*
X107553532Y-71840037D01*
X107564117Y-71841284D01*
X107574694Y-71842550D01*
X107585257Y-71843834D01*
X107595810Y-71845138D01*
X107606348Y-71846459D01*
X107616878Y-71847800D01*
X107627393Y-71849159D01*
X107637899Y-71850538D01*
X107648391Y-71851934D01*
X107658873Y-71853349D01*
X107669342Y-71854783D01*
X107679801Y-71856236D01*
X107690246Y-71857707D01*
X107700683Y-71859196D01*
X107711105Y-71860704D01*
X107721518Y-71862231D01*
X107731917Y-71863776D01*
X107742307Y-71865340D01*
X107752683Y-71866922D01*
X107763051Y-71868523D01*
X107773404Y-71870142D01*
X107783749Y-71871780D01*
X107794080Y-71873436D01*
X107804402Y-71875111D01*
X107814710Y-71876804D01*
X107825009Y-71878516D01*
X107835295Y-71880245D01*
X107845572Y-71881994D01*
X107855835Y-71883760D01*
X107866090Y-71885546D01*
X107876331Y-71887349D01*
X107886564Y-71889171D01*
X107896782Y-71891011D01*
X107906993Y-71892869D01*
X107917190Y-71894746D01*
X107927378Y-71896641D01*
X107937553Y-71898554D01*
X107947719Y-71900486D01*
X107957872Y-71902436D01*
X107968016Y-71904405D01*
X107978148Y-71906391D01*
X107988270Y-71908396D01*
X107998380Y-71910419D01*
X108008481Y-71912460D01*
X108018569Y-71914519D01*
X108028649Y-71916597D01*
X108038715Y-71918693D01*
X108048773Y-71920807D01*
X108058819Y-71922939D01*
X108068855Y-71925090D01*
X108078879Y-71927259D01*
X108088895Y-71929446D01*
X108098898Y-71931650D01*
X108108892Y-71933874D01*
X108118874Y-71936115D01*
X108128847Y-71938375D01*
X108138808Y-71940652D01*
X108148760Y-71942948D01*
X108158700Y-71945262D01*
X108168631Y-71947594D01*
X108178550Y-71949944D01*
X108188461Y-71952312D01*
X108198360Y-71954698D01*
X108208250Y-71957103D01*
X108218127Y-71959525D01*
X108227997Y-71961965D01*
X108237854Y-71964424D01*
X108247703Y-71966901D01*
X108253661Y-71968409D01*
D11*
X110215948Y-115524252D02*
X110913190Y-114889152D01*
D10*
X137344301Y-76762959D02*
X137364438Y-76752543D01*
X137384573Y-76742038D01*
X137404708Y-76731444D01*
X137424841Y-76720760D01*
X137444974Y-76709985D01*
X137465106Y-76699120D01*
X137485238Y-76688164D01*
X137505370Y-76677118D01*
X137525503Y-76665979D01*
X137545636Y-76654750D01*
X137565770Y-76643428D01*
X137585905Y-76632014D01*
X137606042Y-76620507D01*
X137626180Y-76608907D01*
X137646320Y-76597214D01*
X137666462Y-76585427D01*
X137686607Y-76573546D01*
X137706754Y-76561570D01*
X137726905Y-76549500D01*
X137747058Y-76537335D01*
X137767215Y-76525074D01*
X137787376Y-76512718D01*
X137807541Y-76500265D01*
X137827710Y-76487715D01*
X137847884Y-76475069D01*
X137868062Y-76462325D01*
X137888246Y-76449483D01*
X137908435Y-76436543D01*
X137928630Y-76423505D01*
X137948831Y-76410367D01*
X137969038Y-76397130D01*
X137989252Y-76383794D01*
X138009472Y-76370357D01*
X138029700Y-76356819D01*
X138049935Y-76343180D01*
X138070178Y-76329439D01*
X138090428Y-76315597D01*
X138110687Y-76301652D01*
X138130955Y-76287603D01*
X138151232Y-76273452D01*
X138171518Y-76259196D01*
X138191813Y-76244837D01*
X138212118Y-76230372D01*
X138232433Y-76215802D01*
X138252759Y-76201126D01*
X138273096Y-76186344D01*
X138293443Y-76171454D01*
X138313802Y-76156458D01*
X138334173Y-76141353D01*
X138354556Y-76126140D01*
X138374951Y-76110818D01*
X138395359Y-76095387D01*
X138415780Y-76079845D01*
X138436214Y-76064193D01*
X138456662Y-76048429D01*
X138477125Y-76032554D01*
X138487774Y-76024252D01*
X140886810Y-114889152D02*
X140901699Y-114903173D01*
X140916597Y-114917175D01*
X140931359Y-114931023D01*
X140946131Y-114944851D01*
X140960773Y-114958530D01*
X140975424Y-114972190D01*
X140989950Y-114985706D01*
X141004484Y-114999202D01*
X141018898Y-115012559D01*
X141033320Y-115025897D01*
X141047626Y-115039099D01*
X141061941Y-115052282D01*
X141076143Y-115065334D01*
X141090354Y-115078367D01*
X141104456Y-115091272D01*
X141118567Y-115104158D01*
X141132572Y-115116921D01*
X141146586Y-115129664D01*
X141160498Y-115142288D01*
X141174418Y-115154892D01*
X141188239Y-115167379D01*
X141202069Y-115179846D01*
X141215803Y-115192201D01*
X141229546Y-115204536D01*
X141243195Y-115216760D01*
X141256853Y-115228965D01*
X141270421Y-115241062D01*
X141283997Y-115253140D01*
X141297485Y-115265112D01*
X141310981Y-115277065D01*
X141324392Y-115288916D01*
X141337812Y-115300748D01*
X141351148Y-115312479D01*
X141364494Y-115324191D01*
X141377757Y-115335805D01*
X141391030Y-115347400D01*
X141404224Y-115358900D01*
X141417426Y-115370380D01*
X141430551Y-115381766D01*
X141443685Y-115393134D01*
X141456744Y-115404410D01*
X141469811Y-115415667D01*
X141482806Y-115426834D01*
X141495809Y-115437983D01*
X141508740Y-115449043D01*
X141521680Y-115460085D01*
X141534551Y-115471041D01*
X141547430Y-115481977D01*
X141560241Y-115492830D01*
X141573061Y-115503663D01*
X141585814Y-115514414D01*
X141598576Y-115525146D01*
X141611273Y-115535798D01*
X141623978Y-115546430D01*
X141636620Y-115556983D01*
X141649271Y-115567517D01*
X141661859Y-115577973D01*
X141674456Y-115588410D01*
X141686993Y-115598771D01*
X141699538Y-115609113D01*
X141712024Y-115619379D01*
X141724518Y-115629627D01*
X141736954Y-115639802D01*
X141749399Y-115649957D01*
X141761786Y-115660040D01*
X141774183Y-115670104D01*
X141786523Y-115680097D01*
X141798873Y-115690071D01*
X141811167Y-115699975D01*
X141823470Y-115709861D01*
X141835720Y-115719677D01*
X141847978Y-115729475D01*
X141860184Y-115739205D01*
X141872398Y-115748917D01*
X141884561Y-115758561D01*
X141896733Y-115768187D01*
X141908854Y-115777748D01*
X141920984Y-115787290D01*
X141933064Y-115796767D01*
X141945153Y-115806226D01*
X141947919Y-115808386D01*
D11*
X108253661Y-116631590D02*
X109072475Y-116262958D01*
X141947919Y-115808386D02*
X142727525Y-116262958D01*
D10*
X135121825Y-77300000D02*
X135133227Y-77299990D01*
X135144620Y-77299960D01*
X135155994Y-77299910D01*
X135167360Y-77299840D01*
X135178707Y-77299750D01*
X135190046Y-77299641D01*
X135201366Y-77299511D01*
X135212677Y-77299362D01*
X135223971Y-77299192D01*
X135235256Y-77299003D01*
X135246522Y-77298794D01*
X135257780Y-77298566D01*
X135269020Y-77298317D01*
X135280252Y-77298049D01*
X135291465Y-77297762D01*
X135302670Y-77297454D01*
X135313857Y-77297127D01*
X135325035Y-77296780D01*
X135336196Y-77296414D01*
X135347348Y-77296028D01*
X135358482Y-77295623D01*
X135369608Y-77295198D01*
X135380717Y-77294753D01*
X135391816Y-77294289D01*
X135402899Y-77293806D01*
X135413972Y-77293302D01*
X135425029Y-77292780D01*
X135436077Y-77292238D01*
X135447108Y-77291677D01*
X135458130Y-77291096D01*
X135469135Y-77290497D01*
X135480131Y-77289877D01*
X135491111Y-77289239D01*
X135502082Y-77288581D01*
X135513036Y-77287904D01*
X135523981Y-77287207D01*
X135534910Y-77286492D01*
X135545830Y-77285757D01*
X135556734Y-77285003D01*
X135567629Y-77284229D01*
X135578507Y-77283437D01*
X135589377Y-77282625D01*
X135600231Y-77281795D01*
X135611075Y-77280945D01*
X135621904Y-77280076D01*
X135632724Y-77279188D01*
X135643528Y-77278281D01*
X135654323Y-77277355D01*
X135665102Y-77276410D01*
X135675873Y-77275446D01*
X135686627Y-77274463D01*
X135697373Y-77273461D01*
X135708103Y-77272440D01*
X135718825Y-77271400D01*
X135729531Y-77270341D01*
X135740228Y-77269263D01*
X135750909Y-77268167D01*
X135761582Y-77267051D01*
X135772240Y-77265917D01*
X135782888Y-77264764D01*
X135793522Y-77263592D01*
X135804147Y-77262401D01*
X135814756Y-77261192D01*
X135825357Y-77259963D01*
X135835943Y-77258716D01*
X135846520Y-77257450D01*
X135857082Y-77256166D01*
X135867635Y-77254862D01*
X135878174Y-77253541D01*
X135888703Y-77252200D01*
X135899218Y-77250841D01*
X135909724Y-77249462D01*
X135920216Y-77248066D01*
X135930699Y-77246651D01*
X135941167Y-77245217D01*
X135951627Y-77243764D01*
X135962072Y-77242293D01*
X135972508Y-77240804D01*
X135982930Y-77239296D01*
X135993343Y-77237769D01*
X136003742Y-77236224D01*
X136014133Y-77234660D01*
X136024509Y-77233078D01*
X136034876Y-77231477D01*
X136045230Y-77229858D01*
X136055574Y-77228220D01*
X136065905Y-77226564D01*
X136076227Y-77224889D01*
X136086535Y-77223196D01*
X136096835Y-77221484D01*
X136107120Y-77219755D01*
X136117397Y-77218006D01*
X136127661Y-77216240D01*
X136137916Y-77214454D01*
X136148157Y-77212651D01*
X136158389Y-77210829D01*
X136168608Y-77208989D01*
X136178818Y-77207131D01*
X136189015Y-77205254D01*
X136199203Y-77203359D01*
X136209378Y-77201446D01*
X136219545Y-77199514D01*
X136229698Y-77197564D01*
X136239842Y-77195595D01*
X136249973Y-77193609D01*
X136260096Y-77191604D01*
X136270206Y-77189581D01*
X136280307Y-77187540D01*
X136290395Y-77185481D01*
X136300475Y-77183403D01*
X136310541Y-77181307D01*
X136320599Y-77179193D01*
X136330645Y-77177061D01*
X136340681Y-77174910D01*
X136350705Y-77172741D01*
X136360721Y-77170554D01*
X136370724Y-77168349D01*
X136380718Y-77166126D01*
X136390700Y-77163885D01*
X136400673Y-77161625D01*
X136410634Y-77159348D01*
X136420586Y-77157052D01*
X136430526Y-77154738D01*
X136440458Y-77152406D01*
X136450377Y-77150056D01*
X136460288Y-77147688D01*
X136470186Y-77145302D01*
X136480076Y-77142897D01*
X136489954Y-77140475D01*
X136499824Y-77138034D01*
X136509681Y-77135576D01*
X136519530Y-77133099D01*
X136525487Y-77131591D01*
D11*
X140886809Y-73710848D02*
X140203706Y-74376941D01*
D10*
X106849999Y-116799999D02*
X106861401Y-116799989D01*
X106872793Y-116799959D01*
X106884168Y-116799909D01*
X106895533Y-116799839D01*
X106906881Y-116799749D01*
X106918219Y-116799640D01*
X106929539Y-116799510D01*
X106940851Y-116799361D01*
X106952144Y-116799191D01*
X106963429Y-116799002D01*
X106974695Y-116798794D01*
X106985953Y-116798565D01*
X106997193Y-116798317D01*
X107008424Y-116798049D01*
X107019638Y-116797761D01*
X107030842Y-116797453D01*
X107042029Y-116797126D01*
X107053207Y-116796780D01*
X107064368Y-116796413D01*
X107075520Y-116796027D01*
X107086654Y-116795622D01*
X107097780Y-116795197D01*
X107108888Y-116794753D01*
X107119988Y-116794288D01*
X107131070Y-116793805D01*
X107142144Y-116793302D01*
X107153200Y-116792780D01*
X107164248Y-116792238D01*
X107175279Y-116791677D01*
X107186301Y-116791096D01*
X107197306Y-116790496D01*
X107208302Y-116789877D01*
X107219282Y-116789239D01*
X107230252Y-116788581D01*
X107241207Y-116787904D01*
X107252152Y-116787207D01*
X107263081Y-116786492D01*
X107274001Y-116785757D01*
X107284904Y-116785003D01*
X107295799Y-116784229D01*
X107306677Y-116783437D01*
X107317547Y-116782625D01*
X107328401Y-116781795D01*
X107339245Y-116780945D01*
X107350074Y-116780076D01*
X107360894Y-116779188D01*
X107371697Y-116778281D01*
X107382492Y-116777355D01*
X107393272Y-116776410D01*
X107404042Y-116775446D01*
X107414797Y-116774463D01*
X107425542Y-116773461D01*
X107436273Y-116772440D01*
X107446994Y-116771400D01*
X107457700Y-116770341D01*
X107468397Y-116769264D01*
X107479078Y-116768167D01*
X107489751Y-116767052D01*
X107500408Y-116765917D01*
X107511057Y-116764764D01*
X107521690Y-116763592D01*
X107532315Y-116762401D01*
X107542925Y-116761192D01*
X107553525Y-116759964D01*
X107564111Y-116758717D01*
X107574688Y-116757451D01*
X107585250Y-116756166D01*
X107595803Y-116754863D01*
X107606341Y-116753541D01*
X107616871Y-116752200D01*
X107627386Y-116750841D01*
X107637892Y-116749463D01*
X107648383Y-116748067D01*
X107658866Y-116746651D01*
X107669334Y-116745218D01*
X107679794Y-116743765D01*
X107690239Y-116742294D01*
X107700675Y-116740804D01*
X107711097Y-116739296D01*
X107721510Y-116737769D01*
X107731909Y-116736224D01*
X107742299Y-116734660D01*
X107752675Y-116733078D01*
X107763043Y-116731477D01*
X107773396Y-116729858D01*
X107783741Y-116728221D01*
X107794071Y-116726565D01*
X107804393Y-116724890D01*
X107814701Y-116723197D01*
X107825001Y-116721485D01*
X107835287Y-116719756D01*
X107845564Y-116718007D01*
X107855827Y-116716241D01*
X107866081Y-116714455D01*
X107876322Y-116712652D01*
X107886555Y-116710830D01*
X107896774Y-116708990D01*
X107906984Y-116707132D01*
X107917181Y-116705255D01*
X107927369Y-116703360D01*
X107937544Y-116701447D01*
X107947710Y-116699515D01*
X107957863Y-116697565D01*
X107968007Y-116695597D01*
X107978138Y-116693610D01*
X107988261Y-116691605D01*
X107998371Y-116689583D01*
X108008472Y-116687541D01*
X108018560Y-116685482D01*
X108028639Y-116683404D01*
X108038706Y-116681308D01*
X108048764Y-116679194D01*
X108058809Y-116677062D01*
X108068846Y-116674911D01*
X108078870Y-116672743D01*
X108088885Y-116670556D01*
X108098888Y-116668351D01*
X108108882Y-116666128D01*
X108118864Y-116663886D01*
X108128837Y-116661627D01*
X108138798Y-116659349D01*
X108148750Y-116657054D01*
X108158690Y-116654740D01*
X108168621Y-116652408D01*
X108178540Y-116650058D01*
X108188451Y-116647690D01*
X108198350Y-116645304D01*
X108208240Y-116642899D01*
X108218117Y-116640477D01*
X108227987Y-116638036D01*
X108237844Y-116635578D01*
X108247693Y-116633101D01*
X108253661Y-116631590D01*
X139185017Y-113210847D02*
X139214770Y-113238948D01*
X139244782Y-113267405D01*
X139275066Y-113296228D01*
X139305632Y-113325429D01*
X139336494Y-113355023D01*
X139367664Y-113385024D01*
X139399159Y-113415447D01*
X139430993Y-113446309D01*
X139463184Y-113477628D01*
X139495752Y-113509423D01*
X139528715Y-113541716D01*
X139562097Y-113574531D01*
X139595923Y-113607892D01*
X139630218Y-113641829D01*
X139665014Y-113676373D01*
X139700343Y-113711558D01*
X139736243Y-113747424D01*
X139772756Y-113784013D01*
X139809928Y-113821376D01*
X139847813Y-113859568D01*
X139886473Y-113898653D01*
X139925980Y-113938707D01*
X139966415Y-113979815D01*
X140007877Y-114022079D01*
X140050484Y-114065623D01*
X140094376Y-114110593D01*
X140139730Y-114157173D01*
X140186765Y-114205592D01*
X140203707Y-114223059D01*
D11*
X148400000Y-113350000D02*
X148343844Y-112388623D01*
X144950000Y-71800000D02*
X143988623Y-71856156D01*
X144950000Y-71800000D02*
G75*
G02*
X148400000Y-75250000I0J-3450000D01*
G01*
D10*
X109072476Y-72337041D02*
X109092613Y-72347457D01*
X109112748Y-72357962D01*
X109132882Y-72368556D01*
X109153016Y-72379240D01*
X109173148Y-72390015D01*
X109193281Y-72400880D01*
X109213413Y-72411835D01*
X109233545Y-72422882D01*
X109253677Y-72434020D01*
X109273810Y-72445250D01*
X109293944Y-72456572D01*
X109314079Y-72467986D01*
X109334216Y-72479493D01*
X109354354Y-72491093D01*
X109374494Y-72502786D01*
X109394636Y-72514573D01*
X109414780Y-72526454D01*
X109434928Y-72538429D01*
X109455078Y-72550499D01*
X109475231Y-72562664D01*
X109495388Y-72574925D01*
X109515549Y-72587282D01*
X109535714Y-72599734D01*
X109555883Y-72612284D01*
X109576057Y-72624930D01*
X109596235Y-72637674D01*
X109616419Y-72650516D01*
X109636608Y-72663456D01*
X109656803Y-72676494D01*
X109677004Y-72689632D01*
X109697211Y-72702869D01*
X109717424Y-72716205D01*
X109737645Y-72729642D01*
X109757873Y-72743180D01*
X109778108Y-72756819D01*
X109798350Y-72770560D01*
X109818601Y-72784402D01*
X109838860Y-72798347D01*
X109859128Y-72812396D01*
X109879405Y-72826547D01*
X109899691Y-72840803D01*
X109919986Y-72855163D01*
X109940291Y-72869627D01*
X109960606Y-72884197D01*
X109980932Y-72898873D01*
X110001269Y-72913656D01*
X110021617Y-72928545D01*
X110041976Y-72943542D01*
X110062346Y-72958646D01*
X110082729Y-72973859D01*
X110103125Y-72989181D01*
X110123533Y-73004613D01*
X110143954Y-73020155D01*
X110164388Y-73035807D01*
X110184837Y-73051571D01*
X110205299Y-73067446D01*
X110215948Y-73075748D01*
D11*
X116678175Y-77300000D02*
X125900000Y-77300000D01*
D10*
X144810848Y-81014984D02*
X144796827Y-81029873D01*
X144782825Y-81044771D01*
X144768977Y-81059533D01*
X144755149Y-81074305D01*
X144741470Y-81088947D01*
X144727810Y-81103598D01*
X144714294Y-81118124D01*
X144700798Y-81132658D01*
X144687441Y-81147072D01*
X144674103Y-81161494D01*
X144660901Y-81175800D01*
X144647718Y-81190115D01*
X144634666Y-81204317D01*
X144621633Y-81218528D01*
X144608728Y-81232630D01*
X144595842Y-81246741D01*
X144583079Y-81260746D01*
X144570336Y-81274760D01*
X144557712Y-81288672D01*
X144545108Y-81302592D01*
X144532621Y-81316413D01*
X144520154Y-81330243D01*
X144507799Y-81343977D01*
X144495464Y-81357720D01*
X144483240Y-81371369D01*
X144471035Y-81385027D01*
X144458938Y-81398595D01*
X144446860Y-81412171D01*
X144434888Y-81425659D01*
X144422935Y-81439155D01*
X144411084Y-81452566D01*
X144399252Y-81465986D01*
X144387521Y-81479322D01*
X144375809Y-81492668D01*
X144364195Y-81505931D01*
X144352600Y-81519204D01*
X144341100Y-81532398D01*
X144329620Y-81545600D01*
X144318234Y-81558725D01*
X144306866Y-81571859D01*
X144295590Y-81584918D01*
X144284333Y-81597985D01*
X144273166Y-81610980D01*
X144262017Y-81623983D01*
X144250957Y-81636914D01*
X144239915Y-81649854D01*
X144228959Y-81662725D01*
X144218023Y-81675604D01*
X144207170Y-81688415D01*
X144196337Y-81701235D01*
X144185586Y-81713988D01*
X144174854Y-81726750D01*
X144164202Y-81739447D01*
X144153570Y-81752152D01*
X144143017Y-81764794D01*
X144132483Y-81777445D01*
X144122027Y-81790033D01*
X144111590Y-81802630D01*
X144101229Y-81815167D01*
X144090887Y-81827712D01*
X144080621Y-81840198D01*
X144070373Y-81852692D01*
X144060198Y-81865128D01*
X144050043Y-81877573D01*
X144039960Y-81889960D01*
X144029896Y-81902357D01*
X144019903Y-81914697D01*
X144009929Y-81927047D01*
X144000025Y-81939341D01*
X143990139Y-81951644D01*
X143980323Y-81963894D01*
X143970525Y-81976152D01*
X143960795Y-81988358D01*
X143951083Y-82000572D01*
X143941439Y-82012735D01*
X143931813Y-82024907D01*
X143922252Y-82037028D01*
X143912710Y-82049158D01*
X143903233Y-82061238D01*
X143893774Y-82073327D01*
X143891614Y-82076093D01*
X142727524Y-72337041D02*
X142737605Y-72331860D01*
X142747694Y-72326698D01*
X142757776Y-72321562D01*
X142767866Y-72316444D01*
X142777949Y-72311353D01*
X142788040Y-72306279D01*
X142798124Y-72301232D01*
X142808216Y-72296203D01*
X142818301Y-72291200D01*
X142828395Y-72286215D01*
X142838481Y-72281256D01*
X142848576Y-72276315D01*
X142858664Y-72271399D01*
X142868760Y-72266502D01*
X142878849Y-72261631D01*
X142888947Y-72256777D01*
X142899039Y-72251949D01*
X142909138Y-72247140D01*
X142919231Y-72242355D01*
X142929332Y-72237589D01*
X142939427Y-72232848D01*
X142949531Y-72228125D01*
X142959628Y-72223427D01*
X142969733Y-72218747D01*
X142979833Y-72214092D01*
X142989940Y-72209456D01*
X143000042Y-72204844D01*
X143010152Y-72200250D01*
X143020256Y-72195681D01*
X143030368Y-72191131D01*
X143040475Y-72186604D01*
X143050590Y-72182096D01*
X143060699Y-72177613D01*
X143070817Y-72173148D01*
X143080929Y-72168706D01*
X143091050Y-72164284D01*
X143101165Y-72159885D01*
X143111288Y-72155505D01*
X143121406Y-72151148D01*
X143131533Y-72146810D01*
X143141654Y-72142496D01*
X143151784Y-72138200D01*
X143161908Y-72133928D01*
X143172041Y-72129674D01*
X143182169Y-72125444D01*
X143192306Y-72121232D01*
X143202437Y-72117044D01*
X143212577Y-72112874D01*
X143222713Y-72108728D01*
X143232856Y-72104600D01*
X143242995Y-72100495D01*
X143253143Y-72096409D01*
X143263286Y-72092346D01*
X143273437Y-72088301D01*
X143283584Y-72084279D01*
X143293739Y-72080276D01*
X143303890Y-72076295D01*
X143314050Y-72072334D01*
X143324205Y-72068395D01*
X143334369Y-72064474D01*
X143344529Y-72060576D01*
X143354697Y-72056697D01*
X143364861Y-72052840D01*
X143375034Y-72049002D01*
X143385202Y-72045187D01*
X143395380Y-72041389D01*
X143405553Y-72037615D01*
X143415735Y-72033859D01*
X143425914Y-72030125D01*
X143436100Y-72026410D01*
X143446284Y-72022717D01*
X143456476Y-72019042D01*
X143466664Y-72015390D01*
X143476861Y-72011756D01*
X143487055Y-72008145D01*
X143497257Y-72004551D01*
X143507456Y-72000981D01*
X143517664Y-71997428D01*
X143527868Y-71993898D01*
X143538081Y-71990385D01*
X143548291Y-71986895D01*
X143558510Y-71983424D01*
X143568726Y-71979974D01*
X143578950Y-71976543D01*
X143589171Y-71973133D01*
X143599401Y-71969742D01*
X143609629Y-71966373D01*
X143619865Y-71963022D01*
X143630099Y-71959693D01*
X143640341Y-71956382D01*
X143650580Y-71953093D01*
X143660828Y-71949823D01*
X143671075Y-71946574D01*
X143681329Y-71943343D01*
X143691581Y-71940134D01*
X143701842Y-71936944D01*
X143712101Y-71933774D01*
X143722369Y-71930624D01*
X143732634Y-71927494D01*
X143742908Y-71924384D01*
X143753181Y-71921294D01*
X143763462Y-71918223D01*
X143773741Y-71915173D01*
X143784028Y-71912142D01*
X143794315Y-71909132D01*
X143804609Y-71906140D01*
X143814903Y-71903169D01*
X143825205Y-71900217D01*
X143835505Y-71897286D01*
X143845814Y-71894374D01*
X143856122Y-71891483D01*
X143866439Y-71888610D01*
X143876754Y-71885758D01*
X143887078Y-71882924D01*
X143897401Y-71880112D01*
X143907733Y-71877318D01*
X143918063Y-71874544D01*
X143928402Y-71871790D01*
X143938741Y-71869056D01*
X143949088Y-71866341D01*
X143959435Y-71863646D01*
X143969790Y-71860970D01*
X143988623Y-71856156D01*
D11*
X140203707Y-114223059D02*
X140886810Y-114889152D01*
X108900000Y-85078175D02*
X108900000Y-94300000D01*
X135121825Y-77300000D02*
X125900000Y-77300000D01*
X112614984Y-75389152D02*
X111931881Y-74723059D01*
D10*
X148400000Y-75250000D02*
X148399990Y-75261402D01*
X148399960Y-75272795D01*
X148399910Y-75284169D01*
X148399840Y-75295535D01*
X148399750Y-75306882D01*
X148399641Y-75318220D01*
X148399511Y-75329541D01*
X148399362Y-75340852D01*
X148399192Y-75352146D01*
X148399003Y-75363430D01*
X148398794Y-75374697D01*
X148398566Y-75385955D01*
X148398317Y-75397195D01*
X148398049Y-75408426D01*
X148397762Y-75419640D01*
X148397454Y-75430845D01*
X148397127Y-75442032D01*
X148396780Y-75453210D01*
X148396414Y-75464371D01*
X148396028Y-75475523D01*
X148395623Y-75486657D01*
X148395198Y-75497783D01*
X148394753Y-75508891D01*
X148394289Y-75519991D01*
X148393806Y-75531073D01*
X148393302Y-75542147D01*
X148392780Y-75553204D01*
X148392238Y-75564251D01*
X148391677Y-75575282D01*
X148391096Y-75586304D01*
X148390497Y-75597309D01*
X148389877Y-75608306D01*
X148389239Y-75619285D01*
X148388581Y-75630256D01*
X148387904Y-75641210D01*
X148387207Y-75652156D01*
X148386492Y-75663085D01*
X148385757Y-75674005D01*
X148385003Y-75684908D01*
X148384229Y-75695803D01*
X148383437Y-75706682D01*
X148382625Y-75717552D01*
X148381795Y-75728405D01*
X148380945Y-75739250D01*
X148380076Y-75750079D01*
X148379188Y-75760899D01*
X148378281Y-75771702D01*
X148377355Y-75782498D01*
X148376410Y-75793277D01*
X148375446Y-75804047D01*
X148374463Y-75814802D01*
X148373461Y-75825548D01*
X148372440Y-75836278D01*
X148371400Y-75846999D01*
X148370341Y-75857705D01*
X148369263Y-75868402D01*
X148368167Y-75879084D01*
X148367051Y-75889757D01*
X148365917Y-75900414D01*
X148364764Y-75911063D01*
X148363592Y-75921697D01*
X148362401Y-75932321D01*
X148361192Y-75942931D01*
X148359963Y-75953532D01*
X148358716Y-75964117D01*
X148357450Y-75974694D01*
X148356166Y-75985257D01*
X148354862Y-75995810D01*
X148353541Y-76006348D01*
X148352200Y-76016878D01*
X148350841Y-76027393D01*
X148349462Y-76037899D01*
X148348066Y-76048391D01*
X148346651Y-76058873D01*
X148345217Y-76069342D01*
X148343764Y-76079801D01*
X148342293Y-76090246D01*
X148340804Y-76100683D01*
X148339296Y-76111105D01*
X148337769Y-76121518D01*
X148336224Y-76131917D01*
X148334660Y-76142307D01*
X148333078Y-76152683D01*
X148331477Y-76163051D01*
X148329858Y-76173404D01*
X148328220Y-76183749D01*
X148326564Y-76194080D01*
X148324889Y-76204402D01*
X148323196Y-76214710D01*
X148321484Y-76225009D01*
X148319755Y-76235295D01*
X148318006Y-76245572D01*
X148316240Y-76255835D01*
X148314454Y-76266090D01*
X148312651Y-76276331D01*
X148310829Y-76286564D01*
X148308989Y-76296782D01*
X148307131Y-76306993D01*
X148305254Y-76317190D01*
X148303359Y-76327378D01*
X148301446Y-76337553D01*
X148299514Y-76347719D01*
X148297564Y-76357872D01*
X148295595Y-76368016D01*
X148293609Y-76378148D01*
X148291604Y-76388270D01*
X148289581Y-76398380D01*
X148287540Y-76408481D01*
X148285481Y-76418569D01*
X148283403Y-76428649D01*
X148281307Y-76438715D01*
X148279193Y-76448773D01*
X148277061Y-76458819D01*
X148274910Y-76468855D01*
X148272741Y-76478879D01*
X148270554Y-76488895D01*
X148268350Y-76498898D01*
X148266126Y-76508892D01*
X148263885Y-76518874D01*
X148261625Y-76528847D01*
X148259348Y-76538808D01*
X148257052Y-76548760D01*
X148254738Y-76558700D01*
X148252406Y-76568631D01*
X148250056Y-76578550D01*
X148247688Y-76588461D01*
X148245302Y-76598360D01*
X148242897Y-76608250D01*
X148240475Y-76618127D01*
X148238035Y-76627997D01*
X148235576Y-76637854D01*
X148233099Y-76647703D01*
X148231591Y-76653661D01*
D11*
X113676093Y-112291613D02*
X114455698Y-111837041D01*
X142900000Y-85078175D02*
X142956156Y-84116798D01*
X144810848Y-107585016D02*
X144175748Y-106887774D01*
X111931880Y-113876940D02*
X112614983Y-113210847D01*
D10*
X142727525Y-116262958D02*
X142737606Y-116268139D01*
X142747695Y-116273301D01*
X142757777Y-116278437D01*
X142767867Y-116283555D01*
X142777950Y-116288646D01*
X142788041Y-116293720D01*
X142798125Y-116298767D01*
X142808218Y-116303796D01*
X142818303Y-116308799D01*
X142828396Y-116313784D01*
X142838483Y-116318744D01*
X142848577Y-116323685D01*
X142858665Y-116328600D01*
X142868762Y-116333497D01*
X142878851Y-116338369D01*
X142888949Y-116343222D01*
X142899040Y-116348050D01*
X142909140Y-116352860D01*
X142919233Y-116357644D01*
X142929334Y-116362411D01*
X142939429Y-116367152D01*
X142949533Y-116371875D01*
X142959630Y-116376573D01*
X142969735Y-116381252D01*
X142979835Y-116385907D01*
X142989942Y-116390544D01*
X143000044Y-116395156D01*
X143010154Y-116399749D01*
X143020258Y-116404318D01*
X143030370Y-116408869D01*
X143040477Y-116413395D01*
X143050592Y-116417903D01*
X143060701Y-116422387D01*
X143070819Y-116426852D01*
X143080931Y-116431293D01*
X143091052Y-116435716D01*
X143101167Y-116440115D01*
X143111290Y-116444495D01*
X143121409Y-116448851D01*
X143131535Y-116453190D01*
X143141656Y-116457504D01*
X143151786Y-116461800D01*
X143161911Y-116466072D01*
X143172044Y-116470325D01*
X143182172Y-116474556D01*
X143192308Y-116478767D01*
X143202440Y-116482956D01*
X143212580Y-116487125D01*
X143222715Y-116491272D01*
X143232859Y-116495400D01*
X143242998Y-116499505D01*
X143253145Y-116503591D01*
X143263288Y-116507654D01*
X143273440Y-116511699D01*
X143283587Y-116515721D01*
X143293742Y-116519724D01*
X143303893Y-116523704D01*
X143314052Y-116527666D01*
X143324208Y-116531605D01*
X143334372Y-116535526D01*
X143344531Y-116539424D01*
X143354699Y-116543303D01*
X143364864Y-116547160D01*
X143375036Y-116550998D01*
X143385205Y-116554813D01*
X143395383Y-116558611D01*
X143405556Y-116562385D01*
X143415738Y-116566141D01*
X143425917Y-116569875D01*
X143436104Y-116573591D01*
X143446287Y-116577283D01*
X143456479Y-116580958D01*
X143466667Y-116584610D01*
X143476864Y-116588244D01*
X143487058Y-116591855D01*
X143497260Y-116595449D01*
X143507459Y-116599020D01*
X143517667Y-116602572D01*
X143527872Y-116606103D01*
X143538084Y-116609615D01*
X143548295Y-116613105D01*
X143558513Y-116616577D01*
X143568729Y-116620026D01*
X143578953Y-116623458D01*
X143589175Y-116626867D01*
X143599405Y-116630258D01*
X143609633Y-116633627D01*
X143619868Y-116636978D01*
X143630102Y-116640307D01*
X143640344Y-116643618D01*
X143650584Y-116646907D01*
X143660832Y-116650178D01*
X143671078Y-116653427D01*
X143681333Y-116656657D01*
X143691585Y-116659866D01*
X143701846Y-116663057D01*
X143712105Y-116666226D01*
X143722373Y-116669377D01*
X143732638Y-116672506D01*
X143742912Y-116675617D01*
X143753185Y-116678707D01*
X143763466Y-116681778D01*
X143773745Y-116684827D01*
X143784033Y-116687859D01*
X143794319Y-116690869D01*
X143804614Y-116693861D01*
X143814907Y-116696831D01*
X143825209Y-116699783D01*
X143835510Y-116702714D01*
X143845819Y-116705627D01*
X143856127Y-116708518D01*
X143866443Y-116711391D01*
X143876759Y-116714243D01*
X143887083Y-116717077D01*
X143897406Y-116719889D01*
X143907737Y-116722683D01*
X143918068Y-116725457D01*
X143928407Y-116728211D01*
X143938746Y-116730945D01*
X143949093Y-116733660D01*
X143959440Y-116736355D01*
X143969795Y-116739031D01*
X143988624Y-116743844D01*
D11*
X147862959Y-111127524D02*
X147408386Y-110347919D01*
X114455699Y-76762959D02*
X113676093Y-76308386D01*
X147862959Y-77472476D02*
X148231591Y-76653661D01*
D10*
X109072475Y-116262958D02*
X109092612Y-116252542D01*
X109112748Y-116242037D01*
X109132882Y-116231443D01*
X109153016Y-116220758D01*
X109173149Y-116209984D01*
X109193281Y-116199119D01*
X109213413Y-116188163D01*
X109233546Y-116177116D01*
X109253678Y-116165978D01*
X109273812Y-116154748D01*
X109293946Y-116143426D01*
X109314081Y-116132012D01*
X109334218Y-116120505D01*
X109354356Y-116108905D01*
X109374496Y-116097211D01*
X109394638Y-116085425D01*
X109414783Y-116073543D01*
X109434931Y-116061568D01*
X109455081Y-116049498D01*
X109475235Y-116037333D01*
X109495392Y-116025072D01*
X109515553Y-116012715D01*
X109535717Y-116000262D01*
X109555887Y-115987713D01*
X109576060Y-115975066D01*
X109596239Y-115962322D01*
X109616423Y-115949481D01*
X109636612Y-115936541D01*
X109656807Y-115923502D01*
X109677008Y-115910365D01*
X109697215Y-115897128D01*
X109717428Y-115883791D01*
X109737649Y-115870354D01*
X109757877Y-115856816D01*
X109778112Y-115843178D01*
X109798354Y-115829437D01*
X109818605Y-115815594D01*
X109838864Y-115801649D01*
X109859132Y-115787601D01*
X109879408Y-115773450D01*
X109899694Y-115759195D01*
X109919989Y-115744835D01*
X109940294Y-115730370D01*
X109960610Y-115715800D01*
X109980935Y-115701124D01*
X110001272Y-115686342D01*
X110021619Y-115671453D01*
X110041978Y-115656456D01*
X110062349Y-115641352D01*
X110082731Y-115626139D01*
X110103126Y-115610817D01*
X110123534Y-115595386D01*
X110143955Y-115579844D01*
X110164389Y-115564192D01*
X110184837Y-115548429D01*
X110205299Y-115532554D01*
X110215948Y-115524252D01*
X146489152Y-109286809D02*
X146503173Y-109301698D01*
X146517175Y-109316595D01*
X146531022Y-109331358D01*
X146544850Y-109346129D01*
X146558529Y-109360771D01*
X146572189Y-109375421D01*
X146585704Y-109389947D01*
X146599200Y-109404481D01*
X146612557Y-109418895D01*
X146625894Y-109433317D01*
X146639097Y-109447623D01*
X146652279Y-109461937D01*
X146665331Y-109476139D01*
X146678364Y-109490350D01*
X146691269Y-109504452D01*
X146704155Y-109518562D01*
X146716918Y-109532567D01*
X146729661Y-109546581D01*
X146742284Y-109560493D01*
X146754888Y-109574413D01*
X146767375Y-109588234D01*
X146779843Y-109602064D01*
X146792197Y-109615798D01*
X146804532Y-109629541D01*
X146816756Y-109643190D01*
X146828961Y-109656848D01*
X146841058Y-109670415D01*
X146853135Y-109683991D01*
X146865108Y-109697479D01*
X146877061Y-109710976D01*
X146888912Y-109724387D01*
X146900743Y-109737807D01*
X146912475Y-109751143D01*
X146924187Y-109764488D01*
X146935801Y-109777752D01*
X146947396Y-109791025D01*
X146958895Y-109804218D01*
X146970376Y-109817420D01*
X146981762Y-109830546D01*
X146993130Y-109843680D01*
X147004406Y-109856739D01*
X147015663Y-109869806D01*
X147026830Y-109882800D01*
X147037979Y-109895803D01*
X147049039Y-109908735D01*
X147060081Y-109921675D01*
X147071037Y-109934546D01*
X147081973Y-109947425D01*
X147092826Y-109960236D01*
X147103660Y-109973056D01*
X147114411Y-109985809D01*
X147125143Y-109998571D01*
X147135794Y-110011268D01*
X147146426Y-110023974D01*
X147156979Y-110036616D01*
X147167513Y-110049267D01*
X147177970Y-110061855D01*
X147188407Y-110074452D01*
X147198768Y-110086989D01*
X147209110Y-110099534D01*
X147219376Y-110112020D01*
X147229624Y-110124514D01*
X147239799Y-110136950D01*
X147249954Y-110149395D01*
X147260037Y-110161783D01*
X147270102Y-110174180D01*
X147280095Y-110186520D01*
X147290069Y-110198870D01*
X147299973Y-110211164D01*
X147309859Y-110223468D01*
X147319675Y-110235717D01*
X147329473Y-110247976D01*
X147339203Y-110260182D01*
X147348915Y-110272396D01*
X147358560Y-110284559D01*
X147368186Y-110296731D01*
X147377747Y-110308852D01*
X147387288Y-110320982D01*
X147396766Y-110333063D01*
X147406225Y-110345152D01*
X147408386Y-110347919D01*
D11*
X103400000Y-75250000D02*
G75*
G02*
X106850000Y-71800000I3450000J0D01*
G01*
D10*
X147862959Y-111127524D02*
X147868140Y-111137605D01*
X147873302Y-111147694D01*
X147878438Y-111157776D01*
X147883556Y-111167866D01*
X147888647Y-111177949D01*
X147893721Y-111188040D01*
X147898768Y-111198124D01*
X147903797Y-111208216D01*
X147908800Y-111218301D01*
X147913785Y-111228395D01*
X147918744Y-111238481D01*
X147923685Y-111248576D01*
X147928601Y-111258664D01*
X147933498Y-111268760D01*
X147938369Y-111278849D01*
X147943223Y-111288947D01*
X147948051Y-111299039D01*
X147952860Y-111309138D01*
X147957645Y-111319231D01*
X147962411Y-111329332D01*
X147967152Y-111339427D01*
X147971875Y-111349531D01*
X147976573Y-111359628D01*
X147981253Y-111369733D01*
X147985908Y-111379833D01*
X147990544Y-111389940D01*
X147995156Y-111400042D01*
X147999750Y-111410152D01*
X148004319Y-111420256D01*
X148008869Y-111430368D01*
X148013396Y-111440475D01*
X148017904Y-111450590D01*
X148022387Y-111460699D01*
X148026852Y-111470817D01*
X148031294Y-111480929D01*
X148035716Y-111491050D01*
X148040115Y-111501165D01*
X148044495Y-111511288D01*
X148048852Y-111521406D01*
X148053190Y-111531533D01*
X148057504Y-111541654D01*
X148061800Y-111551784D01*
X148066072Y-111561908D01*
X148070326Y-111572041D01*
X148074556Y-111582169D01*
X148078768Y-111592306D01*
X148082956Y-111602437D01*
X148087126Y-111612577D01*
X148091272Y-111622713D01*
X148095400Y-111632856D01*
X148099505Y-111642995D01*
X148103591Y-111653143D01*
X148107654Y-111663286D01*
X148111699Y-111673437D01*
X148115721Y-111683584D01*
X148119724Y-111693739D01*
X148123705Y-111703890D01*
X148127666Y-111714050D01*
X148131605Y-111724205D01*
X148135526Y-111734369D01*
X148139424Y-111744529D01*
X148143303Y-111754697D01*
X148147160Y-111764861D01*
X148150998Y-111775034D01*
X148154813Y-111785202D01*
X148158611Y-111795380D01*
X148162385Y-111805553D01*
X148166141Y-111815735D01*
X148169875Y-111825914D01*
X148173590Y-111836100D01*
X148177283Y-111846284D01*
X148180958Y-111856476D01*
X148184610Y-111866664D01*
X148188244Y-111876861D01*
X148191855Y-111887055D01*
X148195449Y-111897257D01*
X148199019Y-111907456D01*
X148202572Y-111917664D01*
X148206102Y-111927868D01*
X148209615Y-111938081D01*
X148213105Y-111948291D01*
X148216576Y-111958510D01*
X148220026Y-111968726D01*
X148223457Y-111978950D01*
X148226867Y-111989171D01*
X148230258Y-111999401D01*
X148233627Y-112009629D01*
X148236978Y-112019865D01*
X148240307Y-112030099D01*
X148243618Y-112040341D01*
X148246907Y-112050580D01*
X148250177Y-112060828D01*
X148253426Y-112071075D01*
X148256657Y-112081329D01*
X148259866Y-112091581D01*
X148263056Y-112101842D01*
X148266226Y-112112101D01*
X148269376Y-112122369D01*
X148272506Y-112132634D01*
X148275616Y-112142908D01*
X148278706Y-112153181D01*
X148281777Y-112163462D01*
X148284827Y-112173741D01*
X148287858Y-112184028D01*
X148290868Y-112194315D01*
X148293860Y-112204609D01*
X148296831Y-112214903D01*
X148299783Y-112225205D01*
X148302714Y-112235505D01*
X148305626Y-112245814D01*
X148308517Y-112256122D01*
X148311390Y-112266439D01*
X148314242Y-112276754D01*
X148317076Y-112287078D01*
X148319888Y-112297401D01*
X148322682Y-112307733D01*
X148325456Y-112318063D01*
X148328210Y-112328402D01*
X148330944Y-112338741D01*
X148333659Y-112349088D01*
X148336354Y-112359435D01*
X148339030Y-112369790D01*
X148343844Y-112388623D01*
D11*
X110913191Y-73710848D02*
X110215948Y-73075748D01*
X148400000Y-113350000D02*
G75*
G02*
X144950000Y-116800000I-3450000J0D01*
G01*
D10*
X143437041Y-105744301D02*
X143447457Y-105764438D01*
X143457962Y-105784573D01*
X143468556Y-105804708D01*
X143479240Y-105824841D01*
X143490015Y-105844974D01*
X143500880Y-105865106D01*
X143511836Y-105885238D01*
X143522882Y-105905370D01*
X143534021Y-105925503D01*
X143545250Y-105945636D01*
X143556572Y-105965770D01*
X143567986Y-105985905D01*
X143579493Y-106006042D01*
X143591093Y-106026180D01*
X143602786Y-106046320D01*
X143614573Y-106066462D01*
X143626454Y-106086607D01*
X143638430Y-106106754D01*
X143650500Y-106126905D01*
X143662665Y-106147058D01*
X143674926Y-106167215D01*
X143687282Y-106187376D01*
X143699735Y-106207541D01*
X143712285Y-106227710D01*
X143724931Y-106247884D01*
X143737675Y-106268062D01*
X143750517Y-106288246D01*
X143763457Y-106308435D01*
X143776495Y-106328630D01*
X143789633Y-106348831D01*
X143802870Y-106369038D01*
X143816206Y-106389252D01*
X143829643Y-106409472D01*
X143843181Y-106429700D01*
X143856820Y-106449935D01*
X143870561Y-106470178D01*
X143884403Y-106490428D01*
X143898348Y-106510687D01*
X143912397Y-106530955D01*
X143926548Y-106551232D01*
X143940804Y-106571518D01*
X143955163Y-106591813D01*
X143969628Y-106612118D01*
X143984198Y-106632433D01*
X143998874Y-106652759D01*
X144013656Y-106673096D01*
X144028546Y-106693443D01*
X144043542Y-106713802D01*
X144058647Y-106734173D01*
X144073860Y-106754556D01*
X144089182Y-106774951D01*
X144104613Y-106795359D01*
X144120155Y-106815780D01*
X144135807Y-106836214D01*
X144151571Y-106856662D01*
X144167446Y-106877125D01*
X144175748Y-106887774D01*
D11*
X103456156Y-112388623D02*
X103400000Y-113350000D01*
X108900000Y-103521825D02*
X108900000Y-94300000D01*
D10*
X143437041Y-82855699D02*
X143431860Y-82865780D01*
X143426698Y-82875869D01*
X143421562Y-82885951D01*
X143416444Y-82896041D01*
X143411353Y-82906124D01*
X143406279Y-82916215D01*
X143401232Y-82926299D01*
X143396203Y-82936391D01*
X143391200Y-82946477D01*
X143386215Y-82956570D01*
X143381255Y-82966657D01*
X143376315Y-82976751D01*
X143371399Y-82986839D01*
X143366502Y-82996936D01*
X143361630Y-83007025D01*
X143356777Y-83017123D01*
X143351949Y-83027214D01*
X143347139Y-83037314D01*
X143342355Y-83047407D01*
X143337589Y-83057508D01*
X143332847Y-83067603D01*
X143328124Y-83077706D01*
X143323427Y-83087804D01*
X143318747Y-83097909D01*
X143314092Y-83108008D01*
X143309455Y-83118116D01*
X143304844Y-83128218D01*
X143300250Y-83138328D01*
X143295681Y-83148432D01*
X143291130Y-83158544D01*
X143286604Y-83168651D01*
X143282096Y-83178766D01*
X143277612Y-83188875D01*
X143273147Y-83198993D01*
X143268706Y-83209105D01*
X143264283Y-83219225D01*
X143259885Y-83229340D01*
X143255504Y-83239464D01*
X143251148Y-83249582D01*
X143246810Y-83259709D01*
X143242496Y-83269830D01*
X143238200Y-83279959D01*
X143233928Y-83290084D01*
X143229674Y-83300217D01*
X143225444Y-83310345D01*
X143221232Y-83320482D01*
X143217044Y-83330613D01*
X143212874Y-83340753D01*
X143208728Y-83350888D01*
X143204599Y-83361032D01*
X143200495Y-83371171D01*
X143196408Y-83381318D01*
X143192345Y-83391461D01*
X143188300Y-83401612D01*
X143184279Y-83411759D01*
X143180275Y-83421915D01*
X143176295Y-83432066D01*
X143172333Y-83442225D01*
X143168394Y-83452381D01*
X143164474Y-83462544D01*
X143160576Y-83472704D01*
X143156697Y-83482872D01*
X143152840Y-83493036D01*
X143149002Y-83503209D01*
X143145186Y-83513378D01*
X143141389Y-83523555D01*
X143137615Y-83533729D01*
X143133858Y-83543910D01*
X143130125Y-83554089D01*
X143126409Y-83564276D01*
X143122717Y-83574459D01*
X143119042Y-83584651D01*
X143115390Y-83594839D01*
X143111756Y-83605036D01*
X143108145Y-83615230D01*
X143104551Y-83625432D01*
X143100980Y-83635631D01*
X143097428Y-83645839D01*
X143093897Y-83656043D01*
X143090385Y-83666256D01*
X143086895Y-83676466D01*
X143083424Y-83686685D01*
X143079974Y-83696900D01*
X143076543Y-83707125D01*
X143073133Y-83717346D01*
X143069742Y-83727576D01*
X143066373Y-83737804D01*
X143063022Y-83748040D01*
X143059693Y-83758273D01*
X143056382Y-83768515D01*
X143053093Y-83778755D01*
X143049823Y-83789003D01*
X143046574Y-83799249D01*
X143043343Y-83809503D01*
X143040134Y-83819756D01*
X143036944Y-83830017D01*
X143033775Y-83840276D01*
X143030624Y-83850543D01*
X143027495Y-83860809D01*
X143024384Y-83871083D01*
X143021294Y-83881355D01*
X143018223Y-83891636D01*
X143015173Y-83901915D01*
X143012142Y-83912203D01*
X143009132Y-83922489D01*
X143006140Y-83932784D01*
X143003170Y-83943077D01*
X143000218Y-83953379D01*
X142997287Y-83963679D01*
X142994374Y-83973988D01*
X142991483Y-83984296D01*
X142988610Y-83994613D01*
X142985758Y-84004928D01*
X142982924Y-84015252D01*
X142980112Y-84025575D01*
X142977318Y-84035906D01*
X142974545Y-84046237D01*
X142971790Y-84056576D01*
X142969056Y-84066915D01*
X142966341Y-84077262D01*
X142963646Y-84087608D01*
X142960970Y-84097963D01*
X142956156Y-84116798D01*
D11*
X106850000Y-116800000D02*
G75*
G02*
X103400000Y-113350000I0J3450000D01*
G01*
D10*
X103937041Y-111127524D02*
X103931860Y-111137605D01*
X103926698Y-111147694D01*
X103921562Y-111157776D01*
X103916444Y-111167866D01*
X103911353Y-111177949D01*
X103906279Y-111188040D01*
X103901232Y-111198124D01*
X103896203Y-111208216D01*
X103891200Y-111218301D01*
X103886215Y-111228395D01*
X103881256Y-111238481D01*
X103876315Y-111248576D01*
X103871399Y-111258664D01*
X103866502Y-111268760D01*
X103861631Y-111278849D01*
X103856777Y-111288947D01*
X103851949Y-111299039D01*
X103847140Y-111309138D01*
X103842355Y-111319231D01*
X103837589Y-111329332D01*
X103832848Y-111339427D01*
X103828125Y-111349531D01*
X103823427Y-111359628D01*
X103818747Y-111369733D01*
X103814092Y-111379833D01*
X103809456Y-111389940D01*
X103804844Y-111400042D01*
X103800250Y-111410152D01*
X103795681Y-111420256D01*
X103791131Y-111430368D01*
X103786604Y-111440475D01*
X103782096Y-111450590D01*
X103777613Y-111460699D01*
X103773148Y-111470817D01*
X103768706Y-111480929D01*
X103764284Y-111491050D01*
X103759885Y-111501165D01*
X103755505Y-111511288D01*
X103751148Y-111521406D01*
X103746810Y-111531533D01*
X103742496Y-111541654D01*
X103738200Y-111551784D01*
X103733928Y-111561908D01*
X103729674Y-111572041D01*
X103725444Y-111582169D01*
X103721232Y-111592306D01*
X103717044Y-111602437D01*
X103712874Y-111612577D01*
X103708728Y-111622713D01*
X103704600Y-111632856D01*
X103700495Y-111642995D01*
X103696409Y-111653143D01*
X103692346Y-111663286D01*
X103688301Y-111673437D01*
X103684279Y-111683584D01*
X103680276Y-111693739D01*
X103676295Y-111703890D01*
X103672334Y-111714050D01*
X103668395Y-111724205D01*
X103664474Y-111734369D01*
X103660576Y-111744529D01*
X103656697Y-111754697D01*
X103652840Y-111764861D01*
X103649002Y-111775034D01*
X103645187Y-111785202D01*
X103641389Y-111795380D01*
X103637615Y-111805553D01*
X103633859Y-111815735D01*
X103630125Y-111825914D01*
X103626410Y-111836100D01*
X103622717Y-111846284D01*
X103619042Y-111856476D01*
X103615390Y-111866664D01*
X103611756Y-111876861D01*
X103608145Y-111887055D01*
X103604551Y-111897257D01*
X103600981Y-111907456D01*
X103597428Y-111917664D01*
X103593898Y-111927868D01*
X103590385Y-111938081D01*
X103586895Y-111948291D01*
X103583424Y-111958510D01*
X103579974Y-111968726D01*
X103576543Y-111978950D01*
X103573133Y-111989171D01*
X103569742Y-111999401D01*
X103566373Y-112009629D01*
X103563022Y-112019865D01*
X103559693Y-112030099D01*
X103556382Y-112040341D01*
X103553093Y-112050580D01*
X103549823Y-112060828D01*
X103546574Y-112071075D01*
X103543343Y-112081329D01*
X103540134Y-112091581D01*
X103536944Y-112101842D01*
X103533774Y-112112101D01*
X103530624Y-112122369D01*
X103527494Y-112132634D01*
X103524384Y-112142908D01*
X103521294Y-112153181D01*
X103518223Y-112163462D01*
X103515173Y-112173741D01*
X103512142Y-112184028D01*
X103509132Y-112194315D01*
X103506140Y-112204609D01*
X103503169Y-112214903D01*
X103500217Y-112225205D01*
X103497286Y-112235505D01*
X103494374Y-112245814D01*
X103491483Y-112256122D01*
X103488610Y-112266439D01*
X103485758Y-112276754D01*
X103482924Y-112287078D01*
X103480112Y-112297401D01*
X103477318Y-112307733D01*
X103474544Y-112318063D01*
X103471790Y-112328402D01*
X103469056Y-112338741D01*
X103466341Y-112349088D01*
X103463646Y-112359435D01*
X103460970Y-112369790D01*
X103456156Y-112388623D01*
D11*
X116678174Y-111300000D02*
X125900000Y-111300000D01*
D10*
X106989152Y-107585016D02*
X106961053Y-107614766D01*
X106932599Y-107644776D01*
X106903779Y-107675057D01*
X106874580Y-107705621D01*
X106844988Y-107736480D01*
X106814990Y-107767648D01*
X106784569Y-107799141D01*
X106753710Y-107830973D01*
X106722393Y-107863162D01*
X106690600Y-107895727D01*
X106658309Y-107928689D01*
X106625496Y-107962069D01*
X106592136Y-107995892D01*
X106558201Y-108030186D01*
X106523659Y-108064981D01*
X106488475Y-108100309D01*
X106452611Y-108136207D01*
X106416022Y-108172719D01*
X106378661Y-108209890D01*
X106340469Y-108247775D01*
X106301384Y-108286435D01*
X106261330Y-108325942D01*
X106220221Y-108366378D01*
X106177955Y-108407842D01*
X106134410Y-108450451D01*
X106089436Y-108494347D01*
X106042852Y-108539705D01*
X105994427Y-108586745D01*
X105976941Y-108603706D01*
D11*
X143437041Y-105744301D02*
X143068409Y-104925487D01*
D10*
X139185016Y-75389152D02*
X139214766Y-75361053D01*
X139244776Y-75332599D01*
X139275057Y-75303779D01*
X139305621Y-75274580D01*
X139336480Y-75244988D01*
X139367648Y-75214990D01*
X139399141Y-75184569D01*
X139430973Y-75153710D01*
X139463162Y-75122393D01*
X139495727Y-75090600D01*
X139528689Y-75058309D01*
X139562069Y-75025496D01*
X139595892Y-74992136D01*
X139630186Y-74958201D01*
X139664981Y-74923659D01*
X139700309Y-74888475D01*
X139736207Y-74852611D01*
X139772719Y-74816022D01*
X139809890Y-74778661D01*
X139847775Y-74740469D01*
X139886435Y-74701384D01*
X139925942Y-74661330D01*
X139966378Y-74620221D01*
X140007842Y-74577955D01*
X140050451Y-74534410D01*
X140094347Y-74489436D01*
X140139705Y-74442852D01*
X140186745Y-74394427D01*
X140203706Y-74376941D01*
D11*
X104391614Y-110347919D02*
X103937041Y-111127524D01*
X105976941Y-108603706D02*
X105310848Y-109286809D01*
X138487774Y-112575747D02*
X139185017Y-113210847D01*
D10*
X144810848Y-107585016D02*
X144838947Y-107614766D01*
X144867401Y-107644776D01*
X144896221Y-107675057D01*
X144925420Y-107705621D01*
X144955012Y-107736480D01*
X144985010Y-107767648D01*
X145015431Y-107799141D01*
X145046290Y-107830973D01*
X145077607Y-107863162D01*
X145109400Y-107895727D01*
X145141691Y-107928689D01*
X145174504Y-107962069D01*
X145207864Y-107995892D01*
X145241799Y-108030186D01*
X145276341Y-108064981D01*
X145311525Y-108100309D01*
X145347389Y-108136207D01*
X145383978Y-108172719D01*
X145421339Y-108209890D01*
X145459531Y-108247775D01*
X145498616Y-108286435D01*
X145538670Y-108325942D01*
X145579779Y-108366378D01*
X145622045Y-108407842D01*
X145665590Y-108450451D01*
X145710564Y-108494347D01*
X145757148Y-108539705D01*
X145805573Y-108586745D01*
X145823059Y-108603706D01*
D11*
X108731591Y-104925487D02*
X108362959Y-105744301D01*
X103400000Y-75250000D02*
X103456156Y-76211377D01*
D10*
X108362959Y-82855699D02*
X108352543Y-82835562D01*
X108342038Y-82815427D01*
X108331444Y-82795292D01*
X108320760Y-82775159D01*
X108309985Y-82755026D01*
X108299120Y-82734894D01*
X108288164Y-82714762D01*
X108277118Y-82694630D01*
X108265979Y-82674497D01*
X108254750Y-82654364D01*
X108243428Y-82634230D01*
X108232014Y-82614095D01*
X108220507Y-82593958D01*
X108208907Y-82573820D01*
X108197214Y-82553680D01*
X108185427Y-82533538D01*
X108173546Y-82513393D01*
X108161570Y-82493246D01*
X108149500Y-82473095D01*
X108137335Y-82452942D01*
X108125074Y-82432785D01*
X108112718Y-82412624D01*
X108100265Y-82392459D01*
X108087715Y-82372290D01*
X108075069Y-82352116D01*
X108062325Y-82331938D01*
X108049483Y-82311754D01*
X108036543Y-82291565D01*
X108023505Y-82271370D01*
X108010367Y-82251169D01*
X107997130Y-82230962D01*
X107983794Y-82210748D01*
X107970357Y-82190528D01*
X107956819Y-82170300D01*
X107943180Y-82150065D01*
X107929439Y-82129822D01*
X107915597Y-82109572D01*
X107901652Y-82089313D01*
X107887603Y-82069045D01*
X107873452Y-82048768D01*
X107859196Y-82028482D01*
X107844837Y-82008187D01*
X107830372Y-81987882D01*
X107815802Y-81967567D01*
X107801126Y-81947241D01*
X107786344Y-81926904D01*
X107771454Y-81906557D01*
X107756458Y-81886198D01*
X107741353Y-81865827D01*
X107726140Y-81845444D01*
X107710818Y-81825049D01*
X107695387Y-81804641D01*
X107679845Y-81784220D01*
X107664193Y-81763786D01*
X107648429Y-81743338D01*
X107632554Y-81722875D01*
X107624252Y-81712226D01*
X146489152Y-79313191D02*
X146461052Y-79342942D01*
X146432597Y-79372954D01*
X146403775Y-79403236D01*
X146374575Y-79433801D01*
X146344982Y-79464661D01*
X146314982Y-79495831D01*
X146284561Y-79527324D01*
X146253700Y-79559157D01*
X146222382Y-79591348D01*
X146190588Y-79623914D01*
X146158296Y-79656877D01*
X146125482Y-79690258D01*
X146092121Y-79724083D01*
X146058185Y-79758378D01*
X146023641Y-79793173D01*
X145988457Y-79828502D01*
X145952591Y-79864402D01*
X145916002Y-79900914D01*
X145878639Y-79938086D01*
X145840447Y-79975972D01*
X145801361Y-80014632D01*
X145761307Y-80054139D01*
X145720198Y-80094576D01*
X145677932Y-80136040D01*
X145634387Y-80178649D01*
X145589414Y-80222544D01*
X145542830Y-80267901D01*
X145494407Y-80314940D01*
X145476941Y-80331881D01*
D11*
X142727524Y-72337041D02*
X141947919Y-72791614D01*
D10*
X110913191Y-73710848D02*
X110942942Y-73738948D01*
X110972954Y-73767403D01*
X111003236Y-73796225D01*
X111033801Y-73825425D01*
X111064661Y-73855018D01*
X111095831Y-73885018D01*
X111127324Y-73915439D01*
X111159157Y-73946300D01*
X111191348Y-73977618D01*
X111223914Y-74009412D01*
X111256877Y-74041704D01*
X111290258Y-74074518D01*
X111324083Y-74107879D01*
X111358378Y-74141815D01*
X111393173Y-74176359D01*
X111428502Y-74211543D01*
X111464402Y-74247409D01*
X111500914Y-74283998D01*
X111538086Y-74321361D01*
X111575972Y-74359553D01*
X111614632Y-74398639D01*
X111654139Y-74438693D01*
X111694576Y-74479802D01*
X111736040Y-74522068D01*
X111778649Y-74565613D01*
X111822544Y-74610586D01*
X111867901Y-74657170D01*
X111914940Y-74705593D01*
X111931881Y-74723059D01*
X140886809Y-73710848D02*
X140901698Y-73696827D01*
X140916595Y-73682825D01*
X140931358Y-73668978D01*
X140946129Y-73655150D01*
X140960771Y-73641471D01*
X140975421Y-73627811D01*
X140989947Y-73614296D01*
X141004481Y-73600800D01*
X141018895Y-73587443D01*
X141033317Y-73574106D01*
X141047623Y-73560903D01*
X141061937Y-73547721D01*
X141076139Y-73534669D01*
X141090350Y-73521636D01*
X141104452Y-73508731D01*
X141118562Y-73495845D01*
X141132567Y-73483082D01*
X141146581Y-73470339D01*
X141160493Y-73457716D01*
X141174413Y-73445112D01*
X141188234Y-73432625D01*
X141202064Y-73420157D01*
X141215798Y-73407803D01*
X141229541Y-73395468D01*
X141243190Y-73383244D01*
X141256848Y-73371039D01*
X141270415Y-73358942D01*
X141283991Y-73346865D01*
X141297479Y-73334892D01*
X141310976Y-73322939D01*
X141324387Y-73311088D01*
X141337807Y-73299257D01*
X141351143Y-73287525D01*
X141364488Y-73275813D01*
X141377752Y-73264199D01*
X141391025Y-73252604D01*
X141404218Y-73241105D01*
X141417420Y-73229624D01*
X141430546Y-73218238D01*
X141443680Y-73206870D01*
X141456739Y-73195594D01*
X141469806Y-73184337D01*
X141482800Y-73173170D01*
X141495803Y-73162021D01*
X141508735Y-73150961D01*
X141521675Y-73139919D01*
X141534546Y-73128963D01*
X141547425Y-73118027D01*
X141560236Y-73107174D01*
X141573056Y-73096340D01*
X141585809Y-73085589D01*
X141598571Y-73074857D01*
X141611268Y-73064206D01*
X141623974Y-73053574D01*
X141636616Y-73043021D01*
X141649267Y-73032487D01*
X141661855Y-73022030D01*
X141674452Y-73011593D01*
X141686989Y-73001232D01*
X141699534Y-72990890D01*
X141712020Y-72980624D01*
X141724514Y-72970376D01*
X141736950Y-72960201D01*
X141749395Y-72950046D01*
X141761783Y-72939963D01*
X141774180Y-72929898D01*
X141786520Y-72919905D01*
X141798870Y-72909931D01*
X141811164Y-72900027D01*
X141823468Y-72890141D01*
X141835717Y-72880325D01*
X141847976Y-72870527D01*
X141860182Y-72860797D01*
X141872396Y-72851085D01*
X141884559Y-72841440D01*
X141896731Y-72831814D01*
X141908852Y-72822253D01*
X141920982Y-72812712D01*
X141933063Y-72803234D01*
X141945152Y-72793775D01*
X141947919Y-72791614D01*
X103937041Y-77472476D02*
X103931860Y-77462395D01*
X103926698Y-77452306D01*
X103921562Y-77442224D01*
X103916444Y-77432134D01*
X103911353Y-77422051D01*
X103906279Y-77411960D01*
X103901232Y-77401876D01*
X103896203Y-77391784D01*
X103891200Y-77381699D01*
X103886215Y-77371605D01*
X103881256Y-77361519D01*
X103876315Y-77351424D01*
X103871399Y-77341336D01*
X103866502Y-77331240D01*
X103861631Y-77321151D01*
X103856777Y-77311053D01*
X103851949Y-77300961D01*
X103847140Y-77290862D01*
X103842355Y-77280769D01*
X103837589Y-77270668D01*
X103832848Y-77260573D01*
X103828125Y-77250469D01*
X103823427Y-77240372D01*
X103818747Y-77230267D01*
X103814092Y-77220167D01*
X103809456Y-77210060D01*
X103804844Y-77199958D01*
X103800250Y-77189848D01*
X103795681Y-77179744D01*
X103791131Y-77169632D01*
X103786604Y-77159525D01*
X103782096Y-77149410D01*
X103777613Y-77139301D01*
X103773148Y-77129183D01*
X103768706Y-77119071D01*
X103764284Y-77108950D01*
X103759885Y-77098835D01*
X103755505Y-77088712D01*
X103751148Y-77078594D01*
X103746810Y-77068467D01*
X103742496Y-77058346D01*
X103738200Y-77048216D01*
X103733928Y-77038092D01*
X103729674Y-77027959D01*
X103725444Y-77017831D01*
X103721232Y-77007694D01*
X103717044Y-76997563D01*
X103712874Y-76987423D01*
X103708728Y-76977287D01*
X103704600Y-76967144D01*
X103700495Y-76957005D01*
X103696409Y-76946857D01*
X103692346Y-76936714D01*
X103688301Y-76926563D01*
X103684279Y-76916416D01*
X103680276Y-76906261D01*
X103676295Y-76896110D01*
X103672334Y-76885950D01*
X103668395Y-76875795D01*
X103664474Y-76865631D01*
X103660576Y-76855471D01*
X103656697Y-76845303D01*
X103652840Y-76835139D01*
X103649002Y-76824966D01*
X103645187Y-76814798D01*
X103641389Y-76804620D01*
X103637615Y-76794447D01*
X103633859Y-76784265D01*
X103630125Y-76774086D01*
X103626410Y-76763900D01*
X103622717Y-76753716D01*
X103619042Y-76743524D01*
X103615390Y-76733336D01*
X103611756Y-76723139D01*
X103608145Y-76712945D01*
X103604551Y-76702743D01*
X103600981Y-76692544D01*
X103597428Y-76682336D01*
X103593898Y-76672132D01*
X103590385Y-76661919D01*
X103586895Y-76651709D01*
X103583424Y-76641490D01*
X103579974Y-76631274D01*
X103576543Y-76621050D01*
X103573133Y-76610829D01*
X103569742Y-76600599D01*
X103566373Y-76590371D01*
X103563022Y-76580135D01*
X103559693Y-76569901D01*
X103556382Y-76559659D01*
X103553093Y-76549420D01*
X103549823Y-76539172D01*
X103546574Y-76528925D01*
X103543343Y-76518671D01*
X103540134Y-76508419D01*
X103536944Y-76498158D01*
X103533774Y-76487899D01*
X103530624Y-76477631D01*
X103527494Y-76467366D01*
X103524384Y-76457092D01*
X103521294Y-76446819D01*
X103518223Y-76436538D01*
X103515173Y-76426259D01*
X103512142Y-76415972D01*
X103509132Y-76405685D01*
X103506140Y-76395391D01*
X103503169Y-76385097D01*
X103500217Y-76374795D01*
X103497286Y-76364495D01*
X103494374Y-76354186D01*
X103491483Y-76343878D01*
X103488610Y-76333561D01*
X103485758Y-76323246D01*
X103482924Y-76312922D01*
X103480112Y-76302599D01*
X103477318Y-76292267D01*
X103474544Y-76281937D01*
X103471790Y-76271598D01*
X103469056Y-76261259D01*
X103466341Y-76250912D01*
X103463646Y-76240565D01*
X103460970Y-76230210D01*
X103456156Y-76211377D01*
M02*
