G04 #@! TF.GenerationSoftware,KiCad,Pcbnew,9.0.7-9-ga3ce409f20*
G04 #@! TF.CreationDate,2026-03-03T19:35:03+08:00*
G04 #@! TF.ProjectId,SuperCap_Power,53757065-7243-4617-905f-506f7765722e,rev?*
G04 #@! TF.SameCoordinates,Original*
G04 #@! TF.FileFunction,Copper,L3,Inr*
G04 #@! TF.FilePolarity,Positive*
%FSLAX46Y46*%
G04 Gerber Fmt 4.6, Leading zero omitted, Abs format (unit mm)*
G04 Created by KiCad (PCBNEW 9.0.7-9-ga3ce409f20) date 2026-03-03 19:35:03*
%MOMM*%
%LPD*%
G01*
G04 APERTURE LIST*
G04 #@! TA.AperFunction,ComponentPad*
%ADD10C,1.600000*%
G04 #@! TD*
G04 #@! TA.AperFunction,ViaPad*
%ADD11C,0.500000*%
G04 #@! TD*
G04 #@! TA.AperFunction,ViaPad*
%ADD12C,0.600000*%
G04 #@! TD*
G04 #@! TA.AperFunction,Conductor*
%ADD13C,0.381000*%
G04 #@! TD*
G04 #@! TA.AperFunction,Conductor*
%ADD14C,0.508000*%
G04 #@! TD*
G04 #@! TA.AperFunction,Conductor*
%ADD15C,1.270000*%
G04 #@! TD*
G04 #@! TA.AperFunction,Conductor*
%ADD16C,0.200000*%
G04 #@! TD*
G04 #@! TA.AperFunction,Conductor*
%ADD17C,0.330200*%
G04 #@! TD*
G04 #@! TA.AperFunction,Conductor*
%ADD18C,0.889000*%
G04 #@! TD*
G04 #@! TA.AperFunction,Conductor*
%ADD19C,0.203200*%
G04 #@! TD*
G04 #@! TA.AperFunction,Conductor*
%ADD20C,0.762000*%
G04 #@! TD*
G04 #@! TA.AperFunction,Conductor*
%ADD21C,0.254000*%
G04 #@! TD*
G04 APERTURE END LIST*
D10*
G04 #@! TO.N,Vbside*
G04 #@! TO.C,C33*
X39500000Y-34250000D03*
G04 #@! TO.N,GND*
X43000000Y-34250000D03*
G04 #@! TD*
G04 #@! TO.N,Vaside*
G04 #@! TO.C,C24*
X7730000Y-11290000D03*
G04 #@! TO.N,GND*
X2730000Y-11290000D03*
G04 #@! TD*
D11*
G04 #@! TO.N,Vaside_in*
X1800000Y-25200000D03*
G04 #@! TO.N,+5V*
X21900000Y-15000000D03*
D12*
X20800000Y-14818000D03*
X21250000Y-15590000D03*
D11*
X29100000Y-30140000D03*
X29090000Y-30790000D03*
X21000000Y-28150003D03*
X20500000Y-27000000D03*
X21000000Y-27500000D03*
X20000000Y-27500000D03*
X20000000Y-28260000D03*
G04 #@! TO.N,VRefree*
X1800000Y-26000000D03*
G04 #@! TO.N,VREF*
X-2811449Y-20594954D03*
G04 #@! TO.N,+5V*
X-3511433Y-20600084D03*
D12*
G04 #@! TO.N,GND*
X-1000000Y-19000000D03*
X-2000000Y-19000000D03*
G04 #@! TO.N,iRefree*
X2300764Y-33352720D03*
X-880000Y-20830000D03*
D11*
G04 #@! TO.N,GND*
X9650000Y-4800000D03*
X9640000Y-3470000D03*
X9640000Y-4140000D03*
X37930000Y-40540000D03*
X37940000Y-41420000D03*
X37940000Y-42220000D03*
D12*
G04 #@! TO.N,ialpha*
X4549501Y-27899410D03*
D11*
G04 #@! TO.N,+12V*
X31150000Y-43150000D03*
X30475000Y-43245000D03*
X30920000Y-43690000D03*
G04 #@! TO.N,GND*
X1802762Y-30530000D03*
X1801762Y-31610000D03*
D12*
X29670000Y-11790000D03*
D11*
G04 #@! TO.N,Vbside*
X40025000Y-16207500D03*
X40025000Y-15600000D03*
D12*
X41000000Y-16000000D03*
X40490000Y-16672500D03*
G04 #@! TO.N,VPP*
X2370000Y-12930000D03*
X1740000Y-14320000D03*
G04 #@! TO.N,GND*
X37200000Y-9340000D03*
X28720000Y-18080000D03*
X29680000Y-17630002D03*
X29680000Y-18520000D03*
X30670000Y-17620000D03*
X26571495Y-15111224D03*
X25630000Y-15090000D03*
X24020000Y-10740000D03*
X23020000Y-11740000D03*
X25020000Y-11740000D03*
X23020000Y-10740000D03*
X24020000Y-11740000D03*
X25880000Y-9480000D03*
X25880000Y-7480000D03*
X26880000Y-9480000D03*
X24880000Y-8480000D03*
X26880000Y-8480000D03*
X24880000Y-7480000D03*
X25880000Y-8480000D03*
X26880000Y-7480000D03*
X27010000Y-6020000D03*
X25620000Y-6020000D03*
X14100000Y-1700000D03*
X13470000Y-2200000D03*
X34740000Y-29830000D03*
X36100000Y-29830000D03*
X32960000Y-28000000D03*
X34220000Y-28000000D03*
X34225000Y-28960000D03*
X32955000Y-28960000D03*
X24130000Y-21800000D03*
X25130000Y-21800000D03*
X25130000Y-20800000D03*
X24130000Y-20800000D03*
X23910000Y-24022500D03*
X26580000Y-26950000D03*
X24130000Y-19800000D03*
X24130000Y-17800000D03*
X25130000Y-19800000D03*
X23130000Y-18800000D03*
X25130000Y-18800000D03*
X23130000Y-17800000D03*
X24130000Y-18800000D03*
X25130000Y-17800000D03*
X15300000Y-15130000D03*
X14050000Y-15120000D03*
X15800000Y-28200000D03*
X16800000Y-28200000D03*
X15800000Y-27200000D03*
X17800000Y-27200000D03*
X15800000Y-26200000D03*
X16800000Y-27200000D03*
X5600000Y-34000000D03*
X7500000Y-37500000D03*
X8500000Y-37500000D03*
X7500000Y-36500000D03*
X9500000Y-36500000D03*
X8500000Y-36500000D03*
X13455000Y-43800000D03*
X19300000Y-40500000D03*
X18300000Y-41500000D03*
X18300000Y-40500000D03*
X19300000Y-41500000D03*
X20300000Y-40500000D03*
X15700000Y-35300000D03*
X26500000Y-33900000D03*
X27500000Y-33900000D03*
X26500000Y-32900000D03*
X28500000Y-32900000D03*
X27500000Y-32900000D03*
X42000000Y-17000000D03*
X43000000Y-17000000D03*
X43000000Y-15000000D03*
X42000000Y-16000000D03*
X42000000Y-15000000D03*
X43000000Y-16000000D03*
X41500000Y-9500000D03*
X41500000Y-7500000D03*
X42500000Y-9500000D03*
X42500000Y-8500000D03*
X40500000Y-7500000D03*
X41500000Y-8500000D03*
X42500000Y-7500000D03*
X38500000Y-2500000D03*
X38500000Y-1500000D03*
X19000000Y-3000000D03*
X19000000Y-1000000D03*
X20000000Y-3000000D03*
X18000000Y-2000000D03*
X20000000Y-2000000D03*
X18000000Y-1000000D03*
X19000000Y-2000000D03*
X20000000Y-1000000D03*
X2500000Y-18000000D03*
X5500000Y-19000000D03*
X0Y-17000000D03*
X3000000Y-37500000D03*
X4000000Y-37500000D03*
X4000000Y-35500000D03*
X5000000Y-37500000D03*
X3000000Y-36500000D03*
X5000000Y-36500000D03*
X4000000Y-36500000D03*
X7500000Y-40500000D03*
X8500000Y-40500000D03*
X8500000Y-38500000D03*
X7500000Y-39500000D03*
X7500000Y-38500000D03*
X8500000Y-39500000D03*
X38000000Y-43800000D03*
X32500000Y-43000000D03*
X34000000Y-43000000D03*
X34225000Y-43800000D03*
X32955000Y-43800000D03*
X27500000Y-37500000D03*
X27500000Y-38500000D03*
G04 #@! TO.N,VPP*
X40500000Y-9500000D03*
X25130000Y-26030000D03*
X39500000Y-9500000D03*
X1740000Y-13560000D03*
X25130000Y-26800000D03*
X24360000Y-26800000D03*
X40500000Y-8500000D03*
G04 #@! TO.N,GND*
X44000000Y-26000000D03*
X42000000Y-26000000D03*
X-2000000Y-17000000D03*
X14740000Y-2210000D03*
X42000000Y-27000000D03*
X43000000Y-26000000D03*
X35000000Y-2000000D03*
X-1000000Y-18000000D03*
X-1000000Y-17000000D03*
X44000000Y-18000000D03*
X14060000Y-16890000D03*
X44000000Y-27000000D03*
X14725000Y-1160000D03*
X13455000Y-16000000D03*
X13460000Y-1160000D03*
X43000000Y-18000000D03*
X44000000Y-19000000D03*
X34000000Y-2000000D03*
X15000000Y-16000000D03*
X42000000Y-18000000D03*
X43000000Y-27000000D03*
X0Y-18000000D03*
X35495000Y-1160000D03*
X42000000Y-19000000D03*
X34225000Y-1160000D03*
X15490000Y-800000D03*
X43000000Y-19000000D03*
X-2000000Y-18000000D03*
G04 #@! TO.N,+5V*
X4600000Y-8200000D03*
X3600000Y-7300000D03*
X2600000Y-8200000D03*
X3600000Y-8200000D03*
X2600000Y-9300000D03*
X22200000Y-11300000D03*
X21600000Y-10800000D03*
X21600000Y-11785500D03*
G04 #@! TO.N,+12V*
X28844250Y-15100000D03*
X26500000Y-11440000D03*
X17000000Y-2400000D03*
X29341500Y-15570000D03*
X27540000Y-11440000D03*
X29900000Y-32900000D03*
X16400000Y-1800000D03*
X26700000Y-21700000D03*
X28844250Y-16100000D03*
X30897500Y-32900000D03*
X27540000Y-10400000D03*
X29844250Y-16100000D03*
X37500000Y-2200000D03*
X26700000Y-21000000D03*
X9800000Y-41900000D03*
X26000000Y-21000000D03*
X36700000Y-2200000D03*
X30897500Y-33597500D03*
X9800000Y-42700000D03*
X18200000Y-14900000D03*
X29844250Y-15100000D03*
X17000000Y-1800000D03*
X18900000Y-14900000D03*
G04 #@! TO.N,Vaside*
X6800000Y-30998400D03*
G04 #@! TO.N,Vbside*
X5700000Y-31600000D03*
X24881176Y-30881176D03*
G04 #@! TO.N,ibeta*
X18435000Y-30823674D03*
X5400000Y-28900000D03*
G04 #@! TO.N,igamma*
X5525000Y-32975000D03*
X27870000Y-28900000D03*
G04 #@! TO.N,ialpha*
X18004308Y-17516925D03*
G04 #@! TO.N,Vaside_in*
X1167684Y-23558713D03*
X1867685Y-23560374D03*
X-350000Y-23500000D03*
X467681Y-23558713D03*
G04 #@! TO.N,Abeta_sw*
X16410000Y-21485000D03*
X15610000Y-21485000D03*
G04 #@! TO.N,Aalpha_sw*
X16410000Y-6685000D03*
X15620000Y-6685000D03*
G04 #@! TO.N,iaside*
X4941496Y-30579411D03*
X3949501Y-14700000D03*
G04 #@! TO.N,Agamma_sw*
X11485000Y-38230000D03*
X12280000Y-38230000D03*
G04 #@! TO.N,VREF*
X2300000Y-35200000D03*
X26452947Y-30249999D03*
X17244258Y-14932258D03*
X17085000Y-32307426D03*
X3200000Y-15700000D03*
X2300000Y-34345761D03*
G04 #@! TO.N,Balpha_sw*
X36000000Y-6685000D03*
X36802500Y-6685000D03*
G04 #@! TO.N,Bbeta_sw*
X30480000Y-23500000D03*
X31335000Y-23500000D03*
G04 #@! TO.N,Bgamma_sw*
X31335000Y-38350000D03*
X30550000Y-38350000D03*
G04 #@! TO.N,Aalpha_H_Gate*
X10915000Y-8320000D03*
G04 #@! TO.N,Aalpha_L_Gate*
X10915000Y-1160000D03*
G04 #@! TO.N,Abeta_H_Gate*
X10915000Y-23160000D03*
G04 #@! TO.N,Abeta_L_Gate*
X10915000Y-16000000D03*
G04 #@! TO.N,Agamma_H_Gate*
X14725000Y-36640000D03*
G04 #@! TO.N,Agamma_L_Gate*
X14725000Y-43800000D03*
G04 #@! TO.N,Balpha_H_Gate*
X32955000Y-8320000D03*
G04 #@! TO.N,Balpha_L_Gate*
X32955000Y-1160000D03*
G04 #@! TO.N,Bbeta_H_Gate*
X36765000Y-21800000D03*
G04 #@! TO.N,Bbeta_L_Gate*
X36765000Y-28960000D03*
G04 #@! TO.N,Bgamma_H_Gate*
X36765000Y-36640000D03*
G04 #@! TO.N,Bgamma_L_Gate*
X36765000Y-43800000D03*
G04 #@! TO.N,GND*
X0Y-19000000D03*
X2190000Y-16100000D03*
G04 #@! TD*
D13*
G04 #@! TO.N,+5V*
X904000Y-9896000D02*
X2600000Y-8200000D01*
X-1000000Y-16000000D02*
X904000Y-14096000D01*
X-2000000Y-16000000D02*
X-1000000Y-16000000D01*
X-3500000Y-20588651D02*
X-3500000Y-17500000D01*
X-3511433Y-20600084D02*
X-3500000Y-20588651D01*
X904000Y-14096000D02*
X904000Y-9896000D01*
X-3500000Y-17500000D02*
X-2000000Y-16000000D01*
G04 #@! TO.N,VREF*
X-2275847Y-20000000D02*
X3200000Y-20000000D01*
X-2811449Y-20594954D02*
X-2811449Y-20535602D01*
X-2811449Y-20535602D02*
X-2275847Y-20000000D01*
D14*
G04 #@! TO.N,+5V*
X26909997Y-28150003D02*
X21000000Y-28150003D01*
X27610000Y-27450000D02*
X26909997Y-28150003D01*
X28460000Y-27450000D02*
X27610000Y-27450000D01*
X29090000Y-28080000D02*
X28460000Y-27450000D01*
X29090000Y-30150000D02*
X29090000Y-30790000D01*
X29100000Y-30140000D02*
X29090000Y-30150000D01*
X29090000Y-30130000D02*
X29090000Y-28080000D01*
X29100000Y-30140000D02*
X29090000Y-30130000D01*
D15*
X20000000Y-16560000D02*
X21250000Y-15310000D01*
X20000000Y-27500000D02*
X20000000Y-16560000D01*
D13*
G04 #@! TO.N,VREF*
X3200000Y-20000000D02*
X3200000Y-15700000D01*
D16*
G04 #@! TO.N,iRefree*
X-1500000Y-26480000D02*
X-1500000Y-21450000D01*
X-1500000Y-21450000D02*
X-880000Y-20830000D01*
X740000Y-28720000D02*
X-1500000Y-26480000D01*
X740000Y-31791956D02*
X740000Y-28720000D01*
X2300764Y-33352720D02*
X740000Y-31791956D01*
D17*
G04 #@! TO.N,VREF*
X24395520Y-32307426D02*
X26452947Y-30249999D01*
X16844181Y-32304181D02*
X16844181Y-32307426D01*
X5249092Y-32308900D02*
X16839462Y-32308900D01*
X16839462Y-32308900D02*
X16844181Y-32304181D01*
X2300000Y-35200000D02*
X2357992Y-35200000D01*
X2357992Y-35200000D02*
X5249092Y-32308900D01*
X16844181Y-32307426D02*
X24395520Y-32307426D01*
D13*
X3200000Y-33430000D02*
X3200000Y-20000000D01*
X2300000Y-34330000D02*
X3200000Y-33430000D01*
X2300000Y-34345761D02*
X2300000Y-34330000D01*
D14*
G04 #@! TO.N,+12V*
X29795000Y-42565000D02*
X30475000Y-43245000D01*
X30897500Y-33597500D02*
X29795000Y-34700000D01*
X30897500Y-32900000D02*
X30897500Y-33597500D01*
X29795000Y-34700000D02*
X29795000Y-42565000D01*
X30570000Y-43150000D02*
X30475000Y-43245000D01*
X31150000Y-43150000D02*
X30570000Y-43150000D01*
X31150000Y-43150000D02*
X31150000Y-43460000D01*
X31150000Y-43460000D02*
X30920000Y-43690000D01*
X30475000Y-43245000D02*
X30920000Y-43690000D01*
D18*
G04 #@! TO.N,VPP*
X2370000Y-12930000D02*
X34870000Y-12930000D01*
X34870000Y-12930000D02*
X35470000Y-13530000D01*
X35470000Y-15530000D02*
X35470000Y-14830000D01*
X25130000Y-25870000D02*
X35470000Y-15530000D01*
X25130000Y-26030000D02*
X25130000Y-25870000D01*
X40500000Y-9500000D02*
X39500000Y-9500000D01*
X40500000Y-8500000D02*
X40500000Y-9500000D01*
X35470000Y-13530000D02*
X40500000Y-8500000D01*
X35470000Y-14830000D02*
X35470000Y-13530000D01*
X2370000Y-14070000D02*
X2370000Y-12930000D01*
X2120000Y-14320000D02*
X2370000Y-14070000D01*
X1740000Y-14320000D02*
X2120000Y-14320000D01*
X1740000Y-13200000D02*
X1740000Y-13560000D01*
X2010000Y-12930000D02*
X1740000Y-13200000D01*
X2370000Y-12930000D02*
X2010000Y-12930000D01*
X1740000Y-13560000D02*
X1740000Y-14320000D01*
D19*
G04 #@! TO.N,ibeta*
X17383674Y-30823674D02*
X18435000Y-30823674D01*
X5989210Y-29400000D02*
X15960000Y-29400000D01*
X5563955Y-28974745D02*
X5989210Y-29400000D01*
X5474745Y-28974745D02*
X5563955Y-28974745D01*
X5400000Y-28900000D02*
X5474745Y-28974745D01*
X15960000Y-29400000D02*
X17383674Y-30823674D01*
D16*
G04 #@! TO.N,iaside*
X4100000Y-14700000D02*
X3949501Y-14700000D01*
X3949501Y-14850499D02*
X4100000Y-14700000D01*
X3949501Y-29619501D02*
X3949501Y-14850499D01*
X4941496Y-30579411D02*
X4941263Y-30579411D01*
X4941263Y-30579411D02*
X4711852Y-30350000D01*
X4711852Y-30350000D02*
X4680000Y-30350000D01*
X4680000Y-30350000D02*
X3949501Y-29619501D01*
D19*
G04 #@! TO.N,Vbside*
X24718824Y-30881176D02*
X24881176Y-30881176D01*
X5700000Y-31600000D02*
X24000000Y-31600000D01*
X5500000Y-31600000D02*
X5700000Y-31600000D01*
X24000000Y-31600000D02*
X24718824Y-30881176D01*
D14*
G04 #@! TO.N,+12V*
X13500000Y-42700000D02*
X20100000Y-42700000D01*
D18*
G04 #@! TO.N,VPP*
X25130000Y-26030000D02*
X25130000Y-26750000D01*
X24360000Y-26800000D02*
X25130000Y-26800000D01*
X24360000Y-26800000D02*
X25130000Y-26030000D01*
D20*
G04 #@! TO.N,+5V*
X4600000Y-8200000D02*
X5700000Y-9300000D01*
X4200000Y-9300000D02*
X3500000Y-9300000D01*
X5000000Y-9300000D02*
X4200000Y-9300000D01*
X2600000Y-8200000D02*
X4600000Y-8200000D01*
X2600000Y-8200000D02*
X3700000Y-9300000D01*
X4600000Y-8900000D02*
X5000000Y-9300000D01*
X3700000Y-9300000D02*
X4200000Y-9300000D01*
X3600000Y-7300000D02*
X3700000Y-7300000D01*
X3600000Y-8200000D02*
X3600000Y-7300000D01*
X3500000Y-7300000D02*
X2600000Y-8200000D01*
X20100000Y-9300000D02*
X5700000Y-9300000D01*
X3700000Y-7300000D02*
X4600000Y-8200000D01*
X3600000Y-8200000D02*
X4200000Y-8800000D01*
X3600000Y-7300000D02*
X3500000Y-7300000D01*
D14*
X3500000Y-9300000D02*
X2600000Y-9300000D01*
D20*
X5700000Y-9300000D02*
X5000000Y-9300000D01*
X4600000Y-8200000D02*
X4600000Y-8900000D01*
D14*
X21600000Y-10800000D02*
X21600000Y-11785500D01*
D20*
X4200000Y-8800000D02*
X4200000Y-9300000D01*
X21600000Y-10800000D02*
X20100000Y-9300000D01*
D14*
G04 #@! TO.N,+12V*
X28844250Y-15100000D02*
X29844250Y-15100000D01*
X27900000Y-10400000D02*
X35400000Y-2900000D01*
X16400000Y-1800000D02*
X17000000Y-2400000D01*
X36700000Y-2200000D02*
X37500000Y-2200000D01*
X18700000Y-14700000D02*
X18700000Y-14275155D01*
D15*
X26700000Y-18244250D02*
X28844250Y-16100000D01*
D14*
X27540000Y-11440000D02*
X25940000Y-11440000D01*
X28844250Y-15100000D02*
X29844250Y-16100000D01*
X27808250Y-14064000D02*
X18911155Y-14064000D01*
X20100000Y-42700000D02*
X29900000Y-32900000D01*
X25940000Y-11440000D02*
X17000000Y-2500000D01*
D20*
X26700000Y-21000000D02*
X26700000Y-21700000D01*
D15*
X26700000Y-20300000D02*
X26700000Y-18244250D01*
D14*
X29844250Y-15100000D02*
X29844250Y-16100000D01*
X11300000Y-42700000D02*
X13500000Y-42700000D01*
X37500000Y-2200000D02*
X37400000Y-2200000D01*
D20*
X26000000Y-21000000D02*
X26700000Y-20300000D01*
D14*
X17000000Y-2500000D02*
X17000000Y-2400000D01*
X18200000Y-14775155D02*
X18200000Y-14900000D01*
X16400000Y-1800000D02*
X17000000Y-1800000D01*
X18911155Y-14064000D02*
X18200000Y-14775155D01*
X35400000Y-2900000D02*
X36000000Y-2900000D01*
X36000000Y-2900000D02*
X36700000Y-2200000D01*
X27540000Y-10400000D02*
X27900000Y-10400000D01*
X18700000Y-14275155D02*
X18911155Y-14064000D01*
X29844250Y-15100000D02*
X28844250Y-16100000D01*
X28844250Y-16100000D02*
X28844250Y-15100000D01*
D18*
X27540000Y-11440000D02*
X26500000Y-11440000D01*
D20*
X26000000Y-21000000D02*
X26700000Y-21000000D01*
D14*
X17000000Y-2400000D02*
X17000000Y-1800000D01*
X29844250Y-16100000D02*
X28844250Y-16100000D01*
X10000000Y-42700000D02*
X11300000Y-42700000D01*
X18900000Y-14900000D02*
X18700000Y-14700000D01*
D15*
X26700000Y-21700000D02*
X26700000Y-20300000D01*
D14*
X36100000Y-2200000D02*
X35400000Y-2900000D01*
X11300000Y-42700000D02*
X10600000Y-42700000D01*
X36700000Y-2200000D02*
X36100000Y-2200000D01*
X36700000Y-2900000D02*
X36000000Y-2900000D01*
X28844250Y-15100000D02*
X27808250Y-14064000D01*
X37400000Y-2200000D02*
X36700000Y-2900000D01*
D20*
X26700000Y-21700000D02*
X26000000Y-21000000D01*
D18*
X26500000Y-11440000D02*
X27540000Y-10400000D01*
D14*
X10600000Y-42700000D02*
X9800000Y-41900000D01*
D18*
X27540000Y-10400000D02*
X27540000Y-11440000D01*
D19*
G04 #@! TO.N,igamma*
X27870000Y-30230000D02*
X27870000Y-28900000D01*
X5525000Y-32975000D02*
X6830000Y-34280000D01*
X6830000Y-34280000D02*
X23820000Y-34280000D01*
X23820000Y-34280000D02*
X27870000Y-30230000D01*
D21*
G04 #@! TO.N,VREF*
X3194501Y-14387268D02*
X3636769Y-13945000D01*
X15845000Y-13945000D02*
X16257000Y-13945000D01*
X3636769Y-13945000D02*
X15845000Y-13945000D01*
X3200000Y-15700000D02*
X3194501Y-15694501D01*
X3194501Y-15694501D02*
X3194501Y-14387268D01*
X16257000Y-13945000D02*
X17244258Y-14932258D01*
D19*
G04 #@! TO.N,ialpha*
X17321233Y-18200000D02*
X18004308Y-17516925D01*
X14540000Y-18200000D02*
X17321233Y-18200000D01*
X4558516Y-27890395D02*
X4849605Y-27890395D01*
X4849605Y-27890395D02*
X14540000Y-18200000D01*
X4549501Y-27899410D02*
X4558516Y-27890395D01*
D20*
G04 #@! TO.N,VREF*
X2300000Y-34345761D02*
X2300000Y-35200000D01*
G04 #@! TD*
G04 #@! TA.AperFunction,Conductor*
G04 #@! TO.N,+5V*
G36*
X21173039Y-26579685D02*
G01*
X21218794Y-26632489D01*
X21230000Y-26684000D01*
X21230000Y-28248638D01*
X21210315Y-28315677D01*
X21193681Y-28336319D01*
X20276319Y-29253681D01*
X20214996Y-29287166D01*
X20188638Y-29290000D01*
X19544000Y-29290000D01*
X19476961Y-29270315D01*
X19431206Y-29217511D01*
X19420000Y-29166000D01*
X19420000Y-26684000D01*
X19439685Y-26616961D01*
X19492489Y-26571206D01*
X19544000Y-26560000D01*
X21106000Y-26560000D01*
X21173039Y-26579685D01*
G37*
G04 #@! TD.AperFunction*
G04 #@! TD*
G04 #@! TA.AperFunction,Conductor*
G04 #@! TO.N,+5V*
G36*
X22115677Y-10519685D02*
G01*
X22136319Y-10536319D01*
X22466878Y-10866878D01*
X22498971Y-10922464D01*
X22507014Y-10952481D01*
X22507015Y-10952484D01*
X22507016Y-10952485D01*
X22579491Y-11078015D01*
X22579492Y-11078016D01*
X22583387Y-11084762D01*
X22587537Y-11100251D01*
X22594977Y-11111828D01*
X22600000Y-11146763D01*
X22600000Y-11333235D01*
X22583386Y-11395237D01*
X22562346Y-11431678D01*
X22542641Y-11457357D01*
X21936319Y-12063681D01*
X21874996Y-12097166D01*
X21848638Y-12100000D01*
X21424000Y-12100000D01*
X21356961Y-12080315D01*
X21311206Y-12027511D01*
X21300000Y-11976000D01*
X21300000Y-10624000D01*
X21319685Y-10556961D01*
X21372489Y-10511206D01*
X21424000Y-10500000D01*
X22048638Y-10500000D01*
X22115677Y-10519685D01*
G37*
G04 #@! TD.AperFunction*
G04 #@! TD*
G04 #@! TA.AperFunction,Conductor*
G04 #@! TO.N,+12V*
G36*
X31143039Y-32619685D02*
G01*
X31188794Y-32672489D01*
X31200000Y-32724000D01*
X31200000Y-33776000D01*
X31180315Y-33843039D01*
X31127511Y-33888794D01*
X31076000Y-33900000D01*
X30451362Y-33900000D01*
X30384323Y-33880315D01*
X30363681Y-33863681D01*
X29636319Y-33136319D01*
X29602834Y-33074996D01*
X29600000Y-33048638D01*
X29600000Y-32724000D01*
X29619685Y-32656961D01*
X29672489Y-32611206D01*
X29724000Y-32600000D01*
X31076000Y-32600000D01*
X31143039Y-32619685D01*
G37*
G04 #@! TD.AperFunction*
G04 #@! TD*
G04 #@! TA.AperFunction,Conductor*
G04 #@! TO.N,+5V*
G36*
X21943039Y-14619685D02*
G01*
X21988794Y-14672489D01*
X22000000Y-14724000D01*
X22000000Y-15648638D01*
X21980315Y-15715677D01*
X21963681Y-15736319D01*
X21636319Y-16063681D01*
X21609391Y-16078384D01*
X21583573Y-16094977D01*
X21577372Y-16095868D01*
X21574996Y-16097166D01*
X21548638Y-16100000D01*
X21351362Y-16100000D01*
X21284323Y-16080315D01*
X21263681Y-16063681D01*
X20387681Y-15187681D01*
X20354196Y-15126358D01*
X20359180Y-15056666D01*
X20387681Y-15012319D01*
X20763681Y-14636319D01*
X20825004Y-14602834D01*
X20851362Y-14600000D01*
X21876000Y-14600000D01*
X21943039Y-14619685D01*
G37*
G04 #@! TD.AperFunction*
G04 #@! TD*
G04 #@! TA.AperFunction,Conductor*
G04 #@! TO.N,+5V*
G36*
X4015677Y-7019685D02*
G01*
X4036319Y-7036319D01*
X4863681Y-7863681D01*
X4897166Y-7925004D01*
X4900000Y-7951362D01*
X4900000Y-9376000D01*
X4880315Y-9443039D01*
X4827511Y-9488794D01*
X4776000Y-9500000D01*
X2424000Y-9500000D01*
X2356961Y-9480315D01*
X2311206Y-9427511D01*
X2300000Y-9376000D01*
X2300000Y-8051362D01*
X2319685Y-7984323D01*
X2336319Y-7963681D01*
X3263681Y-7036319D01*
X3325004Y-7002834D01*
X3351362Y-7000000D01*
X3948638Y-7000000D01*
X4015677Y-7019685D01*
G37*
G04 #@! TD.AperFunction*
G04 #@! TD*
G04 #@! TA.AperFunction,Conductor*
G04 #@! TO.N,GND*
G36*
X41551745Y-500598D02*
G01*
X41876740Y-518849D01*
X41883697Y-519633D01*
X42202878Y-573864D01*
X42209690Y-575419D01*
X42481030Y-653591D01*
X42520784Y-665044D01*
X42527386Y-667353D01*
X42826528Y-791261D01*
X42832800Y-794283D01*
X43116158Y-950890D01*
X43122084Y-954613D01*
X43386119Y-1141957D01*
X43391599Y-1146326D01*
X43632993Y-1362050D01*
X43637949Y-1367006D01*
X43853673Y-1608400D01*
X43858042Y-1613880D01*
X44045386Y-1877915D01*
X44049112Y-1883846D01*
X44187428Y-2134109D01*
X44205709Y-2167185D01*
X44208741Y-2173478D01*
X44332641Y-2472599D01*
X44334955Y-2479215D01*
X44424577Y-2790298D01*
X44426137Y-2797131D01*
X44480365Y-3116298D01*
X44481150Y-3123262D01*
X44499402Y-3448253D01*
X44499500Y-3451758D01*
X44499500Y-41548241D01*
X44499402Y-41551746D01*
X44481150Y-41876737D01*
X44480365Y-41883701D01*
X44426137Y-42202868D01*
X44424577Y-42209701D01*
X44334955Y-42520784D01*
X44332641Y-42527400D01*
X44208744Y-42826514D01*
X44205709Y-42832814D01*
X44049115Y-43116149D01*
X44045386Y-43122084D01*
X43858042Y-43386119D01*
X43853673Y-43391599D01*
X43637949Y-43632993D01*
X43632993Y-43637949D01*
X43391599Y-43853673D01*
X43386119Y-43858042D01*
X43122084Y-44045386D01*
X43116149Y-44049115D01*
X42832814Y-44205709D01*
X42826514Y-44208744D01*
X42604996Y-44300500D01*
X42527400Y-44332641D01*
X42520784Y-44334955D01*
X42209701Y-44424577D01*
X42202868Y-44426137D01*
X41883701Y-44480365D01*
X41876737Y-44481150D01*
X41576063Y-44498036D01*
X41551744Y-44499402D01*
X41548241Y-44499500D01*
X3451759Y-44499500D01*
X3448255Y-44499402D01*
X3421891Y-44497921D01*
X3123262Y-44481150D01*
X3116298Y-44480365D01*
X2797131Y-44426137D01*
X2790298Y-44424577D01*
X2479215Y-44334955D01*
X2472603Y-44332642D01*
X2173478Y-44208741D01*
X2167191Y-44205712D01*
X1883846Y-44049112D01*
X1877915Y-44045386D01*
X1613880Y-43858042D01*
X1608400Y-43853672D01*
X1522174Y-43776615D01*
X1522173Y-43776615D01*
X1474609Y-43734109D01*
X14224500Y-43734109D01*
X14224500Y-43865890D01*
X14224501Y-43865898D01*
X14258606Y-43993182D01*
X14258607Y-43993185D01*
X14258608Y-43993186D01*
X14306686Y-44076460D01*
X14324501Y-44107315D01*
X14324504Y-44107319D01*
X14417680Y-44200495D01*
X14417684Y-44200498D01*
X14417686Y-44200500D01*
X14531814Y-44266392D01*
X14531817Y-44266393D01*
X14609712Y-44287264D01*
X14659108Y-44300500D01*
X14659109Y-44300500D01*
X14790891Y-44300500D01*
X14790892Y-44300500D01*
X14918186Y-44266392D01*
X15032314Y-44200500D01*
X15125500Y-44107314D01*
X15191392Y-43993186D01*
X15225500Y-43865892D01*
X15225500Y-43734108D01*
X15191392Y-43606814D01*
X15125500Y-43492686D01*
X15125498Y-43492684D01*
X15125495Y-43492680D01*
X15032319Y-43399504D01*
X15032315Y-43399501D01*
X15032314Y-43399500D01*
X14947442Y-43350499D01*
X14918185Y-43333607D01*
X14918182Y-43333606D01*
X14790898Y-43299501D01*
X14790893Y-43299500D01*
X14790892Y-43299500D01*
X14659108Y-43299500D01*
X14659107Y-43299500D01*
X14659101Y-43299501D01*
X14531817Y-43333606D01*
X14531814Y-43333607D01*
X14417684Y-43399501D01*
X14417680Y-43399504D01*
X14324504Y-43492680D01*
X14324501Y-43492684D01*
X14258607Y-43606814D01*
X14258606Y-43606817D01*
X14224501Y-43734101D01*
X14224500Y-43734109D01*
X1474609Y-43734109D01*
X1367006Y-43637949D01*
X1362050Y-43632993D01*
X1146326Y-43391599D01*
X1141957Y-43386119D01*
X954613Y-43122084D01*
X950890Y-43116158D01*
X794283Y-42832800D01*
X791261Y-42826528D01*
X667353Y-42527386D01*
X665044Y-42520784D01*
X646217Y-42455435D01*
X575419Y-42209690D01*
X573864Y-42202878D01*
X519633Y-41883697D01*
X518849Y-41876736D01*
X509306Y-41706814D01*
X500598Y-41551745D01*
X500500Y-41548241D01*
X500500Y-41378707D01*
X1649500Y-41378707D01*
X1649500Y-41621292D01*
X1681162Y-41861792D01*
X1681162Y-41861793D01*
X1743940Y-42096083D01*
X1743944Y-42096094D01*
X1836774Y-42320208D01*
X1836775Y-42320211D01*
X1958062Y-42530286D01*
X2084834Y-42695500D01*
X2105735Y-42722738D01*
X2277262Y-42894265D01*
X2469711Y-43041936D01*
X2679788Y-43163224D01*
X2903900Y-43256054D01*
X2903908Y-43256056D01*
X2903916Y-43256059D01*
X3138207Y-43318837D01*
X3138211Y-43318838D01*
X3378712Y-43350500D01*
X3378718Y-43350500D01*
X3621282Y-43350500D01*
X3621288Y-43350500D01*
X3861789Y-43318838D01*
X3861793Y-43318837D01*
X4096083Y-43256059D01*
X4096087Y-43256057D01*
X4096100Y-43256054D01*
X4320212Y-43163224D01*
X4530289Y-43041936D01*
X4722738Y-42894265D01*
X4894265Y-42722738D01*
X5041936Y-42530289D01*
X5163224Y-42320212D01*
X5256054Y-42096100D01*
X5256836Y-42093185D01*
X5318837Y-41861793D01*
X5318837Y-41861792D01*
X5318838Y-41861789D01*
X5322482Y-41834109D01*
X9299500Y-41834109D01*
X9299500Y-41965890D01*
X9299501Y-41965898D01*
X9333606Y-42093182D01*
X9333607Y-42093185D01*
X9399501Y-42207315D01*
X9399504Y-42207319D01*
X9447991Y-42255806D01*
X9466297Y-42300000D01*
X9447991Y-42344194D01*
X9399504Y-42392680D01*
X9399501Y-42392684D01*
X9333607Y-42506814D01*
X9333606Y-42506817D01*
X9299501Y-42634101D01*
X9299500Y-42634109D01*
X9299500Y-42765890D01*
X9299501Y-42765898D01*
X9333606Y-42893182D01*
X9333607Y-42893185D01*
X9333608Y-42893186D01*
X9380596Y-42974572D01*
X9399501Y-43007315D01*
X9399504Y-43007319D01*
X9492680Y-43100495D01*
X9492684Y-43100498D01*
X9492686Y-43100500D01*
X9589651Y-43156483D01*
X9606814Y-43166392D01*
X9606817Y-43166393D01*
X9684712Y-43187264D01*
X9734108Y-43200500D01*
X9734109Y-43200500D01*
X9865887Y-43200500D01*
X9865892Y-43200500D01*
X9865940Y-43200486D01*
X9866508Y-43200418D01*
X9869955Y-43199965D01*
X9869960Y-43200005D01*
X9881154Y-43198662D01*
X9881151Y-43198616D01*
X9882206Y-43198536D01*
X9883597Y-43198370D01*
X9884200Y-43198383D01*
X9884214Y-43198385D01*
X9884227Y-43198383D01*
X9884228Y-43198384D01*
X9937018Y-43194418D01*
X10398803Y-43159735D01*
X10398811Y-43159733D01*
X10411405Y-43156483D01*
X10427023Y-43154500D01*
X10536323Y-43154500D01*
X10536339Y-43154501D01*
X10540164Y-43154501D01*
X10663661Y-43154501D01*
X10663677Y-43154500D01*
X11240164Y-43154500D01*
X13440164Y-43154500D01*
X20036323Y-43154500D01*
X20036339Y-43154501D01*
X20040164Y-43154501D01*
X20159836Y-43154501D01*
X20251002Y-43130072D01*
X20251003Y-43130072D01*
X20275428Y-43123528D01*
X20275428Y-43123527D01*
X20275431Y-43123527D01*
X20379070Y-43063691D01*
X20463691Y-42979070D01*
X20463691Y-42979068D01*
X20468832Y-42973928D01*
X20468835Y-42973923D01*
X29746522Y-33696237D01*
X29790713Y-33677933D01*
X29834907Y-33696239D01*
X29951259Y-33812591D01*
X29969565Y-33856785D01*
X29951259Y-33900979D01*
X29515932Y-34336307D01*
X29515930Y-34336309D01*
X29431313Y-34420924D01*
X29431310Y-34420928D01*
X29371472Y-34524570D01*
X29366847Y-34541834D01*
X29366847Y-34541835D01*
X29340499Y-34640158D01*
X29340499Y-34764867D01*
X29340500Y-34764880D01*
X29340500Y-42501322D01*
X29340499Y-42501340D01*
X29340499Y-42624838D01*
X29357483Y-42688217D01*
X29357483Y-42688219D01*
X29371471Y-42740427D01*
X29371472Y-42740430D01*
X29371473Y-42740431D01*
X29424810Y-42832814D01*
X29431310Y-42844071D01*
X29431313Y-42844075D01*
X29519485Y-42932247D01*
X29519499Y-42932259D01*
X30111310Y-43524070D01*
X30640924Y-44053685D01*
X30640933Y-44053692D01*
X30744564Y-44113524D01*
X30744566Y-44113525D01*
X30744570Y-44113527D01*
X30807726Y-44130450D01*
X30860158Y-44144500D01*
X30860164Y-44144501D01*
X30979836Y-44144501D01*
X30979841Y-44144500D01*
X31009155Y-44136644D01*
X31095430Y-44113527D01*
X31199070Y-44053690D01*
X31283690Y-43969070D01*
X31423923Y-43828835D01*
X31423928Y-43828832D01*
X31429068Y-43823691D01*
X31429070Y-43823691D01*
X31513691Y-43739070D01*
X31516555Y-43734109D01*
X36264500Y-43734109D01*
X36264500Y-43865890D01*
X36264501Y-43865898D01*
X36298606Y-43993182D01*
X36298607Y-43993185D01*
X36298608Y-43993186D01*
X36346686Y-44076460D01*
X36364501Y-44107315D01*
X36364504Y-44107319D01*
X36457680Y-44200495D01*
X36457684Y-44200498D01*
X36457686Y-44200500D01*
X36571814Y-44266392D01*
X36571817Y-44266393D01*
X36649712Y-44287264D01*
X36699108Y-44300500D01*
X36699109Y-44300500D01*
X36830891Y-44300500D01*
X36830892Y-44300500D01*
X36958186Y-44266392D01*
X37072314Y-44200500D01*
X37165500Y-44107314D01*
X37231392Y-43993186D01*
X37265500Y-43865892D01*
X37265500Y-43734108D01*
X37231392Y-43606814D01*
X37165500Y-43492686D01*
X37165498Y-43492684D01*
X37165495Y-43492680D01*
X37072319Y-43399504D01*
X37072315Y-43399501D01*
X37072314Y-43399500D01*
X36987442Y-43350499D01*
X36958185Y-43333607D01*
X36958182Y-43333606D01*
X36830898Y-43299501D01*
X36830893Y-43299500D01*
X36830892Y-43299500D01*
X36699108Y-43299500D01*
X36699107Y-43299500D01*
X36699101Y-43299501D01*
X36571817Y-43333606D01*
X36571814Y-43333607D01*
X36457684Y-43399501D01*
X36457680Y-43399504D01*
X36364504Y-43492680D01*
X36364501Y-43492684D01*
X36298607Y-43606814D01*
X36298606Y-43606817D01*
X36264501Y-43734101D01*
X36264500Y-43734109D01*
X31516555Y-43734109D01*
X31573527Y-43635431D01*
X31596284Y-43550500D01*
X31604501Y-43519836D01*
X31604501Y-43400164D01*
X31604501Y-43396340D01*
X31604500Y-43396322D01*
X31604500Y-43090165D01*
X31604498Y-43090157D01*
X31573528Y-42974572D01*
X31573527Y-42974569D01*
X31547039Y-42928691D01*
X31513691Y-42870930D01*
X31513689Y-42870928D01*
X31513686Y-42870924D01*
X31429075Y-42786313D01*
X31429071Y-42786310D01*
X31429070Y-42786309D01*
X31349607Y-42740431D01*
X31325430Y-42726472D01*
X31325427Y-42726471D01*
X31209842Y-42695501D01*
X31209837Y-42695500D01*
X31209836Y-42695500D01*
X31209835Y-42695500D01*
X30594148Y-42695500D01*
X30549954Y-42677194D01*
X30267806Y-42395046D01*
X30249500Y-42350852D01*
X30249500Y-41378707D01*
X39649500Y-41378707D01*
X39649500Y-41621292D01*
X39681162Y-41861792D01*
X39681162Y-41861793D01*
X39743940Y-42096083D01*
X39743944Y-42096094D01*
X39836774Y-42320208D01*
X39836775Y-42320211D01*
X39958062Y-42530286D01*
X40084834Y-42695500D01*
X40105735Y-42722738D01*
X40277262Y-42894265D01*
X40469711Y-43041936D01*
X40679788Y-43163224D01*
X40903900Y-43256054D01*
X40903908Y-43256056D01*
X40903916Y-43256059D01*
X41138207Y-43318837D01*
X41138211Y-43318838D01*
X41378712Y-43350500D01*
X41378718Y-43350500D01*
X41621282Y-43350500D01*
X41621288Y-43350500D01*
X41861789Y-43318838D01*
X41861793Y-43318837D01*
X42096083Y-43256059D01*
X42096087Y-43256057D01*
X42096100Y-43256054D01*
X42320212Y-43163224D01*
X42530289Y-43041936D01*
X42722738Y-42894265D01*
X42894265Y-42722738D01*
X43041936Y-42530289D01*
X43163224Y-42320212D01*
X43256054Y-42096100D01*
X43256836Y-42093185D01*
X43318837Y-41861793D01*
X43318837Y-41861792D01*
X43318838Y-41861789D01*
X43350500Y-41621288D01*
X43350500Y-41378712D01*
X43318838Y-41138211D01*
X43318837Y-41138206D01*
X43256059Y-40903916D01*
X43256055Y-40903905D01*
X43256054Y-40903900D01*
X43163224Y-40679788D01*
X43041936Y-40469711D01*
X42894265Y-40277262D01*
X42722738Y-40105735D01*
X42722734Y-40105732D01*
X42722732Y-40105730D01*
X42530286Y-39958062D01*
X42320211Y-39836775D01*
X42320208Y-39836774D01*
X42227375Y-39798322D01*
X42096100Y-39743946D01*
X42096096Y-39743945D01*
X42096094Y-39743944D01*
X42096083Y-39743940D01*
X41861792Y-39681162D01*
X41621292Y-39649500D01*
X41621288Y-39649500D01*
X41378712Y-39649500D01*
X41378707Y-39649500D01*
X41138207Y-39681162D01*
X41138206Y-39681162D01*
X40903916Y-39743940D01*
X40903905Y-39743944D01*
X40679791Y-39836774D01*
X40679788Y-39836775D01*
X40469713Y-39958062D01*
X40277267Y-40105730D01*
X40277257Y-40105739D01*
X40105739Y-40277257D01*
X40105730Y-40277267D01*
X39958062Y-40469713D01*
X39836775Y-40679788D01*
X39836774Y-40679791D01*
X39743944Y-40903905D01*
X39743940Y-40903916D01*
X39681162Y-41138206D01*
X39681162Y-41138207D01*
X39649500Y-41378707D01*
X30249500Y-41378707D01*
X30249500Y-38862687D01*
X30267806Y-38818493D01*
X30312000Y-38800187D01*
X30343249Y-38808560D01*
X30356814Y-38816392D01*
X30356815Y-38816392D01*
X30356817Y-38816393D01*
X30434712Y-38837264D01*
X30484108Y-38850500D01*
X30484109Y-38850500D01*
X30615891Y-38850500D01*
X30615892Y-38850500D01*
X30743186Y-38816392D01*
X30857314Y-38750500D01*
X30898306Y-38709507D01*
X30942499Y-38691202D01*
X30986692Y-38709506D01*
X31027686Y-38750500D01*
X31141812Y-38816391D01*
X31141814Y-38816392D01*
X31141817Y-38816393D01*
X31219712Y-38837264D01*
X31269108Y-38850500D01*
X31269109Y-38850500D01*
X31400891Y-38850500D01*
X31400892Y-38850500D01*
X31528186Y-38816392D01*
X31642314Y-38750500D01*
X31735500Y-38657314D01*
X31801392Y-38543186D01*
X31835500Y-38415892D01*
X31835500Y-38284108D01*
X31803347Y-38164109D01*
X31801393Y-38156817D01*
X31801392Y-38156814D01*
X31735500Y-38042686D01*
X31735498Y-38042684D01*
X31735495Y-38042680D01*
X31642319Y-37949504D01*
X31642315Y-37949501D01*
X31642314Y-37949500D01*
X31528188Y-37883609D01*
X31528185Y-37883607D01*
X31528182Y-37883606D01*
X31400898Y-37849501D01*
X31400893Y-37849500D01*
X31400892Y-37849500D01*
X31269108Y-37849500D01*
X31269107Y-37849500D01*
X31269101Y-37849501D01*
X31141817Y-37883606D01*
X31141814Y-37883607D01*
X31027684Y-37949501D01*
X31027680Y-37949504D01*
X30986694Y-37990491D01*
X30942500Y-38008797D01*
X30898306Y-37990491D01*
X30857319Y-37949504D01*
X30857315Y-37949501D01*
X30857314Y-37949500D01*
X30743188Y-37883609D01*
X30743185Y-37883607D01*
X30743182Y-37883606D01*
X30615898Y-37849501D01*
X30615893Y-37849500D01*
X30615892Y-37849500D01*
X30484108Y-37849500D01*
X30484107Y-37849500D01*
X30484101Y-37849501D01*
X30356817Y-37883606D01*
X30356810Y-37883609D01*
X30343249Y-37891439D01*
X30295822Y-37897682D01*
X30257873Y-37868561D01*
X30249500Y-37837312D01*
X30249500Y-36574109D01*
X36264500Y-36574109D01*
X36264500Y-36705890D01*
X36264501Y-36705898D01*
X36298606Y-36833182D01*
X36298607Y-36833185D01*
X36364501Y-36947315D01*
X36364504Y-36947319D01*
X36457680Y-37040495D01*
X36457684Y-37040498D01*
X36457686Y-37040500D01*
X36571814Y-37106392D01*
X36571817Y-37106393D01*
X36649712Y-37127264D01*
X36699108Y-37140500D01*
X36699109Y-37140500D01*
X36830891Y-37140500D01*
X36830892Y-37140500D01*
X36958186Y-37106392D01*
X37072314Y-37040500D01*
X37165500Y-36947314D01*
X37231392Y-36833186D01*
X37265500Y-36705892D01*
X37265500Y-36574108D01*
X37231392Y-36446814D01*
X37165500Y-36332686D01*
X37165498Y-36332684D01*
X37165495Y-36332680D01*
X37072319Y-36239504D01*
X37072315Y-36239501D01*
X37072314Y-36239500D01*
X37015250Y-36206554D01*
X36958185Y-36173607D01*
X36958182Y-36173606D01*
X36830898Y-36139501D01*
X36830893Y-36139500D01*
X36830892Y-36139500D01*
X36699108Y-36139500D01*
X36699107Y-36139500D01*
X36699101Y-36139501D01*
X36571817Y-36173606D01*
X36571814Y-36173607D01*
X36457684Y-36239501D01*
X36457680Y-36239504D01*
X36364504Y-36332680D01*
X36364501Y-36332684D01*
X36298607Y-36446814D01*
X36298606Y-36446817D01*
X36264501Y-36574101D01*
X36264500Y-36574109D01*
X30249500Y-36574109D01*
X30249500Y-34914147D01*
X30267805Y-34869954D01*
X30776124Y-34361634D01*
X30789581Y-34351410D01*
X30799164Y-34346000D01*
X31003028Y-34170619D01*
X31043788Y-34155500D01*
X31075993Y-34155500D01*
X31076000Y-34155500D01*
X31113598Y-34151458D01*
X38499500Y-34151458D01*
X38499500Y-34348541D01*
X38537948Y-34541833D01*
X38537949Y-34541835D01*
X38613368Y-34723914D01*
X38722861Y-34887782D01*
X38862218Y-35027139D01*
X39026086Y-35136632D01*
X39208165Y-35212051D01*
X39401459Y-35250500D01*
X39598541Y-35250500D01*
X39791835Y-35212051D01*
X39973914Y-35136632D01*
X40137782Y-35027139D01*
X40277139Y-34887782D01*
X40386632Y-34723914D01*
X40462051Y-34541835D01*
X40500500Y-34348541D01*
X40500500Y-34151459D01*
X40462051Y-33958165D01*
X40386632Y-33776086D01*
X40277139Y-33612218D01*
X40137782Y-33472861D01*
X40098759Y-33446787D01*
X40052860Y-33416118D01*
X39973914Y-33363368D01*
X39833083Y-33305034D01*
X39791833Y-33287948D01*
X39598541Y-33249500D01*
X39401459Y-33249500D01*
X39208166Y-33287948D01*
X39026084Y-33363369D01*
X38862218Y-33472860D01*
X38722860Y-33612218D01*
X38613369Y-33776084D01*
X38613368Y-33776086D01*
X38602281Y-33802852D01*
X38537948Y-33958166D01*
X38499500Y-34151458D01*
X31113598Y-34151458D01*
X31130313Y-34149661D01*
X31181824Y-34138455D01*
X31208198Y-34131219D01*
X31294828Y-34081888D01*
X31347632Y-34036133D01*
X31379257Y-34003359D01*
X31425465Y-33915024D01*
X31445150Y-33847985D01*
X31455500Y-33776000D01*
X31455500Y-32724000D01*
X31449661Y-32669687D01*
X31438455Y-32618176D01*
X31431219Y-32591802D01*
X31381888Y-32505172D01*
X31336133Y-32452368D01*
X31303359Y-32420743D01*
X31303357Y-32420741D01*
X31303355Y-32420740D01*
X31215024Y-32374535D01*
X31147987Y-32354850D01*
X31076002Y-32344500D01*
X31076000Y-32344500D01*
X29724000Y-32344500D01*
X29723992Y-32344500D01*
X29669692Y-32350338D01*
X29618185Y-32361542D01*
X29591802Y-32368781D01*
X29505175Y-32418110D01*
X29505174Y-32418110D01*
X29505172Y-32418112D01*
X29502136Y-32420743D01*
X29452370Y-32463865D01*
X29420740Y-32496644D01*
X29374535Y-32584975D01*
X29354850Y-32652012D01*
X29344500Y-32723998D01*
X29344500Y-32750804D01*
X29329380Y-32791564D01*
X29151503Y-32998331D01*
X29151497Y-32998339D01*
X29144888Y-33009546D01*
X29135247Y-33021990D01*
X19930046Y-42227194D01*
X19885852Y-42245500D01*
X10814148Y-42245500D01*
X10769954Y-42227194D01*
X10564136Y-42021376D01*
X10553909Y-42007916D01*
X10548499Y-41998335D01*
X10548498Y-41998333D01*
X10548497Y-41998332D01*
X10224136Y-41621292D01*
X10211959Y-41607137D01*
X10211952Y-41607131D01*
X10210771Y-41605968D01*
X10203005Y-41595925D01*
X10202993Y-41595935D01*
X10200499Y-41592685D01*
X10107319Y-41499504D01*
X10107315Y-41499501D01*
X10107314Y-41499500D01*
X10050250Y-41466554D01*
X9993185Y-41433607D01*
X9993182Y-41433606D01*
X9865898Y-41399501D01*
X9865893Y-41399500D01*
X9865892Y-41399500D01*
X9734108Y-41399500D01*
X9734107Y-41399500D01*
X9734101Y-41399501D01*
X9606817Y-41433606D01*
X9606814Y-41433607D01*
X9492684Y-41499501D01*
X9492680Y-41499504D01*
X9399504Y-41592680D01*
X9399501Y-41592684D01*
X9333607Y-41706814D01*
X9333606Y-41706817D01*
X9299501Y-41834101D01*
X9299500Y-41834109D01*
X5322482Y-41834109D01*
X5350500Y-41621288D01*
X5350500Y-41378712D01*
X5318838Y-41138211D01*
X5318837Y-41138206D01*
X5256059Y-40903916D01*
X5256055Y-40903905D01*
X5256054Y-40903900D01*
X5163224Y-40679788D01*
X5041936Y-40469711D01*
X4894265Y-40277262D01*
X4722738Y-40105735D01*
X4722734Y-40105732D01*
X4722732Y-40105730D01*
X4530286Y-39958062D01*
X4320211Y-39836775D01*
X4320208Y-39836774D01*
X4227375Y-39798322D01*
X4096100Y-39743946D01*
X4096096Y-39743945D01*
X4096094Y-39743944D01*
X4096083Y-39743940D01*
X3861792Y-39681162D01*
X3621292Y-39649500D01*
X3621288Y-39649500D01*
X3378712Y-39649500D01*
X3378707Y-39649500D01*
X3138207Y-39681162D01*
X3138206Y-39681162D01*
X2903916Y-39743940D01*
X2903905Y-39743944D01*
X2679791Y-39836774D01*
X2679788Y-39836775D01*
X2469713Y-39958062D01*
X2277267Y-40105730D01*
X2277257Y-40105739D01*
X2105739Y-40277257D01*
X2105730Y-40277267D01*
X1958062Y-40469713D01*
X1836775Y-40679788D01*
X1836774Y-40679791D01*
X1743944Y-40903905D01*
X1743940Y-40903916D01*
X1681162Y-41138206D01*
X1681162Y-41138207D01*
X1649500Y-41378707D01*
X500500Y-41378707D01*
X500500Y-38164109D01*
X10984500Y-38164109D01*
X10984500Y-38295890D01*
X10984501Y-38295898D01*
X11018606Y-38423182D01*
X11018607Y-38423185D01*
X11084501Y-38537315D01*
X11084504Y-38537319D01*
X11177680Y-38630495D01*
X11177684Y-38630498D01*
X11177686Y-38630500D01*
X11282825Y-38691202D01*
X11291814Y-38696392D01*
X11291817Y-38696393D01*
X11340760Y-38709507D01*
X11419108Y-38730500D01*
X11419109Y-38730500D01*
X11550891Y-38730500D01*
X11550892Y-38730500D01*
X11678186Y-38696392D01*
X11792314Y-38630500D01*
X11838306Y-38584507D01*
X11882499Y-38566202D01*
X11926692Y-38584506D01*
X11972686Y-38630500D01*
X12077825Y-38691202D01*
X12086814Y-38696392D01*
X12086817Y-38696393D01*
X12135760Y-38709507D01*
X12214108Y-38730500D01*
X12214109Y-38730500D01*
X12345891Y-38730500D01*
X12345892Y-38730500D01*
X12473186Y-38696392D01*
X12587314Y-38630500D01*
X12680500Y-38537314D01*
X12746392Y-38423186D01*
X12780500Y-38295892D01*
X12780500Y-38164108D01*
X12767264Y-38114712D01*
X12746393Y-38036817D01*
X12746392Y-38036814D01*
X12695983Y-37949504D01*
X12680500Y-37922686D01*
X12680498Y-37922684D01*
X12680495Y-37922680D01*
X12587319Y-37829504D01*
X12587315Y-37829501D01*
X12587314Y-37829500D01*
X12530250Y-37796554D01*
X12473185Y-37763607D01*
X12473182Y-37763606D01*
X12345898Y-37729501D01*
X12345893Y-37729500D01*
X12345892Y-37729500D01*
X12214108Y-37729500D01*
X12214107Y-37729500D01*
X12214101Y-37729501D01*
X12086817Y-37763606D01*
X12086814Y-37763607D01*
X11972684Y-37829501D01*
X11972680Y-37829504D01*
X11926694Y-37875491D01*
X11882500Y-37893797D01*
X11838306Y-37875491D01*
X11792319Y-37829504D01*
X11792315Y-37829501D01*
X11792314Y-37829500D01*
X11735250Y-37796554D01*
X11678185Y-37763607D01*
X11678182Y-37763606D01*
X11550898Y-37729501D01*
X11550893Y-37729500D01*
X11550892Y-37729500D01*
X11419108Y-37729500D01*
X11419107Y-37729500D01*
X11419101Y-37729501D01*
X11291817Y-37763606D01*
X11291814Y-37763607D01*
X11177684Y-37829501D01*
X11177680Y-37829504D01*
X11084504Y-37922680D01*
X11084501Y-37922684D01*
X11018607Y-38036814D01*
X11018606Y-38036817D01*
X10984501Y-38164101D01*
X10984500Y-38164109D01*
X500500Y-38164109D01*
X500500Y-36574109D01*
X14224500Y-36574109D01*
X14224500Y-36705890D01*
X14224501Y-36705898D01*
X14258606Y-36833182D01*
X14258607Y-36833185D01*
X14324501Y-36947315D01*
X14324504Y-36947319D01*
X14417680Y-37040495D01*
X14417684Y-37040498D01*
X14417686Y-37040500D01*
X14531814Y-37106392D01*
X14531817Y-37106393D01*
X14609712Y-37127264D01*
X14659108Y-37140500D01*
X14659109Y-37140500D01*
X14790891Y-37140500D01*
X14790892Y-37140500D01*
X14918186Y-37106392D01*
X15032314Y-37040500D01*
X15125500Y-36947314D01*
X15191392Y-36833186D01*
X15225500Y-36705892D01*
X15225500Y-36574108D01*
X15191392Y-36446814D01*
X15125500Y-36332686D01*
X15125498Y-36332684D01*
X15125495Y-36332680D01*
X15032319Y-36239504D01*
X15032315Y-36239501D01*
X15032314Y-36239500D01*
X14975250Y-36206554D01*
X14918185Y-36173607D01*
X14918182Y-36173606D01*
X14790898Y-36139501D01*
X14790893Y-36139500D01*
X14790892Y-36139500D01*
X14659108Y-36139500D01*
X14659107Y-36139500D01*
X14659101Y-36139501D01*
X14531817Y-36173606D01*
X14531814Y-36173607D01*
X14417684Y-36239501D01*
X14417680Y-36239504D01*
X14324504Y-36332680D01*
X14324501Y-36332684D01*
X14258607Y-36446814D01*
X14258606Y-36446817D01*
X14224501Y-36574101D01*
X14224500Y-36574109D01*
X500500Y-36574109D01*
X500500Y-32128315D01*
X518806Y-32084121D01*
X563000Y-32065815D01*
X607194Y-32084121D01*
X1625043Y-33101970D01*
X1637461Y-33119681D01*
X1787960Y-33441392D01*
X1831046Y-33533493D01*
X1834372Y-33545906D01*
X1847446Y-33568551D01*
X1859431Y-33594170D01*
X1859439Y-33594187D01*
X1866446Y-33607815D01*
X1867283Y-33609305D01*
X1869069Y-33612418D01*
X1873732Y-33617383D01*
X1882299Y-33628918D01*
X1900264Y-33660034D01*
X1900268Y-33660038D01*
X1996347Y-33756117D01*
X1995119Y-33757344D01*
X2016090Y-33793663D01*
X2003712Y-33839869D01*
X1985375Y-33855950D01*
X1942953Y-33880442D01*
X1942944Y-33880449D01*
X1834688Y-33988705D01*
X1834685Y-33988709D01*
X1758127Y-34121310D01*
X1758126Y-34121313D01*
X1718501Y-34269198D01*
X1718500Y-34269206D01*
X1718500Y-35276554D01*
X1718501Y-35276562D01*
X1758126Y-35424447D01*
X1758127Y-35424450D01*
X1834685Y-35557051D01*
X1834688Y-35557055D01*
X1942944Y-35665311D01*
X1942948Y-35665314D01*
X1942950Y-35665316D01*
X2075549Y-35741872D01*
X2075552Y-35741873D01*
X2166054Y-35766122D01*
X2223444Y-35781500D01*
X2223445Y-35781500D01*
X2376555Y-35781500D01*
X2376556Y-35781500D01*
X2524451Y-35741872D01*
X2657050Y-35665316D01*
X2765316Y-35557050D01*
X2841872Y-35424451D01*
X2881500Y-35276556D01*
X2881500Y-35276466D01*
X2881519Y-35276404D01*
X2882034Y-35272497D01*
X2882746Y-35272590D01*
X2893218Y-35240032D01*
X3027108Y-35053417D01*
X3028171Y-35051305D01*
X3039789Y-35035238D01*
X4949990Y-33125037D01*
X4994183Y-33106732D01*
X5038377Y-33125038D01*
X5054553Y-33153054D01*
X5058607Y-33168184D01*
X5058607Y-33168185D01*
X5124501Y-33282315D01*
X5124504Y-33282319D01*
X5185447Y-33343261D01*
X5217686Y-33375500D01*
X5265071Y-33402857D01*
X5283009Y-33416118D01*
X5310319Y-33428982D01*
X5331814Y-33441392D01*
X5331817Y-33441393D01*
X5337661Y-33442959D01*
X5348118Y-33446787D01*
X5513500Y-33524687D01*
X5756880Y-33639326D01*
X5774439Y-33651673D01*
X6644500Y-34521735D01*
X6644506Y-34521740D01*
X6679310Y-34541835D01*
X6713393Y-34561513D01*
X6790228Y-34582100D01*
X6790229Y-34582100D01*
X23859771Y-34582100D01*
X23859772Y-34582100D01*
X23936607Y-34561513D01*
X24005494Y-34521740D01*
X28111740Y-30415494D01*
X28151513Y-30346607D01*
X28172100Y-30269772D01*
X28172100Y-30190228D01*
X28172100Y-29554861D01*
X28175787Y-29533713D01*
X28182349Y-29515464D01*
X28330569Y-29103270D01*
X28336392Y-29093186D01*
X28342812Y-29069223D01*
X28353032Y-29040804D01*
X28357572Y-29026574D01*
X28358030Y-29024935D01*
X28358934Y-29021591D01*
X28359151Y-29014632D01*
X28361251Y-29000407D01*
X28370499Y-28965894D01*
X28370500Y-28965891D01*
X28370500Y-28834109D01*
X28370498Y-28834101D01*
X28336393Y-28706817D01*
X28336392Y-28706814D01*
X28305140Y-28652684D01*
X28270500Y-28592686D01*
X28270498Y-28592684D01*
X28270495Y-28592680D01*
X28177319Y-28499504D01*
X28177315Y-28499501D01*
X28177314Y-28499500D01*
X28108032Y-28459500D01*
X28063185Y-28433607D01*
X28063182Y-28433606D01*
X27935898Y-28399501D01*
X27935893Y-28399500D01*
X27935892Y-28399500D01*
X27804108Y-28399500D01*
X27804107Y-28399500D01*
X27804101Y-28399501D01*
X27676817Y-28433606D01*
X27676814Y-28433607D01*
X27562684Y-28499501D01*
X27562680Y-28499504D01*
X27469504Y-28592680D01*
X27469501Y-28592684D01*
X27403607Y-28706814D01*
X27403606Y-28706817D01*
X27369501Y-28834101D01*
X27369500Y-28834109D01*
X27369500Y-28965890D01*
X27369501Y-28965898D01*
X27378748Y-29000407D01*
X27383656Y-29018724D01*
X27386967Y-29040803D01*
X27397189Y-29069230D01*
X27403608Y-29093186D01*
X27406636Y-29098431D01*
X27411317Y-29108522D01*
X27564213Y-29533714D01*
X27567900Y-29554863D01*
X27567900Y-30078978D01*
X27549594Y-30123172D01*
X23713172Y-33959594D01*
X23668978Y-33977900D01*
X6981022Y-33977900D01*
X6936828Y-33959594D01*
X6201673Y-33224439D01*
X6189326Y-33206880D01*
X6038337Y-32886329D01*
X5996787Y-32798118D01*
X5996410Y-32797301D01*
X5994288Y-32792623D01*
X5991392Y-32781814D01*
X5982034Y-32765606D01*
X5980769Y-32762816D01*
X5980070Y-32741731D01*
X5977318Y-32720822D01*
X5979292Y-32718249D01*
X5979185Y-32715007D01*
X5993597Y-32699606D01*
X6006439Y-32682873D01*
X6010202Y-32681864D01*
X6011872Y-32680081D01*
X6017562Y-32679892D01*
X6037688Y-32674500D01*
X16438294Y-32674500D01*
X16452782Y-32676203D01*
X16966922Y-32798726D01*
X16967029Y-32798750D01*
X16967056Y-32798757D01*
X16970169Y-32799473D01*
X16970561Y-32799560D01*
X16980911Y-32799690D01*
X16996298Y-32801814D01*
X17019108Y-32807926D01*
X17150889Y-32807926D01*
X17150892Y-32807926D01*
X17175871Y-32801232D01*
X17189517Y-32799155D01*
X17203486Y-32798594D01*
X17717179Y-32674765D01*
X17731823Y-32673026D01*
X24443651Y-32673026D01*
X24443652Y-32673026D01*
X24536637Y-32648111D01*
X24620004Y-32599979D01*
X26254099Y-30965882D01*
X26265673Y-30956766D01*
X26716472Y-30681090D01*
X26720050Y-30678851D01*
X26720414Y-30678618D01*
X26727573Y-30671620D01*
X26740006Y-30662192D01*
X26760261Y-30650499D01*
X26853447Y-30557313D01*
X26919339Y-30443185D01*
X26953447Y-30315891D01*
X26953447Y-30184107D01*
X26925596Y-30080164D01*
X26919340Y-30056816D01*
X26919339Y-30056813D01*
X26878728Y-29986473D01*
X26853447Y-29942685D01*
X26853444Y-29942682D01*
X26853442Y-29942679D01*
X26760266Y-29849503D01*
X26760262Y-29849500D01*
X26760261Y-29849499D01*
X26681484Y-29804017D01*
X26646132Y-29783606D01*
X26646129Y-29783605D01*
X26518845Y-29749500D01*
X26518840Y-29749499D01*
X26518839Y-29749499D01*
X26387055Y-29749499D01*
X26387054Y-29749499D01*
X26387048Y-29749500D01*
X26259764Y-29783605D01*
X26259761Y-29783606D01*
X26145631Y-29849500D01*
X26145627Y-29849503D01*
X26052448Y-29942682D01*
X26039521Y-29965073D01*
X26031329Y-29976204D01*
X26021858Y-29986468D01*
X26021854Y-29986473D01*
X25746182Y-30437264D01*
X25737056Y-30448851D01*
X25455886Y-30730021D01*
X25411692Y-30748327D01*
X25367498Y-30730021D01*
X25351322Y-30702002D01*
X25347568Y-30687990D01*
X25281676Y-30573862D01*
X25281674Y-30573860D01*
X25281671Y-30573856D01*
X25188495Y-30480680D01*
X25188491Y-30480677D01*
X25188490Y-30480676D01*
X25115216Y-30438371D01*
X25074361Y-30414783D01*
X25074358Y-30414782D01*
X24947074Y-30380677D01*
X24947069Y-30380676D01*
X24947068Y-30380676D01*
X24815284Y-30380676D01*
X24815283Y-30380676D01*
X24815277Y-30380677D01*
X24687993Y-30414782D01*
X24687990Y-30414783D01*
X24573860Y-30480677D01*
X24573856Y-30480680D01*
X24480675Y-30573862D01*
X24480673Y-30573864D01*
X24475044Y-30583614D01*
X24463055Y-30598521D01*
X24459648Y-30601630D01*
X24164928Y-31001925D01*
X24163103Y-31005466D01*
X24151746Y-31021018D01*
X23893172Y-31279594D01*
X23848978Y-31297900D01*
X18819477Y-31297900D01*
X18775283Y-31279594D01*
X18756977Y-31235400D01*
X18775283Y-31191206D01*
X18835495Y-31130993D01*
X18835500Y-31130988D01*
X18901392Y-31016860D01*
X18935500Y-30889566D01*
X18935500Y-30757782D01*
X18920553Y-30702000D01*
X18901393Y-30630491D01*
X18901392Y-30630488D01*
X18886803Y-30605220D01*
X18835500Y-30516360D01*
X18835498Y-30516358D01*
X18835495Y-30516354D01*
X18742319Y-30423178D01*
X18742315Y-30423175D01*
X18742314Y-30423174D01*
X18668707Y-30380677D01*
X18628185Y-30357281D01*
X18628182Y-30357280D01*
X18500898Y-30323175D01*
X18500893Y-30323174D01*
X18500892Y-30323174D01*
X18369108Y-30323174D01*
X18369106Y-30323174D01*
X18319683Y-30336416D01*
X18319682Y-30336415D01*
X18316258Y-30337332D01*
X18294197Y-30340641D01*
X18265771Y-30350862D01*
X18263253Y-30351537D01*
X18241810Y-30357282D01*
X18236562Y-30360312D01*
X18226471Y-30364993D01*
X17801284Y-30517887D01*
X17780135Y-30521574D01*
X17534696Y-30521574D01*
X17490502Y-30503268D01*
X16145499Y-29158264D01*
X16145493Y-29158259D01*
X16076608Y-29118487D01*
X16076606Y-29118486D01*
X15999778Y-29097901D01*
X15999773Y-29097900D01*
X15999772Y-29097900D01*
X15999771Y-29097900D01*
X6147369Y-29097900D01*
X6103175Y-29079594D01*
X6094001Y-29067928D01*
X5831250Y-28636771D01*
X5828971Y-28633117D01*
X5828729Y-28632738D01*
X5824533Y-28628440D01*
X5821711Y-28625548D01*
X5812310Y-28613142D01*
X5800499Y-28592685D01*
X5707319Y-28499504D01*
X5707315Y-28499501D01*
X5707314Y-28499500D01*
X5638032Y-28459500D01*
X5593185Y-28433607D01*
X5593182Y-28433606D01*
X5465898Y-28399501D01*
X5465893Y-28399500D01*
X5465892Y-28399500D01*
X5334108Y-28399500D01*
X5334107Y-28399500D01*
X5334101Y-28399501D01*
X5206817Y-28433606D01*
X5206814Y-28433607D01*
X5092684Y-28499501D01*
X5092680Y-28499504D01*
X4999504Y-28592680D01*
X4999501Y-28592684D01*
X4933607Y-28706814D01*
X4933606Y-28706817D01*
X4899501Y-28834101D01*
X4899500Y-28834109D01*
X4899500Y-28965890D01*
X4899501Y-28965898D01*
X4933606Y-29093182D01*
X4933607Y-29093185D01*
X4999501Y-29207315D01*
X4999504Y-29207319D01*
X5092680Y-29300495D01*
X5092684Y-29300498D01*
X5092686Y-29300500D01*
X5206814Y-29366392D01*
X5262115Y-29381209D01*
X5277079Y-29387392D01*
X5285490Y-29392227D01*
X5285495Y-29392229D01*
X5285498Y-29392231D01*
X5285500Y-29392231D01*
X5285503Y-29392233D01*
X5386761Y-29426392D01*
X5677138Y-29524350D01*
X5701352Y-29539376D01*
X5747470Y-29585494D01*
X5797276Y-29635300D01*
X5803715Y-29641739D01*
X5803719Y-29641742D01*
X5872598Y-29681510D01*
X5872601Y-29681511D01*
X5872604Y-29681513D01*
X5872605Y-29681513D01*
X5872607Y-29681514D01*
X5890802Y-29686389D01*
X5949438Y-29702100D01*
X6028982Y-29702100D01*
X15808978Y-29702100D01*
X15853172Y-29720406D01*
X17198174Y-31065409D01*
X17198180Y-31065414D01*
X17267067Y-31105187D01*
X17343902Y-31125774D01*
X17423446Y-31125774D01*
X17780138Y-31125774D01*
X17801287Y-31129461D01*
X17932342Y-31176587D01*
X17967734Y-31208767D01*
X17970006Y-31256549D01*
X17937826Y-31291941D01*
X17911193Y-31297900D01*
X7313265Y-31297900D01*
X7269071Y-31279594D01*
X7250765Y-31235400D01*
X7259138Y-31204151D01*
X7266390Y-31191589D01*
X7266392Y-31191586D01*
X7300500Y-31064292D01*
X7300500Y-30932508D01*
X7275874Y-30840602D01*
X7266393Y-30805217D01*
X7266392Y-30805214D01*
X7200500Y-30691086D01*
X7200498Y-30691084D01*
X7200495Y-30691080D01*
X7107319Y-30597904D01*
X7107315Y-30597901D01*
X7107314Y-30597900D01*
X7037017Y-30557314D01*
X6993185Y-30532007D01*
X6993182Y-30532006D01*
X6865898Y-30497901D01*
X6865893Y-30497900D01*
X6865892Y-30497900D01*
X6734108Y-30497900D01*
X6734107Y-30497900D01*
X6734101Y-30497901D01*
X6606817Y-30532006D01*
X6606814Y-30532007D01*
X6492684Y-30597901D01*
X6492680Y-30597904D01*
X6399504Y-30691080D01*
X6399501Y-30691084D01*
X6333607Y-30805214D01*
X6333606Y-30805217D01*
X6299501Y-30932501D01*
X6299500Y-30932509D01*
X6299500Y-31064290D01*
X6299501Y-31064298D01*
X6333099Y-31189689D01*
X6326856Y-31237115D01*
X6288905Y-31266235D01*
X6251580Y-31264678D01*
X5908526Y-31141319D01*
X5908525Y-31141319D01*
X5903264Y-31139427D01*
X5893186Y-31133608D01*
X5869239Y-31127190D01*
X5866784Y-31126308D01*
X5866783Y-31126307D01*
X5844052Y-31118135D01*
X5840798Y-31116965D01*
X5826562Y-31112424D01*
X5826548Y-31112420D01*
X5824947Y-31111972D01*
X5821587Y-31111063D01*
X5814630Y-31110846D01*
X5800413Y-31108748D01*
X5765896Y-31099500D01*
X5765892Y-31099500D01*
X5634108Y-31099500D01*
X5634107Y-31099500D01*
X5634101Y-31099501D01*
X5506817Y-31133606D01*
X5506814Y-31133607D01*
X5392684Y-31199501D01*
X5392680Y-31199504D01*
X5299504Y-31292680D01*
X5299501Y-31292684D01*
X5233607Y-31406814D01*
X5233606Y-31406817D01*
X5199501Y-31534101D01*
X5199500Y-31534107D01*
X5199500Y-31534108D01*
X5199500Y-31554256D01*
X5197900Y-31560228D01*
X5197900Y-31639772D01*
X5199500Y-31645743D01*
X5199500Y-31665890D01*
X5199501Y-31665898D01*
X5233606Y-31793182D01*
X5233607Y-31793185D01*
X5266150Y-31849550D01*
X5272393Y-31896976D01*
X5243273Y-31934927D01*
X5212023Y-31943300D01*
X5200960Y-31943300D01*
X5200959Y-31943300D01*
X5200953Y-31943301D01*
X5107980Y-31968213D01*
X5107976Y-31968214D01*
X5049375Y-32002047D01*
X5024608Y-32016347D01*
X5024607Y-32016348D01*
X5024603Y-32016351D01*
X3697694Y-33343261D01*
X3653500Y-33361567D01*
X3609306Y-33343261D01*
X3591000Y-33299067D01*
X3591000Y-29832812D01*
X3609306Y-29788618D01*
X3653500Y-29770312D01*
X3697694Y-29788618D01*
X3707626Y-29801562D01*
X3709038Y-29804008D01*
X3709045Y-29804017D01*
X4422690Y-30517661D01*
X4440996Y-30561855D01*
X4440996Y-30645301D01*
X4440997Y-30645309D01*
X4475102Y-30772593D01*
X4475103Y-30772596D01*
X4508050Y-30829661D01*
X4539882Y-30884796D01*
X4540997Y-30886726D01*
X4541000Y-30886730D01*
X4634176Y-30979906D01*
X4634180Y-30979909D01*
X4634182Y-30979911D01*
X4748310Y-31045803D01*
X4748313Y-31045804D01*
X4817335Y-31064298D01*
X4875604Y-31079911D01*
X4875605Y-31079911D01*
X5007387Y-31079911D01*
X5007388Y-31079911D01*
X5134682Y-31045803D01*
X5248810Y-30979911D01*
X5341996Y-30886725D01*
X5407888Y-30772597D01*
X5441996Y-30645303D01*
X5441996Y-30513519D01*
X5421564Y-30437264D01*
X5407889Y-30386228D01*
X5407888Y-30386225D01*
X5392927Y-30360312D01*
X5341996Y-30272097D01*
X5341994Y-30272095D01*
X5341991Y-30272091D01*
X5248815Y-30178915D01*
X5248811Y-30178912D01*
X5248810Y-30178911D01*
X5191746Y-30145965D01*
X5134681Y-30113018D01*
X5134678Y-30113017D01*
X5031795Y-30085450D01*
X5010877Y-30079845D01*
X5009829Y-30079515D01*
X5009513Y-30079480D01*
X5007386Y-30078910D01*
X5007128Y-30078876D01*
X5000931Y-30078537D01*
X4834665Y-30060261D01*
X4797300Y-30042329D01*
X4268307Y-29513336D01*
X4250001Y-29469142D01*
X4250001Y-28412674D01*
X4268307Y-28368480D01*
X4312501Y-28350174D01*
X4343748Y-28358546D01*
X4356315Y-28365802D01*
X4356317Y-28365802D01*
X4356318Y-28365803D01*
X4434213Y-28386674D01*
X4483609Y-28399910D01*
X4483610Y-28399910D01*
X4615392Y-28399910D01*
X4615393Y-28399910D01*
X4742687Y-28365802D01*
X4856815Y-28299910D01*
X4883343Y-28273380D01*
X4884246Y-28272498D01*
X5019942Y-28142929D01*
X5031856Y-28134007D01*
X5035099Y-28132135D01*
X5116067Y-28051165D01*
X5116968Y-28050285D01*
X5262685Y-27911150D01*
X5264550Y-27909347D01*
X5264743Y-27909158D01*
X5275287Y-27893553D01*
X5282872Y-27884360D01*
X10073124Y-23094109D01*
X10414500Y-23094109D01*
X10414500Y-23225890D01*
X10414501Y-23225898D01*
X10448606Y-23353182D01*
X10448607Y-23353185D01*
X10481554Y-23410250D01*
X10495328Y-23434108D01*
X10514501Y-23467315D01*
X10514504Y-23467319D01*
X10607680Y-23560495D01*
X10607684Y-23560498D01*
X10607686Y-23560500D01*
X10721592Y-23626264D01*
X10721814Y-23626392D01*
X10721817Y-23626393D01*
X10799712Y-23647264D01*
X10849108Y-23660500D01*
X10849109Y-23660500D01*
X10980891Y-23660500D01*
X10980892Y-23660500D01*
X11108186Y-23626392D01*
X11222314Y-23560500D01*
X11315500Y-23467314D01*
X11381392Y-23353186D01*
X11415500Y-23225892D01*
X11415500Y-23094108D01*
X11381392Y-22966814D01*
X11315500Y-22852686D01*
X11315498Y-22852684D01*
X11315495Y-22852680D01*
X11222319Y-22759504D01*
X11222315Y-22759501D01*
X11222314Y-22759500D01*
X11165250Y-22726554D01*
X11108185Y-22693607D01*
X11108182Y-22693606D01*
X10980898Y-22659501D01*
X10980893Y-22659500D01*
X10980892Y-22659500D01*
X10849108Y-22659500D01*
X10849107Y-22659500D01*
X10849101Y-22659501D01*
X10721817Y-22693606D01*
X10721814Y-22693607D01*
X10607684Y-22759501D01*
X10607680Y-22759504D01*
X10514504Y-22852680D01*
X10514501Y-22852684D01*
X10448607Y-22966814D01*
X10448606Y-22966817D01*
X10414501Y-23094101D01*
X10414500Y-23094109D01*
X10073124Y-23094109D01*
X11748124Y-21419109D01*
X15109500Y-21419109D01*
X15109500Y-21550890D01*
X15109501Y-21550898D01*
X15143606Y-21678182D01*
X15143607Y-21678185D01*
X15209501Y-21792315D01*
X15209504Y-21792319D01*
X15302680Y-21885495D01*
X15302684Y-21885498D01*
X15302686Y-21885500D01*
X15403503Y-21943707D01*
X15416814Y-21951392D01*
X15416817Y-21951393D01*
X15494712Y-21972264D01*
X15544108Y-21985500D01*
X15544109Y-21985500D01*
X15675891Y-21985500D01*
X15675892Y-21985500D01*
X15803186Y-21951392D01*
X15917314Y-21885500D01*
X15965806Y-21837007D01*
X16009999Y-21818702D01*
X16054192Y-21837006D01*
X16102686Y-21885500D01*
X16203503Y-21943707D01*
X16216814Y-21951392D01*
X16216817Y-21951393D01*
X16294712Y-21972264D01*
X16344108Y-21985500D01*
X16344109Y-21985500D01*
X16475891Y-21985500D01*
X16475892Y-21985500D01*
X16603186Y-21951392D01*
X16717314Y-21885500D01*
X16810500Y-21792314D01*
X16876392Y-21678186D01*
X16910500Y-21550892D01*
X16910500Y-21419108D01*
X16878452Y-21299501D01*
X16876393Y-21291817D01*
X16876392Y-21291814D01*
X16860033Y-21263479D01*
X16810500Y-21177686D01*
X16810498Y-21177684D01*
X16810495Y-21177680D01*
X16717319Y-21084504D01*
X16717315Y-21084501D01*
X16717314Y-21084500D01*
X16649681Y-21045452D01*
X16603185Y-21018607D01*
X16603182Y-21018606D01*
X16475898Y-20984501D01*
X16475893Y-20984500D01*
X16475892Y-20984500D01*
X16344108Y-20984500D01*
X16344107Y-20984500D01*
X16344101Y-20984501D01*
X16216817Y-21018606D01*
X16216814Y-21018607D01*
X16102684Y-21084501D01*
X16102680Y-21084504D01*
X16054194Y-21132991D01*
X16010000Y-21151297D01*
X15965806Y-21132991D01*
X15917319Y-21084504D01*
X15917315Y-21084501D01*
X15917314Y-21084500D01*
X15849681Y-21045452D01*
X15803185Y-21018607D01*
X15803182Y-21018606D01*
X15675898Y-20984501D01*
X15675893Y-20984500D01*
X15675892Y-20984500D01*
X15544108Y-20984500D01*
X15544107Y-20984500D01*
X15544101Y-20984501D01*
X15416817Y-21018606D01*
X15416814Y-21018607D01*
X15302684Y-21084501D01*
X15302680Y-21084504D01*
X15209504Y-21177680D01*
X15209501Y-21177684D01*
X15143607Y-21291814D01*
X15143606Y-21291817D01*
X15109501Y-21419101D01*
X15109500Y-21419109D01*
X11748124Y-21419109D01*
X14646828Y-18520406D01*
X14691022Y-18502100D01*
X17361004Y-18502100D01*
X17361005Y-18502100D01*
X17437840Y-18481513D01*
X17506727Y-18441740D01*
X17754873Y-18193592D01*
X17772426Y-18181251D01*
X18186238Y-17986332D01*
X18197494Y-17983317D01*
X18218992Y-17970904D01*
X18246298Y-17958043D01*
X18259696Y-17951121D01*
X18261178Y-17950285D01*
X18264027Y-17948648D01*
X18269102Y-17943880D01*
X18280637Y-17935313D01*
X18311622Y-17917425D01*
X18404808Y-17824239D01*
X18470700Y-17710111D01*
X18504808Y-17582817D01*
X18504808Y-17451033D01*
X18485431Y-17378717D01*
X18470701Y-17323742D01*
X18470700Y-17323739D01*
X18433854Y-17259920D01*
X18404808Y-17209611D01*
X18404806Y-17209609D01*
X18404803Y-17209605D01*
X18311627Y-17116429D01*
X18311623Y-17116426D01*
X18311622Y-17116425D01*
X18236408Y-17073000D01*
X18197493Y-17050532D01*
X18197490Y-17050531D01*
X18070206Y-17016426D01*
X18070201Y-17016425D01*
X18070200Y-17016425D01*
X17938416Y-17016425D01*
X17938415Y-17016425D01*
X17938409Y-17016426D01*
X17811125Y-17050531D01*
X17811122Y-17050532D01*
X17696992Y-17116426D01*
X17696988Y-17116429D01*
X17603812Y-17209605D01*
X17603807Y-17209611D01*
X17578222Y-17253925D01*
X17576448Y-17256997D01*
X17563188Y-17274934D01*
X17550323Y-17302243D01*
X17549018Y-17304505D01*
X17549012Y-17304518D01*
X17537914Y-17323741D01*
X17537914Y-17323743D01*
X17536349Y-17329583D01*
X17532522Y-17340036D01*
X17370240Y-17684565D01*
X17370239Y-17684566D01*
X17339979Y-17748805D01*
X17327632Y-17766365D01*
X17214404Y-17879594D01*
X17170212Y-17897900D01*
X14579772Y-17897900D01*
X14500228Y-17897900D01*
X14500227Y-17897900D01*
X14500221Y-17897901D01*
X14423393Y-17918486D01*
X14423391Y-17918487D01*
X14354506Y-17958259D01*
X14354500Y-17958264D01*
X4927492Y-27385272D01*
X4883298Y-27403578D01*
X4882405Y-27403572D01*
X4705123Y-27401039D01*
X4626257Y-27399912D01*
X4619000Y-27399385D01*
X4615394Y-27398910D01*
X4615393Y-27398910D01*
X4483609Y-27398910D01*
X4483608Y-27398910D01*
X4483602Y-27398911D01*
X4356318Y-27433016D01*
X4356311Y-27433019D01*
X4343750Y-27440272D01*
X4296324Y-27446515D01*
X4258374Y-27417394D01*
X4250001Y-27386145D01*
X4250001Y-15934109D01*
X10414500Y-15934109D01*
X10414500Y-16065890D01*
X10414501Y-16065898D01*
X10448606Y-16193182D01*
X10448607Y-16193185D01*
X10448608Y-16193186D01*
X10509967Y-16299463D01*
X10514501Y-16307315D01*
X10514504Y-16307319D01*
X10607680Y-16400495D01*
X10607684Y-16400498D01*
X10607686Y-16400500D01*
X10721814Y-16466392D01*
X10721817Y-16466393D01*
X10787935Y-16484109D01*
X10849108Y-16500500D01*
X10849109Y-16500500D01*
X10980891Y-16500500D01*
X10980892Y-16500500D01*
X11108186Y-16466392D01*
X11222314Y-16400500D01*
X11315500Y-16307314D01*
X11381392Y-16193186D01*
X11415500Y-16065892D01*
X11415500Y-15934108D01*
X11389084Y-15835522D01*
X11381393Y-15806817D01*
X11381392Y-15806814D01*
X11372434Y-15791298D01*
X11315500Y-15692686D01*
X11315498Y-15692684D01*
X11315495Y-15692680D01*
X11222319Y-15599504D01*
X11222315Y-15599501D01*
X11222314Y-15599500D01*
X11120456Y-15540692D01*
X11108185Y-15533607D01*
X11108182Y-15533606D01*
X10980898Y-15499501D01*
X10980893Y-15499500D01*
X10980892Y-15499500D01*
X10849108Y-15499500D01*
X10849107Y-15499500D01*
X10849101Y-15499501D01*
X10721817Y-15533606D01*
X10721814Y-15533607D01*
X10607684Y-15599501D01*
X10607680Y-15599504D01*
X10514504Y-15692680D01*
X10514501Y-15692684D01*
X10448607Y-15806814D01*
X10448606Y-15806817D01*
X10414501Y-15934101D01*
X10414500Y-15934109D01*
X4250001Y-15934109D01*
X4250001Y-15355109D01*
X4253744Y-15333805D01*
X4254124Y-15332758D01*
X4409467Y-14904315D01*
X4415893Y-14893186D01*
X4422661Y-14867927D01*
X4432302Y-14841337D01*
X4436938Y-14826914D01*
X4437407Y-14825246D01*
X4438400Y-14821584D01*
X4438612Y-14814783D01*
X4440711Y-14800560D01*
X4450001Y-14765892D01*
X4450001Y-14634108D01*
X4427484Y-14550073D01*
X4415894Y-14506817D01*
X4415893Y-14506814D01*
X4403395Y-14485167D01*
X4350001Y-14392686D01*
X4349999Y-14392684D01*
X4349996Y-14392680D01*
X4336510Y-14379194D01*
X4318204Y-14335000D01*
X4336510Y-14290806D01*
X4380704Y-14272500D01*
X15801884Y-14272500D01*
X16095457Y-14272500D01*
X16139651Y-14290806D01*
X16552273Y-14703428D01*
X16563435Y-14718605D01*
X16806789Y-15182856D01*
X16806798Y-15182872D01*
X16812032Y-15192253D01*
X16812646Y-15193288D01*
X16812652Y-15193295D01*
X16818917Y-15199930D01*
X16827601Y-15211589D01*
X16843757Y-15239571D01*
X16843762Y-15239577D01*
X16936938Y-15332753D01*
X16936942Y-15332756D01*
X16936944Y-15332758D01*
X17051072Y-15398650D01*
X17051075Y-15398651D01*
X17057976Y-15400500D01*
X17178366Y-15432758D01*
X17178367Y-15432758D01*
X17310149Y-15432758D01*
X17310150Y-15432758D01*
X17437444Y-15398650D01*
X17551572Y-15332758D01*
X17644758Y-15239572D01*
X17677315Y-15183180D01*
X17715265Y-15154062D01*
X17762691Y-15160305D01*
X17785566Y-15183180D01*
X17795237Y-15199930D01*
X17799501Y-15207315D01*
X17799504Y-15207319D01*
X17892680Y-15300495D01*
X17892684Y-15300498D01*
X17892686Y-15300500D01*
X18003882Y-15364699D01*
X18006814Y-15366392D01*
X18006817Y-15366393D01*
X18058063Y-15380124D01*
X18134108Y-15400500D01*
X18134109Y-15400500D01*
X18265891Y-15400500D01*
X18265892Y-15400500D01*
X18393186Y-15366392D01*
X18507314Y-15300500D01*
X18507319Y-15300494D01*
X18510567Y-15298004D01*
X18511753Y-15299551D01*
X18549977Y-15283702D01*
X18588253Y-15299540D01*
X18589433Y-15298004D01*
X18592684Y-15300498D01*
X18592686Y-15300500D01*
X18703882Y-15364699D01*
X18706814Y-15366392D01*
X18706817Y-15366393D01*
X18758063Y-15380124D01*
X18834108Y-15400500D01*
X18834109Y-15400500D01*
X18965891Y-15400500D01*
X18965892Y-15400500D01*
X19093186Y-15366392D01*
X19207314Y-15300500D01*
X19300500Y-15207314D01*
X19366392Y-15093186D01*
X19400500Y-14965892D01*
X19400500Y-14834108D01*
X19366392Y-14706814D01*
X19333459Y-14649773D01*
X19330252Y-14643402D01*
X19329062Y-14640659D01*
X19323533Y-14623609D01*
X19315232Y-14608767D01*
X19313974Y-14605866D01*
X19313627Y-14584867D01*
X19311170Y-14564000D01*
X19313240Y-14561377D01*
X19313185Y-14558037D01*
X19327790Y-14542942D01*
X19340807Y-14526451D01*
X19344739Y-14525426D01*
X19346448Y-14523660D01*
X19351858Y-14523570D01*
X19371314Y-14518500D01*
X20286735Y-14518500D01*
X20330929Y-14536806D01*
X20349235Y-14581000D01*
X20340861Y-14612251D01*
X20333608Y-14624811D01*
X20333608Y-14624813D01*
X20308570Y-14718255D01*
X20292395Y-14746272D01*
X20207010Y-14831658D01*
X20172743Y-14874181D01*
X20144238Y-14918534D01*
X20130706Y-14942297D01*
X20130702Y-14942308D01*
X20104332Y-15038435D01*
X20104330Y-15038447D01*
X20099347Y-15108139D01*
X20100160Y-15153671D01*
X20118562Y-15212440D01*
X20114299Y-15260085D01*
X20103112Y-15275310D01*
X19467400Y-15911024D01*
X19351025Y-16027398D01*
X19351023Y-16027400D01*
X19259590Y-16164239D01*
X19259589Y-16164241D01*
X19196607Y-16316292D01*
X19196606Y-16316295D01*
X19164500Y-16477709D01*
X19164500Y-29166007D01*
X19170338Y-29220307D01*
X19181542Y-29271814D01*
X19181545Y-29271824D01*
X19188781Y-29298198D01*
X19238112Y-29384828D01*
X19283867Y-29437632D01*
X19316641Y-29469257D01*
X19316643Y-29469258D01*
X19316644Y-29469259D01*
X19333215Y-29477927D01*
X19404976Y-29515465D01*
X19472015Y-29535150D01*
X19519821Y-29542023D01*
X19543998Y-29545500D01*
X19544000Y-29545500D01*
X20188644Y-29545500D01*
X20215930Y-29544038D01*
X20215945Y-29544036D01*
X20215952Y-29544036D01*
X20236313Y-29541846D01*
X20242311Y-29541202D01*
X20309336Y-29520214D01*
X20337444Y-29511413D01*
X20398767Y-29477928D01*
X20456985Y-29434347D01*
X21268523Y-28622809D01*
X21312717Y-28604503D01*
X26846320Y-28604503D01*
X26846336Y-28604504D01*
X26850161Y-28604504D01*
X26969833Y-28604504D01*
X26969838Y-28604503D01*
X27021963Y-28590535D01*
X27063073Y-28579520D01*
X27085428Y-28573530D01*
X27189067Y-28513694D01*
X27273688Y-28429073D01*
X27273688Y-28429071D01*
X27278829Y-28423931D01*
X27278832Y-28423926D01*
X27779954Y-27922806D01*
X27824148Y-27904500D01*
X28245852Y-27904500D01*
X28290046Y-27922806D01*
X28617194Y-28249954D01*
X28635500Y-28294148D01*
X28635500Y-30066322D01*
X28635499Y-30066340D01*
X28635499Y-30214867D01*
X28635500Y-30214880D01*
X28635500Y-30849834D01*
X28635501Y-30849842D01*
X28666471Y-30965427D01*
X28666472Y-30965430D01*
X28674830Y-30979906D01*
X28724198Y-31065414D01*
X28726310Y-31069071D01*
X28726313Y-31069075D01*
X28810924Y-31153686D01*
X28810928Y-31153689D01*
X28810930Y-31153691D01*
X28914569Y-31213527D01*
X28914572Y-31213528D01*
X28954305Y-31224174D01*
X29030164Y-31244500D01*
X29030165Y-31244500D01*
X29149835Y-31244500D01*
X29149836Y-31244500D01*
X29265431Y-31213527D01*
X29369070Y-31153691D01*
X29453691Y-31069070D01*
X29513527Y-30965431D01*
X29544500Y-30849836D01*
X29544500Y-30245387D01*
X29546630Y-30229209D01*
X29554501Y-30199836D01*
X29554501Y-30080164D01*
X29554183Y-30078978D01*
X29546630Y-30050789D01*
X29544500Y-30034612D01*
X29544500Y-28894109D01*
X36264500Y-28894109D01*
X36264500Y-29025890D01*
X36264501Y-29025898D01*
X36298606Y-29153182D01*
X36298607Y-29153185D01*
X36306006Y-29166000D01*
X36337360Y-29220307D01*
X36364501Y-29267315D01*
X36364504Y-29267319D01*
X36457680Y-29360495D01*
X36457684Y-29360498D01*
X36457686Y-29360500D01*
X36571814Y-29426392D01*
X36571817Y-29426393D01*
X36649712Y-29447264D01*
X36699108Y-29460500D01*
X36699109Y-29460500D01*
X36830891Y-29460500D01*
X36830892Y-29460500D01*
X36958186Y-29426392D01*
X37072314Y-29360500D01*
X37165500Y-29267314D01*
X37231392Y-29153186D01*
X37265500Y-29025892D01*
X37265500Y-28894108D01*
X37231392Y-28766814D01*
X37165500Y-28652686D01*
X37165498Y-28652684D01*
X37165495Y-28652680D01*
X37072319Y-28559504D01*
X37072315Y-28559501D01*
X37072314Y-28559500D01*
X36992976Y-28513694D01*
X36958185Y-28493607D01*
X36958182Y-28493606D01*
X36830898Y-28459501D01*
X36830893Y-28459500D01*
X36830892Y-28459500D01*
X36699108Y-28459500D01*
X36699107Y-28459500D01*
X36699101Y-28459501D01*
X36571817Y-28493606D01*
X36571814Y-28493607D01*
X36457684Y-28559501D01*
X36457680Y-28559504D01*
X36364504Y-28652680D01*
X36364501Y-28652684D01*
X36298607Y-28766814D01*
X36298606Y-28766817D01*
X36264501Y-28894101D01*
X36264500Y-28894109D01*
X29544500Y-28894109D01*
X29544500Y-28144880D01*
X29544501Y-28144867D01*
X29544501Y-28020165D01*
X29544499Y-28020157D01*
X29513528Y-27904570D01*
X29513527Y-27904567D01*
X29482381Y-27850623D01*
X29482381Y-27850622D01*
X29453693Y-27800934D01*
X29453691Y-27800930D01*
X29369070Y-27716309D01*
X29366892Y-27714131D01*
X29366881Y-27714121D01*
X28827259Y-27174499D01*
X28827247Y-27174485D01*
X28739075Y-27086313D01*
X28739071Y-27086310D01*
X28739070Y-27086309D01*
X28635431Y-27026473D01*
X28635429Y-27026472D01*
X28635427Y-27026471D01*
X28611003Y-27019927D01*
X28611002Y-27019927D01*
X28519840Y-26995499D01*
X28519836Y-26995499D01*
X28400164Y-26995499D01*
X28396339Y-26995499D01*
X28396323Y-26995500D01*
X27673677Y-26995500D01*
X27673661Y-26995499D01*
X27669836Y-26995499D01*
X27550164Y-26995499D01*
X27550163Y-26995499D01*
X27550157Y-26995500D01*
X27458996Y-27019926D01*
X27458997Y-27019927D01*
X27434570Y-27026472D01*
X27434562Y-27026475D01*
X27330933Y-27086306D01*
X27330924Y-27086313D01*
X27246309Y-27170930D01*
X27246307Y-27170932D01*
X26984221Y-27433019D01*
X26740043Y-27677197D01*
X26695849Y-27695503D01*
X21548000Y-27695503D01*
X21503806Y-27677197D01*
X21485500Y-27633003D01*
X21485500Y-26684007D01*
X21485499Y-26683992D01*
X21483405Y-26664511D01*
X21479661Y-26629687D01*
X21468455Y-26578176D01*
X21461219Y-26551802D01*
X21411888Y-26465172D01*
X21366133Y-26412368D01*
X21333359Y-26380743D01*
X21333357Y-26380741D01*
X21333355Y-26380740D01*
X21245024Y-26334535D01*
X21177987Y-26314850D01*
X21106002Y-26304500D01*
X21106000Y-26304500D01*
X20898000Y-26304500D01*
X20853806Y-26286194D01*
X20835500Y-26242000D01*
X20835500Y-16931964D01*
X20853806Y-16887770D01*
X21367770Y-16373806D01*
X21411964Y-16355500D01*
X21548644Y-16355500D01*
X21575925Y-16354038D01*
X21575935Y-16354036D01*
X21575952Y-16354036D01*
X21602310Y-16351202D01*
X21602358Y-16351197D01*
X21605246Y-16350291D01*
X21608342Y-16349656D01*
X21608805Y-16349745D01*
X21612034Y-16349012D01*
X21613711Y-16348771D01*
X21619912Y-16347880D01*
X21628943Y-16346416D01*
X21673231Y-16328989D01*
X21697488Y-16321389D01*
X21699864Y-16320091D01*
X21699153Y-16318789D01*
X21721711Y-16309914D01*
X21737988Y-16299452D01*
X21741800Y-16297191D01*
X21758762Y-16287931D01*
X21816985Y-16244347D01*
X22144347Y-15916985D01*
X22162626Y-15896635D01*
X22179260Y-15875993D01*
X22225465Y-15787662D01*
X22245150Y-15720623D01*
X22255500Y-15648638D01*
X22255500Y-15302000D01*
X22263873Y-15270750D01*
X22314620Y-15182856D01*
X22319798Y-15173888D01*
X22319799Y-15173885D01*
X22320852Y-15169956D01*
X22350500Y-15059309D01*
X22350500Y-14940691D01*
X22319799Y-14826114D01*
X22319798Y-14826111D01*
X22277460Y-14752781D01*
X22260879Y-14724064D01*
X22253677Y-14704851D01*
X22253155Y-14702193D01*
X22249661Y-14669687D01*
X22238455Y-14618176D01*
X22232181Y-14595309D01*
X22231735Y-14593035D01*
X22236038Y-14571688D01*
X22238753Y-14550073D01*
X22240700Y-14548559D01*
X22241188Y-14546143D01*
X22259324Y-14534092D01*
X22276529Y-14520727D01*
X22280179Y-14520235D01*
X22281030Y-14519670D01*
X22282370Y-14519940D01*
X22293065Y-14518500D01*
X27594102Y-14518500D01*
X27638296Y-14536806D01*
X28080110Y-14978620D01*
X28090337Y-14992080D01*
X28095746Y-15001658D01*
X28095748Y-15001661D01*
X28095750Y-15001664D01*
X28249343Y-15180203D01*
X28341361Y-15287166D01*
X28356305Y-15323244D01*
X28360578Y-15380124D01*
X28345635Y-15425565D01*
X28332979Y-15436772D01*
X28311651Y-15451023D01*
X28311650Y-15451024D01*
X26158609Y-17604064D01*
X26051023Y-17711650D01*
X25959590Y-17848489D01*
X25959589Y-17848491D01*
X25896607Y-18000542D01*
X25896606Y-18000545D01*
X25864500Y-18161959D01*
X25864500Y-20287246D01*
X25846194Y-20331440D01*
X25642950Y-20534684D01*
X25534688Y-20642944D01*
X25534685Y-20642948D01*
X25462323Y-20768284D01*
X25462321Y-20768287D01*
X25458128Y-20775548D01*
X25418499Y-20923439D01*
X25418499Y-21076560D01*
X25451442Y-21199500D01*
X25451442Y-21199501D01*
X25458126Y-21224448D01*
X25458130Y-21224457D01*
X25534681Y-21357046D01*
X25534688Y-21357055D01*
X25646505Y-21468872D01*
X25646519Y-21468884D01*
X25846194Y-21668559D01*
X25864500Y-21712753D01*
X25864500Y-21782290D01*
X25896606Y-21943704D01*
X25896607Y-21943707D01*
X25959589Y-22095758D01*
X25959590Y-22095760D01*
X26029572Y-22200495D01*
X26051024Y-22232600D01*
X26167400Y-22348976D01*
X26304242Y-22440411D01*
X26456294Y-22503393D01*
X26617710Y-22535500D01*
X26782290Y-22535500D01*
X26943706Y-22503393D01*
X27095758Y-22440411D01*
X27232600Y-22348976D01*
X27348976Y-22232600D01*
X27440411Y-22095758D01*
X27503393Y-21943706D01*
X27535500Y-21782290D01*
X27535500Y-20217710D01*
X27535500Y-18616213D01*
X27553806Y-18572019D01*
X28521761Y-17604064D01*
X29493225Y-16632600D01*
X29507476Y-16611270D01*
X29547245Y-16584695D01*
X29564119Y-16583669D01*
X29760035Y-16598385D01*
X29760047Y-16598383D01*
X29761696Y-16598372D01*
X29774295Y-16599981D01*
X29774298Y-16599965D01*
X29778356Y-16600499D01*
X29778358Y-16600500D01*
X29778360Y-16600500D01*
X29910141Y-16600500D01*
X29910142Y-16600500D01*
X30037436Y-16566392D01*
X30151564Y-16500500D01*
X30244750Y-16407314D01*
X30310642Y-16293186D01*
X30344750Y-16165892D01*
X30344750Y-16034108D01*
X30344735Y-16034053D01*
X30344660Y-16033427D01*
X30344215Y-16030046D01*
X30344254Y-16030040D01*
X30342912Y-16018844D01*
X30342866Y-16018848D01*
X30342786Y-16017794D01*
X30342620Y-16016402D01*
X30342633Y-16015798D01*
X30342635Y-16015785D01*
X30311757Y-15604672D01*
X30311757Y-15595325D01*
X30342635Y-15184214D01*
X30342633Y-15184201D01*
X30342622Y-15182554D01*
X30344231Y-15169956D01*
X30344215Y-15169954D01*
X30344750Y-15165889D01*
X30344750Y-15034109D01*
X30344748Y-15034101D01*
X30310643Y-14906817D01*
X30310642Y-14906814D01*
X30302774Y-14893186D01*
X30244750Y-14792686D01*
X30244748Y-14792684D01*
X30244745Y-14792680D01*
X30151569Y-14699504D01*
X30151565Y-14699501D01*
X30151564Y-14699500D01*
X30052138Y-14642096D01*
X30037435Y-14633607D01*
X30037432Y-14633606D01*
X29910148Y-14599501D01*
X29910143Y-14599500D01*
X29910142Y-14599500D01*
X29778358Y-14599500D01*
X29778356Y-14599500D01*
X29778281Y-14599520D01*
X29777405Y-14599625D01*
X29774298Y-14600034D01*
X29774293Y-14599998D01*
X29763092Y-14601340D01*
X29763096Y-14601384D01*
X29762120Y-14601457D01*
X29760688Y-14601629D01*
X29760033Y-14601613D01*
X29348930Y-14632491D01*
X29339568Y-14632491D01*
X29067495Y-14612055D01*
X29031416Y-14597111D01*
X28745914Y-14351499D01*
X28734701Y-14344887D01*
X28722256Y-14335246D01*
X28175509Y-13788499D01*
X28175497Y-13788485D01*
X28087322Y-13700310D01*
X28084805Y-13698857D01*
X28072279Y-13691625D01*
X28043161Y-13653677D01*
X28049404Y-13606250D01*
X28087354Y-13577130D01*
X28103531Y-13575000D01*
X34576944Y-13575000D01*
X34621138Y-13593306D01*
X34806694Y-13778862D01*
X34825000Y-13823056D01*
X34825000Y-15236944D01*
X34806694Y-15281138D01*
X24628997Y-25458834D01*
X24628995Y-25458836D01*
X24558409Y-25564475D01*
X24558408Y-25564477D01*
X24509786Y-25681860D01*
X24499534Y-25733401D01*
X24482429Y-25765401D01*
X23948836Y-26298996D01*
X23858997Y-26388834D01*
X23858995Y-26388836D01*
X23788409Y-26494475D01*
X23788408Y-26494477D01*
X23739786Y-26611860D01*
X23739786Y-26611861D01*
X23715000Y-26736472D01*
X23715000Y-26863527D01*
X23739786Y-26988138D01*
X23739786Y-26988139D01*
X23788408Y-27105522D01*
X23788409Y-27105524D01*
X23834497Y-27174499D01*
X23858996Y-27211164D01*
X23948836Y-27301004D01*
X24054478Y-27371592D01*
X24171860Y-27420213D01*
X24296473Y-27445000D01*
X25193527Y-27445000D01*
X25318140Y-27420213D01*
X25435522Y-27371592D01*
X25541164Y-27301004D01*
X25631004Y-27211164D01*
X25701592Y-27105522D01*
X25750213Y-26988140D01*
X25775000Y-26863527D01*
X25775000Y-26736473D01*
X25775000Y-26163056D01*
X25793306Y-26118862D01*
X28478059Y-23434109D01*
X29979500Y-23434109D01*
X29979500Y-23565890D01*
X29979501Y-23565898D01*
X30013606Y-23693182D01*
X30013607Y-23693185D01*
X30079501Y-23807315D01*
X30079504Y-23807319D01*
X30172680Y-23900495D01*
X30172684Y-23900498D01*
X30172686Y-23900500D01*
X30274376Y-23959211D01*
X30286814Y-23966392D01*
X30286817Y-23966393D01*
X30364712Y-23987264D01*
X30414108Y-24000500D01*
X30414109Y-24000500D01*
X30545891Y-24000500D01*
X30545892Y-24000500D01*
X30673186Y-23966392D01*
X30787314Y-23900500D01*
X30863306Y-23824508D01*
X30907500Y-23806202D01*
X30951694Y-23824508D01*
X31027686Y-23900500D01*
X31129376Y-23959211D01*
X31141814Y-23966392D01*
X31141817Y-23966393D01*
X31219712Y-23987264D01*
X31269108Y-24000500D01*
X31269109Y-24000500D01*
X31400891Y-24000500D01*
X31400892Y-24000500D01*
X31528186Y-23966392D01*
X31642314Y-23900500D01*
X31735500Y-23807314D01*
X31801392Y-23693186D01*
X31835500Y-23565892D01*
X31835500Y-23434108D01*
X31801392Y-23306814D01*
X31735500Y-23192686D01*
X31735498Y-23192684D01*
X31735495Y-23192680D01*
X31642319Y-23099504D01*
X31642315Y-23099501D01*
X31642314Y-23099500D01*
X31570803Y-23058213D01*
X31528185Y-23033607D01*
X31528182Y-23033606D01*
X31400898Y-22999501D01*
X31400893Y-22999500D01*
X31400892Y-22999500D01*
X31269108Y-22999500D01*
X31269107Y-22999500D01*
X31269101Y-22999501D01*
X31141817Y-23033606D01*
X31141814Y-23033607D01*
X31027684Y-23099501D01*
X31027680Y-23099504D01*
X30951694Y-23175491D01*
X30907500Y-23193797D01*
X30863306Y-23175491D01*
X30787319Y-23099504D01*
X30787315Y-23099501D01*
X30787314Y-23099500D01*
X30715803Y-23058213D01*
X30673185Y-23033607D01*
X30673182Y-23033606D01*
X30545898Y-22999501D01*
X30545893Y-22999500D01*
X30545892Y-22999500D01*
X30414108Y-22999500D01*
X30414107Y-22999500D01*
X30414101Y-22999501D01*
X30286817Y-23033606D01*
X30286814Y-23033607D01*
X30172684Y-23099501D01*
X30172680Y-23099504D01*
X30079504Y-23192680D01*
X30079501Y-23192684D01*
X30013607Y-23306814D01*
X30013606Y-23306817D01*
X29979501Y-23434101D01*
X29979500Y-23434109D01*
X28478059Y-23434109D01*
X30178059Y-21734109D01*
X36264500Y-21734109D01*
X36264500Y-21865890D01*
X36264501Y-21865898D01*
X36298606Y-21993182D01*
X36298607Y-21993185D01*
X36298608Y-21993186D01*
X36357829Y-22095760D01*
X36364501Y-22107315D01*
X36364504Y-22107319D01*
X36457680Y-22200495D01*
X36457684Y-22200498D01*
X36457686Y-22200500D01*
X36513285Y-22232600D01*
X36571814Y-22266392D01*
X36571817Y-22266393D01*
X36649712Y-22287264D01*
X36699108Y-22300500D01*
X36699109Y-22300500D01*
X36830891Y-22300500D01*
X36830892Y-22300500D01*
X36958186Y-22266392D01*
X37072314Y-22200500D01*
X37165500Y-22107314D01*
X37231392Y-21993186D01*
X37265500Y-21865892D01*
X37265500Y-21734108D01*
X37231392Y-21606814D01*
X37165500Y-21492686D01*
X37165498Y-21492684D01*
X37165495Y-21492680D01*
X37072319Y-21399504D01*
X37072315Y-21399501D01*
X37072314Y-21399500D01*
X37015250Y-21366554D01*
X36958185Y-21333607D01*
X36958182Y-21333606D01*
X36830898Y-21299501D01*
X36830893Y-21299500D01*
X36830892Y-21299500D01*
X36699108Y-21299500D01*
X36699107Y-21299500D01*
X36699101Y-21299501D01*
X36571817Y-21333606D01*
X36571814Y-21333607D01*
X36457684Y-21399501D01*
X36457680Y-21399504D01*
X36364504Y-21492680D01*
X36364501Y-21492684D01*
X36298607Y-21606814D01*
X36298606Y-21606817D01*
X36264501Y-21734101D01*
X36264500Y-21734109D01*
X30178059Y-21734109D01*
X30226350Y-21685818D01*
X32365668Y-19546500D01*
X35971004Y-15941164D01*
X36041592Y-15835522D01*
X36090213Y-15718140D01*
X36115000Y-15593527D01*
X36115000Y-15540692D01*
X39574500Y-15540692D01*
X39574500Y-15659307D01*
X39574501Y-15659315D01*
X39605200Y-15773885D01*
X39662136Y-15872500D01*
X39668379Y-15919926D01*
X39662136Y-15935000D01*
X39605200Y-16033614D01*
X39574501Y-16148184D01*
X39574500Y-16148192D01*
X39574500Y-16266807D01*
X39574501Y-16266815D01*
X39605200Y-16381385D01*
X39605203Y-16381391D01*
X39664508Y-16484109D01*
X39664515Y-16484118D01*
X39748381Y-16567984D01*
X39748390Y-16567991D01*
X39851108Y-16627296D01*
X39851114Y-16627299D01*
X39870897Y-16632600D01*
X39943176Y-16651967D01*
X39981127Y-16681087D01*
X39989500Y-16712337D01*
X39989500Y-16738390D01*
X39989501Y-16738398D01*
X40023606Y-16865682D01*
X40023607Y-16865685D01*
X40089501Y-16979815D01*
X40089504Y-16979819D01*
X40182680Y-17072995D01*
X40182684Y-17072998D01*
X40182686Y-17073000D01*
X40296814Y-17138892D01*
X40296817Y-17138893D01*
X40374712Y-17159764D01*
X40424108Y-17173000D01*
X40424109Y-17173000D01*
X40555891Y-17173000D01*
X40555892Y-17173000D01*
X40683186Y-17138892D01*
X40797314Y-17073000D01*
X40890500Y-16979814D01*
X40956392Y-16865686D01*
X40990500Y-16738392D01*
X40990500Y-16606608D01*
X40988863Y-16600500D01*
X40983150Y-16579177D01*
X40989393Y-16531751D01*
X41027343Y-16502630D01*
X41043520Y-16500500D01*
X41065891Y-16500500D01*
X41065892Y-16500500D01*
X41193186Y-16466392D01*
X41307314Y-16400500D01*
X41400500Y-16307314D01*
X41466392Y-16193186D01*
X41500500Y-16065892D01*
X41500500Y-15934108D01*
X41474084Y-15835522D01*
X41466393Y-15806817D01*
X41466392Y-15806814D01*
X41457434Y-15791298D01*
X41400500Y-15692686D01*
X41400498Y-15692684D01*
X41400495Y-15692680D01*
X41307319Y-15599504D01*
X41307315Y-15599501D01*
X41307314Y-15599500D01*
X41205456Y-15540692D01*
X41193185Y-15533607D01*
X41193182Y-15533606D01*
X41065898Y-15499501D01*
X41065893Y-15499500D01*
X41065892Y-15499500D01*
X40934108Y-15499500D01*
X40934107Y-15499500D01*
X40934101Y-15499501D01*
X40806817Y-15533606D01*
X40806814Y-15533607D01*
X40692684Y-15599501D01*
X40692680Y-15599504D01*
X40599504Y-15692680D01*
X40599501Y-15692684D01*
X40588791Y-15711234D01*
X40550839Y-15740353D01*
X40503413Y-15734108D01*
X40474294Y-15696156D01*
X40474296Y-15663801D01*
X40475498Y-15659315D01*
X40475500Y-15659309D01*
X40475500Y-15540691D01*
X40444799Y-15426114D01*
X40443554Y-15423958D01*
X40385491Y-15323390D01*
X40385484Y-15323381D01*
X40301618Y-15239515D01*
X40301609Y-15239508D01*
X40198891Y-15180203D01*
X40198885Y-15180200D01*
X40084315Y-15149501D01*
X40084310Y-15149500D01*
X40084309Y-15149500D01*
X39965691Y-15149500D01*
X39965690Y-15149500D01*
X39965684Y-15149501D01*
X39851114Y-15180200D01*
X39851108Y-15180203D01*
X39748390Y-15239508D01*
X39748381Y-15239515D01*
X39664515Y-15323381D01*
X39664508Y-15323390D01*
X39605203Y-15426108D01*
X39605200Y-15426114D01*
X39574501Y-15540684D01*
X39574500Y-15540692D01*
X36115000Y-15540692D01*
X36115000Y-15466474D01*
X36115000Y-14766473D01*
X36115000Y-13823056D01*
X36133306Y-13778862D01*
X39748862Y-10163306D01*
X39793056Y-10145000D01*
X40563527Y-10145000D01*
X40688140Y-10120213D01*
X40805522Y-10071592D01*
X40911164Y-10001004D01*
X41001004Y-9911164D01*
X41071592Y-9805522D01*
X41120213Y-9688140D01*
X41145000Y-9563527D01*
X41145000Y-8436473D01*
X41120213Y-8311860D01*
X41071592Y-8194478D01*
X41001004Y-8088836D01*
X40911164Y-7998996D01*
X40903442Y-7993836D01*
X40805524Y-7928409D01*
X40805522Y-7928408D01*
X40688138Y-7879786D01*
X40563527Y-7855000D01*
X40563526Y-7855000D01*
X40436473Y-7855000D01*
X40311861Y-7879786D01*
X40311860Y-7879786D01*
X40194477Y-7928408D01*
X40194475Y-7928409D01*
X40088836Y-7998995D01*
X40088834Y-7998997D01*
X35514194Y-12573638D01*
X35470000Y-12591944D01*
X35425806Y-12573638D01*
X35281163Y-12428995D01*
X35175524Y-12358409D01*
X35175522Y-12358408D01*
X35058147Y-12309789D01*
X35058140Y-12309787D01*
X34961177Y-12290500D01*
X34933527Y-12285000D01*
X22227219Y-12285000D01*
X22183025Y-12266694D01*
X22164719Y-12222500D01*
X22183025Y-12178306D01*
X22448524Y-11912806D01*
X22723307Y-11638022D01*
X22745340Y-11612900D01*
X22765030Y-11587240D01*
X22765031Y-11587240D01*
X22765034Y-11587234D01*
X22765045Y-11587221D01*
X22783613Y-11559432D01*
X22804653Y-11522991D01*
X22830179Y-11461368D01*
X22846793Y-11399366D01*
X22855500Y-11333235D01*
X22855500Y-11146763D01*
X22852899Y-11110401D01*
X22847876Y-11075466D01*
X22846418Y-11066464D01*
X22836985Y-11042490D01*
X22834776Y-11035786D01*
X22830182Y-11018639D01*
X22821703Y-10998166D01*
X22804656Y-10957010D01*
X22804654Y-10957006D01*
X22804652Y-10957002D01*
X22770783Y-10898342D01*
X22745864Y-10855182D01*
X22742258Y-10847869D01*
X22720240Y-10794713D01*
X22688147Y-10739127D01*
X22647544Y-10686212D01*
X22316985Y-10355653D01*
X22296635Y-10337374D01*
X22275993Y-10320740D01*
X22275992Y-10320739D01*
X22187662Y-10274535D01*
X22120625Y-10254850D01*
X22048640Y-10244500D01*
X22048638Y-10244500D01*
X21892754Y-10244500D01*
X21848560Y-10226194D01*
X20568884Y-8946519D01*
X20568872Y-8946505D01*
X20457055Y-8834688D01*
X20457051Y-8834685D01*
X20457050Y-8834684D01*
X20324451Y-8758128D01*
X20324450Y-8758127D01*
X20324449Y-8758127D01*
X20176560Y-8718499D01*
X20176556Y-8718499D01*
X20023444Y-8718499D01*
X20019619Y-8718499D01*
X20019603Y-8718500D01*
X11371107Y-8718500D01*
X11326913Y-8700194D01*
X11308607Y-8656000D01*
X11316980Y-8624750D01*
X11381392Y-8513186D01*
X11415500Y-8385892D01*
X11415500Y-8254108D01*
X11381392Y-8126814D01*
X11315500Y-8012686D01*
X11315498Y-8012684D01*
X11315495Y-8012680D01*
X11222319Y-7919504D01*
X11222315Y-7919501D01*
X11222314Y-7919500D01*
X11153528Y-7879786D01*
X11108185Y-7853607D01*
X11108182Y-7853606D01*
X10980898Y-7819501D01*
X10980893Y-7819500D01*
X10980892Y-7819500D01*
X10849108Y-7819500D01*
X10849107Y-7819500D01*
X10849101Y-7819501D01*
X10721817Y-7853606D01*
X10721814Y-7853607D01*
X10607684Y-7919501D01*
X10607680Y-7919504D01*
X10514504Y-8012680D01*
X10514501Y-8012684D01*
X10448607Y-8126814D01*
X10448606Y-8126817D01*
X10414501Y-8254101D01*
X10414500Y-8254109D01*
X10414500Y-8385890D01*
X10414501Y-8385898D01*
X10448606Y-8513182D01*
X10448607Y-8513185D01*
X10513020Y-8624750D01*
X10519263Y-8672176D01*
X10490143Y-8710127D01*
X10458893Y-8718500D01*
X5966753Y-8718500D01*
X5922559Y-8700194D01*
X5170545Y-7948180D01*
X5152597Y-7910665D01*
X5151202Y-7897689D01*
X5121416Y-7802565D01*
X5121415Y-7802562D01*
X5121413Y-7802556D01*
X5087928Y-7741233D01*
X5044347Y-7683015D01*
X5044344Y-7683012D01*
X5044342Y-7683009D01*
X4216996Y-6855664D01*
X4216985Y-6855653D01*
X4196635Y-6837374D01*
X4175993Y-6820740D01*
X4175992Y-6820739D01*
X4087662Y-6774535D01*
X4020625Y-6754850D01*
X3948640Y-6744500D01*
X3948638Y-6744500D01*
X3881819Y-6744500D01*
X3865642Y-6742370D01*
X3776561Y-6718499D01*
X3776556Y-6718499D01*
X3623444Y-6718499D01*
X3619619Y-6718499D01*
X3619603Y-6718500D01*
X3423444Y-6718500D01*
X3423443Y-6718500D01*
X3423437Y-6718501D01*
X3323549Y-6745266D01*
X3314055Y-6747038D01*
X3297688Y-6748797D01*
X3202565Y-6778583D01*
X3202555Y-6778587D01*
X3141233Y-6812072D01*
X3141227Y-6812076D01*
X3083009Y-6855657D01*
X2155664Y-7783003D01*
X2137373Y-7803366D01*
X2120739Y-7824007D01*
X2074535Y-7912337D01*
X2054850Y-7979373D01*
X2052771Y-7993836D01*
X2051277Y-8001116D01*
X2018499Y-8123439D01*
X2018499Y-8138634D01*
X2007789Y-8173620D01*
X1880223Y-8362454D01*
X1879067Y-8364475D01*
X1878663Y-8364243D01*
X1868652Y-8378388D01*
X607194Y-9639847D01*
X563000Y-9658153D01*
X518806Y-9639847D01*
X500500Y-9595653D01*
X500500Y-6619109D01*
X15119500Y-6619109D01*
X15119500Y-6750890D01*
X15119501Y-6750898D01*
X15153606Y-6878182D01*
X15153607Y-6878185D01*
X15153608Y-6878186D01*
X15218749Y-6991014D01*
X15219501Y-6992315D01*
X15219504Y-6992319D01*
X15312680Y-7085495D01*
X15312684Y-7085498D01*
X15312686Y-7085500D01*
X15426814Y-7151392D01*
X15426817Y-7151393D01*
X15504712Y-7172264D01*
X15554108Y-7185500D01*
X15554109Y-7185500D01*
X15685891Y-7185500D01*
X15685892Y-7185500D01*
X15813186Y-7151392D01*
X15927314Y-7085500D01*
X15970806Y-7042007D01*
X16014999Y-7023702D01*
X16059192Y-7042006D01*
X16102686Y-7085500D01*
X16216814Y-7151392D01*
X16216817Y-7151393D01*
X16294712Y-7172264D01*
X16344108Y-7185500D01*
X16344109Y-7185500D01*
X16475891Y-7185500D01*
X16475892Y-7185500D01*
X16603186Y-7151392D01*
X16717314Y-7085500D01*
X16810500Y-6992314D01*
X16876392Y-6878186D01*
X16910500Y-6750892D01*
X16910500Y-6619108D01*
X16876392Y-6491814D01*
X16810500Y-6377686D01*
X16810498Y-6377684D01*
X16810495Y-6377680D01*
X16717319Y-6284504D01*
X16717315Y-6284501D01*
X16717314Y-6284500D01*
X16660250Y-6251554D01*
X16603185Y-6218607D01*
X16603182Y-6218606D01*
X16475898Y-6184501D01*
X16475893Y-6184500D01*
X16475892Y-6184500D01*
X16344108Y-6184500D01*
X16344107Y-6184500D01*
X16344101Y-6184501D01*
X16216817Y-6218606D01*
X16216814Y-6218607D01*
X16102684Y-6284501D01*
X16102680Y-6284504D01*
X16059194Y-6327991D01*
X16015000Y-6346297D01*
X15970806Y-6327991D01*
X15927319Y-6284504D01*
X15927315Y-6284501D01*
X15927314Y-6284500D01*
X15870250Y-6251554D01*
X15813185Y-6218607D01*
X15813182Y-6218606D01*
X15685898Y-6184501D01*
X15685893Y-6184500D01*
X15685892Y-6184500D01*
X15554108Y-6184500D01*
X15554107Y-6184500D01*
X15554101Y-6184501D01*
X15426817Y-6218606D01*
X15426814Y-6218607D01*
X15312684Y-6284501D01*
X15312680Y-6284504D01*
X15219504Y-6377680D01*
X15219501Y-6377684D01*
X15153607Y-6491814D01*
X15153606Y-6491817D01*
X15119501Y-6619101D01*
X15119500Y-6619109D01*
X500500Y-6619109D01*
X500500Y-3451758D01*
X500598Y-3448254D01*
X504504Y-3378707D01*
X1649500Y-3378707D01*
X1649500Y-3621292D01*
X1681162Y-3861792D01*
X1681162Y-3861793D01*
X1743940Y-4096083D01*
X1743944Y-4096094D01*
X1836774Y-4320208D01*
X1836775Y-4320211D01*
X1836776Y-4320212D01*
X1958064Y-4530289D01*
X2105735Y-4722738D01*
X2277262Y-4894265D01*
X2469711Y-5041936D01*
X2679788Y-5163224D01*
X2903900Y-5256054D01*
X2903908Y-5256056D01*
X2903916Y-5256059D01*
X3138207Y-5318837D01*
X3138211Y-5318838D01*
X3378712Y-5350500D01*
X3378718Y-5350500D01*
X3621282Y-5350500D01*
X3621288Y-5350500D01*
X3861789Y-5318838D01*
X3861793Y-5318837D01*
X4096083Y-5256059D01*
X4096087Y-5256057D01*
X4096100Y-5256054D01*
X4320212Y-5163224D01*
X4530289Y-5041936D01*
X4722738Y-4894265D01*
X4894265Y-4722738D01*
X5041936Y-4530289D01*
X5163224Y-4320212D01*
X5256054Y-4096100D01*
X5318838Y-3861789D01*
X5350500Y-3621288D01*
X5350500Y-3378712D01*
X5318838Y-3138211D01*
X5314833Y-3123263D01*
X5256059Y-2903916D01*
X5256055Y-2903905D01*
X5256054Y-2903900D01*
X5163224Y-2679788D01*
X5041936Y-2469711D01*
X4894265Y-2277262D01*
X4722738Y-2105735D01*
X4722734Y-2105732D01*
X4722732Y-2105730D01*
X4576061Y-1993186D01*
X4530289Y-1958064D01*
X4530286Y-1958062D01*
X4320211Y-1836775D01*
X4320208Y-1836774D01*
X4230222Y-1799501D01*
X4096100Y-1743946D01*
X4096096Y-1743945D01*
X4096094Y-1743944D01*
X4096083Y-1743940D01*
X4059393Y-1734109D01*
X15899500Y-1734109D01*
X15899500Y-1865889D01*
X15899501Y-1865898D01*
X15933606Y-1993182D01*
X15933607Y-1993185D01*
X15933608Y-1993186D01*
X15998588Y-2105735D01*
X15999501Y-2107315D01*
X15999504Y-2107319D01*
X16092686Y-2200500D01*
X16092746Y-2200535D01*
X16093367Y-2201023D01*
X16095938Y-2202996D01*
X16095915Y-2203025D01*
X16104779Y-2209991D01*
X16104809Y-2209957D01*
X16105591Y-2210630D01*
X16106697Y-2211499D01*
X16107136Y-2211959D01*
X16362089Y-2431288D01*
X16368709Y-2437908D01*
X16579648Y-2683108D01*
X16586394Y-2692617D01*
X16636308Y-2779069D01*
X16636313Y-2779075D01*
X16724485Y-2867247D01*
X16724499Y-2867259D01*
X16966678Y-3109438D01*
X17026780Y-3175475D01*
X17030126Y-3179066D01*
X17030506Y-3179464D01*
X17050185Y-3192945D01*
X25574121Y-11716881D01*
X25574126Y-11716887D01*
X25660924Y-11803686D01*
X25660928Y-11803689D01*
X25660930Y-11803691D01*
X25743154Y-11851163D01*
X25764569Y-11863527D01*
X25764572Y-11863528D01*
X25835304Y-11882480D01*
X25880164Y-11894500D01*
X25999836Y-11894500D01*
X26016444Y-11894500D01*
X26060638Y-11912806D01*
X26088836Y-11941004D01*
X26194478Y-12011592D01*
X26311860Y-12060213D01*
X26436473Y-12085000D01*
X27603527Y-12085000D01*
X27728140Y-12060213D01*
X27845522Y-12011592D01*
X27951164Y-11941004D01*
X28041004Y-11851164D01*
X28111592Y-11745522D01*
X28160213Y-11628140D01*
X28185000Y-11503527D01*
X28185000Y-10783649D01*
X28203305Y-10739456D01*
X28203639Y-10739122D01*
X28263691Y-10679070D01*
X28263692Y-10679067D01*
X30688650Y-8254109D01*
X32454500Y-8254109D01*
X32454500Y-8385890D01*
X32454501Y-8385898D01*
X32488606Y-8513182D01*
X32488607Y-8513185D01*
X32554501Y-8627315D01*
X32554504Y-8627319D01*
X32647680Y-8720495D01*
X32647684Y-8720498D01*
X32647686Y-8720500D01*
X32761814Y-8786392D01*
X32761817Y-8786393D01*
X32839712Y-8807264D01*
X32889108Y-8820500D01*
X32889109Y-8820500D01*
X33020891Y-8820500D01*
X33020892Y-8820500D01*
X33148186Y-8786392D01*
X33262314Y-8720500D01*
X33355500Y-8627314D01*
X33421392Y-8513186D01*
X33455500Y-8385892D01*
X33455500Y-8254108D01*
X33421392Y-8126814D01*
X33355500Y-8012686D01*
X33355498Y-8012684D01*
X33355495Y-8012680D01*
X33262319Y-7919504D01*
X33262315Y-7919501D01*
X33262314Y-7919500D01*
X33193528Y-7879786D01*
X33148185Y-7853607D01*
X33148182Y-7853606D01*
X33020898Y-7819501D01*
X33020893Y-7819500D01*
X33020892Y-7819500D01*
X32889108Y-7819500D01*
X32889107Y-7819500D01*
X32889101Y-7819501D01*
X32761817Y-7853606D01*
X32761814Y-7853607D01*
X32647684Y-7919501D01*
X32647680Y-7919504D01*
X32554504Y-8012680D01*
X32554501Y-8012684D01*
X32488607Y-8126814D01*
X32488606Y-8126817D01*
X32454501Y-8254101D01*
X32454500Y-8254109D01*
X30688650Y-8254109D01*
X32323650Y-6619109D01*
X35499500Y-6619109D01*
X35499500Y-6750890D01*
X35499501Y-6750898D01*
X35533606Y-6878182D01*
X35533607Y-6878185D01*
X35533608Y-6878186D01*
X35598749Y-6991014D01*
X35599501Y-6992315D01*
X35599504Y-6992319D01*
X35692680Y-7085495D01*
X35692684Y-7085498D01*
X35692686Y-7085500D01*
X35806814Y-7151392D01*
X35806817Y-7151393D01*
X35884712Y-7172264D01*
X35934108Y-7185500D01*
X35934109Y-7185500D01*
X36065891Y-7185500D01*
X36065892Y-7185500D01*
X36193186Y-7151392D01*
X36307314Y-7085500D01*
X36357056Y-7035757D01*
X36401249Y-7017452D01*
X36445442Y-7035756D01*
X36495186Y-7085500D01*
X36609314Y-7151392D01*
X36609317Y-7151393D01*
X36687212Y-7172264D01*
X36736608Y-7185500D01*
X36736609Y-7185500D01*
X36868391Y-7185500D01*
X36868392Y-7185500D01*
X36995686Y-7151392D01*
X37109814Y-7085500D01*
X37203000Y-6992314D01*
X37268892Y-6878186D01*
X37303000Y-6750892D01*
X37303000Y-6619108D01*
X37268892Y-6491814D01*
X37203000Y-6377686D01*
X37202998Y-6377684D01*
X37202995Y-6377680D01*
X37109819Y-6284504D01*
X37109815Y-6284501D01*
X37109814Y-6284500D01*
X37052750Y-6251554D01*
X36995685Y-6218607D01*
X36995682Y-6218606D01*
X36868398Y-6184501D01*
X36868393Y-6184500D01*
X36868392Y-6184500D01*
X36736608Y-6184500D01*
X36736607Y-6184500D01*
X36736601Y-6184501D01*
X36609317Y-6218606D01*
X36609314Y-6218607D01*
X36495184Y-6284501D01*
X36495180Y-6284504D01*
X36445444Y-6334241D01*
X36401250Y-6352547D01*
X36357056Y-6334241D01*
X36307319Y-6284504D01*
X36307315Y-6284501D01*
X36307314Y-6284500D01*
X36250250Y-6251554D01*
X36193185Y-6218607D01*
X36193182Y-6218606D01*
X36065898Y-6184501D01*
X36065893Y-6184500D01*
X36065892Y-6184500D01*
X35934108Y-6184500D01*
X35934107Y-6184500D01*
X35934101Y-6184501D01*
X35806817Y-6218606D01*
X35806814Y-6218607D01*
X35692684Y-6284501D01*
X35692680Y-6284504D01*
X35599504Y-6377680D01*
X35599501Y-6377684D01*
X35533607Y-6491814D01*
X35533606Y-6491817D01*
X35499501Y-6619101D01*
X35499500Y-6619109D01*
X32323650Y-6619109D01*
X35564053Y-3378707D01*
X39649500Y-3378707D01*
X39649500Y-3621292D01*
X39681162Y-3861792D01*
X39681162Y-3861793D01*
X39743940Y-4096083D01*
X39743944Y-4096094D01*
X39836774Y-4320208D01*
X39836775Y-4320211D01*
X39836776Y-4320212D01*
X39958064Y-4530289D01*
X40105735Y-4722738D01*
X40277262Y-4894265D01*
X40469711Y-5041936D01*
X40679788Y-5163224D01*
X40903900Y-5256054D01*
X40903908Y-5256056D01*
X40903916Y-5256059D01*
X41138207Y-5318837D01*
X41138211Y-5318838D01*
X41378712Y-5350500D01*
X41378718Y-5350500D01*
X41621282Y-5350500D01*
X41621288Y-5350500D01*
X41861789Y-5318838D01*
X41861793Y-5318837D01*
X42096083Y-5256059D01*
X42096087Y-5256057D01*
X42096100Y-5256054D01*
X42320212Y-5163224D01*
X42530289Y-5041936D01*
X42722738Y-4894265D01*
X42894265Y-4722738D01*
X43041936Y-4530289D01*
X43163224Y-4320212D01*
X43256054Y-4096100D01*
X43318838Y-3861789D01*
X43350500Y-3621288D01*
X43350500Y-3378712D01*
X43318838Y-3138211D01*
X43314833Y-3123263D01*
X43256059Y-2903916D01*
X43256055Y-2903905D01*
X43256054Y-2903900D01*
X43163224Y-2679788D01*
X43041936Y-2469711D01*
X42894265Y-2277262D01*
X42722738Y-2105735D01*
X42722734Y-2105732D01*
X42722732Y-2105730D01*
X42576061Y-1993186D01*
X42530289Y-1958064D01*
X42530286Y-1958062D01*
X42320211Y-1836775D01*
X42320208Y-1836774D01*
X42227375Y-1798322D01*
X42096100Y-1743946D01*
X42096096Y-1743945D01*
X42096094Y-1743944D01*
X42096083Y-1743940D01*
X41861792Y-1681162D01*
X41621292Y-1649500D01*
X41621288Y-1649500D01*
X41378712Y-1649500D01*
X41378707Y-1649500D01*
X41138207Y-1681162D01*
X41138206Y-1681162D01*
X40903916Y-1743940D01*
X40903905Y-1743944D01*
X40679791Y-1836774D01*
X40679788Y-1836775D01*
X40469713Y-1958062D01*
X40277267Y-2105730D01*
X40277257Y-2105739D01*
X40105739Y-2277257D01*
X40105730Y-2277267D01*
X39958062Y-2469713D01*
X39836775Y-2679788D01*
X39836774Y-2679791D01*
X39743944Y-2903905D01*
X39743940Y-2903916D01*
X39681162Y-3138206D01*
X39681162Y-3138207D01*
X39649500Y-3378707D01*
X35564053Y-3378707D01*
X35569954Y-3372806D01*
X35614148Y-3354500D01*
X35936323Y-3354500D01*
X35936339Y-3354501D01*
X35940164Y-3354501D01*
X36063661Y-3354501D01*
X36063677Y-3354500D01*
X36636323Y-3354500D01*
X36636339Y-3354501D01*
X36640164Y-3354501D01*
X36759836Y-3354501D01*
X36851002Y-3330072D01*
X36875431Y-3323527D01*
X36979070Y-3263691D01*
X37063691Y-3179070D01*
X37063691Y-3179068D01*
X37068832Y-3173928D01*
X37068836Y-3173923D01*
X37318982Y-2923776D01*
X37331036Y-2914931D01*
X37330868Y-2914674D01*
X37520997Y-2790298D01*
X37769377Y-2627817D01*
X37776887Y-2620404D01*
X37789535Y-2610763D01*
X37807314Y-2600500D01*
X37900500Y-2507314D01*
X37966392Y-2393186D01*
X38000500Y-2265892D01*
X38000500Y-2134108D01*
X37966392Y-2006814D01*
X37900500Y-1892686D01*
X37900498Y-1892684D01*
X37900495Y-1892680D01*
X37807319Y-1799504D01*
X37807315Y-1799501D01*
X37807314Y-1799500D01*
X37750250Y-1766554D01*
X37693185Y-1733607D01*
X37693182Y-1733606D01*
X37565898Y-1699501D01*
X37565893Y-1699500D01*
X37565892Y-1699500D01*
X37434108Y-1699500D01*
X37434106Y-1699500D01*
X37434031Y-1699520D01*
X37433155Y-1699625D01*
X37430048Y-1700034D01*
X37430043Y-1699998D01*
X37418842Y-1701340D01*
X37418846Y-1701384D01*
X37417870Y-1701457D01*
X37416438Y-1701629D01*
X37415783Y-1701613D01*
X37104680Y-1724980D01*
X37095318Y-1724980D01*
X36784213Y-1701613D01*
X36782532Y-1701626D01*
X36769954Y-1700018D01*
X36769952Y-1700034D01*
X36765895Y-1699500D01*
X36765892Y-1699500D01*
X36634108Y-1699500D01*
X36634106Y-1699500D01*
X36634031Y-1699520D01*
X36633155Y-1699625D01*
X36630048Y-1700034D01*
X36630043Y-1699998D01*
X36618842Y-1701340D01*
X36618846Y-1701384D01*
X36617870Y-1701457D01*
X36616438Y-1701629D01*
X36615783Y-1701613D01*
X36101202Y-1740263D01*
X36101191Y-1740265D01*
X36088593Y-1743517D01*
X36072974Y-1745500D01*
X36040164Y-1745500D01*
X36040163Y-1745500D01*
X36040157Y-1745501D01*
X35924572Y-1776471D01*
X35924569Y-1776472D01*
X35820928Y-1836310D01*
X35820924Y-1836313D01*
X35736309Y-1920930D01*
X35036307Y-2620932D01*
X27863249Y-9793989D01*
X27819055Y-9812295D01*
X27795138Y-9807538D01*
X27728140Y-9779787D01*
X27603527Y-9755000D01*
X27603526Y-9755000D01*
X27476473Y-9755000D01*
X27351861Y-9779786D01*
X27351860Y-9779786D01*
X27234477Y-9828408D01*
X27234475Y-9828409D01*
X27128836Y-9898995D01*
X27128834Y-9898997D01*
X26129490Y-10898342D01*
X26085296Y-10916648D01*
X26041102Y-10898342D01*
X17723779Y-2581019D01*
X17714930Y-2568963D01*
X17714674Y-2569131D01*
X17655854Y-2479215D01*
X17500640Y-2241944D01*
X17490621Y-2212416D01*
X17482529Y-2104672D01*
X17482529Y-2095325D01*
X17498385Y-1884214D01*
X17498383Y-1884201D01*
X17498372Y-1882554D01*
X17499981Y-1869956D01*
X17499965Y-1869954D01*
X17500500Y-1865889D01*
X17500500Y-1734109D01*
X17500498Y-1734101D01*
X17498148Y-1725332D01*
X17480777Y-1660500D01*
X17466393Y-1606817D01*
X17466392Y-1606814D01*
X17400500Y-1492686D01*
X17400498Y-1492684D01*
X17400495Y-1492680D01*
X17307319Y-1399504D01*
X17307315Y-1399501D01*
X17307314Y-1399500D01*
X17227096Y-1353186D01*
X17193185Y-1333607D01*
X17193182Y-1333606D01*
X17065898Y-1299501D01*
X17065893Y-1299500D01*
X17065892Y-1299500D01*
X16934108Y-1299500D01*
X16934106Y-1299500D01*
X16934031Y-1299520D01*
X16933155Y-1299625D01*
X16930048Y-1300034D01*
X16930043Y-1299998D01*
X16918842Y-1301340D01*
X16918846Y-1301384D01*
X16917870Y-1301457D01*
X16916438Y-1301629D01*
X16915783Y-1301613D01*
X16704680Y-1317469D01*
X16695318Y-1317469D01*
X16484213Y-1301613D01*
X16482532Y-1301626D01*
X16469954Y-1300018D01*
X16469952Y-1300034D01*
X16465895Y-1299500D01*
X16465892Y-1299500D01*
X16334108Y-1299500D01*
X16334107Y-1299500D01*
X16334101Y-1299501D01*
X16206817Y-1333606D01*
X16206814Y-1333607D01*
X16092684Y-1399501D01*
X16092680Y-1399504D01*
X15999504Y-1492680D01*
X15999501Y-1492684D01*
X15933607Y-1606814D01*
X15933606Y-1606817D01*
X15899501Y-1734101D01*
X15899500Y-1734109D01*
X4059393Y-1734109D01*
X3861792Y-1681162D01*
X3621292Y-1649500D01*
X3621288Y-1649500D01*
X3378712Y-1649500D01*
X3378707Y-1649500D01*
X3138207Y-1681162D01*
X3138206Y-1681162D01*
X2903916Y-1743940D01*
X2903905Y-1743944D01*
X2679791Y-1836774D01*
X2679788Y-1836775D01*
X2469713Y-1958062D01*
X2277267Y-2105730D01*
X2277257Y-2105739D01*
X2105739Y-2277257D01*
X2105730Y-2277267D01*
X1958062Y-2469713D01*
X1836775Y-2679788D01*
X1836774Y-2679791D01*
X1743944Y-2903905D01*
X1743940Y-2903916D01*
X1681162Y-3138206D01*
X1681162Y-3138207D01*
X1649500Y-3378707D01*
X504504Y-3378707D01*
X504815Y-3373162D01*
X505863Y-3354500D01*
X518849Y-3123257D01*
X519634Y-3116298D01*
X520800Y-3109438D01*
X573865Y-2797117D01*
X575418Y-2790312D01*
X665045Y-2479210D01*
X667350Y-2472619D01*
X791264Y-2173464D01*
X794279Y-2167206D01*
X950894Y-1883832D01*
X954613Y-1877915D01*
X955676Y-1876418D01*
X1079695Y-1701629D01*
X1141957Y-1613880D01*
X1146320Y-1608407D01*
X1362052Y-1367003D01*
X1367006Y-1362050D01*
X1376926Y-1353185D01*
X1608407Y-1146320D01*
X1613880Y-1141957D01*
X1681315Y-1094109D01*
X10414500Y-1094109D01*
X10414500Y-1225890D01*
X10414501Y-1225898D01*
X10448606Y-1353182D01*
X10448607Y-1353185D01*
X10514501Y-1467315D01*
X10514504Y-1467319D01*
X10607680Y-1560495D01*
X10607684Y-1560498D01*
X10607686Y-1560500D01*
X10690651Y-1608400D01*
X10721814Y-1626392D01*
X10721817Y-1626393D01*
X10799712Y-1647264D01*
X10849108Y-1660500D01*
X10849109Y-1660500D01*
X10980891Y-1660500D01*
X10980892Y-1660500D01*
X11108186Y-1626392D01*
X11222314Y-1560500D01*
X11315500Y-1467314D01*
X11381392Y-1353186D01*
X11415500Y-1225892D01*
X11415500Y-1094109D01*
X32454500Y-1094109D01*
X32454500Y-1225890D01*
X32454501Y-1225898D01*
X32488606Y-1353182D01*
X32488607Y-1353185D01*
X32554501Y-1467315D01*
X32554504Y-1467319D01*
X32647680Y-1560495D01*
X32647684Y-1560498D01*
X32647686Y-1560500D01*
X32730651Y-1608400D01*
X32761814Y-1626392D01*
X32761817Y-1626393D01*
X32839712Y-1647264D01*
X32889108Y-1660500D01*
X32889109Y-1660500D01*
X33020891Y-1660500D01*
X33020892Y-1660500D01*
X33148186Y-1626392D01*
X33262314Y-1560500D01*
X33355500Y-1467314D01*
X33421392Y-1353186D01*
X33455500Y-1225892D01*
X33455500Y-1094108D01*
X33421392Y-966814D01*
X33355500Y-852686D01*
X33355498Y-852684D01*
X33355495Y-852680D01*
X33262319Y-759504D01*
X33262315Y-759501D01*
X33262314Y-759500D01*
X33205250Y-726554D01*
X33148185Y-693607D01*
X33148182Y-693606D01*
X33020898Y-659501D01*
X33020893Y-659500D01*
X33020892Y-659500D01*
X32889108Y-659500D01*
X32889107Y-659500D01*
X32889101Y-659501D01*
X32761817Y-693606D01*
X32761814Y-693607D01*
X32647684Y-759501D01*
X32647680Y-759504D01*
X32554504Y-852680D01*
X32554501Y-852684D01*
X32488607Y-966814D01*
X32488606Y-966817D01*
X32454501Y-1094101D01*
X32454500Y-1094109D01*
X11415500Y-1094109D01*
X11415500Y-1094108D01*
X11381392Y-966814D01*
X11315500Y-852686D01*
X11315498Y-852684D01*
X11315495Y-852680D01*
X11222319Y-759504D01*
X11222315Y-759501D01*
X11222314Y-759500D01*
X11165250Y-726554D01*
X11108185Y-693607D01*
X11108182Y-693606D01*
X10980898Y-659501D01*
X10980893Y-659500D01*
X10980892Y-659500D01*
X10849108Y-659500D01*
X10849107Y-659500D01*
X10849101Y-659501D01*
X10721817Y-693606D01*
X10721814Y-693607D01*
X10607684Y-759501D01*
X10607680Y-759504D01*
X10514504Y-852680D01*
X10514501Y-852684D01*
X10448607Y-966814D01*
X10448606Y-966817D01*
X10414501Y-1094101D01*
X10414500Y-1094109D01*
X1681315Y-1094109D01*
X1758927Y-1039040D01*
X1877920Y-954609D01*
X1883832Y-950894D01*
X2167206Y-794279D01*
X2173464Y-791264D01*
X2472619Y-667350D01*
X2479210Y-665045D01*
X2790312Y-575418D01*
X2797117Y-573865D01*
X3116304Y-519633D01*
X3123257Y-518849D01*
X3448255Y-500598D01*
X3451759Y-500500D01*
X3515892Y-500500D01*
X41484108Y-500500D01*
X41548241Y-500500D01*
X41551745Y-500598D01*
G37*
G04 #@! TD.AperFunction*
G04 #@! TA.AperFunction,Conductor*
G36*
X2790694Y-20409306D02*
G01*
X2809000Y-20453500D01*
X2809000Y-33002253D01*
X2790694Y-33046447D01*
X2746500Y-33064753D01*
X2702306Y-33046447D01*
X2608083Y-32952224D01*
X2608079Y-32952221D01*
X2608078Y-32952220D01*
X2559995Y-32924459D01*
X2542214Y-32911387D01*
X2516599Y-32899403D01*
X2514262Y-32898054D01*
X2514261Y-32898053D01*
X2500174Y-32889921D01*
X2493950Y-32886328D01*
X2493949Y-32886327D01*
X2493948Y-32886327D01*
X2486856Y-32884427D01*
X2476551Y-32880669D01*
X2067726Y-32689418D01*
X2050015Y-32677000D01*
X1058806Y-31685791D01*
X1040500Y-31641597D01*
X1040500Y-28680438D01*
X1040499Y-28680432D01*
X1027719Y-28632741D01*
X1020021Y-28604011D01*
X980460Y-28535489D01*
X924511Y-28479540D01*
X-1181194Y-26373835D01*
X-1199500Y-26329641D01*
X-1199500Y-25140692D01*
X1349500Y-25140692D01*
X1349500Y-25259307D01*
X1349501Y-25259315D01*
X1380200Y-25373885D01*
X1380203Y-25373891D01*
X1439508Y-25476609D01*
X1439515Y-25476618D01*
X1518703Y-25555806D01*
X1537009Y-25600000D01*
X1518703Y-25644194D01*
X1439515Y-25723381D01*
X1439508Y-25723390D01*
X1380203Y-25826108D01*
X1380200Y-25826114D01*
X1349501Y-25940684D01*
X1349500Y-25940692D01*
X1349500Y-26059307D01*
X1349501Y-26059315D01*
X1380200Y-26173885D01*
X1380203Y-26173891D01*
X1439508Y-26276609D01*
X1439515Y-26276618D01*
X1523381Y-26360484D01*
X1523390Y-26360491D01*
X1626108Y-26419796D01*
X1626114Y-26419799D01*
X1740691Y-26450500D01*
X1740692Y-26450500D01*
X1859308Y-26450500D01*
X1859309Y-26450500D01*
X1973886Y-26419799D01*
X2076613Y-26360489D01*
X2160489Y-26276613D01*
X2219799Y-26173886D01*
X2250500Y-26059309D01*
X2250500Y-25940691D01*
X2219799Y-25826114D01*
X2160489Y-25723387D01*
X2160487Y-25723385D01*
X2160484Y-25723381D01*
X2081297Y-25644194D01*
X2062991Y-25600000D01*
X2081297Y-25555806D01*
X2160484Y-25476618D01*
X2160489Y-25476613D01*
X2219799Y-25373886D01*
X2250500Y-25259309D01*
X2250500Y-25140691D01*
X2219799Y-25026114D01*
X2160489Y-24923387D01*
X2160487Y-24923385D01*
X2160484Y-24923381D01*
X2076618Y-24839515D01*
X2076609Y-24839508D01*
X1973891Y-24780203D01*
X1973885Y-24780200D01*
X1859315Y-24749501D01*
X1859310Y-24749500D01*
X1859309Y-24749500D01*
X1740691Y-24749500D01*
X1740690Y-24749500D01*
X1740684Y-24749501D01*
X1626114Y-24780200D01*
X1626108Y-24780203D01*
X1523390Y-24839508D01*
X1523381Y-24839515D01*
X1439515Y-24923381D01*
X1439508Y-24923390D01*
X1380203Y-25026108D01*
X1380200Y-25026114D01*
X1349501Y-25140684D01*
X1349500Y-25140692D01*
X-1199500Y-25140692D01*
X-1199500Y-23434109D01*
X-850500Y-23434109D01*
X-850500Y-23565890D01*
X-850499Y-23565898D01*
X-816394Y-23693182D01*
X-816393Y-23693185D01*
X-750499Y-23807315D01*
X-750496Y-23807319D01*
X-657320Y-23900495D01*
X-657316Y-23900498D01*
X-657314Y-23900500D01*
X-555624Y-23959211D01*
X-543186Y-23966392D01*
X-543183Y-23966393D01*
X-465288Y-23987264D01*
X-415892Y-24000500D01*
X-415891Y-24000500D01*
X-284109Y-24000500D01*
X-284108Y-24000500D01*
X-156814Y-23966392D01*
X-42686Y-23900500D01*
X-14711Y-23872523D01*
X29481Y-23854218D01*
X73676Y-23872522D01*
X73677Y-23872524D01*
X160361Y-23959208D01*
X160364Y-23959210D01*
X160367Y-23959213D01*
X274495Y-24025105D01*
X274498Y-24025106D01*
X352393Y-24045977D01*
X401789Y-24059213D01*
X401790Y-24059213D01*
X533572Y-24059213D01*
X533573Y-24059213D01*
X660867Y-24025105D01*
X774995Y-23959213D01*
X774996Y-23959211D01*
X774999Y-23959210D01*
X778244Y-23956720D01*
X779429Y-23958264D01*
X817660Y-23942413D01*
X855938Y-23958252D01*
X857117Y-23956717D01*
X860367Y-23959210D01*
X860370Y-23959213D01*
X974498Y-24025105D01*
X974501Y-24025106D01*
X1052396Y-24045977D01*
X1101792Y-24059213D01*
X1101793Y-24059213D01*
X1233575Y-24059213D01*
X1233576Y-24059213D01*
X1360870Y-24025105D01*
X1474998Y-23959213D01*
X1475003Y-23959207D01*
X1478251Y-23956717D01*
X1479725Y-23958639D01*
X1516798Y-23943245D01*
X1556229Y-23959536D01*
X1557118Y-23958378D01*
X1560369Y-23960872D01*
X1560371Y-23960874D01*
X1671622Y-24025105D01*
X1674499Y-24026766D01*
X1674502Y-24026767D01*
X1752397Y-24047638D01*
X1801793Y-24060874D01*
X1801794Y-24060874D01*
X1933576Y-24060874D01*
X1933577Y-24060874D01*
X2060871Y-24026766D01*
X2174999Y-23960874D01*
X2268185Y-23867688D01*
X2334077Y-23753560D01*
X2368185Y-23626266D01*
X2368185Y-23494482D01*
X2334077Y-23367188D01*
X2268185Y-23253060D01*
X2268183Y-23253058D01*
X2268180Y-23253054D01*
X2175004Y-23159878D01*
X2175000Y-23159875D01*
X2174999Y-23159874D01*
X2117935Y-23126928D01*
X2060870Y-23093981D01*
X2060867Y-23093980D01*
X1933583Y-23059875D01*
X1933578Y-23059874D01*
X1933577Y-23059874D01*
X1801793Y-23059874D01*
X1801792Y-23059874D01*
X1801786Y-23059875D01*
X1674502Y-23093980D01*
X1674499Y-23093981D01*
X1560369Y-23159875D01*
X1557118Y-23162370D01*
X1555660Y-23160470D01*
X1518458Y-23175841D01*
X1479152Y-23159534D01*
X1478251Y-23160709D01*
X1474999Y-23158214D01*
X1474998Y-23158213D01*
X1417934Y-23125267D01*
X1360869Y-23092320D01*
X1360866Y-23092319D01*
X1233582Y-23058214D01*
X1233577Y-23058213D01*
X1233576Y-23058213D01*
X1101792Y-23058213D01*
X1101791Y-23058213D01*
X1101785Y-23058214D01*
X974501Y-23092319D01*
X974498Y-23092320D01*
X860366Y-23158215D01*
X857121Y-23160706D01*
X855946Y-23159174D01*
X817637Y-23175011D01*
X779429Y-23159168D01*
X778248Y-23160709D01*
X774996Y-23158214D01*
X774995Y-23158213D01*
X717931Y-23125267D01*
X660866Y-23092320D01*
X660863Y-23092319D01*
X533579Y-23058214D01*
X533574Y-23058213D01*
X533573Y-23058213D01*
X401789Y-23058213D01*
X401788Y-23058213D01*
X401782Y-23058214D01*
X274498Y-23092319D01*
X274495Y-23092320D01*
X160365Y-23158214D01*
X132390Y-23186189D01*
X88196Y-23204494D01*
X44003Y-23186188D01*
X-42681Y-23099504D01*
X-42685Y-23099501D01*
X-42686Y-23099500D01*
X-114197Y-23058213D01*
X-156815Y-23033607D01*
X-156818Y-23033606D01*
X-284102Y-22999501D01*
X-284107Y-22999500D01*
X-284108Y-22999500D01*
X-415892Y-22999500D01*
X-415893Y-22999500D01*
X-415899Y-22999501D01*
X-543183Y-23033606D01*
X-543186Y-23033607D01*
X-657316Y-23099501D01*
X-657320Y-23099504D01*
X-750496Y-23192680D01*
X-750499Y-23192684D01*
X-816393Y-23306814D01*
X-816394Y-23306817D01*
X-850499Y-23434101D01*
X-850500Y-23434109D01*
X-1199500Y-23434109D01*
X-1199500Y-21600358D01*
X-1181197Y-21556167D01*
X-1130742Y-21505712D01*
X-1113040Y-21493300D01*
X-704213Y-21302048D01*
X-693911Y-21298293D01*
X-689417Y-21297089D01*
X-686817Y-21296393D01*
X-686817Y-21296392D01*
X-686814Y-21296392D01*
X-666464Y-21284642D01*
X-661752Y-21282185D01*
X-638550Y-21271332D01*
X-624912Y-21264321D01*
X-623402Y-21263472D01*
X-620301Y-21261693D01*
X-615338Y-21257031D01*
X-603806Y-21248466D01*
X-572686Y-21230500D01*
X-479500Y-21137314D01*
X-413608Y-21023186D01*
X-379500Y-20895892D01*
X-379500Y-20764108D01*
X-407558Y-20659393D01*
X-413607Y-20636817D01*
X-413608Y-20636814D01*
X-426678Y-20614176D01*
X-479500Y-20522686D01*
X-479502Y-20522684D01*
X-479505Y-20522680D01*
X-504491Y-20497694D01*
X-522797Y-20453500D01*
X-504491Y-20409306D01*
X-460297Y-20391000D01*
X2746500Y-20391000D01*
X2790694Y-20409306D01*
G37*
G04 #@! TD.AperFunction*
G04 #@! TA.AperFunction,Conductor*
G36*
X1120075Y-14521268D02*
G01*
X1133623Y-14541544D01*
X1168408Y-14625522D01*
X1168409Y-14625524D01*
X1234254Y-14724067D01*
X1238996Y-14731164D01*
X1328836Y-14821004D01*
X1434478Y-14891592D01*
X1551860Y-14940213D01*
X1676473Y-14965000D01*
X2183527Y-14965000D01*
X2308140Y-14940213D01*
X2425522Y-14891592D01*
X2531164Y-14821004D01*
X2621004Y-14731164D01*
X2760307Y-14591861D01*
X2804501Y-14573555D01*
X2848695Y-14591861D01*
X2867001Y-14636055D01*
X2867001Y-15049629D01*
X2864334Y-15067693D01*
X2712743Y-15569796D01*
X2710176Y-15579075D01*
X2709915Y-15580115D01*
X2709913Y-15580129D01*
X2709662Y-15589534D01*
X2707555Y-15604038D01*
X2699501Y-15634101D01*
X2699500Y-15634110D01*
X2699500Y-15765893D01*
X2704136Y-15783195D01*
X2706264Y-15799688D01*
X2706216Y-15808983D01*
X2805912Y-16323827D01*
X2806522Y-16326069D01*
X2806064Y-16326193D01*
X2809000Y-16343283D01*
X2809000Y-19546500D01*
X2790694Y-19590694D01*
X2746500Y-19609000D01*
X-2220530Y-19609000D01*
X-2220546Y-19608999D01*
X-2224371Y-19608999D01*
X-2327323Y-19608999D01*
X-2327329Y-19608999D01*
X-2426765Y-19635645D01*
X-2426767Y-19635645D01*
X-2489440Y-19671829D01*
X-2515927Y-19687122D01*
X-2515928Y-19687123D01*
X-2515932Y-19687126D01*
X-2588727Y-19759922D01*
X-2750153Y-19921347D01*
X-2761118Y-19930087D01*
X-2775048Y-19938831D01*
X-2775050Y-19938832D01*
X-2775052Y-19938834D01*
X-2997464Y-20148917D01*
X-3014315Y-20155340D01*
X-3029523Y-20165031D01*
X-3035982Y-20163599D01*
X-3042162Y-20165956D01*
X-3058620Y-20158582D01*
X-3076226Y-20154681D01*
X-3079377Y-20149283D01*
X-3085817Y-20146398D01*
X-3101931Y-20114339D01*
X-3102355Y-20111940D01*
X-3103934Y-20095637D01*
X-3107539Y-20082551D01*
X-3108050Y-20079652D01*
X-3107729Y-20078200D01*
X-3109000Y-20068794D01*
X-3109000Y-17687846D01*
X-3090694Y-17643652D01*
X-1856348Y-16409306D01*
X-1812154Y-16391000D01*
X-948525Y-16391000D01*
X-948524Y-16391000D01*
X-849079Y-16364354D01*
X-759920Y-16312878D01*
X1031688Y-14521267D01*
X1075881Y-14502962D01*
X1120075Y-14521268D01*
G37*
G04 #@! TD.AperFunction*
G04 #@! TA.AperFunction,Conductor*
G36*
X2034976Y-9406369D02*
G01*
X2051853Y-9437276D01*
X2061545Y-9481824D01*
X2068781Y-9508198D01*
X2118112Y-9594828D01*
X2163867Y-9647632D01*
X2196641Y-9679257D01*
X2196643Y-9679258D01*
X2196644Y-9679259D01*
X2213622Y-9688140D01*
X2284976Y-9725465D01*
X2352015Y-9745150D01*
X2364068Y-9746882D01*
X2386423Y-9754619D01*
X2406814Y-9766392D01*
X2534108Y-9800500D01*
X2534109Y-9800500D01*
X2665887Y-9800500D01*
X2665892Y-9800500D01*
X2665940Y-9800486D01*
X2666508Y-9800418D01*
X2669955Y-9799965D01*
X2669960Y-9800005D01*
X2681154Y-9798662D01*
X2681151Y-9798616D01*
X2682206Y-9798536D01*
X2683597Y-9798370D01*
X2684200Y-9798383D01*
X2684214Y-9798385D01*
X2684227Y-9798383D01*
X2684228Y-9798384D01*
X2760898Y-9792625D01*
X3121593Y-9765533D01*
X3157523Y-9773729D01*
X3215693Y-9807314D01*
X3275549Y-9841872D01*
X3275552Y-9841873D01*
X3285446Y-9844524D01*
X3423444Y-9881500D01*
X3619603Y-9881500D01*
X3619619Y-9881501D01*
X3623444Y-9881501D01*
X3780381Y-9881501D01*
X3780397Y-9881500D01*
X4123444Y-9881500D01*
X4276556Y-9881500D01*
X4923444Y-9881500D01*
X5619603Y-9881500D01*
X5619619Y-9881501D01*
X5623444Y-9881501D01*
X5780381Y-9881501D01*
X5780397Y-9881500D01*
X19833247Y-9881500D01*
X19877441Y-9899806D01*
X21026194Y-11048559D01*
X21044500Y-11092753D01*
X21044500Y-11976007D01*
X21050338Y-12030307D01*
X21061542Y-12081814D01*
X21061545Y-12081824D01*
X21068781Y-12108198D01*
X21116259Y-12191574D01*
X21122220Y-12239035D01*
X21092874Y-12276812D01*
X21061947Y-12285000D01*
X8247765Y-12285000D01*
X8203571Y-12266694D01*
X8185265Y-12222500D01*
X8203571Y-12178306D01*
X8213042Y-12170533D01*
X8238114Y-12153779D01*
X8367782Y-12067139D01*
X8507139Y-11927782D01*
X8616632Y-11763914D01*
X8692051Y-11581835D01*
X8730500Y-11388541D01*
X8730500Y-11191459D01*
X8692051Y-10998165D01*
X8616632Y-10816086D01*
X8507139Y-10652218D01*
X8367782Y-10512861D01*
X8203914Y-10403368D01*
X8021835Y-10327949D01*
X8021833Y-10327948D01*
X7828541Y-10289500D01*
X7631459Y-10289500D01*
X7438166Y-10327948D01*
X7256084Y-10403369D01*
X7092218Y-10512860D01*
X6952860Y-10652218D01*
X6843369Y-10816084D01*
X6767948Y-10998166D01*
X6729500Y-11191458D01*
X6729500Y-11388541D01*
X6767948Y-11581833D01*
X6767949Y-11581835D01*
X6843368Y-11763914D01*
X6843369Y-11763915D01*
X6952860Y-11927781D01*
X7092218Y-12067139D01*
X7246958Y-12170533D01*
X7273534Y-12210307D01*
X7264202Y-12257223D01*
X7224428Y-12283799D01*
X7212235Y-12285000D01*
X1946473Y-12285000D01*
X1821861Y-12309786D01*
X1821860Y-12309786D01*
X1704477Y-12358408D01*
X1704475Y-12358409D01*
X1598836Y-12428995D01*
X1598834Y-12428997D01*
X1508996Y-12518836D01*
X1508994Y-12518838D01*
X1454194Y-12573638D01*
X1401694Y-12626137D01*
X1357499Y-12644442D01*
X1313305Y-12626136D01*
X1295000Y-12581942D01*
X1295000Y-10083846D01*
X1313306Y-10039652D01*
X1627494Y-9725464D01*
X1946589Y-9406368D01*
X1990782Y-9388063D01*
X2034976Y-9406369D01*
G37*
G04 #@! TD.AperFunction*
G04 #@! TD*
G04 #@! TA.AperFunction,Conductor*
G04 #@! TO.N,+5V*
G36*
X2600707Y-8199293D02*
G01*
X2766671Y-8449441D01*
X2314516Y-8754891D01*
X2300000Y-8740375D01*
X2300000Y-8740374D01*
X2299999Y-8740373D01*
X2051933Y-8492308D01*
X2048506Y-8484035D01*
X2050510Y-8477488D01*
X2350559Y-8033329D01*
X2600707Y-8199293D01*
G37*
G04 #@! TD.AperFunction*
G04 #@! TD*
G04 #@! TA.AperFunction,Conductor*
G04 #@! TO.N,+5V*
G36*
X-3311848Y-20108315D02*
G01*
X-3308476Y-20115459D01*
X-3267255Y-20540813D01*
X-3269867Y-20549379D01*
X-3276572Y-20553408D01*
X-3509105Y-20600611D01*
X-3513761Y-20600611D01*
X-3745758Y-20553517D01*
X-3753184Y-20548513D01*
X-3755004Y-20540338D01*
X-3691979Y-20114874D01*
X-3687377Y-20107192D01*
X-3680405Y-20104888D01*
X-3320121Y-20104888D01*
X-3311848Y-20108315D01*
G37*
G04 #@! TD.AperFunction*
G04 #@! TD*
G04 #@! TA.AperFunction,Conductor*
G04 #@! TO.N,VREF*
G36*
X-2617633Y-20088458D02*
G01*
X-2362939Y-20343152D01*
X-2359512Y-20351425D01*
X-2361375Y-20357760D01*
X-2597165Y-20723881D01*
X-2604526Y-20728981D01*
X-2613337Y-20727383D01*
X-2613464Y-20727300D01*
X-2618625Y-20723881D01*
X-2634487Y-20713372D01*
X-2810176Y-20596972D01*
X-2813468Y-20593680D01*
X-2944905Y-20395294D01*
X-2946617Y-20386505D01*
X-2943186Y-20380327D01*
X-2633938Y-20088223D01*
X-2625573Y-20085036D01*
X-2617633Y-20088458D01*
G37*
G04 #@! TD.AperFunction*
G04 #@! TD*
G04 #@! TA.AperFunction,Conductor*
G04 #@! TO.N,VREF*
G36*
X3482863Y-15756226D02*
G01*
X3490292Y-15761226D01*
X3492030Y-15769918D01*
X3392335Y-16284760D01*
X3387397Y-16292231D01*
X3380848Y-16294236D01*
X3019152Y-16294236D01*
X3010879Y-16290809D01*
X3007665Y-16284760D01*
X2907969Y-15769916D01*
X2909761Y-15761145D01*
X2917135Y-15756226D01*
X3197682Y-15699469D01*
X3202318Y-15699469D01*
X3482863Y-15756226D01*
G37*
G04 #@! TD.AperFunction*
G04 #@! TD*
G04 #@! TA.AperFunction,Conductor*
G04 #@! TO.N,iRefree*
G36*
X-1119638Y-20669986D02*
G01*
X-1118128Y-20670835D01*
X-881266Y-20827984D01*
X-877985Y-20831265D01*
X-720836Y-21068127D01*
X-719117Y-21076915D01*
X-724117Y-21084344D01*
X-725627Y-21085193D01*
X-1222047Y-21317422D01*
X-1230993Y-21317823D01*
X-1235278Y-21315097D01*
X-1365098Y-21185277D01*
X-1368525Y-21177004D01*
X-1367425Y-21172051D01*
X-1135194Y-20675625D01*
X-1128584Y-20669585D01*
X-1119638Y-20669986D01*
G37*
G04 #@! TD.AperFunction*
G04 #@! TD*
G04 #@! TA.AperFunction,Conductor*
G04 #@! TO.N,iRefree*
G36*
X1958713Y-32865296D02*
G01*
X2269477Y-33010673D01*
X2455137Y-33097526D01*
X2461178Y-33104136D01*
X2460777Y-33113082D01*
X2459928Y-33114592D01*
X2302779Y-33351454D01*
X2299498Y-33354735D01*
X2062636Y-33511884D01*
X2053848Y-33513603D01*
X2046419Y-33508603D01*
X2045570Y-33507093D01*
X1972761Y-33351454D01*
X1813340Y-33010671D01*
X1812940Y-33001727D01*
X1815664Y-32997444D01*
X1945487Y-32867621D01*
X1953759Y-32864195D01*
X1958713Y-32865296D01*
G37*
G04 #@! TD.AperFunction*
G04 #@! TD*
G04 #@! TA.AperFunction,Conductor*
G04 #@! TO.N,VREF*
G36*
X26213258Y-30089806D02*
G01*
X26213596Y-30090022D01*
X26446601Y-30244612D01*
X26451681Y-30247983D01*
X26454962Y-30251264D01*
X26612906Y-30489323D01*
X26614625Y-30498111D01*
X26609625Y-30505540D01*
X26609261Y-30505773D01*
X26157363Y-30782122D01*
X26148517Y-30783514D01*
X26142986Y-30780413D01*
X25922532Y-30559959D01*
X25919105Y-30551686D01*
X25920823Y-30545582D01*
X26197173Y-30093682D01*
X26204412Y-30088414D01*
X26213258Y-30089806D01*
G37*
G04 #@! TD.AperFunction*
G04 #@! TD*
G04 #@! TA.AperFunction,Conductor*
G04 #@! TO.N,VREF*
G36*
X17023496Y-32017443D02*
G01*
X17028785Y-32024669D01*
X17028886Y-32025120D01*
X17085530Y-32305106D01*
X17085530Y-32309746D01*
X17028874Y-32589794D01*
X17023874Y-32597223D01*
X17015086Y-32598942D01*
X17014694Y-32598855D01*
X16499752Y-32476141D01*
X16492498Y-32470890D01*
X16490764Y-32464760D01*
X16490764Y-32152990D01*
X16494191Y-32144717D01*
X16499693Y-32141623D01*
X17014647Y-32016073D01*
X17023496Y-32017443D01*
G37*
G04 #@! TD.AperFunction*
G04 #@! TD*
G04 #@! TA.AperFunction,Conductor*
G04 #@! TO.N,VREF*
G36*
X2638492Y-34698117D02*
G01*
X2858904Y-34918529D01*
X2862331Y-34926802D01*
X2860137Y-34933622D01*
X2556016Y-35357506D01*
X2548409Y-35362231D01*
X2540042Y-35360435D01*
X2301265Y-35202015D01*
X2297984Y-35198734D01*
X2294279Y-35193150D01*
X2140534Y-34961419D01*
X2138816Y-34952633D01*
X2143816Y-34945204D01*
X2144892Y-34944570D01*
X2624840Y-34696000D01*
X2633761Y-34695239D01*
X2638492Y-34698117D01*
G37*
G04 #@! TD.AperFunction*
G04 #@! TD*
G04 #@! TA.AperFunction,Conductor*
G04 #@! TO.N,VREF*
G36*
X17155331Y-32016035D02*
G01*
X17670279Y-32140166D01*
X17677518Y-32145436D01*
X17679236Y-32151540D01*
X17679236Y-32463311D01*
X17675809Y-32471584D01*
X17670278Y-32474685D01*
X17155329Y-32598816D01*
X17146483Y-32597424D01*
X17141213Y-32590184D01*
X17141124Y-32589786D01*
X17084469Y-32309744D01*
X17084469Y-32305106D01*
X17117838Y-32140166D01*
X17141120Y-32025087D01*
X17146119Y-32017660D01*
X17154907Y-32015941D01*
X17155331Y-32016035D01*
G37*
G04 #@! TD.AperFunction*
G04 #@! TD*
G04 #@! TA.AperFunction,Conductor*
G04 #@! TO.N,VREF*
G36*
X2584569Y-33789954D02*
G01*
X2840323Y-34045708D01*
X2843750Y-34053981D01*
X2841874Y-34060336D01*
X2555869Y-34502493D01*
X2548498Y-34507578D01*
X2539690Y-34505962D01*
X2539577Y-34505887D01*
X2301265Y-34347776D01*
X2297984Y-34344495D01*
X2139615Y-34105795D01*
X2137896Y-34097007D01*
X2142620Y-34089767D01*
X2569555Y-33788665D01*
X2578289Y-33786698D01*
X2584569Y-33789954D01*
G37*
G04 #@! TD.AperFunction*
G04 #@! TD*
G04 #@! TA.AperFunction,Conductor*
G04 #@! TO.N,+12V*
G36*
X30898207Y-33596793D02*
G01*
X31064171Y-33846941D01*
X30852760Y-34028813D01*
X30665145Y-34190214D01*
X30656639Y-34193011D01*
X30649242Y-34189617D01*
X30305382Y-33845757D01*
X30301955Y-33837484D01*
X30304785Y-33829854D01*
X30648059Y-33430829D01*
X30898207Y-33596793D01*
G37*
G04 #@! TD.AperFunction*
G04 #@! TD*
G04 #@! TA.AperFunction,Conductor*
G04 #@! TO.N,+12V*
G36*
X31191736Y-33538973D02*
G01*
X30897500Y-33598500D01*
X30603264Y-33538973D01*
X30643500Y-33003264D01*
X31151500Y-33003264D01*
X31191736Y-33538973D01*
G37*
G04 #@! TD.AperFunction*
G04 #@! TD*
G04 #@! TA.AperFunction,Conductor*
G04 #@! TO.N,+12V*
G36*
X31191736Y-32958527D02*
G01*
X31151500Y-33494236D01*
X30643500Y-33494236D01*
X30603264Y-32958527D01*
X30897500Y-32899000D01*
X31191736Y-32958527D01*
G37*
G04 #@! TD.AperFunction*
G04 #@! TD*
G04 #@! TA.AperFunction,Conductor*
G04 #@! TO.N,ibeta*
G36*
X18372676Y-30534444D02*
G01*
X18378700Y-30541070D01*
X18379158Y-30542709D01*
X18435530Y-30821354D01*
X18435530Y-30825994D01*
X18379158Y-31104638D01*
X18374158Y-31112067D01*
X18365370Y-31113786D01*
X18363731Y-31113328D01*
X17848505Y-30928057D01*
X17841879Y-30922033D01*
X17840764Y-30917047D01*
X17840764Y-30730300D01*
X17844191Y-30722027D01*
X17848503Y-30719290D01*
X18363733Y-30534019D01*
X18372676Y-30534444D01*
G37*
G04 #@! TD.AperFunction*
G04 #@! TD*
G04 #@! TA.AperFunction,Conductor*
G04 #@! TO.N,ibeta*
G36*
X5655526Y-28743332D02*
G01*
X5655768Y-28743711D01*
X5930513Y-29194549D01*
X5931892Y-29203397D01*
X5928795Y-29208911D01*
X5796749Y-29340957D01*
X5788476Y-29344384D01*
X5784736Y-29343770D01*
X5351186Y-29197512D01*
X5344442Y-29191621D01*
X5343445Y-29184175D01*
X5398353Y-28904085D01*
X5403304Y-28896631D01*
X5639309Y-28740050D01*
X5648097Y-28738332D01*
X5655526Y-28743332D01*
G37*
G04 #@! TD.AperFunction*
G04 #@! TD*
G04 #@! TA.AperFunction,Conductor*
G04 #@! TO.N,iaside*
G36*
X4230431Y-14755835D02*
G01*
X4237859Y-14760834D01*
X4239578Y-14769622D01*
X4239109Y-14771290D01*
X4052297Y-15286524D01*
X4046256Y-15293134D01*
X4041298Y-15294236D01*
X3857704Y-15294236D01*
X3849431Y-15290809D01*
X3846705Y-15286524D01*
X3799045Y-15155078D01*
X3659892Y-14771288D01*
X3660293Y-14762344D01*
X3666903Y-14756303D01*
X3668557Y-14755837D01*
X3947183Y-14699469D01*
X3951819Y-14699469D01*
X4230431Y-14755835D01*
G37*
G04 #@! TD.AperFunction*
G04 #@! TD*
G04 #@! TA.AperFunction,Conductor*
G04 #@! TO.N,iaside*
G36*
X4692969Y-30251425D02*
G01*
X4987377Y-30283785D01*
X4995227Y-30288095D01*
X4997729Y-30296693D01*
X4997582Y-30297660D01*
X4944746Y-30567897D01*
X4939795Y-30575359D01*
X4931018Y-30577135D01*
X4930988Y-30577129D01*
X4661839Y-30523774D01*
X4654390Y-30518804D01*
X4652637Y-30510022D01*
X4653492Y-30507391D01*
X4680000Y-30450000D01*
X4680000Y-30263056D01*
X4683427Y-30254783D01*
X4691700Y-30251356D01*
X4692969Y-30251425D01*
G37*
G04 #@! TD.AperFunction*
G04 #@! TD*
G04 #@! TA.AperFunction,Conductor*
G04 #@! TO.N,Vbside*
G36*
X5771261Y-31310343D02*
G01*
X6286495Y-31495616D01*
X6293121Y-31501640D01*
X6294236Y-31506626D01*
X6294236Y-31693373D01*
X6290809Y-31701646D01*
X6286495Y-31704383D01*
X5771268Y-31889654D01*
X5762323Y-31889229D01*
X5756299Y-31882603D01*
X5755844Y-31880976D01*
X5699469Y-31602318D01*
X5699469Y-31597680D01*
X5755842Y-31319032D01*
X5760841Y-31311606D01*
X5769629Y-31309887D01*
X5771261Y-31310343D01*
G37*
G04 #@! TD.AperFunction*
G04 #@! TD*
G04 #@! TA.AperFunction,Conductor*
G04 #@! TO.N,Vbside*
G36*
X24641017Y-30720663D02*
G01*
X24877810Y-30877767D01*
X24882809Y-30885193D01*
X24882822Y-30885263D01*
X24882823Y-30885264D01*
X24937487Y-31164108D01*
X24935716Y-31172886D01*
X24928436Y-31177804D01*
X24474348Y-31274228D01*
X24465544Y-31272594D01*
X24463645Y-31271056D01*
X24331563Y-31138974D01*
X24328136Y-31130701D01*
X24330413Y-31123766D01*
X24625130Y-30723474D01*
X24632794Y-30718846D01*
X24641017Y-30720663D01*
G37*
G04 #@! TD.AperFunction*
G04 #@! TD*
G04 #@! TA.AperFunction,Conductor*
G04 #@! TO.N,+5V*
G36*
X3194236Y-9046000D02*
G01*
X3194236Y-9500000D01*
X3194236Y-9543145D01*
X3190809Y-9551418D01*
X3183412Y-9554812D01*
X2668823Y-9593462D01*
X2660317Y-9590665D01*
X2656479Y-9584115D01*
X2639462Y-9500000D01*
X2599000Y-9300000D01*
X2658527Y-9005764D01*
X3194236Y-9046000D01*
G37*
G04 #@! TD.AperFunction*
G04 #@! TD*
G04 #@! TA.AperFunction,Conductor*
G04 #@! TO.N,+5V*
G36*
X21894236Y-11726973D02*
G01*
X21600000Y-11786500D01*
X21305764Y-11726973D01*
X21346000Y-11191264D01*
X21854000Y-11191264D01*
X21894236Y-11726973D01*
G37*
G04 #@! TD.AperFunction*
G04 #@! TD*
G04 #@! TA.AperFunction,Conductor*
G04 #@! TO.N,+5V*
G36*
X21894236Y-10858527D02*
G01*
X21854000Y-11394236D01*
X21346000Y-11394236D01*
X21305764Y-10858527D01*
X21600000Y-10799000D01*
X21894236Y-10858527D01*
G37*
G04 #@! TD.AperFunction*
G04 #@! TD*
G04 #@! TA.AperFunction,Conductor*
G04 #@! TO.N,+12V*
G36*
X29783932Y-14809334D02*
G01*
X29787770Y-14815884D01*
X29844780Y-15097680D01*
X29844780Y-15102320D01*
X29787770Y-15384115D01*
X29782770Y-15391544D01*
X29775426Y-15393462D01*
X29260838Y-15354812D01*
X29252844Y-15350775D01*
X29250014Y-15343145D01*
X29250014Y-14856854D01*
X29253441Y-14848581D01*
X29260838Y-14845187D01*
X29775426Y-14806537D01*
X29783932Y-14809334D01*
G37*
G04 #@! TD.AperFunction*
G04 #@! TD*
G04 #@! TA.AperFunction,Conductor*
G04 #@! TO.N,+12V*
G36*
X29427662Y-14845187D02*
G01*
X29435656Y-14849224D01*
X29438486Y-14856854D01*
X29438486Y-15343145D01*
X29435059Y-15351418D01*
X29427662Y-15354812D01*
X28913073Y-15393462D01*
X28904567Y-15390665D01*
X28900729Y-15384115D01*
X28894636Y-15354000D01*
X28843719Y-15102318D01*
X28843719Y-15097680D01*
X28900729Y-14815882D01*
X28905729Y-14808455D01*
X28913072Y-14806537D01*
X29427662Y-14845187D01*
G37*
G04 #@! TD.AperFunction*
G04 #@! TD*
G04 #@! TA.AperFunction,Conductor*
G04 #@! TO.N,+12V*
G36*
X16656174Y-1641156D02*
G01*
X16992714Y-2032354D01*
X16995511Y-2040860D01*
X16992117Y-2048257D01*
X16648257Y-2392117D01*
X16639984Y-2395544D01*
X16632354Y-2392714D01*
X16241156Y-2056174D01*
X16237119Y-2048180D01*
X16239036Y-2040838D01*
X16397985Y-1801263D01*
X16401263Y-1797985D01*
X16640838Y-1639036D01*
X16649624Y-1637318D01*
X16656174Y-1641156D01*
G37*
G04 #@! TD.AperFunction*
G04 #@! TD*
G04 #@! TA.AperFunction,Conductor*
G04 #@! TO.N,+12V*
G36*
X16767645Y-1807285D02*
G01*
X17158843Y-2143825D01*
X17162880Y-2151819D01*
X17160962Y-2159163D01*
X17002015Y-2398734D01*
X16998734Y-2402015D01*
X16759163Y-2560962D01*
X16750375Y-2562681D01*
X16743825Y-2558843D01*
X16407285Y-2167645D01*
X16404488Y-2159139D01*
X16407881Y-2151743D01*
X16751743Y-1807881D01*
X16760015Y-1804455D01*
X16767645Y-1807285D01*
G37*
G04 #@! TD.AperFunction*
G04 #@! TD*
G04 #@! TA.AperFunction,Conductor*
G04 #@! TO.N,+12V*
G36*
X37283412Y-1945187D02*
G01*
X37291406Y-1949224D01*
X37294236Y-1956854D01*
X37294236Y-2443145D01*
X37290809Y-2451418D01*
X37283412Y-2454812D01*
X36768823Y-2493462D01*
X36760317Y-2490665D01*
X36756479Y-2484115D01*
X36750386Y-2454000D01*
X36699469Y-2202318D01*
X36699469Y-2197680D01*
X36756479Y-1915882D01*
X36761479Y-1908455D01*
X36768822Y-1906537D01*
X37283412Y-1945187D01*
G37*
G04 #@! TD.AperFunction*
G04 #@! TD*
G04 #@! TA.AperFunction,Conductor*
G04 #@! TO.N,+12V*
G36*
X37439682Y-1909334D02*
G01*
X37443520Y-1915884D01*
X37500530Y-2197680D01*
X37500530Y-2202320D01*
X37443520Y-2484115D01*
X37438520Y-2491544D01*
X37431176Y-2493462D01*
X36916588Y-2454812D01*
X36908594Y-2450775D01*
X36905764Y-2443145D01*
X36905764Y-1956854D01*
X36909191Y-1948581D01*
X36916588Y-1945187D01*
X37431176Y-1906537D01*
X37439682Y-1909334D01*
G37*
G04 #@! TD.AperFunction*
G04 #@! TD*
G04 #@! TA.AperFunction,Conductor*
G04 #@! TO.N,+12V*
G36*
X18955412Y-14387315D02*
G01*
X18957350Y-14389877D01*
X19144179Y-14723921D01*
X19145227Y-14732814D01*
X19140495Y-14739342D01*
X18901963Y-14899680D01*
X18897681Y-14901453D01*
X18616382Y-14956450D01*
X18607605Y-14954674D01*
X18602865Y-14948101D01*
X18540537Y-14723921D01*
X18450124Y-14398721D01*
X18451209Y-14389833D01*
X18458262Y-14384316D01*
X18461396Y-14383888D01*
X18947139Y-14383888D01*
X18955412Y-14387315D01*
G37*
G04 #@! TD.AperFunction*
G04 #@! TD*
G04 #@! TA.AperFunction,Conductor*
G04 #@! TO.N,+12V*
G36*
X26502166Y-11206643D02*
G01*
X26505762Y-11214845D01*
X26505764Y-11215084D01*
X26505764Y-11672411D01*
X26502337Y-11680684D01*
X26494064Y-11684111D01*
X26487677Y-11682214D01*
X26217601Y-11506240D01*
X26212540Y-11498852D01*
X26214185Y-11490050D01*
X26215547Y-11488335D01*
X26485623Y-11206982D01*
X26493825Y-11203386D01*
X26502166Y-11206643D01*
G37*
G04 #@! TD.AperFunction*
G04 #@! TD*
G04 #@! TA.AperFunction,Conductor*
G04 #@! TO.N,+12V*
G36*
X27479682Y-11149334D02*
G01*
X27483520Y-11155884D01*
X27540530Y-11437680D01*
X27540530Y-11442320D01*
X27483520Y-11724115D01*
X27478520Y-11731544D01*
X27471176Y-11733462D01*
X26956588Y-11694812D01*
X26948594Y-11690775D01*
X26945764Y-11683145D01*
X26945764Y-11196854D01*
X26949191Y-11188581D01*
X26956588Y-11185187D01*
X27471176Y-11146537D01*
X27479682Y-11149334D01*
G37*
G04 #@! TD.AperFunction*
G04 #@! TD*
G04 #@! TA.AperFunction,Conductor*
G04 #@! TO.N,+12V*
G36*
X29100424Y-14941156D02*
G01*
X29436964Y-15332354D01*
X29439761Y-15340860D01*
X29436367Y-15348257D01*
X29092507Y-15692117D01*
X29084234Y-15695544D01*
X29076604Y-15692714D01*
X28685406Y-15356174D01*
X28681369Y-15348180D01*
X28683286Y-15340838D01*
X28842235Y-15101263D01*
X28845513Y-15097985D01*
X29085088Y-14939036D01*
X29093874Y-14937318D01*
X29100424Y-14941156D01*
G37*
G04 #@! TD.AperFunction*
G04 #@! TD*
G04 #@! TA.AperFunction,Conductor*
G04 #@! TO.N,+12V*
G36*
X29611895Y-15507285D02*
G01*
X30003093Y-15843825D01*
X30007130Y-15851819D01*
X30005212Y-15859163D01*
X29846265Y-16098734D01*
X29842984Y-16102015D01*
X29603413Y-16260962D01*
X29594625Y-16262681D01*
X29588075Y-16258843D01*
X29251535Y-15867645D01*
X29248738Y-15859139D01*
X29252131Y-15851743D01*
X29595993Y-15507881D01*
X29604265Y-15504455D01*
X29611895Y-15507285D01*
G37*
G04 #@! TD.AperFunction*
G04 #@! TD*
G04 #@! TA.AperFunction,Conductor*
G04 #@! TO.N,+12V*
G36*
X29454465Y-15437555D02*
G01*
X29455108Y-15446487D01*
X29452278Y-15451070D01*
X29330309Y-15573039D01*
X29330308Y-15573039D01*
X29281064Y-15622284D01*
X29153782Y-15749566D01*
X29145509Y-15752993D01*
X29137236Y-15749566D01*
X29136113Y-15748265D01*
X29055565Y-15639714D01*
X29053388Y-15631030D01*
X29057990Y-15623348D01*
X29059711Y-15622289D01*
X29438764Y-15432336D01*
X29447695Y-15431694D01*
X29454465Y-15437555D01*
G37*
G04 #@! TD.AperFunction*
G04 #@! TD*
G04 #@! TA.AperFunction,Conductor*
G04 #@! TO.N,+12V*
G36*
X29900707Y-32899293D02*
G01*
X30066671Y-33149441D01*
X29842387Y-33342386D01*
X29842386Y-33342386D01*
X29667645Y-33492714D01*
X29659139Y-33495511D01*
X29651742Y-33492117D01*
X29307882Y-33148257D01*
X29304455Y-33139984D01*
X29307285Y-33132354D01*
X29600000Y-32792099D01*
X29650559Y-32733329D01*
X29900707Y-32899293D01*
G37*
G04 #@! TD.AperFunction*
G04 #@! TD*
G04 #@! TA.AperFunction,Conductor*
G04 #@! TO.N,+12V*
G36*
X17255845Y-2243120D02*
G01*
X17255887Y-2243183D01*
X17541020Y-2679058D01*
X17542681Y-2687857D01*
X17539502Y-2693736D01*
X17195685Y-3037553D01*
X17187412Y-3040980D01*
X17179139Y-3037553D01*
X17178759Y-3037155D01*
X16759677Y-2576689D01*
X16756643Y-2568264D01*
X16760455Y-2560161D01*
X16761788Y-2559114D01*
X16999293Y-2399293D01*
X16999296Y-2399298D01*
X16999347Y-2399257D01*
X17239629Y-2239838D01*
X17248416Y-2238120D01*
X17255845Y-2243120D01*
G37*
G04 #@! TD.AperFunction*
G04 #@! TD*
G04 #@! TA.AperFunction,Conductor*
G04 #@! TO.N,+12V*
G36*
X30128365Y-15156479D02*
G01*
X30135794Y-15161479D01*
X30137712Y-15168823D01*
X30099063Y-15683412D01*
X30095026Y-15691406D01*
X30087396Y-15694236D01*
X29601104Y-15694236D01*
X29592831Y-15690809D01*
X29589437Y-15683412D01*
X29550787Y-15168823D01*
X29553584Y-15160317D01*
X29560132Y-15156479D01*
X29841932Y-15099469D01*
X29846568Y-15099469D01*
X30128365Y-15156479D01*
G37*
G04 #@! TD.AperFunction*
G04 #@! TD*
G04 #@! TA.AperFunction,Conductor*
G04 #@! TO.N,+12V*
G36*
X30095669Y-15509191D02*
G01*
X30099063Y-15516588D01*
X30137712Y-16031176D01*
X30134915Y-16039682D01*
X30128365Y-16043520D01*
X29846570Y-16100530D01*
X29841930Y-16100530D01*
X29560134Y-16043520D01*
X29552705Y-16038520D01*
X29550787Y-16031176D01*
X29589437Y-15516588D01*
X29593474Y-15508594D01*
X29601104Y-15505764D01*
X30087396Y-15505764D01*
X30095669Y-15509191D01*
G37*
G04 #@! TD.AperFunction*
G04 #@! TD*
G04 #@! TA.AperFunction,Conductor*
G04 #@! TO.N,+12V*
G36*
X16939682Y-1509334D02*
G01*
X16943520Y-1515884D01*
X17000530Y-1797680D01*
X17000530Y-1802320D01*
X16943520Y-2084115D01*
X16938520Y-2091544D01*
X16931176Y-2093462D01*
X16416588Y-2054812D01*
X16408594Y-2050775D01*
X16405764Y-2043145D01*
X16405764Y-1556854D01*
X16409191Y-1548581D01*
X16416588Y-1545187D01*
X16931176Y-1506537D01*
X16939682Y-1509334D01*
G37*
G04 #@! TD.AperFunction*
G04 #@! TD*
G04 #@! TA.AperFunction,Conductor*
G04 #@! TO.N,+12V*
G36*
X16983412Y-1545187D02*
G01*
X16991406Y-1549224D01*
X16994236Y-1556854D01*
X16994236Y-2043145D01*
X16990809Y-2051418D01*
X16983412Y-2054812D01*
X16468823Y-2093462D01*
X16460317Y-2090665D01*
X16456479Y-2084115D01*
X16450386Y-2054000D01*
X16399469Y-1802318D01*
X16399469Y-1797680D01*
X16456479Y-1515882D01*
X16461479Y-1508455D01*
X16468822Y-1506537D01*
X16983412Y-1545187D01*
G37*
G04 #@! TD.AperFunction*
G04 #@! TD*
G04 #@! TA.AperFunction,Conductor*
G04 #@! TO.N,+12V*
G36*
X18377721Y-14254819D02*
G01*
X18378363Y-14255415D01*
X18722169Y-14599221D01*
X18725596Y-14607494D01*
X18723903Y-14613556D01*
X18455756Y-15056243D01*
X18448539Y-15061543D01*
X18439687Y-15060188D01*
X18439281Y-15059930D01*
X18199356Y-14900749D01*
X18199310Y-14900681D01*
X18199293Y-14900707D01*
X17961485Y-14740681D01*
X17956535Y-14733220D01*
X17958311Y-14724443D01*
X17959137Y-14723358D01*
X18361221Y-14256056D01*
X18369215Y-14252021D01*
X18377721Y-14254819D01*
G37*
G04 #@! TD.AperFunction*
G04 #@! TD*
G04 #@! TA.AperFunction,Conductor*
G04 #@! TO.N,+12V*
G36*
X36459161Y-2039036D02*
G01*
X36691847Y-2193414D01*
X36698734Y-2197984D01*
X36702015Y-2201265D01*
X36860962Y-2440836D01*
X36862681Y-2449624D01*
X36858843Y-2456174D01*
X36467645Y-2792714D01*
X36459139Y-2795511D01*
X36451742Y-2792117D01*
X36107882Y-2448257D01*
X36104455Y-2439984D01*
X36107285Y-2432354D01*
X36443826Y-2041155D01*
X36451819Y-2037119D01*
X36459161Y-2039036D01*
G37*
G04 #@! TD.AperFunction*
G04 #@! TD*
G04 #@! TA.AperFunction,Conductor*
G04 #@! TO.N,+12V*
G36*
X27888976Y-10057847D02*
G01*
X27890076Y-10058817D01*
X28233109Y-10401850D01*
X28236536Y-10410123D01*
X28233109Y-10418396D01*
X28229523Y-10420843D01*
X27715615Y-10645530D01*
X27706662Y-10645705D01*
X27701221Y-10641342D01*
X27540612Y-10402667D01*
X27538838Y-10398386D01*
X27538531Y-10396821D01*
X27483882Y-10118054D01*
X27485653Y-10109278D01*
X27493112Y-10104324D01*
X27493887Y-10104199D01*
X27880341Y-10055482D01*
X27888976Y-10057847D01*
G37*
G04 #@! TD.AperFunction*
G04 #@! TD*
G04 #@! TA.AperFunction,Conductor*
G04 #@! TO.N,+12V*
G36*
X29603411Y-14939036D02*
G01*
X29836097Y-15093414D01*
X29842984Y-15097984D01*
X29846265Y-15101265D01*
X30005212Y-15340836D01*
X30006931Y-15349624D01*
X30003093Y-15356174D01*
X29611895Y-15692714D01*
X29603389Y-15695511D01*
X29595992Y-15692117D01*
X29252132Y-15348257D01*
X29248705Y-15339984D01*
X29251535Y-15332354D01*
X29588076Y-14941155D01*
X29596069Y-14937119D01*
X29603411Y-14939036D01*
G37*
G04 #@! TD.AperFunction*
G04 #@! TD*
G04 #@! TA.AperFunction,Conductor*
G04 #@! TO.N,+12V*
G36*
X29092507Y-15507882D02*
G01*
X29436367Y-15851742D01*
X29439794Y-15860015D01*
X29436964Y-15867645D01*
X29100424Y-16258843D01*
X29092430Y-16262880D01*
X29085086Y-16260962D01*
X28845515Y-16102015D01*
X28842234Y-16098734D01*
X28688915Y-15867645D01*
X28683286Y-15859162D01*
X28681568Y-15850375D01*
X28685405Y-15843826D01*
X29076604Y-15507284D01*
X29085110Y-15504488D01*
X29092507Y-15507882D01*
G37*
G04 #@! TD.AperFunction*
G04 #@! TD*
G04 #@! TA.AperFunction,Conductor*
G04 #@! TO.N,+12V*
G36*
X29190689Y-15411537D02*
G01*
X29192956Y-15413305D01*
X29510571Y-15730920D01*
X29513998Y-15739193D01*
X29510571Y-15747466D01*
X29502298Y-15750893D01*
X29499250Y-15750489D01*
X29062196Y-15632556D01*
X29055101Y-15627092D01*
X29053948Y-15618212D01*
X29055203Y-15615254D01*
X29174642Y-15415572D01*
X29181830Y-15410231D01*
X29190689Y-15411537D01*
G37*
G04 #@! TD.AperFunction*
G04 #@! TD*
G04 #@! TA.AperFunction,Conductor*
G04 #@! TO.N,+12V*
G36*
X29128365Y-15156479D02*
G01*
X29135794Y-15161479D01*
X29137712Y-15168823D01*
X29099063Y-15683412D01*
X29095026Y-15691406D01*
X29087396Y-15694236D01*
X28601104Y-15694236D01*
X28592831Y-15690809D01*
X28589437Y-15683412D01*
X28550787Y-15168823D01*
X28553584Y-15160317D01*
X28560132Y-15156479D01*
X28841932Y-15099469D01*
X28846568Y-15099469D01*
X29128365Y-15156479D01*
G37*
G04 #@! TD.AperFunction*
G04 #@! TD*
G04 #@! TA.AperFunction,Conductor*
G04 #@! TO.N,+12V*
G36*
X29095669Y-15509191D02*
G01*
X29099063Y-15516588D01*
X29137712Y-16031176D01*
X29134915Y-16039682D01*
X29128365Y-16043520D01*
X28846570Y-16100530D01*
X28841930Y-16100530D01*
X28560134Y-16043520D01*
X28552705Y-16038520D01*
X28550787Y-16031176D01*
X28589437Y-15516588D01*
X28593474Y-15508594D01*
X28601104Y-15505764D01*
X29087396Y-15505764D01*
X29095669Y-15509191D01*
G37*
G04 #@! TD.AperFunction*
G04 #@! TD*
G04 #@! TA.AperFunction,Conductor*
G04 #@! TO.N,+12V*
G36*
X17284115Y-1856479D02*
G01*
X17291544Y-1861479D01*
X17293462Y-1868823D01*
X17254813Y-2383412D01*
X17250776Y-2391406D01*
X17243146Y-2394236D01*
X16756854Y-2394236D01*
X16748581Y-2390809D01*
X16745187Y-2383412D01*
X16706537Y-1868823D01*
X16709334Y-1860317D01*
X16715882Y-1856479D01*
X16997682Y-1799469D01*
X17002318Y-1799469D01*
X17284115Y-1856479D01*
G37*
G04 #@! TD.AperFunction*
G04 #@! TD*
G04 #@! TA.AperFunction,Conductor*
G04 #@! TO.N,+12V*
G36*
X17251419Y-1809191D02*
G01*
X17254813Y-1816588D01*
X17293462Y-2331176D01*
X17290665Y-2339682D01*
X17284115Y-2343520D01*
X17002320Y-2400530D01*
X16997680Y-2400530D01*
X16715884Y-2343520D01*
X16708455Y-2338520D01*
X16706537Y-2331176D01*
X16745187Y-1816588D01*
X16749224Y-1808594D01*
X16756854Y-1805764D01*
X17243146Y-1805764D01*
X17251419Y-1809191D01*
G37*
G04 #@! TD.AperFunction*
G04 #@! TD*
G04 #@! TA.AperFunction,Conductor*
G04 #@! TO.N,+12V*
G36*
X29427662Y-15845187D02*
G01*
X29435656Y-15849224D01*
X29438486Y-15856854D01*
X29438486Y-16343145D01*
X29435059Y-16351418D01*
X29427662Y-16354812D01*
X28913073Y-16393462D01*
X28904567Y-16390665D01*
X28900729Y-16384115D01*
X28894636Y-16354000D01*
X28843719Y-16102318D01*
X28843719Y-16097680D01*
X28900729Y-15815882D01*
X28905729Y-15808455D01*
X28913072Y-15806537D01*
X29427662Y-15845187D01*
G37*
G04 #@! TD.AperFunction*
G04 #@! TD*
G04 #@! TA.AperFunction,Conductor*
G04 #@! TO.N,+12V*
G36*
X29783932Y-15809334D02*
G01*
X29787770Y-15815884D01*
X29844780Y-16097680D01*
X29844780Y-16102320D01*
X29787770Y-16384115D01*
X29782770Y-16391544D01*
X29775426Y-16393462D01*
X29260838Y-16354812D01*
X29252844Y-16350775D01*
X29250014Y-16343145D01*
X29250014Y-15856854D01*
X29253441Y-15848581D01*
X29260838Y-15845187D01*
X29775426Y-15806537D01*
X29783932Y-15809334D01*
G37*
G04 #@! TD.AperFunction*
G04 #@! TD*
G04 #@! TA.AperFunction,Conductor*
G04 #@! TO.N,+12V*
G36*
X10383412Y-42445187D02*
G01*
X10391406Y-42449224D01*
X10394236Y-42456854D01*
X10394236Y-42943145D01*
X10390809Y-42951418D01*
X10383412Y-42954812D01*
X9868823Y-42993462D01*
X9860317Y-42990665D01*
X9856479Y-42984115D01*
X9850386Y-42954000D01*
X9799469Y-42702318D01*
X9799469Y-42697680D01*
X9856479Y-42415882D01*
X9861479Y-42408455D01*
X9868822Y-42406537D01*
X10383412Y-42445187D01*
G37*
G04 #@! TD.AperFunction*
G04 #@! TD*
G04 #@! TA.AperFunction,Conductor*
G04 #@! TO.N,+12V*
G36*
X36639682Y-1909334D02*
G01*
X36643520Y-1915884D01*
X36700530Y-2197680D01*
X36700530Y-2202320D01*
X36643520Y-2484115D01*
X36638520Y-2491544D01*
X36631176Y-2493462D01*
X36116588Y-2454812D01*
X36108594Y-2450775D01*
X36105764Y-2443145D01*
X36105764Y-1956854D01*
X36109191Y-1948581D01*
X36116588Y-1945187D01*
X36631176Y-1906537D01*
X36639682Y-1909334D01*
G37*
G04 #@! TD.AperFunction*
G04 #@! TD*
G04 #@! TA.AperFunction,Conductor*
G04 #@! TO.N,+12V*
G36*
X28611895Y-14507285D02*
G01*
X29003093Y-14843825D01*
X29007130Y-14851819D01*
X29005212Y-14859163D01*
X28846265Y-15098734D01*
X28842984Y-15102015D01*
X28603413Y-15260962D01*
X28594625Y-15262681D01*
X28588075Y-15258843D01*
X28251535Y-14867645D01*
X28248738Y-14859139D01*
X28252131Y-14851743D01*
X28595993Y-14507881D01*
X28604265Y-14504455D01*
X28611895Y-14507285D01*
G37*
G04 #@! TD.AperFunction*
G04 #@! TD*
G04 #@! TA.AperFunction,Conductor*
G04 #@! TO.N,+12V*
G36*
X37339838Y-1960455D02*
G01*
X37340892Y-1961798D01*
X37500707Y-2199293D01*
X37500749Y-2199357D01*
X37660160Y-2439628D01*
X37661879Y-2448416D01*
X37656879Y-2455845D01*
X37656816Y-2455887D01*
X37220941Y-2741020D01*
X37212142Y-2742681D01*
X37206263Y-2739502D01*
X36862446Y-2395685D01*
X36859019Y-2387412D01*
X36862446Y-2379139D01*
X36862820Y-2378781D01*
X37323311Y-1959676D01*
X37331735Y-1956643D01*
X37339838Y-1960455D01*
G37*
G04 #@! TD.AperFunction*
G04 #@! TD*
G04 #@! TA.AperFunction,Conductor*
G04 #@! TO.N,+12V*
G36*
X10056174Y-41741156D02*
G01*
X10392714Y-42132354D01*
X10395511Y-42140860D01*
X10392117Y-42148257D01*
X10048257Y-42492117D01*
X10039984Y-42495544D01*
X10032354Y-42492714D01*
X9641156Y-42156174D01*
X9637119Y-42148180D01*
X9639036Y-42140838D01*
X9797985Y-41901263D01*
X9801263Y-41897985D01*
X10040838Y-41739036D01*
X10049624Y-41737318D01*
X10056174Y-41741156D01*
G37*
G04 #@! TD.AperFunction*
G04 #@! TD*
G04 #@! TA.AperFunction,Conductor*
G04 #@! TO.N,igamma*
G36*
X28150965Y-28955842D02*
G01*
X28158393Y-28960841D01*
X28160112Y-28969629D01*
X28159654Y-28971268D01*
X27974384Y-29486495D01*
X27968360Y-29493121D01*
X27963374Y-29494236D01*
X27776626Y-29494236D01*
X27768353Y-29490809D01*
X27765616Y-29486495D01*
X27580345Y-28971266D01*
X27580770Y-28962323D01*
X27587396Y-28956299D01*
X27589020Y-28955845D01*
X27867682Y-28899469D01*
X27872318Y-28899469D01*
X28150965Y-28955842D01*
G37*
G04 #@! TD.AperFunction*
G04 #@! TD*
G04 #@! TA.AperFunction,Conductor*
G04 #@! TO.N,igamma*
G36*
X5779374Y-32819096D02*
G01*
X5780210Y-32820578D01*
X6013524Y-33315903D01*
X6013949Y-33324848D01*
X6011212Y-33329162D01*
X5879162Y-33461212D01*
X5870889Y-33464639D01*
X5865903Y-33463524D01*
X5370578Y-33230210D01*
X5364554Y-33223584D01*
X5364979Y-33214639D01*
X5365812Y-33213162D01*
X5522985Y-32976263D01*
X5526263Y-32972985D01*
X5763158Y-32815814D01*
X5771945Y-32814096D01*
X5779374Y-32819096D01*
G37*
G04 #@! TD.AperFunction*
G04 #@! TD*
G04 #@! TA.AperFunction,Conductor*
G04 #@! TO.N,VREF*
G36*
X3321254Y-15109191D02*
G01*
X3324116Y-15113873D01*
X3490217Y-15629010D01*
X3489495Y-15637936D01*
X3482673Y-15643736D01*
X3481402Y-15644069D01*
X3202320Y-15700530D01*
X3197680Y-15700530D01*
X2918359Y-15644021D01*
X2910930Y-15639021D01*
X2909211Y-15630233D01*
X2909478Y-15629171D01*
X3064990Y-15114082D01*
X3070662Y-15107153D01*
X3076191Y-15105764D01*
X3312981Y-15105764D01*
X3321254Y-15109191D01*
G37*
G04 #@! TD.AperFunction*
G04 #@! TD*
G04 #@! TA.AperFunction,Conductor*
G04 #@! TO.N,VREF*
G36*
X16921491Y-14426261D02*
G01*
X17399440Y-14676795D01*
X17405176Y-14683670D01*
X17404371Y-14692589D01*
X17403757Y-14693625D01*
X17246273Y-14930992D01*
X17242992Y-14934273D01*
X17005625Y-15091757D01*
X16996837Y-15093476D01*
X16989408Y-15088476D01*
X16988799Y-15087449D01*
X16738261Y-14609492D01*
X16737457Y-14600574D01*
X16740350Y-14595790D01*
X16907789Y-14428351D01*
X16916061Y-14424925D01*
X16921491Y-14426261D01*
G37*
G04 #@! TD.AperFunction*
G04 #@! TD*
G04 #@! TA.AperFunction,Conductor*
G04 #@! TO.N,ialpha*
G36*
X17764668Y-17356904D02*
G01*
X17766150Y-17357740D01*
X18003042Y-17514909D01*
X18006323Y-17518190D01*
X18163492Y-17755082D01*
X18165211Y-17763870D01*
X18160211Y-17771299D01*
X18158729Y-17772135D01*
X17663404Y-18005449D01*
X17654459Y-18005874D01*
X17650145Y-18003137D01*
X17518095Y-17871087D01*
X17514668Y-17862814D01*
X17515783Y-17857828D01*
X17556148Y-17772135D01*
X17749097Y-17362502D01*
X17755723Y-17356479D01*
X17764668Y-17356904D01*
G37*
G04 #@! TD.AperFunction*
G04 #@! TD*
G04 #@! TA.AperFunction,Conductor*
G04 #@! TO.N,ialpha*
G36*
X4980997Y-27610503D02*
G01*
X4989103Y-27613929D01*
X5120962Y-27745788D01*
X5124389Y-27754061D01*
X5120962Y-27762334D01*
X5120769Y-27762523D01*
X4726210Y-28139265D01*
X4717860Y-28142500D01*
X4709668Y-28138883D01*
X4708423Y-28137335D01*
X4551519Y-27904166D01*
X4549743Y-27895390D01*
X4606113Y-27614706D01*
X4611102Y-27607271D01*
X4617747Y-27605312D01*
X4980997Y-27610503D01*
G37*
G04 #@! TD.AperFunction*
G04 #@! TD*
M02*
