G04 #@! TF.GenerationSoftware,KiCad,Pcbnew,9.0.7-9-ga3ce409f20*
G04 #@! TF.CreationDate,2026-03-03T19:35:03+08:00*
G04 #@! TF.ProjectId,SuperCap_Power,53757065-7243-4617-905f-506f7765722e,rev?*
G04 #@! TF.SameCoordinates,Original*
G04 #@! TF.FileFunction,Legend,Bot*
G04 #@! TF.FilePolarity,Positive*
%FSLAX46Y46*%
G04 Gerber Fmt 4.6, Leading zero omitted, Abs format (unit mm)*
G04 Created by KiCad (PCBNEW 9.0.7-9-ga3ce409f20) date 2026-03-03 19:35:03*
%MOMM*%
%LPD*%
G01*
G04 APERTURE LIST*
G04 Aperture macros list*
%AMRoundRect*
0 Rectangle with rounded corners*
0 $1 Rounding radius*
0 $2 $3 $4 $5 $6 $7 $8 $9 X,Y pos of 4 corners*
0 Add a 4 corners polygon primitive as box body*
4,1,4,$2,$3,$4,$5,$6,$7,$8,$9,$2,$3,0*
0 Add four circle primitives for the rounded corners*
1,1,$1+$1,$2,$3*
1,1,$1+$1,$4,$5*
1,1,$1+$1,$6,$7*
1,1,$1+$1,$8,$9*
0 Add four rect primitives between the rounded corners*
20,1,$1+$1,$2,$3,$4,$5,0*
20,1,$1+$1,$4,$5,$6,$7,0*
20,1,$1+$1,$6,$7,$8,$9,0*
20,1,$1+$1,$8,$9,$2,$3,0*%
G04 Aperture macros list end*
%ADD10C,0.100000*%
%ADD11C,0.120000*%
%ADD12C,0.200000*%
%ADD13RoundRect,0.100000X0.100000X-0.637500X0.100000X0.637500X-0.100000X0.637500X-0.100000X-0.637500X0*%
%ADD14C,1.600000*%
%ADD15RoundRect,0.500000X2.000000X2.500000X-2.000000X2.500000X-2.000000X-2.500000X2.000000X-2.500000X0*%
%ADD16C,3.200000*%
%ADD17RoundRect,0.200000X0.200000X0.275000X-0.200000X0.275000X-0.200000X-0.275000X0.200000X-0.275000X0*%
%ADD18RoundRect,0.200000X-0.200000X-0.275000X0.200000X-0.275000X0.200000X0.275000X-0.200000X0.275000X0*%
%ADD19RoundRect,0.250000X-0.300000X0.300000X-0.300000X-0.300000X0.300000X-0.300000X0.300000X0.300000X0*%
%ADD20RoundRect,0.237500X0.237500X-0.250000X0.237500X0.250000X-0.237500X0.250000X-0.237500X-0.250000X0*%
%ADD21RoundRect,0.150000X-0.825000X-0.150000X0.825000X-0.150000X0.825000X0.150000X-0.825000X0.150000X0*%
%ADD22RoundRect,0.250000X-0.475000X0.250000X-0.475000X-0.250000X0.475000X-0.250000X0.475000X0.250000X0*%
%ADD23RoundRect,0.237500X0.250000X0.237500X-0.250000X0.237500X-0.250000X-0.237500X0.250000X-0.237500X0*%
%ADD24R,1.300000X0.300000*%
%ADD25R,1.800000X1.800000*%
%ADD26R,2.200000X1.800000*%
%ADD27RoundRect,0.225000X0.225000X0.250000X-0.225000X0.250000X-0.225000X-0.250000X0.225000X-0.250000X0*%
%ADD28RoundRect,0.225000X0.250000X-0.225000X0.250000X0.225000X-0.250000X0.225000X-0.250000X-0.225000X0*%
%ADD29RoundRect,0.237500X-0.237500X0.300000X-0.237500X-0.300000X0.237500X-0.300000X0.237500X0.300000X0*%
%ADD30RoundRect,0.237500X0.237500X-0.300000X0.237500X0.300000X-0.237500X0.300000X-0.237500X-0.300000X0*%
%ADD31RoundRect,0.237500X-0.300000X-0.237500X0.300000X-0.237500X0.300000X0.237500X-0.300000X0.237500X0*%
%ADD32R,1.800000X3.120000*%
%ADD33RoundRect,0.225000X-0.250000X0.225000X-0.250000X-0.225000X0.250000X-0.225000X0.250000X0.225000X0*%
%ADD34RoundRect,0.237500X0.300000X0.237500X-0.300000X0.237500X-0.300000X-0.237500X0.300000X-0.237500X0*%
%ADD35RoundRect,0.150000X0.825000X0.150000X-0.825000X0.150000X-0.825000X-0.150000X0.825000X-0.150000X0*%
%ADD36RoundRect,0.218750X0.256250X-0.218750X0.256250X0.218750X-0.256250X0.218750X-0.256250X-0.218750X0*%
%ADD37RoundRect,0.150000X-0.150000X0.512500X-0.150000X-0.512500X0.150000X-0.512500X0.150000X0.512500X0*%
G04 APERTURE END LIST*
D10*
X10203609Y-26297217D02*
X10703609Y-26416265D01*
X10703609Y-26416265D02*
X10346466Y-26511503D01*
X10346466Y-26511503D02*
X10703609Y-26606741D01*
X10703609Y-26606741D02*
X10203609Y-26725789D01*
X10441704Y-26916265D02*
X10441704Y-27082932D01*
X10703609Y-27154360D02*
X10703609Y-26916265D01*
X10703609Y-26916265D02*
X10203609Y-26916265D01*
X10203609Y-26916265D02*
X10203609Y-27154360D01*
X10703609Y-27368646D02*
X10203609Y-27368646D01*
X10703609Y-27844836D02*
X10703609Y-27606741D01*
X10703609Y-27606741D02*
X10203609Y-27606741D01*
X10560752Y-27987694D02*
X10560752Y-28225789D01*
X10703609Y-27940075D02*
X10203609Y-28106741D01*
X10203609Y-28106741D02*
X10703609Y-28273408D01*
X10703609Y-28440074D02*
X10203609Y-28440074D01*
X10751228Y-28559122D02*
X10751228Y-28940074D01*
X10679800Y-29035312D02*
X10703609Y-29106740D01*
X10703609Y-29106740D02*
X10703609Y-29225788D01*
X10703609Y-29225788D02*
X10679800Y-29273407D01*
X10679800Y-29273407D02*
X10655990Y-29297216D01*
X10655990Y-29297216D02*
X10608371Y-29321026D01*
X10608371Y-29321026D02*
X10560752Y-29321026D01*
X10560752Y-29321026D02*
X10513133Y-29297216D01*
X10513133Y-29297216D02*
X10489323Y-29273407D01*
X10489323Y-29273407D02*
X10465514Y-29225788D01*
X10465514Y-29225788D02*
X10441704Y-29130550D01*
X10441704Y-29130550D02*
X10417895Y-29082931D01*
X10417895Y-29082931D02*
X10394085Y-29059121D01*
X10394085Y-29059121D02*
X10346466Y-29035312D01*
X10346466Y-29035312D02*
X10298847Y-29035312D01*
X10298847Y-29035312D02*
X10251228Y-29059121D01*
X10251228Y-29059121D02*
X10227419Y-29082931D01*
X10227419Y-29082931D02*
X10203609Y-29130550D01*
X10203609Y-29130550D02*
X10203609Y-29249597D01*
X10203609Y-29249597D02*
X10227419Y-29321026D01*
X10370276Y-29749597D02*
X10703609Y-29749597D01*
X10370276Y-29535311D02*
X10632180Y-29535311D01*
X10632180Y-29535311D02*
X10679800Y-29559121D01*
X10679800Y-29559121D02*
X10703609Y-29606740D01*
X10703609Y-29606740D02*
X10703609Y-29678168D01*
X10703609Y-29678168D02*
X10679800Y-29725787D01*
X10679800Y-29725787D02*
X10655990Y-29749597D01*
X10370276Y-29987692D02*
X10870276Y-29987692D01*
X10394085Y-29987692D02*
X10370276Y-30035311D01*
X10370276Y-30035311D02*
X10370276Y-30130549D01*
X10370276Y-30130549D02*
X10394085Y-30178168D01*
X10394085Y-30178168D02*
X10417895Y-30201978D01*
X10417895Y-30201978D02*
X10465514Y-30225787D01*
X10465514Y-30225787D02*
X10608371Y-30225787D01*
X10608371Y-30225787D02*
X10655990Y-30201978D01*
X10655990Y-30201978D02*
X10679800Y-30178168D01*
X10679800Y-30178168D02*
X10703609Y-30130549D01*
X10703609Y-30130549D02*
X10703609Y-30035311D01*
X10703609Y-30035311D02*
X10679800Y-29987692D01*
X10679800Y-30630549D02*
X10703609Y-30582930D01*
X10703609Y-30582930D02*
X10703609Y-30487692D01*
X10703609Y-30487692D02*
X10679800Y-30440073D01*
X10679800Y-30440073D02*
X10632180Y-30416264D01*
X10632180Y-30416264D02*
X10441704Y-30416264D01*
X10441704Y-30416264D02*
X10394085Y-30440073D01*
X10394085Y-30440073D02*
X10370276Y-30487692D01*
X10370276Y-30487692D02*
X10370276Y-30582930D01*
X10370276Y-30582930D02*
X10394085Y-30630549D01*
X10394085Y-30630549D02*
X10441704Y-30654359D01*
X10441704Y-30654359D02*
X10489323Y-30654359D01*
X10489323Y-30654359D02*
X10536942Y-30416264D01*
X10703609Y-30868644D02*
X10370276Y-30868644D01*
X10465514Y-30868644D02*
X10417895Y-30892454D01*
X10417895Y-30892454D02*
X10394085Y-30916263D01*
X10394085Y-30916263D02*
X10370276Y-30963882D01*
X10370276Y-30963882D02*
X10370276Y-31011501D01*
X10655990Y-31463882D02*
X10679800Y-31440073D01*
X10679800Y-31440073D02*
X10703609Y-31368644D01*
X10703609Y-31368644D02*
X10703609Y-31321025D01*
X10703609Y-31321025D02*
X10679800Y-31249597D01*
X10679800Y-31249597D02*
X10632180Y-31201978D01*
X10632180Y-31201978D02*
X10584561Y-31178168D01*
X10584561Y-31178168D02*
X10489323Y-31154359D01*
X10489323Y-31154359D02*
X10417895Y-31154359D01*
X10417895Y-31154359D02*
X10322657Y-31178168D01*
X10322657Y-31178168D02*
X10275038Y-31201978D01*
X10275038Y-31201978D02*
X10227419Y-31249597D01*
X10227419Y-31249597D02*
X10203609Y-31321025D01*
X10203609Y-31321025D02*
X10203609Y-31368644D01*
X10203609Y-31368644D02*
X10227419Y-31440073D01*
X10227419Y-31440073D02*
X10251228Y-31463882D01*
X10703609Y-31892454D02*
X10441704Y-31892454D01*
X10441704Y-31892454D02*
X10394085Y-31868644D01*
X10394085Y-31868644D02*
X10370276Y-31821025D01*
X10370276Y-31821025D02*
X10370276Y-31725787D01*
X10370276Y-31725787D02*
X10394085Y-31678168D01*
X10679800Y-31892454D02*
X10703609Y-31844835D01*
X10703609Y-31844835D02*
X10703609Y-31725787D01*
X10703609Y-31725787D02*
X10679800Y-31678168D01*
X10679800Y-31678168D02*
X10632180Y-31654359D01*
X10632180Y-31654359D02*
X10584561Y-31654359D01*
X10584561Y-31654359D02*
X10536942Y-31678168D01*
X10536942Y-31678168D02*
X10513133Y-31725787D01*
X10513133Y-31725787D02*
X10513133Y-31844835D01*
X10513133Y-31844835D02*
X10489323Y-31892454D01*
X10370276Y-32130549D02*
X10870276Y-32130549D01*
X10394085Y-32130549D02*
X10370276Y-32178168D01*
X10370276Y-32178168D02*
X10370276Y-32273406D01*
X10370276Y-32273406D02*
X10394085Y-32321025D01*
X10394085Y-32321025D02*
X10417895Y-32344835D01*
X10417895Y-32344835D02*
X10465514Y-32368644D01*
X10465514Y-32368644D02*
X10608371Y-32368644D01*
X10608371Y-32368644D02*
X10655990Y-32344835D01*
X10655990Y-32344835D02*
X10679800Y-32321025D01*
X10679800Y-32321025D02*
X10703609Y-32273406D01*
X10703609Y-32273406D02*
X10703609Y-32178168D01*
X10703609Y-32178168D02*
X10679800Y-32130549D01*
X10751228Y-32463883D02*
X10751228Y-32844835D01*
X10703609Y-32963882D02*
X10203609Y-32963882D01*
X10203609Y-32963882D02*
X10203609Y-33154358D01*
X10203609Y-33154358D02*
X10227419Y-33201977D01*
X10227419Y-33201977D02*
X10251228Y-33225787D01*
X10251228Y-33225787D02*
X10298847Y-33249596D01*
X10298847Y-33249596D02*
X10370276Y-33249596D01*
X10370276Y-33249596D02*
X10417895Y-33225787D01*
X10417895Y-33225787D02*
X10441704Y-33201977D01*
X10441704Y-33201977D02*
X10465514Y-33154358D01*
X10465514Y-33154358D02*
X10465514Y-32963882D01*
X10203609Y-33416263D02*
X10703609Y-33535311D01*
X10703609Y-33535311D02*
X10346466Y-33630549D01*
X10346466Y-33630549D02*
X10703609Y-33725787D01*
X10703609Y-33725787D02*
X10203609Y-33844835D01*
X10703609Y-34321025D02*
X10465514Y-34154359D01*
X10703609Y-34035311D02*
X10203609Y-34035311D01*
X10203609Y-34035311D02*
X10203609Y-34225787D01*
X10203609Y-34225787D02*
X10227419Y-34273406D01*
X10227419Y-34273406D02*
X10251228Y-34297216D01*
X10251228Y-34297216D02*
X10298847Y-34321025D01*
X10298847Y-34321025D02*
X10370276Y-34321025D01*
X10370276Y-34321025D02*
X10417895Y-34297216D01*
X10417895Y-34297216D02*
X10441704Y-34273406D01*
X10441704Y-34273406D02*
X10465514Y-34225787D01*
X10465514Y-34225787D02*
X10465514Y-34035311D01*
X10751228Y-34416264D02*
X10751228Y-34797216D01*
X10370276Y-34868644D02*
X10703609Y-34987692D01*
X10703609Y-34987692D02*
X10370276Y-35106739D01*
X10203609Y-35392453D02*
X10203609Y-35440072D01*
X10203609Y-35440072D02*
X10227419Y-35487691D01*
X10227419Y-35487691D02*
X10251228Y-35511501D01*
X10251228Y-35511501D02*
X10298847Y-35535310D01*
X10298847Y-35535310D02*
X10394085Y-35559120D01*
X10394085Y-35559120D02*
X10513133Y-35559120D01*
X10513133Y-35559120D02*
X10608371Y-35535310D01*
X10608371Y-35535310D02*
X10655990Y-35511501D01*
X10655990Y-35511501D02*
X10679800Y-35487691D01*
X10679800Y-35487691D02*
X10703609Y-35440072D01*
X10703609Y-35440072D02*
X10703609Y-35392453D01*
X10703609Y-35392453D02*
X10679800Y-35344834D01*
X10679800Y-35344834D02*
X10655990Y-35321025D01*
X10655990Y-35321025D02*
X10608371Y-35297215D01*
X10608371Y-35297215D02*
X10513133Y-35273406D01*
X10513133Y-35273406D02*
X10394085Y-35273406D01*
X10394085Y-35273406D02*
X10298847Y-35297215D01*
X10298847Y-35297215D02*
X10251228Y-35321025D01*
X10251228Y-35321025D02*
X10227419Y-35344834D01*
X10227419Y-35344834D02*
X10203609Y-35392453D01*
X10655990Y-35773405D02*
X10679800Y-35797215D01*
X10679800Y-35797215D02*
X10703609Y-35773405D01*
X10703609Y-35773405D02*
X10679800Y-35749596D01*
X10679800Y-35749596D02*
X10655990Y-35773405D01*
X10655990Y-35773405D02*
X10703609Y-35773405D01*
X10703609Y-36273405D02*
X10703609Y-35987691D01*
X10703609Y-36130548D02*
X10203609Y-36130548D01*
X10203609Y-36130548D02*
X10275038Y-36082929D01*
X10275038Y-36082929D02*
X10322657Y-36035310D01*
X10322657Y-36035310D02*
X10346466Y-35987691D01*
D11*
G04 #@! TO.C,U6*
X-915000Y-24302500D02*
X-915000Y-26502500D01*
X-915000Y-24302500D02*
X-915000Y-22102500D01*
X-4135000Y-24302500D02*
X-4135000Y-26502500D01*
X-4135000Y-24302500D02*
X-4135000Y-22102500D01*
X-760000Y-27442500D02*
X-1090000Y-27202500D01*
X-760000Y-26962500D01*
X-760000Y-27442500D01*
G36*
X-760000Y-27442500D02*
G01*
X-1090000Y-27202500D01*
X-760000Y-26962500D01*
X-760000Y-27442500D01*
G37*
G04 #@! TO.C,R13*
X14172258Y-7757500D02*
X13697742Y-7757500D01*
X14172258Y-8802500D02*
X13697742Y-8802500D01*
G04 #@! TO.C,R16*
X34564758Y-7757500D02*
X34090242Y-7757500D01*
X34564758Y-8802500D02*
X34090242Y-8802500D01*
G04 #@! TO.C,R18*
X35792742Y-36302500D02*
X36267258Y-36302500D01*
X35792742Y-37347500D02*
X36267258Y-37347500D01*
G04 #@! TO.C,R9*
X16417258Y-43047500D02*
X15942742Y-43047500D01*
X16417258Y-44092500D02*
X15942742Y-44092500D01*
G04 #@! TO.C,D2*
X39490000Y-13062500D02*
X39490000Y-16922500D01*
X39490000Y-13062500D02*
X41490000Y-13062500D01*
X41490000Y-13062500D02*
X41490000Y-16922500D01*
G04 #@! TO.C,R4*
X19477500Y-25414724D02*
X19477500Y-24905276D01*
X20522500Y-25414724D02*
X20522500Y-24905276D01*
G04 #@! TO.C,R7*
X11972258Y-757500D02*
X11497742Y-757500D01*
X11972258Y-1802500D02*
X11497742Y-1802500D01*
G04 #@! TO.C,U10*
X13960000Y-37575000D02*
X12010000Y-37575000D01*
X13960000Y-37575000D02*
X15910000Y-37575000D01*
X13960000Y-42695000D02*
X12010000Y-42695000D01*
X13960000Y-42695000D02*
X15910000Y-42695000D01*
X11500000Y-42930000D02*
X11020000Y-42930000D01*
X11260000Y-42600000D01*
X11500000Y-42930000D01*
G36*
X11500000Y-42930000D02*
G01*
X11020000Y-42930000D01*
X11260000Y-42600000D01*
X11500000Y-42930000D01*
G37*
G04 #@! TO.C,C1*
X33345000Y-15308748D02*
X33345000Y-15831252D01*
X34815000Y-15308748D02*
X34815000Y-15831252D01*
G04 #@! TO.C,R5*
X20804724Y-22260000D02*
X20295276Y-22260000D01*
X20804724Y-23305000D02*
X20295276Y-23305000D01*
G04 #@! TO.C,J1*
X4020000Y-16960000D02*
X5360000Y-16960000D01*
X4020000Y-18450000D02*
X2820000Y-18450000D01*
X4020000Y-18450000D02*
X4020000Y-16960000D01*
X4020000Y-34770000D02*
X4020000Y-36260000D01*
X4020000Y-36260000D02*
X5360000Y-36260000D01*
X8080000Y-16960000D02*
X9820000Y-16960000D01*
X9820000Y-16960000D02*
X9820000Y-36260000D01*
X9820000Y-36260000D02*
X8080000Y-36260000D01*
G04 #@! TO.C,C21*
X38150580Y-7480000D02*
X37869420Y-7480000D01*
X38150580Y-8500000D02*
X37869420Y-8500000D01*
G04 #@! TO.C,R2*
X28477500Y-12057224D02*
X28477500Y-11547776D01*
X29522500Y-12057224D02*
X29522500Y-11547776D01*
G04 #@! TO.C,C22*
X28855000Y-24325580D02*
X28855000Y-24044420D01*
X29875000Y-24325580D02*
X29875000Y-24044420D01*
G04 #@! TO.C,R11*
X35792742Y-28317500D02*
X36267258Y-28317500D01*
X35792742Y-29362500D02*
X36267258Y-29362500D01*
G04 #@! TO.C,C10*
X-3970000Y-18643733D02*
X-3970000Y-18936267D01*
X-2950000Y-18643733D02*
X-2950000Y-18936267D01*
G04 #@! TO.C,R12*
X35792742Y-43162500D02*
X36267258Y-43162500D01*
X35792742Y-44207500D02*
X36267258Y-44207500D01*
G04 #@! TO.C,C6*
X20960000Y-25306267D02*
X20960000Y-25013733D01*
X21980000Y-25306267D02*
X21980000Y-25013733D01*
G04 #@! TO.C,C16*
X31613733Y-28330000D02*
X31906267Y-28330000D01*
X31613733Y-29350000D02*
X31906267Y-29350000D01*
G04 #@! TO.C,C2*
X24325000Y-28661248D02*
X24325000Y-29183752D01*
X25795000Y-28661248D02*
X25795000Y-29183752D01*
G04 #@! TO.C,C23*
X28855000Y-39175580D02*
X28855000Y-38894420D01*
X29875000Y-39175580D02*
X29875000Y-38894420D01*
G04 #@! TO.C,L2*
X20497530Y-27273363D02*
X20497530Y-27273363D01*
X20497530Y-30571637D02*
X20497530Y-30571637D01*
X20497530Y-30571637D02*
X20577183Y-30597371D01*
X20577183Y-27247629D02*
X20497530Y-27273363D01*
X20577183Y-30597371D02*
X20657923Y-30616945D01*
X20657923Y-27228055D02*
X20577183Y-27247629D01*
X20657923Y-30616945D02*
X20740580Y-30631531D01*
X20740580Y-27213469D02*
X20657923Y-27228055D01*
X20740580Y-30631531D02*
X20824483Y-30640168D01*
X20824483Y-27204832D02*
X20740580Y-27213469D01*
X20824483Y-30640168D02*
X20903765Y-30642500D01*
X20903765Y-27202500D02*
X20824483Y-27204832D01*
X20903765Y-30642500D02*
X22410235Y-30642500D01*
X22410235Y-27202500D02*
X20903765Y-27202500D01*
X22410235Y-30642500D02*
X22489517Y-30640168D01*
X22489517Y-27204832D02*
X22410235Y-27202500D01*
X22489517Y-30640168D02*
X22573420Y-30631531D01*
X22573420Y-27213469D02*
X22489517Y-27204832D01*
X22573420Y-30631531D02*
X22656077Y-30616945D01*
X22656077Y-27228055D02*
X22573420Y-27213469D01*
X22656077Y-30616945D02*
X22736817Y-30597371D01*
X22736817Y-27247629D02*
X22656077Y-27228055D01*
X22736817Y-30597371D02*
X22816470Y-30571637D01*
X22816470Y-27273363D02*
X22736817Y-27247629D01*
X22816470Y-27273363D02*
X22816470Y-27273363D01*
X22816470Y-30571637D02*
X22816470Y-30571637D01*
D12*
X24360000Y-28922500D02*
G75*
G02*
X24160000Y-28922500I-100000J0D01*
G01*
X24160000Y-28922500D02*
G75*
G02*
X24360000Y-28922500I100000J0D01*
G01*
D11*
G04 #@! TO.C,C19*
X17860000Y-20414420D02*
X17860000Y-20695580D01*
X18880000Y-20414420D02*
X18880000Y-20695580D01*
G04 #@! TO.C,C15*
X36523767Y-770000D02*
X36231233Y-770000D01*
X36523767Y-1790000D02*
X36231233Y-1790000D01*
G04 #@! TO.C,C14*
X11763733Y-43060000D02*
X12056267Y-43060000D01*
X11763733Y-44080000D02*
X12056267Y-44080000D01*
G04 #@! TO.C,C5*
X29950000Y-11946267D02*
X29950000Y-11653733D01*
X30970000Y-11946267D02*
X30970000Y-11653733D01*
G04 #@! TO.C,R10*
X31870242Y-757500D02*
X32344758Y-757500D01*
X31870242Y-1802500D02*
X32344758Y-1802500D01*
G04 #@! TO.C,R3*
X29984724Y-8897500D02*
X29475276Y-8897500D01*
X29984724Y-9942500D02*
X29475276Y-9942500D01*
G04 #@! TO.C,U11*
X34327500Y-2220000D02*
X32377500Y-2220000D01*
X34327500Y-2220000D02*
X36277500Y-2220000D01*
X34327500Y-7340000D02*
X32377500Y-7340000D01*
X34327500Y-7340000D02*
X36277500Y-7340000D01*
X37027500Y-2315000D02*
X36787500Y-1985000D01*
X37267500Y-1985000D01*
X37027500Y-2315000D01*
G36*
X37027500Y-2315000D02*
G01*
X36787500Y-1985000D01*
X37267500Y-1985000D01*
X37027500Y-2315000D01*
G37*
G04 #@! TO.C,FB2*
X39980000Y-11715279D02*
X39980000Y-11389721D01*
X41000000Y-11715279D02*
X41000000Y-11389721D01*
G04 #@! TO.C,FB1*
X657684Y-18572779D02*
X657684Y-18247221D01*
X1677684Y-18572779D02*
X1677684Y-18247221D01*
G04 #@! TO.C,U1*
X31337500Y-11800000D02*
X31337500Y-11000000D01*
X31337500Y-11800000D02*
X31337500Y-12600000D01*
X34457500Y-11800000D02*
X34457500Y-11000000D01*
X34457500Y-11800000D02*
X34457500Y-12600000D01*
X31387500Y-10500000D02*
X31057500Y-10740000D01*
X31057500Y-10260000D01*
X31387500Y-10500000D01*
G36*
X31387500Y-10500000D02*
G01*
X31057500Y-10740000D01*
X31057500Y-10260000D01*
X31387500Y-10500000D01*
G37*
G04 #@! TO.C,C12*
X16131267Y-770000D02*
X15838733Y-770000D01*
X16131267Y-1790000D02*
X15838733Y-1790000D01*
G04 #@! TO.C,R14*
X11972258Y-22507500D02*
X11497742Y-22507500D01*
X11972258Y-23552500D02*
X11497742Y-23552500D01*
G04 #@! TO.C,U2*
X22350000Y-25160000D02*
X22350000Y-24360000D01*
X22350000Y-25160000D02*
X22350000Y-25960000D01*
X25470000Y-25160000D02*
X25470000Y-24360000D01*
X25470000Y-25160000D02*
X25470000Y-25960000D01*
X22400000Y-23860000D02*
X22070000Y-24100000D01*
X22070000Y-23620000D01*
X22400000Y-23860000D01*
G36*
X22400000Y-23860000D02*
G01*
X22070000Y-24100000D01*
X22070000Y-23620000D01*
X22400000Y-23860000D01*
G37*
G04 #@! TO.C,R17*
X35792742Y-21447500D02*
X36267258Y-21447500D01*
X35792742Y-22492500D02*
X36267258Y-22492500D01*
G04 #@! TO.C,U9*
X13935000Y-17020000D02*
X11985000Y-17020000D01*
X13935000Y-17020000D02*
X15885000Y-17020000D01*
X13935000Y-22140000D02*
X11985000Y-22140000D01*
X13935000Y-22140000D02*
X15885000Y-22140000D01*
X16635000Y-17115000D02*
X16395000Y-16785000D01*
X16875000Y-16785000D01*
X16635000Y-17115000D01*
G36*
X16635000Y-17115000D02*
G01*
X16395000Y-16785000D01*
X16875000Y-16785000D01*
X16635000Y-17115000D01*
G37*
G04 #@! TO.C,D1*
X167684Y-19948713D02*
X167684Y-23808713D01*
X167684Y-19948713D02*
X2167684Y-19948713D01*
X2167684Y-19948713D02*
X2167684Y-23808713D01*
G04 #@! TO.C,C8*
X27030000Y-15716267D02*
X27030000Y-15423733D01*
X28050000Y-15716267D02*
X28050000Y-15423733D01*
G04 #@! TO.C,U12*
X33810000Y-22845000D02*
X31860000Y-22845000D01*
X33810000Y-22845000D02*
X35760000Y-22845000D01*
X33810000Y-27965000D02*
X31860000Y-27965000D01*
X33810000Y-27965000D02*
X35760000Y-27965000D01*
X31350000Y-28200000D02*
X30870000Y-28200000D01*
X31110000Y-27870000D01*
X31350000Y-28200000D01*
G36*
X31350000Y-28200000D02*
G01*
X30870000Y-28200000D01*
X31110000Y-27870000D01*
X31350000Y-28200000D01*
G37*
G04 #@! TO.C,C7*
X17990000Y-28776233D02*
X17990000Y-29068767D01*
X19010000Y-28776233D02*
X19010000Y-29068767D01*
G04 #@! TO.C,C20*
X8990000Y-39345580D02*
X8990000Y-39064420D01*
X10010000Y-39345580D02*
X10010000Y-39064420D01*
G04 #@! TO.C,R8*
X11952258Y-15607500D02*
X11477742Y-15607500D01*
X11952258Y-16652500D02*
X11477742Y-16652500D01*
G04 #@! TO.C,C17*
X31613733Y-43175000D02*
X31906267Y-43175000D01*
X31613733Y-44195000D02*
X31906267Y-44195000D01*
G04 #@! TO.C,U13*
X33810000Y-37695000D02*
X31860000Y-37695000D01*
X33810000Y-37695000D02*
X35760000Y-37695000D01*
X33810000Y-42815000D02*
X31860000Y-42815000D01*
X33810000Y-42815000D02*
X35760000Y-42815000D01*
X31350000Y-43050000D02*
X30870000Y-43050000D01*
X31110000Y-42720000D01*
X31350000Y-43050000D01*
G36*
X31350000Y-43050000D02*
G01*
X30870000Y-43050000D01*
X31110000Y-42720000D01*
X31350000Y-43050000D01*
G37*
G04 #@! TO.C,L1*
X29485030Y-13920863D02*
X29485030Y-13920863D01*
X29485030Y-17219137D02*
X29485030Y-17219137D01*
X29485030Y-17219137D02*
X29564683Y-17244871D01*
X29564683Y-13895129D02*
X29485030Y-13920863D01*
X29564683Y-17244871D02*
X29645423Y-17264445D01*
X29645423Y-13875555D02*
X29564683Y-13895129D01*
X29645423Y-17264445D02*
X29728080Y-17279031D01*
X29728080Y-13860969D02*
X29645423Y-13875555D01*
X29728080Y-17279031D02*
X29811983Y-17287668D01*
X29811983Y-13852332D02*
X29728080Y-13860969D01*
X29811983Y-17287668D02*
X29891265Y-17290000D01*
X29891265Y-13850000D02*
X29811983Y-13852332D01*
X29891265Y-17290000D02*
X31397735Y-17290000D01*
X31397735Y-13850000D02*
X29891265Y-13850000D01*
X31397735Y-17290000D02*
X31477017Y-17287668D01*
X31477017Y-13852332D02*
X31397735Y-13850000D01*
X31477017Y-17287668D02*
X31560920Y-17279031D01*
X31560920Y-13860969D02*
X31477017Y-13852332D01*
X31560920Y-17279031D02*
X31643577Y-17264445D01*
X31643577Y-13875555D02*
X31560920Y-13860969D01*
X31643577Y-17264445D02*
X31724317Y-17244871D01*
X31724317Y-13895129D02*
X31643577Y-13875555D01*
X31724317Y-17244871D02*
X31803970Y-17219137D01*
X31803970Y-13920863D02*
X31724317Y-13895129D01*
X31803970Y-13920863D02*
X31803970Y-13920863D01*
X31803970Y-17219137D02*
X31803970Y-17219137D01*
D12*
X33347500Y-15570000D02*
G75*
G02*
X33147500Y-15570000I-100000J0D01*
G01*
X33147500Y-15570000D02*
G75*
G02*
X33347500Y-15570000I100000J0D01*
G01*
D11*
G04 #@! TO.C,R15*
X13722742Y-36162500D02*
X14197258Y-36162500D01*
X13722742Y-37207500D02*
X14197258Y-37207500D01*
G04 #@! TO.C,U8*
X13935000Y-2220000D02*
X11985000Y-2220000D01*
X13935000Y-2220000D02*
X15885000Y-2220000D01*
X13935000Y-7340000D02*
X11985000Y-7340000D01*
X13935000Y-7340000D02*
X15885000Y-7340000D01*
X16635000Y-2315000D02*
X16395000Y-1985000D01*
X16875000Y-1985000D01*
X16635000Y-2315000D01*
G36*
X16635000Y-2315000D02*
G01*
X16395000Y-1985000D01*
X16875000Y-1985000D01*
X16635000Y-2315000D01*
G37*
G04 #@! TO.C,C13*
X16131267Y-15620000D02*
X15838733Y-15620000D01*
X16131267Y-16640000D02*
X15838733Y-16640000D01*
G04 #@! TO.C,C18*
X17860000Y-5639420D02*
X17860000Y-5920580D01*
X18880000Y-5639420D02*
X18880000Y-5920580D01*
G04 #@! TD*
%LPC*%
D13*
G04 #@! TO.C,U6*
X-1550000Y-27165000D03*
X-2200000Y-27165000D03*
X-2850000Y-27165000D03*
X-3500000Y-27165000D03*
X-3500000Y-21440000D03*
X-2850000Y-21440000D03*
X-2200000Y-21440000D03*
X-1550000Y-21440000D03*
G04 #@! TD*
D14*
G04 #@! TO.C,C33*
X39500000Y-34250000D03*
X43000000Y-34250000D03*
G04 #@! TD*
D15*
G04 #@! TO.C,J3*
X41850000Y-22500000D03*
G04 #@! TD*
D16*
G04 #@! TO.C,H2*
X41500000Y-3500000D03*
G04 #@! TD*
D14*
G04 #@! TO.C,C24*
X7730000Y-11290000D03*
X2730000Y-11290000D03*
G04 #@! TD*
D16*
G04 #@! TO.C,H4*
X41500000Y-41500000D03*
G04 #@! TD*
G04 #@! TO.C,H1*
X3500000Y-3500000D03*
G04 #@! TD*
G04 #@! TO.C,H3*
X3500000Y-41500000D03*
G04 #@! TD*
D17*
G04 #@! TO.C,R13*
X14760000Y-8280000D03*
X13110000Y-8280000D03*
G04 #@! TD*
G04 #@! TO.C,R16*
X35152500Y-8280000D03*
X33502500Y-8280000D03*
G04 #@! TD*
D18*
G04 #@! TO.C,R18*
X35205000Y-36825000D03*
X36855000Y-36825000D03*
G04 #@! TD*
D17*
G04 #@! TO.C,R9*
X17005000Y-43570000D03*
X15355000Y-43570000D03*
G04 #@! TD*
D19*
G04 #@! TO.C,D2*
X40490000Y-13872500D03*
X40490000Y-16672500D03*
G04 #@! TD*
D20*
G04 #@! TO.C,R4*
X20000000Y-26072500D03*
X20000000Y-24247500D03*
G04 #@! TD*
D17*
G04 #@! TO.C,R7*
X12560000Y-1280000D03*
X10910000Y-1280000D03*
G04 #@! TD*
D21*
G04 #@! TO.C,U10*
X11485000Y-42040000D03*
X11485000Y-40770000D03*
X11485000Y-39500000D03*
X11485000Y-38230000D03*
X16435000Y-38230000D03*
X16435000Y-39500000D03*
X16435000Y-40770000D03*
X16435000Y-42040000D03*
G04 #@! TD*
D22*
G04 #@! TO.C,C1*
X34080000Y-14620000D03*
X34080000Y-16520000D03*
G04 #@! TD*
D23*
G04 #@! TO.C,R5*
X21462500Y-22782500D03*
X19637500Y-22782500D03*
G04 #@! TD*
D24*
G04 #@! TO.C,J1*
X3470000Y-18860000D03*
X3470000Y-19360000D03*
X3470000Y-19860000D03*
X3470000Y-20360000D03*
X3470000Y-20860000D03*
X3470000Y-21360000D03*
X3470000Y-21860000D03*
X3470000Y-22360000D03*
X3470000Y-22860000D03*
X3470000Y-23360000D03*
X3470000Y-23860000D03*
X3470000Y-24360000D03*
X3470000Y-24860000D03*
X3470000Y-25360000D03*
X3470000Y-25860000D03*
X3470000Y-26360000D03*
X3470000Y-26860000D03*
X3470000Y-27360000D03*
X3470000Y-27860000D03*
X3470000Y-28360000D03*
X3470000Y-28860000D03*
X3470000Y-29360000D03*
X3470000Y-29860000D03*
X3470000Y-30360000D03*
X3470000Y-30860000D03*
X3470000Y-31360000D03*
X3470000Y-31860000D03*
X3470000Y-32360000D03*
X3470000Y-32860000D03*
X3470000Y-33360000D03*
X3470000Y-33860000D03*
X3470000Y-34360000D03*
D25*
X6720000Y-16960000D03*
D26*
X6720000Y-36260000D03*
G04 #@! TD*
D27*
G04 #@! TO.C,C21*
X38785000Y-7990000D03*
X37235000Y-7990000D03*
G04 #@! TD*
D20*
G04 #@! TO.C,R2*
X29000000Y-12715000D03*
X29000000Y-10890000D03*
G04 #@! TD*
D28*
G04 #@! TO.C,C22*
X29365000Y-24960000D03*
X29365000Y-23410000D03*
G04 #@! TD*
D18*
G04 #@! TO.C,R11*
X35205000Y-28840000D03*
X36855000Y-28840000D03*
G04 #@! TD*
D29*
G04 #@! TO.C,C10*
X-3460000Y-17927500D03*
X-3460000Y-19652500D03*
G04 #@! TD*
D18*
G04 #@! TO.C,R12*
X35205000Y-43685000D03*
X36855000Y-43685000D03*
G04 #@! TD*
D30*
G04 #@! TO.C,C6*
X21470000Y-26022500D03*
X21470000Y-24297500D03*
G04 #@! TD*
D31*
G04 #@! TO.C,C16*
X30897500Y-28840000D03*
X32622500Y-28840000D03*
G04 #@! TD*
D22*
G04 #@! TO.C,C2*
X25060000Y-27972500D03*
X25060000Y-29872500D03*
G04 #@! TD*
D28*
G04 #@! TO.C,C23*
X29365000Y-39810000D03*
X29365000Y-38260000D03*
G04 #@! TD*
D32*
G04 #@! TO.C,L2*
X22960000Y-28922500D03*
X20354000Y-28922500D03*
G04 #@! TD*
D33*
G04 #@! TO.C,C19*
X18370000Y-19780000D03*
X18370000Y-21330000D03*
G04 #@! TD*
D34*
G04 #@! TO.C,C15*
X37240000Y-1280000D03*
X35515000Y-1280000D03*
G04 #@! TD*
D31*
G04 #@! TO.C,C14*
X11047500Y-43570000D03*
X12772500Y-43570000D03*
G04 #@! TD*
D30*
G04 #@! TO.C,C5*
X30460000Y-12662500D03*
X30460000Y-10937500D03*
G04 #@! TD*
D18*
G04 #@! TO.C,R10*
X31282500Y-1280000D03*
X32932500Y-1280000D03*
G04 #@! TD*
D23*
G04 #@! TO.C,R3*
X30642500Y-9420000D03*
X28817500Y-9420000D03*
G04 #@! TD*
D35*
G04 #@! TO.C,U11*
X36802500Y-2875000D03*
X36802500Y-4145000D03*
X36802500Y-5415000D03*
X36802500Y-6685000D03*
X31852500Y-6685000D03*
X31852500Y-5415000D03*
X31852500Y-4145000D03*
X31852500Y-2875000D03*
G04 #@! TD*
D36*
G04 #@! TO.C,FB2*
X40490000Y-12340000D03*
X40490000Y-10765000D03*
G04 #@! TD*
G04 #@! TO.C,FB1*
X1167684Y-19197500D03*
X1167684Y-17622500D03*
G04 #@! TD*
D37*
G04 #@! TO.C,U1*
X31947500Y-10662500D03*
X32897500Y-10662500D03*
X33847500Y-10662500D03*
X33847500Y-12937500D03*
X32897500Y-12937500D03*
X31947500Y-12937500D03*
G04 #@! TD*
D34*
G04 #@! TO.C,C12*
X16847500Y-1280000D03*
X15122500Y-1280000D03*
G04 #@! TD*
D17*
G04 #@! TO.C,R14*
X12560000Y-23030000D03*
X10910000Y-23030000D03*
G04 #@! TD*
D37*
G04 #@! TO.C,U2*
X22960000Y-24022500D03*
X23910000Y-24022500D03*
X24860000Y-24022500D03*
X24860000Y-26297500D03*
X23910000Y-26297500D03*
X22960000Y-26297500D03*
G04 #@! TD*
D18*
G04 #@! TO.C,R17*
X35205000Y-21970000D03*
X36855000Y-21970000D03*
G04 #@! TD*
D35*
G04 #@! TO.C,U9*
X16410000Y-17675000D03*
X16410000Y-18945000D03*
X16410000Y-20215000D03*
X16410000Y-21485000D03*
X11460000Y-21485000D03*
X11460000Y-20215000D03*
X11460000Y-18945000D03*
X11460000Y-17675000D03*
G04 #@! TD*
D19*
G04 #@! TO.C,D1*
X1167684Y-20758713D03*
X1167684Y-23558713D03*
G04 #@! TD*
D30*
G04 #@! TO.C,C8*
X27540000Y-16432500D03*
X27540000Y-14707500D03*
G04 #@! TD*
D21*
G04 #@! TO.C,U12*
X31335000Y-27310000D03*
X31335000Y-26040000D03*
X31335000Y-24770000D03*
X31335000Y-23500000D03*
X36285000Y-23500000D03*
X36285000Y-24770000D03*
X36285000Y-26040000D03*
X36285000Y-27310000D03*
G04 #@! TD*
D29*
G04 #@! TO.C,C7*
X18500000Y-28060000D03*
X18500000Y-29785000D03*
G04 #@! TD*
D28*
G04 #@! TO.C,C20*
X9500000Y-39980000D03*
X9500000Y-38430000D03*
G04 #@! TD*
D17*
G04 #@! TO.C,R8*
X12540000Y-16130000D03*
X10890000Y-16130000D03*
G04 #@! TD*
D31*
G04 #@! TO.C,C17*
X30897500Y-43685000D03*
X32622500Y-43685000D03*
G04 #@! TD*
D21*
G04 #@! TO.C,U13*
X31335000Y-42160000D03*
X31335000Y-40890000D03*
X31335000Y-39620000D03*
X31335000Y-38350000D03*
X36285000Y-38350000D03*
X36285000Y-39620000D03*
X36285000Y-40890000D03*
X36285000Y-42160000D03*
G04 #@! TD*
D32*
G04 #@! TO.C,L1*
X31947500Y-15570000D03*
X29341500Y-15570000D03*
G04 #@! TD*
D18*
G04 #@! TO.C,R15*
X13135000Y-36685000D03*
X14785000Y-36685000D03*
G04 #@! TD*
D35*
G04 #@! TO.C,U8*
X16410000Y-2875000D03*
X16410000Y-4145000D03*
X16410000Y-5415000D03*
X16410000Y-6685000D03*
X11460000Y-6685000D03*
X11460000Y-5415000D03*
X11460000Y-4145000D03*
X11460000Y-2875000D03*
G04 #@! TD*
D34*
G04 #@! TO.C,C13*
X16847500Y-16130000D03*
X15122500Y-16130000D03*
G04 #@! TD*
D33*
G04 #@! TO.C,C18*
X18370000Y-5005000D03*
X18370000Y-6555000D03*
G04 #@! TD*
%LPD*%
M02*
